<svg xmlns="http://www.w3.org/2000/svg" viewBox="0 0 131.06 128"><defs><style>.cls-1{opacity:0.3;}.cls-2{fill:#97c1ff;}.cls-3{fill:#fff;}.cls-4{fill:#eef6ff;}.cls-5{fill:#6d6daa;}.cls-6{fill:#8d96b8;}.cls-7{fill:#939fc6;}.cls-8{fill:#96d7ff;}.cls-9{fill:#ff9797;}.cls-10{fill:#b1f1a8;}.cls-11{fill:#c9c1f5;}.cls-12{fill:#d4edff;}.cls-13{fill:#d6b5b0;}.cls-14{fill:#7690a8;}.cls-15{fill:#c7e9ff;}.cls-16{fill:#1c64ba;}.cls-17{fill:#9eb2cc;}.cls-18{opacity:0.5;}</style></defs><title>commercial</title><g id="Layer_2" data-name="Layer 2"><g id="Artwork"><g class="cls-1"><path class="cls-2" d="M1.85,45.77a30.73,30.73,0,0,1,24.08-25.6,20.15,20.15,0,0,0,11.2-6.75A37.89,37.89,0,0,1,103,29.48,20,20,0,0,0,113.66,43,28.67,28.67,0,1,1,75.09,81.2a9.62,9.62,0,0,0-8.71-5.42h-.85a12.7,12.7,0,0,0-12.29,10,20.47,20.47,0,0,1-24.72,15.08,18,18,0,0,1-2-.6A20.48,20.48,0,0,1,12.83,81.92,21.88,21.88,0,0,0,8.19,69.28,30.67,30.67,0,0,1,1.85,45.77Z"/><path class="cls-3" d="M45.05,11.27a1.14,1.14,0,0,1-.4-.08,1,1,0,0,1-.32-.22,1,1,0,0,1-.23-.33,1,1,0,0,1,.55-1.34,1,1,0,0,1,1.12.22A1,1,0,0,1,46,10.64a.87.87,0,0,1-.22.33A1,1,0,0,1,45.05,11.27Z"/><path class="cls-3" d="M57.34,15.37H51.2a1,1,0,1,1,0-2h6.14a1,1,0,0,1,0,2Z"/><path class="cls-3" d="M64.51,11.27H49.15a1,1,0,1,1,0-2H64.51a1,1,0,0,1,0,2Z"/><path class="cls-3" d="M54.27,19.46H47.1a1,1,0,0,1,0-2h7.17a1,1,0,0,1,0,2Z"/><path class="cls-3" d="M47.1,15.37H43a1,1,0,0,1,0-2h4.1a1,1,0,0,1,0,2Z"/><path class="cls-3" d="M45.05,11.27a1.14,1.14,0,0,1-.4-.08,1,1,0,0,1-.32-.22,1,1,0,0,1-.23-.33,1,1,0,0,1,.55-1.34,1,1,0,0,1,1.12.22A1,1,0,0,1,46,10.64a.87.87,0,0,1-.22.33A1,1,0,0,1,45.05,11.27Z"/><path class="cls-3" d="M57.34,15.37H51.2a1,1,0,1,1,0-2h6.14a1,1,0,0,1,0,2Z"/><path class="cls-3" d="M64.51,11.27H49.15a1,1,0,1,1,0-2H64.51a1,1,0,0,1,0,2Z"/><path class="cls-3" d="M54.27,19.46H47.1a1,1,0,0,1,0-2h7.17a1,1,0,0,1,0,2Z"/><path class="cls-3" d="M47.1,15.37H43a1,1,0,0,1,0-2h4.1a1,1,0,0,1,0,2Z"/><rect class="cls-4" x="16.38" y="79.88" width="4.1" height="4.1"/><path class="cls-5" d="M20.48,85h-4.1a1,1,0,0,1-1-1V79.88a1,1,0,0,1,1-1h4.1a1,1,0,0,1,1,1V84A1,1,0,0,1,20.48,85Zm-3.07-2h2v-2h-2Z"/><rect class="cls-4" x="16.38" y="69.64" width="4.1" height="4.1"/><path class="cls-5" d="M20.48,74.76h-4.1a1,1,0,0,1-1-1V69.64a1,1,0,0,1,1-1h4.1a1,1,0,0,1,1,1v4.09A1,1,0,0,1,20.48,74.76Zm-3.07-2.05h2v-2h-2Z"/><rect class="cls-4" x="16.38" y="59.4" width="4.1" height="4.1"/><path class="cls-5" d="M20.48,64.52h-4.1a1,1,0,0,1-1-1V59.4a1,1,0,0,1,1-1h4.1a1,1,0,0,1,1,1v4.09A1,1,0,0,1,20.48,64.52Zm-3.07-2h2v-2h-2Z"/><rect class="cls-4" x="16.38" y="49.16" width="4.1" height="4.1"/><path class="cls-5" d="M20.48,54.28h-4.1a1,1,0,0,1-1-1V49.16a1,1,0,0,1,1-1h4.1a1,1,0,0,1,1,1v4.09A1,1,0,0,1,20.48,54.28Zm-3.07-2.05h2v-2h-2Z"/><rect class="cls-4" x="16.38" y="38.92" width="4.1" height="4.1"/><path class="cls-5" d="M20.48,44h-4.1a1,1,0,0,1-1-1V38.92a1,1,0,0,1,1-1h4.1a1,1,0,0,1,1,1V43A1,1,0,0,1,20.48,44Zm-3.07-2h2V39.94h-2Z"/><rect class="cls-4" x="16.38" y="100.35" width="4.1" height="4.1"/><path class="cls-5" d="M20.48,105.47h-4.1a1,1,0,0,1-1-1v-4.1a1,1,0,0,1,1-1h4.1a1,1,0,0,1,1,1v4.1A1,1,0,0,1,20.48,105.47Zm-3.07-2h2v-2.05h-2Z"/><rect class="cls-4" x="16.38" y="90.11" width="4.1" height="4.1"/><path class="cls-5" d="M20.48,95.23h-4.1a1,1,0,0,1-1-1v-4.1a1,1,0,0,1,1-1h4.1a1,1,0,0,1,1,1v4.1A1,1,0,0,1,20.48,95.23Zm-3.07-2h2v-2h-2Z"/><path class="cls-5" d="M71.67,110.59a1,1,0,0,1-1-1V33.8a1,1,0,0,1,2,0v75.77A1,1,0,0,1,71.67,110.59Z"/><path class="cls-5" d="M71.67,76.8H65.53a1,1,0,0,1,0-2h6.14a1,1,0,1,1,0,2Z"/><path class="cls-5" d="M71.67,72.71H65.53a1,1,0,0,1,0-2h6.14a1,1,0,1,1,0,2Z"/><path class="cls-5" d="M71.67,80.9H65.53a1,1,0,0,1,0-2.05h6.14a1,1,0,1,1,0,2.05Z"/><path class="cls-5" d="M71.67,64.52H65.53a1,1,0,0,1,0-2h6.14a1,1,0,1,1,0,2Z"/><path class="cls-5" d="M71.67,60.42H65.53a1,1,0,0,1,0-2.05h6.14a1,1,0,1,1,0,2.05Z"/><path class="cls-5" d="M71.67,68.61H65.53a1,1,0,0,1,0-2h6.14a1,1,0,1,1,0,2Z"/><path class="cls-5" d="M71.67,52.23H65.53a1,1,0,0,1,0-2h6.14a1,1,0,1,1,0,2Z"/><path class="cls-5" d="M71.67,48.13H65.53a1,1,0,1,1,0-2h6.14a1,1,0,1,1,0,2Z"/><path class="cls-5" d="M71.67,56.33H65.53a1,1,0,0,1,0-2h6.14a1,1,0,1,1,0,2Z"/><path class="cls-5" d="M71.67,39.94H65.53a1,1,0,0,1,0-2h6.14a1,1,0,1,1,0,2Z"/><path class="cls-5" d="M71.67,35.85H65.53a1,1,0,0,1,0-2.05h6.14a1,1,0,1,1,0,2.05Z"/><path class="cls-5" d="M71.67,44H65.53a1,1,0,0,1,0-2h6.14a1,1,0,1,1,0,2Z"/><path class="cls-5" d="M71.67,85H65.53a1,1,0,0,1,0-2h6.14a1,1,0,1,1,0,2Z"/><path class="cls-5" d="M71.67,89.09H65.53a1,1,0,0,1,0-2h6.14a1,1,0,1,1,0,2Z"/><path class="cls-5" d="M71.67,93.19H65.53a1,1,0,0,1,0-2h6.14a1,1,0,1,1,0,2Z"/><path class="cls-5" d="M71.67,97.28H65.53a1,1,0,0,1,0-2h6.14a1,1,0,1,1,0,2Z"/><path class="cls-5" d="M71.67,101.38H65.53a1,1,0,0,1,0-2h6.14a1,1,0,1,1,0,2Z"/><path class="cls-5" d="M71.67,105.47H65.53a1,1,0,0,1,0-2h6.14a1,1,0,1,1,0,2Z"/><path class="cls-5" d="M71.67,109.57H65.53a1,1,0,0,1,0-2h6.14a1,1,0,1,1,0,2Z"/><rect class="cls-6" x="20.48" y="24.58" width="45.05" height="4.09"/><path class="cls-5" d="M65.53,29.7h-45a1,1,0,0,1-1-1v-4.1a1,1,0,0,1,1-1H65.53a1,1,0,0,1,1,1v4.1A1,1,0,0,1,65.53,29.7Zm-44-2h43V25.61h-43Z"/><rect class="cls-4" x="20.48" y="28.68" width="45.05" height="88.06"/><path class="cls-5" d="M65.53,117.76h-45a1,1,0,0,1-1-1V28.68a1,1,0,0,1,1-1H65.53a1,1,0,0,1,1,1v88.06A1,1,0,0,1,65.53,117.76Zm-44-2.05h43v-86h-43Z"/><rect class="cls-7" x="51.2" y="106.5" width="8.19" height="10.24"/><path class="cls-5" d="M59.39,117.76H51.2a1,1,0,0,1-1-1V106.5a1,1,0,0,1,1-1h8.19a1,1,0,0,1,1,1v10.24A1,1,0,0,1,59.39,117.76Zm-7.17-2.05h6.14v-8.19H52.22Z"/><rect class="cls-8" x="26.62" y="106.5" width="20.48" height="6.14"/><path class="cls-5" d="M47.1,113.67H26.62a1,1,0,0,1-1-1V106.5a1,1,0,0,1,1-1H47.1a1,1,0,0,1,1,1v6.14A1,1,0,0,1,47.1,113.67Zm-19.45-2H46.08v-4.1H27.65Z"/><rect class="cls-8" x="26.62" y="96.26" width="10.24" height="6.14"/><path class="cls-5" d="M36.86,103.43H26.62a1,1,0,0,1-1-1V96.26a1,1,0,0,1,1-1H36.86a1,1,0,0,1,1,1v6.14A1,1,0,0,1,36.86,103.43Zm-9.21-2.05h8.19v-4.1H27.65Z"/><path class="cls-5" d="M31.74,103.43a1,1,0,0,1-1-1V96.26a1,1,0,1,1,2.05,0v6.14A1,1,0,0,1,31.74,103.43Z"/><rect class="cls-8" x="26.62" y="86.02" width="10.24" height="6.14"/><path class="cls-5" d="M36.86,93.19H26.62a1,1,0,0,1-1-1V86a1,1,0,0,1,1-1H36.86a1,1,0,0,1,1,1v6.14A1,1,0,0,1,36.86,93.19Zm-9.21-2h8.19V87H27.65Z"/><path class="cls-5" d="M31.74,93.19a1,1,0,0,1-1-1V86a1,1,0,0,1,2.05,0v6.14A1,1,0,0,1,31.74,93.19Z"/><rect class="cls-8" x="26.62" y="75.78" width="10.24" height="6.14"/><path class="cls-5" d="M36.86,83H26.62a1,1,0,0,1-1-1V75.78a1,1,0,0,1,1-1H36.86a1,1,0,0,1,1,1v6.14A1,1,0,0,1,36.86,83Zm-9.21-2h8.19V76.8H27.65Z"/><path class="cls-5" d="M31.74,83a1,1,0,0,1-1-1V75.78a1,1,0,0,1,2.05,0v6.14A1,1,0,0,1,31.74,83Z"/><rect class="cls-8" x="26.62" y="65.54" width="10.24" height="6.14"/><path class="cls-5" d="M36.86,72.71H26.62a1,1,0,0,1-1-1V65.54a1,1,0,0,1,1-1H36.86a1,1,0,0,1,1,1v6.14A1,1,0,0,1,36.86,72.71Zm-9.21-2h8.19v-4.1H27.65Z"/><path class="cls-5" d="M31.74,72.71a1,1,0,0,1-1-1V65.54a1,1,0,0,1,2.05,0v6.14A1,1,0,0,1,31.74,72.71Z"/><rect class="cls-8" x="49.15" y="96.26" width="10.24" height="6.14"/><path class="cls-5" d="M59.39,103.43H49.15a1,1,0,0,1-1-1V96.26a1,1,0,0,1,1-1H59.39a1,1,0,0,1,1,1v6.14A1,1,0,0,1,59.39,103.43Zm-9.22-2.05h8.19v-4.1H50.17Z"/><path class="cls-5" d="M54.27,103.43a1,1,0,0,1-1-1V96.26a1,1,0,1,1,2,0v6.14A1,1,0,0,1,54.27,103.43Z"/><rect class="cls-8" x="49.15" y="86.02" width="10.24" height="6.14"/><path class="cls-5" d="M59.39,93.19H49.15a1,1,0,0,1-1-1V86a1,1,0,0,1,1-1H59.39a1,1,0,0,1,1,1v6.14A1,1,0,0,1,59.39,93.19Zm-9.22-2h8.19V87H50.17Z"/><path class="cls-5" d="M54.27,93.19a1,1,0,0,1-1-1V86a1,1,0,0,1,2,0v6.14A1,1,0,0,1,54.27,93.19Z"/><rect class="cls-8" x="49.15" y="75.78" width="10.24" height="6.14"/><path class="cls-5" d="M59.39,83H49.15a1,1,0,0,1-1-1V75.78a1,1,0,0,1,1-1H59.39a1,1,0,0,1,1,1v6.14A1,1,0,0,1,59.39,83Zm-9.22-2h8.19V76.8H50.17Z"/><path class="cls-5" d="M54.27,83a1,1,0,0,1-1-1V75.78a1,1,0,0,1,2,0v6.14A1,1,0,0,1,54.27,83Z"/><rect class="cls-8" x="49.15" y="65.54" width="10.24" height="6.14"/><path class="cls-5" d="M59.39,72.71H49.15a1,1,0,0,1-1-1V65.54a1,1,0,0,1,1-1H59.39a1,1,0,0,1,1,1v6.14A1,1,0,0,1,59.39,72.71Zm-9.22-2h8.19v-4.1H50.17Z"/><path class="cls-5" d="M54.27,72.71a1,1,0,0,1-1-1V65.54a1,1,0,0,1,2,0v6.14A1,1,0,0,1,54.27,72.71Z"/><rect class="cls-8" x="26.62" y="55.3" width="10.24" height="6.14"/><path class="cls-5" d="M36.86,62.47H26.62a1,1,0,0,1-1-1V55.3a1,1,0,0,1,1-1H36.86a1,1,0,0,1,1,1v6.15A1,1,0,0,1,36.86,62.47Zm-9.21-2h8.19V56.33H27.65Z"/><path class="cls-5" d="M31.74,62.47a1,1,0,0,1-1-1V55.3a1,1,0,0,1,2.05,0v6.15A1,1,0,0,1,31.74,62.47Z"/><rect class="cls-8" x="49.15" y="55.3" width="10.24" height="6.14"/><path class="cls-5" d="M59.39,62.47H49.15a1,1,0,0,1-1-1V55.3a1,1,0,0,1,1-1H59.39a1,1,0,0,1,1,1v6.15A1,1,0,0,1,59.39,62.47Zm-9.22-2h8.19V56.33H50.17Z"/><path class="cls-5" d="M54.27,62.47a1,1,0,0,1-1-1V55.3a1,1,0,0,1,2,0v6.15A1,1,0,0,1,54.27,62.47Z"/><rect class="cls-8" x="26.62" y="45.06" width="10.24" height="6.14"/><path class="cls-5" d="M36.86,52.23H26.62a1,1,0,0,1-1-1V45.06a1,1,0,0,1,1-1H36.86a1,1,0,0,1,1,1v6.15A1,1,0,0,1,36.86,52.23Zm-9.21-2h8.19V46.09H27.65Z"/><path class="cls-5" d="M31.74,52.23a1,1,0,0,1-1-1V45.06a1,1,0,0,1,2.05,0v6.15A1,1,0,0,1,31.74,52.23Z"/><rect class="cls-8" x="49.15" y="45.06" width="10.24" height="6.14"/><path class="cls-5" d="M59.39,52.23H49.15a1,1,0,0,1-1-1V45.06a1,1,0,0,1,1-1H59.39a1,1,0,0,1,1,1v6.15A1,1,0,0,1,59.39,52.23Zm-9.22-2h8.19V46.09H50.17Z"/><path class="cls-5" d="M54.27,52.23a1,1,0,0,1-1-1V45.06a1,1,0,0,1,2,0v6.15A1,1,0,0,1,54.27,52.23Z"/><rect class="cls-8" x="26.62" y="34.82" width="10.24" height="6.14"/><path class="cls-5" d="M36.86,42H26.62a1,1,0,0,1-1-1V34.82a1,1,0,0,1,1-1H36.86a1,1,0,0,1,1,1V41A1,1,0,0,1,36.86,42Zm-9.21-2.05h8.19V35.85H27.65Z"/><path class="cls-5" d="M31.74,42a1,1,0,0,1-1-1V34.82a1,1,0,0,1,2.05,0V41A1,1,0,0,1,31.74,42Z"/><rect class="cls-8" x="49.15" y="34.82" width="10.24" height="6.14"/><path class="cls-5" d="M59.39,42H49.15a1,1,0,0,1-1-1V34.82a1,1,0,0,1,1-1H59.39a1,1,0,0,1,1,1V41A1,1,0,0,1,59.39,42Zm-9.22-2.05h8.19V35.85H50.17Z"/><path class="cls-5" d="M54.27,42a1,1,0,0,1-1-1V34.82a1,1,0,0,1,2,0V41A1,1,0,0,1,54.27,42Z"/><rect class="cls-2" x="40.96" y="34.82" width="4.1" height="67.58"/><path class="cls-5" d="M45.05,103.43H41a1,1,0,0,1-1-1V34.82a1,1,0,0,1,1-1h4.09a1,1,0,0,1,1,1V102.4A1,1,0,0,1,45.05,103.43ZM42,101.38H44V35.85H42Z"/><path class="cls-5" d="M45.05,95.23H41a1,1,0,1,1,0-2h4.09a1,1,0,1,1,0,2Z"/><path class="cls-5" d="M45.05,85H41a1,1,0,1,1,0-2h4.09a1,1,0,1,1,0,2Z"/><path class="cls-5" d="M45.05,74.76H41a1,1,0,1,1,0-2.05h4.09a1,1,0,1,1,0,2.05Z"/><path class="cls-5" d="M45.05,64.52H41a1,1,0,1,1,0-2h4.09a1,1,0,1,1,0,2Z"/><path class="cls-5" d="M45.05,54.28H41a1,1,0,1,1,0-2.05h4.09a1,1,0,1,1,0,2.05Z"/><path class="cls-5" d="M45.05,44H41a1,1,0,1,1,0-2h4.09a1,1,0,1,1,0,2Z"/><path class="cls-5" d="M65.53,29.7h-45a1,1,0,1,1,0-2H65.53a1,1,0,0,1,0,2Z"/><path class="cls-5" d="M67.58,25.61H18.43a1,1,0,0,1,0-2.05H67.58a1,1,0,0,1,0,2.05Z"/><rect class="cls-2" x="5.12" y="59.43" width="51.2" height="14.33"/><path class="cls-5" d="M56.32,74.76H5.12a1,1,0,0,1-1-1V59.4a1,1,0,0,1,1-1h51.2a1,1,0,0,1,1,1V73.73A1,1,0,0,1,56.32,74.76ZM6.14,72.71H55.29V60.42H6.14Z"/><polygon class="cls-4" points="52.22 77.86 52.22 75.81 30.72 61.96 9.21 75.81 9.21 77.86 7.17 77.86 7.17 116.77 54.27 116.77 54.27 110.94 54.27 84.43 54.27 77.86 52.22 77.86"/><path class="cls-5" d="M54.27,117.76H7.17a1,1,0,0,1-1-1V77.83a1,1,0,0,1,1-1h1v-1a1,1,0,0,1,.47-.86l21.5-13.85a1,1,0,0,1,1.11,0l21.5,13.85a1,1,0,0,1,.47.86v1h1a1,1,0,0,1,1,1v38.91A1,1,0,0,1,54.27,117.76ZM8.19,115.71H53.24V78.85h-1a1,1,0,0,1-1-1V76.37L30.72,63.18,10.24,76.37v1.46a1,1,0,0,1-1,1h-1Z"/><rect class="cls-8" x="13.31" y="100.38" width="18.43" height="12.29"/><path class="cls-5" d="M31.74,113.67H13.31a1,1,0,0,1-1-1V100.35a1,1,0,0,1,1-1H31.74a1,1,0,0,1,1,1v12.29A1,1,0,0,1,31.74,113.67Zm-17.41-2H30.72V101.38H14.33Z"/><rect class="cls-8" x="13.31" y="81.95" width="6.14" height="8.19"/><path class="cls-5" d="M19.45,91.14H13.31a1,1,0,0,1-1-1V81.92a1,1,0,0,1,1-1h6.14a1,1,0,0,1,1,1v8.19A1,1,0,0,1,19.45,91.14Zm-5.12-2h4.1V83h-4.1Z"/><polygon class="cls-9" points="50.17 69.67 50.17 60.45 44.03 60.45 44.03 65.9 50.17 69.67"/><path class="cls-5" d="M50.17,70.66a1,1,0,0,1-.53-.15L43.5,66.74a1.05,1.05,0,0,1-.5-.87V60.42a1,1,0,0,1,1-1h6.14a1,1,0,0,1,1,1v9.22A1,1,0,0,1,50.17,70.66ZM45.05,65.3l4.1,2.5V61.45h-4.1Z"/><rect class="cls-9" x="43" y="57.38" width="8.19" height="3.07"/><path class="cls-5" d="M51.2,61.45H43a1,1,0,0,1-1-1V57.35a1,1,0,0,1,1-1h8.2a1,1,0,0,1,1,1v3.07A1,1,0,0,1,51.2,61.45ZM44,59.4h6.14v-1H44Z"/><path class="cls-5" d="M22.53,113.67a1,1,0,0,1-1-1V100.35a1,1,0,0,1,2.05,0v12.29A1,1,0,0,1,22.53,113.67Z"/><path class="cls-5" d="M32.77,113.67H12.29a1,1,0,1,1,0-2H32.77a1,1,0,0,1,0,2Z"/><rect class="cls-9" x="37.89" y="100.38" width="10.24" height="13.31"/><path class="cls-5" d="M48.12,114.69H37.89a1,1,0,0,1-1-1V100.35a1,1,0,0,1,1-1H48.12a1,1,0,0,1,1,1v13.32A1,1,0,0,1,48.12,114.69Zm-9.21-2H47.1V101.38H38.91Z"/><path class="cls-5" d="M39.93,108.55h-2a1,1,0,1,1,0-2h2a1,1,0,1,1,0,2Z"/><rect class="cls-7" x="36.86" y="113.7" width="12.29" height="3.07"/><path class="cls-5" d="M49.15,117.76H36.86a1,1,0,0,1-1-1v-3.07a1,1,0,0,1,1-1H49.15a1,1,0,0,1,1,1v3.07A1,1,0,0,1,49.15,117.76Zm-11.26-2.05H48.12v-1H37.89Z"/><rect class="cls-8" x="41.98" y="81.95" width="6.14" height="8.19"/><path class="cls-5" d="M48.12,91.14H42a1,1,0,0,1-1-1V81.92a1,1,0,0,1,1-1h6.14a1,1,0,0,1,1,1v8.19A1,1,0,0,1,48.12,91.14Zm-5.12-2h4.1V83H43Z"/><path class="cls-5" d="M20.48,91.14H12.29a1,1,0,1,1,0-2h8.19a1,1,0,0,1,0,2Z"/><rect class="cls-8" x="27.65" y="81.95" width="6.14" height="8.19"/><path class="cls-5" d="M33.79,91.14H27.65a1,1,0,0,1-1-1V81.92a1,1,0,0,1,1-1h6.14a1,1,0,0,1,1,1v8.19A1,1,0,0,1,33.79,91.14Zm-5.12-2h4.1V83h-4.1Z"/><path class="cls-5" d="M19.45,87H13.31a1,1,0,0,1,0-2h6.14a1,1,0,1,1,0,2Z"/><path class="cls-5" d="M33.79,87H27.65a1,1,0,1,1,0-2h6.14a1,1,0,1,1,0,2Z"/><path class="cls-5" d="M48.12,87H42a1,1,0,0,1,0-2h6.14a1,1,0,1,1,0,2Z"/><path class="cls-5" d="M49.15,91.14H41a1,1,0,1,1,0-2h8.19a1,1,0,0,1,0,2Z"/><path class="cls-5" d="M34.81,91.14H26.62a1,1,0,0,1,0-2h8.19a1,1,0,1,1,0,2Z"/><path class="cls-8" d="M27.65,73.73V70.66a3.06,3.06,0,0,1,3.07-3.07h0a3.07,3.07,0,0,1,3.07,3.07v3.07Z"/><path class="cls-5" d="M33.79,74.76H27.65a1,1,0,0,1-1-1V70.66a4.1,4.1,0,1,1,8.19,0v3.07A1,1,0,0,1,33.79,74.76Zm-5.12-2.05h4.1v-2a2,2,0,0,0-4.1,0Z"/><path class="cls-5" d="M34.81,74.76H26.62a1,1,0,0,1,0-2.05h8.19a1,1,0,1,1,0,2.05Z"/><path class="cls-5" d="M54.27,97.28H8.19a1,1,0,0,1,0-2H54.27a1,1,0,0,1,0,2Z"/><path class="cls-5" d="M54.27,78.85H8.19a1,1,0,0,1,0-2H54.27a1,1,0,0,1,0,2Z"/><polygon class="cls-2" points="52.22 77.86 52.22 75.81 30.72 61.96 9.21 75.81 9.21 77.86 5.12 77.86 5.12 73.76 30.72 57.38 56.32 73.76 56.32 77.86 52.22 77.86"/><path class="cls-5" d="M56.32,78.85h-4.1a1,1,0,0,1-1-1V76.37L30.72,63.18,10.24,76.37v1.46a1,1,0,0,1-1,1H5.12a1,1,0,0,1-1-1v-4.1a1,1,0,0,1,.47-.86L30.16,56.49a1,1,0,0,1,1.11,0l25.6,16.38a1,1,0,0,1,.47.86v4.1A1,1,0,0,1,56.32,78.85Zm-3.08-2h2V74.33L30.72,58.6,6.14,74.33V76.8H8.19v-1a1,1,0,0,1,.47-.86l21.5-13.85a1,1,0,0,1,1.11,0l21.5,13.85a1,1,0,0,1,.47.86Z"/><path class="cls-10" d="M22.53,112.64a3,3,0,0,0-1.15.23,3.07,3.07,0,0,0-3.77-2.16,3,3,0,0,0-.91.42,5.12,5.12,0,0,0-7-1.88,5.07,5.07,0,0,0-2.14,2.41H7.16a4.1,4.1,0,0,0-4.1,4.09v1H25.6v-1a3.08,3.08,0,0,0-3-3.11Z"/><path class="cls-5" d="M25.6,117.76H3.07a1,1,0,0,1-1-1v-1A5.12,5.12,0,0,1,7,110.59a6.15,6.15,0,0,1,8.4-2.22A6.23,6.23,0,0,1,17,109.8,4.09,4.09,0,0,1,22,111.65a5,5,0,0,1,.55,0,4.09,4.09,0,0,1,4.09,4.09v1A1,1,0,0,1,25.6,117.76ZM4.1,115.71H24.57a2,2,0,0,0-2.05-2,1.93,1.93,0,0,0-.75.15,1,1,0,0,1-1.33-.57.56.56,0,0,1,0-.12,2,2,0,0,0-2.53-1.41,2.27,2.27,0,0,0-.55.25,1,1,0,0,1-1.42-.28l0-.06a4.11,4.11,0,0,0-7.34.43,1,1,0,0,1-1,.61H7.32l-.15,0A3.07,3.07,0,0,0,4.1,115.71Z"/><path class="cls-5" d="M13.42,113.79a1,1,0,0,1-.6-.21.86.86,0,0,0-1.14-.11,1,1,0,0,1-1.38-.42,1,1,0,0,1,.3-1.31,2.87,2.87,0,0,1,3.45.2,1,1,0,0,1,.2,1.44,1,1,0,0,1-.82.41Z"/><rect class="cls-11" x="81.91" y="10.28" width="26.62" height="4.1"/><path class="cls-5" d="M108.54,15.37H81.91a1,1,0,0,1-1-1V10.25a1,1,0,0,1,1-1h26.63a1,1,0,0,1,1,1v4.09A1,1,0,0,1,108.54,15.37Zm-25.6-2h24.57V11.27H82.94Z"/><rect class="cls-4" x="65.53" y="88.1" width="4.1" height="28.67"/><path class="cls-5" d="M69.63,117.76h-4.1a1,1,0,0,1-1-1V88.07a1,1,0,0,1,1-1h4.1a1,1,0,0,1,1,1v28.67A1,1,0,0,1,69.63,117.76Zm-3.08-2.05h2V89.09h-2Z"/><rect class="cls-12" x="69.63" y="88.1" width="6.14" height="28.67"/><path class="cls-5" d="M75.77,117.76H69.63a1,1,0,0,1-1-1V88.07a1,1,0,0,1,1-1h6.14a1,1,0,0,1,1,1v28.67A1,1,0,0,1,75.77,117.76Zm-5.12-2.05h4.1V89.09h-4.1Z"/><rect class="cls-4" x="120.82" y="88.1" width="4.1" height="28.67"/><path class="cls-5" d="M124.92,117.76h-4.1a1,1,0,0,1-1-1V88.07a1,1,0,0,1,1-1h4.1a1,1,0,0,1,1,1v28.67A1,1,0,0,1,124.92,117.76Zm-3.07-2.05h2V89.09h-2Z"/><rect class="cls-12" x="114.68" y="88.1" width="6.14" height="28.67"/><path class="cls-5" d="M120.82,117.76h-6.14a1,1,0,0,1-1-1V88.07a1,1,0,0,1,1-1h6.14a1,1,0,0,1,1,1v28.67A1,1,0,0,1,120.82,117.76Zm-5.12-2.05h4.1V89.09h-4.1Z"/><rect class="cls-4" x="75.77" y="14.38" width="38.91" height="102.39"/><path class="cls-5" d="M114.68,117.76H75.77a1,1,0,0,1-1-1V14.34a1,1,0,0,1,1-1h38.91a1,1,0,0,1,1,1v102.4A1,1,0,0,1,114.68,117.76Zm-37.89-2.05h36.87V15.37H76.79Z"/><rect class="cls-8" x="79.87" y="18.47" width="30.72" height="81.91"/><path class="cls-5" d="M110.58,101.38H79.87a1,1,0,0,1-1-1V18.44a1,1,0,0,1,1-1h30.71a1,1,0,0,1,1,1v81.91A1,1,0,0,1,110.58,101.38Zm-29.69-2h28.67V19.46H80.89Z"/><rect class="cls-12" x="79.87" y="100.38" width="30.72" height="16.38"/><path class="cls-5" d="M110.58,117.76H79.87a1,1,0,0,1-1-1V100.35a1,1,0,0,1,1-1h30.71a1,1,0,0,1,1,1v16.39A1,1,0,0,1,110.58,117.76Zm-29.69-2.05h28.67V101.38H80.89Z"/><path class="cls-5" d="M104.44,101.38a1,1,0,0,1-1-1V18.44a1,1,0,1,1,2,0v81.91A1,1,0,0,1,104.44,101.38Z"/><path class="cls-5" d="M98.3,101.38a1,1,0,0,1-1-1V18.44a1,1,0,0,1,2,0v81.91A1,1,0,0,1,98.3,101.38Z"/><path class="cls-5" d="M92.15,101.38a1,1,0,0,1-1-1V18.44a1,1,0,0,1,2.05,0v81.91A1,1,0,0,1,92.15,101.38Z"/><path class="cls-5" d="M95.22,11.27a1,1,0,0,1-1-1V6.15a1,1,0,0,1,2,0v4.1A1,1,0,0,1,95.22,11.27Z"/><rect class="cls-7" x="65.53" y="112.67" width="10.24" height="4.1"/><path class="cls-5" d="M75.77,117.76H65.53a1,1,0,0,1-1-1v-4.1a1,1,0,0,1,1-1H75.77a1,1,0,0,1,1,1v4.1A1,1,0,0,1,75.77,117.76Zm-9.22-2.05h8.2v-2h-8.2Z"/><path class="cls-5" d="M86,101.38a1,1,0,0,1-1-1V18.44a1,1,0,0,1,2,0v81.91A1,1,0,0,1,86,101.38Z"/><path class="cls-5" d="M88.06,117.76a1,1,0,0,1-1-1V100.35a1,1,0,0,1,2,0v16.39A1,1,0,0,1,88.06,117.76Z"/><path class="cls-5" d="M102.39,117.76a1,1,0,0,1-1-1V100.35a1,1,0,0,1,2,0v16.39A1,1,0,0,1,102.39,117.76Z"/><path class="cls-5" d="M95.22,117.76a1,1,0,0,1-1-1V100.35a1,1,0,0,1,2,0v16.39A1,1,0,0,1,95.22,117.76Z"/><path class="cls-5" d="M110.58,80.9H79.87a1,1,0,1,1,0-2.05h30.71a1,1,0,1,1,0,2.05Z"/><path class="cls-5" d="M110.58,91.14H79.87a1,1,0,1,1,0-2h30.71a1,1,0,1,1,0,2Z"/><path class="cls-5" d="M110.58,50.18H79.87a1,1,0,1,1,0-2h30.71a1,1,0,1,1,0,2Z"/><path class="cls-5" d="M110.58,60.42H79.87a1,1,0,1,1,0-2.05h30.71a1,1,0,1,1,0,2.05Z"/><path class="cls-5" d="M110.58,70.66H79.87a1,1,0,1,1,0-2h30.71a1,1,0,1,1,0,2Z"/><path class="cls-5" d="M110.58,29.7H79.87a1,1,0,1,1,0-2h30.71a1,1,0,1,1,0,2Z"/><path class="cls-5" d="M110.58,39.94H79.87a1,1,0,1,1,0-2h30.71a1,1,0,1,1,0,2Z"/><path class="cls-5" d="M110.58,101.38H79.87a1,1,0,1,1,0-2h30.71a1,1,0,1,1,0,2Z"/><path class="cls-5" d="M120.82,113.67a1,1,0,0,1-1-1V92.16a1,1,0,0,1,2,0v20.48A1,1,0,0,1,120.82,113.67Z"/><rect class="cls-7" x="114.68" y="112.67" width="10.24" height="4.1"/><path class="cls-5" d="M124.92,117.76H114.68a1,1,0,0,1-1-1v-4.1a1,1,0,0,1,1-1h10.24a1,1,0,0,1,1,1v4.1A1,1,0,0,1,124.92,117.76Zm-9.22-2.05h8.19v-2H115.7Z"/><rect class="cls-11" x="114.68" y="88.1" width="10.24" height="4.1"/><path class="cls-5" d="M124.92,93.19H114.68a1,1,0,0,1-1-1V88.07a1,1,0,0,1,1-1h10.24a1,1,0,0,1,1,1v4.09A1,1,0,0,1,124.92,93.19Zm-9.22-2h8.19v-2H115.7Z"/><rect class="cls-11" x="65.53" y="88.1" width="10.24" height="4.1"/><path class="cls-5" d="M75.77,93.19H65.53a1,1,0,0,1-1-1V88.07a1,1,0,0,1,1-1H75.77a1,1,0,0,1,1,1v4.09A1,1,0,0,1,75.77,93.19Zm-9.22-2h8.2v-2h-8.2Z"/><path class="cls-5" d="M115.8,117.68a1,1,0,0,1-1-1v-8.19a1,1,0,0,1,2,0v8.19A1,1,0,0,1,115.8,117.68Z"/><path class="cls-10" d="M121.94,102.83a6.15,6.15,0,1,1-12.29,0c0-3.07,2.76-16.89,6.15-16.89S121.94,99.72,121.94,102.83Z"/><path class="cls-5" d="M115.8,109.49a6.93,6.93,0,0,1-7.17-6.66c0-2,2.39-17.92,7.17-17.92S123,100.84,123,102.83A6.93,6.93,0,0,1,115.8,109.49Zm0-22.53c-2,0-5.12,12.07-5.12,15.87a5.12,5.12,0,1,0,10.23,0C120.91,99,117.86,87,115.8,87Z"/><path class="cls-5" d="M114.48,105.25a1,1,0,0,1-.25,0,2.86,2.86,0,0,1-2.23-2.63,1,1,0,1,1,2-.26c.09.63.32.81.71.9a1,1,0,0,1-.24,2Z"/><path class="cls-5" d="M116.84,95.61a1,1,0,0,1-.85-.45c-.36-.52-.65-.57-1-.49a1,1,0,0,1-.45-2A2.88,2.88,0,0,1,117.7,94a1,1,0,0,1-.85,1.6Z"/><path class="cls-10" d="M65.67,112.82a3.08,3.08,0,0,1,3.84-2,3,3,0,0,1,.81.39,5.12,5.12,0,0,1,9.33,1.17A4.09,4.09,0,0,1,86,115.71v1H63.48v-1A3.06,3.06,0,0,1,65.67,112.82Z"/><path class="cls-5" d="M86,117.76H63.48a1,1,0,0,1-1-1v-1A4.08,4.08,0,0,1,64.88,112,4.09,4.09,0,0,1,70,109.8a6.14,6.14,0,0,1,8.64-.89,6.07,6.07,0,0,1,1.59,2A5.12,5.12,0,0,1,86.75,114a5,5,0,0,1,.28,1.67v1A1,1,0,0,1,86,117.76Zm-21.5-2.05H85a3.09,3.09,0,0,0-4.77-2.56,1,1,0,0,1-1.55-.58,4.07,4.07,0,0,0-7.46-.95,1,1,0,0,1-1.39.38l-.07,0a2,2,0,0,0-2.83.59,1.7,1.7,0,0,0-.24.51,1,1,0,0,1-.69.69A2,2,0,0,0,64.51,115.71Z"/><path class="cls-5" d="M75.88,113.73a1.12,1.12,0,0,1-.56-.18.87.87,0,0,0-1.15,0,1,1,0,1,1-1.29-1.58l.12-.09a2.87,2.87,0,0,1,3.45,0,1,1,0,0,1,.27,1.42,1,1,0,0,1-.84.46Z"/><path class="cls-5" d="M114.68,117.76H23.55a1,1,0,0,1,0-2.05h91.13a1,1,0,0,1,0,2.05Z"/><path class="cls-5" d="M130,117.76H117.75a1,1,0,0,1,0-2.05H130a1,1,0,0,1,0,2.05Z"/><path class="cls-5" d="M6.14,117.76H1a1,1,0,0,1,0-2.05H6.14a1,1,0,1,1,0,2.05Z"/><path class="cls-5" d="M20.48,117.76H9.22a1,1,0,1,1,0-2.05H20.48a1,1,0,0,1,0,2.05Z"/><path class="cls-5" d="M120.82,128H4.1a1,1,0,1,1,0-2H120.82a1,1,0,1,1,0,2Z"/></g><rect class="cls-13" x="26.62" y="120.83" width="77.82" height="6.14"/><path class="cls-5" d="M104.44,128H26.62a1,1,0,0,1-1-1v-6.15a1,1,0,0,1,1-1h77.82a1,1,0,0,1,1,1V127A1,1,0,0,1,104.44,128Zm-76.79-2h75.77v-4.09H27.65Z"/><rect class="cls-3" x="22.53" y="57.35" width="86.01" height="69.63"/><polygon class="cls-4" points="104.44 61.45 104.44 126.98 26.62 126.98 26.62 61.45 26.62 61.45 104.44 61.45 104.44 61.45"/><g class="cls-1"><path class="cls-14" d="M108.54,69.35,105.32,64a1,1,0,0,0-.88-.49H26.62a1,1,0,0,0-.88.5l-3.21,5.36V81.49a5.07,5.07,0,0,0,6.14-1.61,5.12,5.12,0,0,0,7.17,1,5.19,5.19,0,0,0,1-1,5.12,5.12,0,0,0,7.17,1,5.19,5.19,0,0,0,1-1,5.12,5.12,0,0,0,7.17,1,5.19,5.19,0,0,0,1-1,5.12,5.12,0,0,0,7.17,1,5.53,5.53,0,0,0,1-1,5.11,5.11,0,0,0,7.16,1,5.24,5.24,0,0,0,1-1,5.11,5.11,0,0,0,7.16,1,5.24,5.24,0,0,0,1-1,5.12,5.12,0,0,0,7.17,1,5.47,5.47,0,0,0,1-1,5.12,5.12,0,0,0,7.17,1,5.47,5.47,0,0,0,1-1,5.12,5.12,0,0,0,7.17,1,5.19,5.19,0,0,0,1-1,5.07,5.07,0,0,0,6.15,1.64Z"/></g><path class="cls-5" d="M104.44,128H26.62a1,1,0,0,1-1-1V61.45a1,1,0,0,1,1-1h77.82a1,1,0,0,1,1,1V127A1,1,0,0,1,104.44,128Zm-76.79-2h75.77V62.47H27.65Z"/><path class="cls-5" d="M108.54,128h-86a1,1,0,0,1-1-1V57.35a1,1,0,0,1,1-1h86a1,1,0,0,1,1,1V127A1,1,0,0,1,108.54,128Zm-85-2h84V58.37h-84Z"/><rect class="cls-4" x="21.5" y="53.25" width="88.06" height="4.1"/><path class="cls-5" d="M109.56,58.37H21.5a1,1,0,0,1-1-1v-4.1a1,1,0,0,1,1-1h88.06a1,1,0,0,1,1,1v4.1A1,1,0,0,1,109.56,58.37Zm-87-2h86v-2h-86Z"/><rect class="cls-3" x="48.12" y="38.92" width="34.81" height="18.43"/><path class="cls-5" d="M82.94,58.37H48.12a1,1,0,0,1-1-1V38.92a1,1,0,0,1,1-1H82.94a1,1,0,0,1,1,1V57.35A1,1,0,0,1,82.94,58.37Zm-33.79-2H81.91V39.94H49.15Z"/><path class="cls-9" d="M24.57,77.83h0a4.1,4.1,0,0,1-4.09-4.1v-2h8.19v2A4.1,4.1,0,0,1,24.57,77.83Z"/><path class="cls-5" d="M24.57,78.85a5.12,5.12,0,0,1-5.12-5.12v-2a1,1,0,0,1,1-1h8.19a1,1,0,0,1,1,1v2A5.12,5.12,0,0,1,24.57,78.85ZM21.5,72.71v1a3.08,3.08,0,0,0,6.15,0v-1Z"/><path class="cls-3" d="M32.77,77.83h0a4.1,4.1,0,0,1-4.1-4.1v-2h8.19v2A4.1,4.1,0,0,1,32.77,77.83Z"/><path class="cls-5" d="M32.77,78.85a5.12,5.12,0,0,1-5.12-5.12v-2a1,1,0,0,1,1-1h8.19a1,1,0,0,1,1,1v2A5.12,5.12,0,0,1,32.77,78.85Zm-3.08-6.14v1a3.08,3.08,0,0,0,6.15,0v-1Z"/><path class="cls-8" d="M41,77.83h0a4.1,4.1,0,0,1-4.1-4.1v-2h8.19v2A4.1,4.1,0,0,1,41,77.83Z"/><path class="cls-5" d="M41,78.85a5.12,5.12,0,0,1-5.12-5.12v-2a1,1,0,0,1,1-1h8.19a1,1,0,0,1,1,1v2A5.12,5.12,0,0,1,41,78.85Zm-3.07-6.14v1a3.07,3.07,0,0,0,6.14,0v-1Z"/><path class="cls-3" d="M49.15,77.83h0a4.11,4.11,0,0,1-4.1-4.1v-2h8.19v2A4.1,4.1,0,0,1,49.15,77.83Z"/><path class="cls-5" d="M49.15,78.85A5.12,5.12,0,0,1,44,73.73v-2a1,1,0,0,1,1-1h8.19a1,1,0,0,1,1,1v2A5.12,5.12,0,0,1,49.15,78.85Zm-3.07-6.14v1a3.07,3.07,0,1,0,6.14,0v-1Z"/><path class="cls-9" d="M57.34,77.83h0a4.11,4.11,0,0,1-4.1-4.1v-2h8.2v2A4.11,4.11,0,0,1,57.34,77.83Z"/><path class="cls-5" d="M57.34,78.85a5.12,5.12,0,0,1-5.12-5.12v-2a1,1,0,0,1,1-1h8.2a1,1,0,0,1,1,1v2A5.12,5.12,0,0,1,57.34,78.85Zm-3.07-6.14v1a3.07,3.07,0,1,0,6.14,0v-1Z"/><path class="cls-8" d="M73.72,77.83h0a4.1,4.1,0,0,1-4.09-4.1v-2h8.19v2A4.11,4.11,0,0,1,73.72,77.83Z"/><path class="cls-5" d="M73.72,78.85a5.12,5.12,0,0,1-5.12-5.12v-2a1,1,0,0,1,1-1h8.19a1,1,0,0,1,1,1v2A5.12,5.12,0,0,1,73.72,78.85Zm-3.07-6.14v1a3.07,3.07,0,0,0,6.14,0v-1Z"/><path class="cls-3" d="M81.91,77.83h0a4.1,4.1,0,0,1-4.09-4.1v-2H86v2A4.1,4.1,0,0,1,81.91,77.83Z"/><path class="cls-5" d="M81.91,78.85a5.12,5.12,0,0,1-5.12-5.12v-2a1,1,0,0,1,1-1H86a1,1,0,0,1,1,1v2A5.12,5.12,0,0,1,81.91,78.85Zm-3.07-6.14v1a3.08,3.08,0,0,0,6.15,0v-1Z"/><path class="cls-9" d="M90.11,77.83h0a4.1,4.1,0,0,1-4.1-4.1v-2H94.2v2A4.1,4.1,0,0,1,90.11,77.83Z"/><path class="cls-5" d="M90.11,78.85A5.12,5.12,0,0,1,85,73.73v-2a1,1,0,0,1,1-1H94.2a1,1,0,0,1,1,1v2A5.11,5.11,0,0,1,90.11,78.85ZM87,72.71v1a3.08,3.08,0,0,0,6.15,0v-1Z"/><path class="cls-3" d="M98.3,77.83h0a4.1,4.1,0,0,1-4.1-4.1v-2h8.19v2A4.1,4.1,0,0,1,98.3,77.83Z"/><path class="cls-5" d="M98.3,78.85a5.12,5.12,0,0,1-5.12-5.12v-2a1,1,0,0,1,1-1h8.19a1,1,0,0,1,1,1v2A5.12,5.12,0,0,1,98.3,78.85Zm-3.08-6.14v1a3.08,3.08,0,0,0,6.15,0v-1Z"/><path class="cls-8" d="M106.49,77.83h0a4.11,4.11,0,0,1-4.1-4.1v-2h8.19v2A4.1,4.1,0,0,1,106.49,77.83Z"/><path class="cls-5" d="M106.49,78.85a5.12,5.12,0,0,1-5.12-5.12v-2a1,1,0,0,1,1-1h8.19a1,1,0,0,1,1,1v2A5.12,5.12,0,0,1,106.49,78.85Zm-3.07-6.14v1a3.07,3.07,0,0,0,6.14,0v-1Z"/><polygon class="cls-9" points="28.67 71.68 20.48 71.68 26.62 61.45 32.77 61.45 28.67 71.68"/><path class="cls-5" d="M28.67,72.71H20.48a1,1,0,0,1-1-1,1,1,0,0,1,.15-.52l6.14-10.24a1,1,0,0,1,.88-.5h6.15a1,1,0,0,1,1,1,1,1,0,0,1-.07.38l-4.1,10.24A1,1,0,0,1,28.67,72.71Zm-6.38-2H28l3.28-8.19h-4.1Z"/><polygon class="cls-3" points="36.86 71.68 28.67 71.68 32.77 61.45 39.93 61.45 36.86 71.68"/><path class="cls-5" d="M36.86,72.71H28.67a1,1,0,0,1-1-1,1,1,0,0,1,.08-.38l4.09-10.24a1,1,0,0,1,1-.65h7.16a1,1,0,0,1,1.07,1,1,1,0,0,1,0,.34L37.89,72A1,1,0,0,1,36.86,72.71Zm-6.67-2H36.1l2.46-8.19H33.44Z"/><polygon class="cls-8" points="45.05 71.68 36.86 71.68 39.93 61.45 47.1 61.45 45.05 71.68"/><path class="cls-5" d="M45.05,72.71H36.86a1,1,0,0,1-1.07-1,1,1,0,0,1,.05-.34l3.07-10.24a1,1,0,0,1,1-.73H47.1a1,1,0,0,1,1,1,.58.58,0,0,1,0,.23l-2,10.24A1,1,0,0,1,45.05,72.71Zm-6.82-2h6l1.64-8.19H40.73Z"/><polygon class="cls-3" points="53.24 71.68 45.05 71.68 47.1 61.45 54.27 61.45 53.24 71.68"/><path class="cls-5" d="M53.24,72.71H45.05a1,1,0,0,1-1-1,.86.86,0,0,1,0-.23l2-10.24a1,1,0,0,1,1-.82h7.17a1,1,0,0,1,1,1,.41.41,0,0,1,0,.11l-1,10.24A1,1,0,0,1,53.24,72.71Zm-6.94-2h6l.82-8.19h-5.2Z"/><polygon class="cls-9" points="61.44 71.68 53.24 71.68 54.27 61.45 61.44 61.45 61.44 71.68"/><path class="cls-5" d="M61.44,72.71h-8.2a1,1,0,0,1-1-1s0-.07,0-.11l1-10.24a1,1,0,0,1,1-.92h7.17a1,1,0,0,1,1,1V71.68A1,1,0,0,1,61.44,72.71Zm-7.06-2h6V62.47H55.2Z"/><path class="cls-3" d="M65.53,77.83h0a4.1,4.1,0,0,1-4.09-4.1v-2h8.19v2A4.11,4.11,0,0,1,65.53,77.83Z"/><path class="cls-5" d="M65.53,78.85a5.12,5.12,0,0,1-5.12-5.12v-2a1,1,0,0,1,1-1h8.19a1,1,0,0,1,1,1v2A5.12,5.12,0,0,1,65.53,78.85Zm-3.07-6.14v1a3.07,3.07,0,1,0,6.14,0v-1Z"/><rect class="cls-3" x="61.44" y="61.45" width="8.19" height="10.24"/><path class="cls-5" d="M69.63,72.71H61.44a1,1,0,0,1-1-1V61.45a1,1,0,0,1,1-1h8.19a1,1,0,0,1,1,1V71.68A1,1,0,0,1,69.63,72.71Zm-7.17-2H68.6V62.47H62.46Z"/><polygon class="cls-8" points="77.82 71.68 69.63 71.68 69.63 61.45 76.79 61.45 77.82 71.68"/><path class="cls-5" d="M77.82,72.71H69.63a1,1,0,0,1-1-1V61.45a1,1,0,0,1,1-1h7.16a1,1,0,0,1,1,.92l1,10.24a1,1,0,0,1-.91,1.12Zm-7.17-2h6l-.82-8.19H70.65Z"/><polygon class="cls-3" points="86.01 71.68 77.82 71.68 76.79 61.45 83.96 61.45 86.01 71.68"/><path class="cls-5" d="M86,72.71H77.82a1,1,0,0,1-1-.92l-1-10.24a1,1,0,0,1,.92-1.12H84a1,1,0,0,1,1,.82l2,10.24a1,1,0,0,1-.79,1.21Zm-7.26-2h6l-1.64-8.19h-5.2Z"/><polygon class="cls-9" points="94.2 71.68 86.01 71.68 83.96 61.45 91.13 61.45 94.2 71.68"/><path class="cls-5" d="M94.2,72.71H86a1,1,0,0,1-1-.82l-2-10.24a1,1,0,0,1,.8-1.21l.22,0h7.17a1,1,0,0,1,1,.73l3.07,10.24a1,1,0,0,1-.68,1.27A1,1,0,0,1,94.2,72.71Zm-7.35-2h6l-2.46-8.19H85.25Z"/><polygon class="cls-3" points="102.39 71.68 94.2 71.68 91.13 61.45 98.3 61.45 102.39 71.68"/><path class="cls-5" d="M102.39,72.71H94.2a1,1,0,0,1-1-.73L90.11,61.74a1,1,0,0,1,.68-1.28,1.27,1.27,0,0,1,.34,0H98.3a1,1,0,0,1,1,.65l4.09,10.24a1,1,0,0,1-.57,1.33A1.22,1.22,0,0,1,102.39,72.71Zm-7.43-2h5.92L97.6,62.47H92.48Z"/><polygon class="cls-8" points="110.58 71.68 102.39 71.68 98.3 61.45 104.44 61.45 110.58 71.68"/><path class="cls-5" d="M110.58,72.71h-8.19a1,1,0,0,1-1-.65l-4.1-10.24a1,1,0,0,1,.58-1.33,1.22,1.22,0,0,1,.38-.07h6.14a1,1,0,0,1,.88.5l6.14,10.24a1,1,0,0,1-.35,1.41A1.08,1.08,0,0,1,110.58,72.71Zm-7.49-2h5.69l-4.91-8.19h-4.1Z"/><rect class="cls-8" x="32.77" y="86.02" width="35.84" height="30.72"/><polygon class="cls-15" points="32.77 109.66 68.6 92.64 68.6 86.02 32.77 86.02 32.77 109.66"/><polygon class="cls-15" points="32.77 113.37 68.6 96.35 68.6 94.3 32.77 111.32 32.77 113.37"/><g class="cls-1"><rect class="cls-16" x="32.77" y="86.02" width="35.84" height="3.07"/></g><path class="cls-5" d="M68.6,117.76H32.77a1,1,0,0,1-1-1V86a1,1,0,0,1,1-1H68.6a1,1,0,0,1,1,1v30.72A1,1,0,0,1,68.6,117.76Zm-34.81-2.05H67.58V87H33.79Z"/><rect class="cls-3" x="31.74" y="116.74" width="37.89" height="3.07"/><path class="cls-5" d="M69.63,120.83H31.74a1,1,0,0,1-1-1v-3.07a1,1,0,0,1,1-1H69.63a1,1,0,0,1,1,1v3.07A1,1,0,0,1,69.63,120.83Zm-36.86-2H68.6v-1H32.77Z"/><rect class="cls-3" x="74.75" y="86.02" width="23.55" height="34.81"/><path class="cls-5" d="M98.3,121.86H74.75a1,1,0,0,1-1-1V86a1,1,0,0,1,1-1H98.3a1,1,0,0,1,1,1v34.81A1,1,0,0,1,98.3,121.86Zm-22.53-2h21.5V87H75.77Z"/><rect class="cls-8" x="77.82" y="89.09" width="17.41" height="12.29"/><polygon class="cls-15" points="77.82 89.09 77.82 96.07 92.52 89.09 77.82 89.09"/><g class="cls-1"><rect class="cls-16" x="77.82" y="89.09" width="17.41" height="3.07"/></g><rect class="cls-8" x="77.82" y="105.47" width="17.41" height="12.29"/><polygon class="cls-15" points="77.82 113.09 93.85 105.47 89.54 105.47 77.82 111.04 77.82 113.09"/><g class="cls-1"><rect class="cls-16" x="77.82" y="105.47" width="17.41" height="3.07"/></g><path class="cls-5" d="M95.22,102.4H77.82a1,1,0,0,1-1-1V89.09a1,1,0,0,1,1-1h17.4a1,1,0,0,1,1,1v12.29A1,1,0,0,1,95.22,102.4Zm-16.38-2.05H94.2V90.11H78.84Z"/><path class="cls-5" d="M95.22,118.78H77.82a1,1,0,0,1-1-1V105.47a1,1,0,0,1,1-1h17.4a1,1,0,0,1,1,1v12.29A1,1,0,0,1,95.22,118.78Zm-16.38-2H94.2V106.5H78.84Z"/><rect class="cls-17" x="74.75" y="120.83" width="23.55" height="3.07"/><path class="cls-5" d="M98.3,124.93H74.75a1,1,0,0,1-1-1v-3.07a1,1,0,0,1,1-1H98.3a1,1,0,0,1,1,1v3.07A1,1,0,0,1,98.3,124.93Zm-22.53-2.05h21.5v-1H75.77Z"/><rect class="cls-17" x="74.75" y="123.9" width="23.55" height="3.07"/><path class="cls-5" d="M98.3,128H74.75a1,1,0,0,1-1-1V123.9a1,1,0,0,1,1-1H98.3a1,1,0,0,1,1,1V127A1,1,0,0,1,98.3,128Zm-22.53-2h21.5v-1H75.77Z"/><path class="cls-10" d="M35.33,120.83a4.53,4.53,0,0,0-1.71.34A4.6,4.6,0,0,0,28,117.93a4.87,4.87,0,0,0-1.37.63,7.65,7.65,0,0,0-13.69.8c-.2,0-.41,0-.61-.06a6.14,6.14,0,0,0-6.15,6.14V127H39.93v-1.54a4.61,4.61,0,0,0-4.6-4.61Z"/><g class="cls-18"><path class="cls-3" d="M35.33,120.83a4.53,4.53,0,0,0-1.71.34A4.6,4.6,0,0,0,28,117.93a4.87,4.87,0,0,0-1.37.63,7.65,7.65,0,0,0-13.69.8c-.2,0-.41,0-.61-.06a6.14,6.14,0,0,0-6.15,6.14V127h.21a6.14,6.14,0,0,1,5.94-4.61c.2,0,.41,0,.61.06a7.65,7.65,0,0,1,13.69-.8A4.6,4.6,0,0,1,33,122.84a4.8,4.8,0,0,1,.64,1.4,4.57,4.57,0,0,1,6,2.5l.09.24h.25v-1.54a4.61,4.61,0,0,0-4.6-4.61Z"/></g><path class="cls-5" d="M39.93,128H6.14a1,1,0,0,1-1-1v-1.54a7.17,7.17,0,0,1,7.17-7.17h0a8.66,8.66,0,0,1,14.64-1,5.61,5.61,0,0,1,7.3,2.71,5.11,5.11,0,0,1,1.1-.15A5.64,5.64,0,0,1,41,125.44V127A1,1,0,0,1,39.93,128ZM7.17,126H38.91v-.51a3.58,3.58,0,0,0-3.57-3.58,3.68,3.68,0,0,0-1.35.26,1,1,0,0,1-1.33-.56s0-.08,0-.12a3.56,3.56,0,0,0-4.34-2.56,3.79,3.79,0,0,0-1.12.51,1,1,0,0,1-1.42-.27l0-.07A6.58,6.58,0,0,0,20,115.71a6.66,6.66,0,0,0-6.15,4.1,1,1,0,0,1-1,.61h-.51a5.12,5.12,0,0,0-5.12,5.12Z"/><path class="cls-5" d="M21.68,122a1,1,0,0,1-.61-.21,1.77,1.77,0,0,0-2.28-.19,1,1,0,1,1-1.1-1.78h0a3.82,3.82,0,0,1,4.59.29,1,1,0,0,1-.61,1.84Z"/><rect class="cls-3" x="112.63" y="92.16" width="6.14" height="22.53"/><circle class="cls-4" cx="115.7" cy="89.09" r="3.07"/><path class="cls-5" d="M115.7,93.19a4.1,4.1,0,1,1,4.1-4.1A4.1,4.1,0,0,1,115.7,93.19Zm0-6.15a2,2,0,1,0,2,2A2,2,0,0,0,115.7,87Z"/><circle class="cls-4" cx="115.7" cy="117.76" r="3.07"/><path class="cls-5" d="M115.7,121.86a4.1,4.1,0,1,1,4.1-4.1A4.1,4.1,0,0,1,115.7,121.86Zm0-6.15a2,2,0,1,0,2,2.05A2,2,0,0,0,115.7,115.71Z"/><path class="cls-8" d="M115.19,115.71a1,1,0,0,1-1-1,1.06,1.06,0,0,1,.3-.73l3.59-3.58a1,1,0,0,1,1.44,1.44l-3.58,3.59A1,1,0,0,1,115.19,115.71Z"/><path class="cls-9" d="M112.63,113.15a1,1,0,0,1-1-1,1.07,1.07,0,0,1,.3-.74l6.15-6.14a1,1,0,0,1,1.44,1.44l-6.14,6.15A1,1,0,0,1,112.63,113.15Z"/><path class="cls-8" d="M112.63,108a1,1,0,0,1-1-1,1.07,1.07,0,0,1,.3-.74l6.15-6.14a1,1,0,0,1,1.44,1.44l-6.14,6.15A1,1,0,0,1,112.63,108Z"/><path class="cls-9" d="M112.63,102.91a1,1,0,0,1-1-1,1.07,1.07,0,0,1,.3-.74L118.05,95a1,1,0,0,1,1.44,1.44l-6.14,6.15A1,1,0,0,1,112.63,102.91Z"/><path class="cls-8" d="M112.63,97.79a1,1,0,0,1-1-1,1.07,1.07,0,0,1,.3-.74l4.61-4.6a1,1,0,0,1,1.45.11,1,1,0,0,1,0,1.33l-4.61,4.61A1,1,0,0,1,112.63,97.79Z"/><path class="cls-5" d="M118.77,115.71h-6.14a1,1,0,0,1-1-1V92.16a1,1,0,0,1,1-1h6.14a1,1,0,0,1,1,1v22.53A1,1,0,0,1,118.77,115.71Zm-5.11-2h4.09V93.19h-4.09Z"/><path class="cls-5" d="M112.63,109.57h-4.09a1,1,0,1,1,0-2h4.09a1,1,0,1,1,0,2Z"/><path class="cls-5" d="M119.8,93.19h-8.19a1,1,0,1,1,0-2h8.19a1,1,0,0,1,0,2Z"/><path class="cls-5" d="M119.8,115.71h-8.19a1,1,0,1,1,0-2h8.19a1,1,0,1,1,0,2Z"/><path class="cls-5" d="M112.63,99.33h-4.09a1,1,0,1,1,0-2h4.09a1,1,0,1,1,0,2Z"/><path class="cls-10" d="M98.3,122.88a3,3,0,0,1,1.14.23,3.07,3.07,0,0,1,3.77-2.16,3.26,3.26,0,0,1,.91.41,5.12,5.12,0,0,1,9.14.54,2.8,2.8,0,0,1,.41,0,4.09,4.09,0,0,1,4.09,4.09v1H95.22v-1a3.08,3.08,0,0,1,3-3.11Z"/><path class="cls-5" d="M117.75,128H95.22a1,1,0,0,1-1-1v-1a4.09,4.09,0,0,1,4.1-4.09,2.44,2.44,0,0,1,.54,0,4.09,4.09,0,0,1,4.94-1.85,6.15,6.15,0,0,1,8.65-.88,6,6,0,0,1,1.43,1.67,5.11,5.11,0,0,1,4.91,5.12v1a1,1,0,0,1-1,1Zm-21.5-2h20.48a3.08,3.08,0,0,0-3.07-3.07h-.31a1,1,0,0,1-1-.61,4.11,4.11,0,0,0-7.32-.41,1,1,0,0,1-1.39.38l-.07,0a2.06,2.06,0,0,0-2.83.63,1.86,1.86,0,0,0-.24.54,1,1,0,0,1-1.26.73l-.11,0a2,2,0,0,0-2.69,1.08A2.1,2.1,0,0,0,96.25,126Z"/><path class="cls-5" d="M107.39,124a1,1,0,0,1-1-1,1.06,1.06,0,0,1,.41-.82,2.88,2.88,0,0,1,3.46-.2,1,1,0,0,1-1,1.81l-.12-.08c-.34-.22-.64-.26-1.14.11A1,1,0,0,1,107.39,124Z"/><g class="cls-18"><path class="cls-5" d="M79.87,55.3a1,1,0,0,1-.73-.3,1.27,1.27,0,0,1-.22-.33,1.09,1.09,0,0,1-.08-.39,1,1,0,1,1,2,0,1.09,1.09,0,0,1-.08.39,1.06,1.06,0,0,1-.22.33A1,1,0,0,1,79.87,55.3Z"/><path class="cls-5" d="M51.2,43H51L50.81,43a.66.66,0,0,1-.19-.09l-.15-.12a1,1,0,0,1,0-1.45h0l.15-.12a.66.66,0,0,1,.19-.09A.52.52,0,0,1,51,41a.9.9,0,0,1,.4,0,.76.76,0,0,1,.2.06l.18.09.15.12a1,1,0,0,1,0,1.45h0l-.15.12-.18.09a.76.76,0,0,1-.2.06Z"/><path class="cls-5" d="M51.2,55.3H51l-.18-.06a.66.66,0,0,1-.19-.09L50.47,55a1,1,0,0,1-.12-.16,1.62,1.62,0,0,1-.1-.18,1.8,1.8,0,0,1-.08-.21v-.2a1,1,0,0,1,.3-.73l.15-.12a.66.66,0,0,1,.19-.09.61.61,0,0,1,.18-.09.9.9,0,0,1,.4,0,.53.53,0,0,1,.2.07l.18.09.15.12a1.05,1.05,0,0,1,.3.75v.2a.6.6,0,0,1-.06.19,1.51,1.51,0,0,1-.09.18l-.13.15-.15.13a1.19,1.19,0,0,1-.38.15Z"/><path class="cls-5" d="M79.87,43a1,1,0,0,1-1-1,1,1,0,0,1,.08-.39,1.52,1.52,0,0,1,.22-.34,1,1,0,0,1,1.45,0h0a1.24,1.24,0,0,1,.22.34,1,1,0,0,1,.08.39A1,1,0,0,1,79.87,43Z"/></g><path class="cls-13" d="M71.23,46.91V46.5c0-1.37-1.38-2.46-3.07-2.46a3.36,3.36,0,0,0-2.63,1.09A3.36,3.36,0,0,0,63,44c-1.71,0-3.07,1.09-3.07,2.46v.41c0,3.15-5.06,3.41-6.58,2.2A7.44,7.44,0,0,0,65.53,49a7.48,7.48,0,0,0,10.41,2,7.39,7.39,0,0,0,1.88-1.82C75.77,50.18,71.23,50.11,71.23,46.91Z"/><path class="cls-5" d="M71.67,53.25a8.35,8.35,0,0,1-6.14-2.54,8.35,8.35,0,0,1-6.14,2.54,8,8,0,0,1-7-3.64,1,1,0,0,1,1.53-1.31,4.57,4.57,0,0,0,3.89,0,1.5,1.5,0,0,0,1-1.45v-.13a1.31,1.31,0,0,0,0-.28c0-1.91,1.85-3.48,4.1-3.48a4.7,4.7,0,0,1,2.58.77,4.69,4.69,0,0,1,2.6-.72c2.27,0,4.1,1.57,4.1,3.49a1.22,1.22,0,0,0,0,.27v.14A1.44,1.44,0,0,0,73,48.27a5.17,5.17,0,0,0,4.32-.06,1,1,0,0,1,1.38.41,1,1,0,0,1,0,1A8,8,0,0,1,71.67,53.25Zm-6.14-5.32a1,1,0,0,1,.91.55,6,6,0,0,0,5.23,2.73,7.23,7.23,0,0,0,2.6-.49A5.48,5.48,0,0,1,71.93,50,3.51,3.51,0,0,1,70.17,47v-.47c0-.78-1-1.44-2-1.44a2.37,2.37,0,0,0-1.79.74,1,1,0,0,1-1.44.13.86.86,0,0,1-.14-.13,2.38,2.38,0,0,0-1.8-.73c-1.13,0-2.05.66-2.05,1.44V47a3.54,3.54,0,0,1-2.23,3.21,6,6,0,0,1-1.9.54,7.09,7.09,0,0,0,2.62.49,5.94,5.94,0,0,0,5.28-2.73A1,1,0,0,1,65.53,47.93Z"/></g></g></svg>