<svg xmlns="http://www.w3.org/2000/svg" xmlns:xlink="http://www.w3.org/1999/xlink" viewBox="0 0 139.16 126.59"><defs><style>.cls-1{fill:none;}.cls-11,.cls-14,.cls-2{opacity:0.3;}.cls-3{fill:#97c1ff;}.cls-4{clip-path:url(#clip-path);}.cls-5{fill:#eef6ff;}.cls-6{fill:#6d6daa;}.cls-7{fill:#96d7ff;}.cls-8{fill:#c9c1f5;}.cls-9{clip-path:url(#clip-path-2);}.cls-10{fill:#f9e2dc;}.cls-11{fill:#cc7e54;}.cls-11,.cls-14,.cls-15,.cls-16,.cls-18,.cls-20,.cls-21,.cls-24,.cls-30{isolation:isolate;}.cls-12{fill:#eff7ff;}.cls-13,.cls-14,.cls-21{fill:#fff;}.cls-15{fill:#ffc661;}.cls-15,.cls-17,.cls-21{opacity:0.5;}.cls-16,.cls-20,.cls-23{fill:#750000;}.cls-16,.cls-24,.cls-25{opacity:0.15;}.cls-18{opacity:0.1;}.cls-19{fill:#ff9797;}.cls-20,.cls-22,.cls-30{opacity:0.2;}.cls-24,.cls-26,.cls-30{fill:#2c4b75;}.cls-27{fill:#e4e0fa;}.cls-28{fill:#ffd599;}.cls-29{fill:#9eb2cc;}</style><clipPath id="clip-path" transform="translate(0 -0.42)"><circle class="cls-1" cx="63.01" cy="68" r="56"/></clipPath><clipPath id="clip-path-2" transform="translate(0 -0.42)"><path class="cls-1" d="M119.14,67.86a56.14,56.14,0,0,1-112.28,0C6.86,36.85,15,0,63,0,112.75,0,119.14,36.85,119.14,67.86Z"/></clipPath></defs><title>icon_4</title><g id="Layer_2" data-name="Layer 2"><g id="Artwork"><g class="cls-2"><circle class="cls-3" cx="63.01" cy="67.58" r="56"/><g class="cls-4"><rect class="cls-5" x="82" y="88.58" width="38" height="34"/><path class="cls-6" d="M120,124H82a1,1,0,0,1-1-1h0V89a1,1,0,0,1,1-1h38a1,1,0,0,1,1,1h0v34a1,1,0,0,1-1,1Zm-37-2h36V90H83Z" transform="translate(0 -0.42)"/><rect class="cls-7" x="86" y="92.58" width="30" height="30"/><path class="cls-6" d="M116,124H86a1,1,0,0,1-1-1h0V93a1,1,0,0,1,1-1h30a1,1,0,0,1,1,1h0v30a1,1,0,0,1-1,1Zm-29-2h28V94H87Z" transform="translate(0 -0.42)"/><path class="cls-6" d="M110,124a1,1,0,0,1-1-1h0V93a1,1,0,0,1,2,0v30a1,1,0,0,1-1,1Z" transform="translate(0 -0.42)"/><path class="cls-6" d="M104,124a1,1,0,0,1-1-1h0V93a1,1,0,0,1,2,0v30a1,1,0,0,1-1,1Z" transform="translate(0 -0.42)"/><path class="cls-6" d="M98,124a1,1,0,0,1-1-1h0V93a1,1,0,0,1,2,0v30a1,1,0,0,1-1,1Z" transform="translate(0 -0.42)"/><path class="cls-6" d="M92,124a1,1,0,0,1-1-1h0V93a1,1,0,0,1,2,0v30a1,1,0,0,1-1,1Z" transform="translate(0 -0.42)"/><path class="cls-6" d="M116,124H86a1,1,0,0,1,0-2h30a1,1,0,0,1,0,2Z" transform="translate(0 -0.42)"/><path class="cls-6" d="M116,104H86a1,1,0,0,1,0-2h30a1,1,0,0,1,0,2Z" transform="translate(0 -0.42)"/><path class="cls-6" d="M116,114H86a1,1,0,0,1,0-2h30a1,1,0,0,1,0,2Z" transform="translate(0 -0.42)"/><rect class="cls-8" x="12" y="57.58" width="26" height="4"/><path class="cls-6" d="M38,63H12a1,1,0,0,1-1-1h0V58a1,1,0,0,1,1-1H38a1,1,0,0,1,1,1h0v4a1,1,0,0,1-1,1ZM13,61H37V59H13Z" transform="translate(0 -0.42)"/><rect class="cls-5" x="6" y="61.58" width="38" height="64"/><path class="cls-6" d="M44,127H6a1,1,0,0,1-1-1H5V62a1,1,0,0,1,1-1H44a1,1,0,0,1,1,1h0v64a1,1,0,0,1-1,1ZM7,125H43V63H7Z" transform="translate(0 -0.42)"/><rect class="cls-7" x="10" y="65.58" width="30" height="60"/><path class="cls-6" d="M40,127H10a1,1,0,0,1-1-1H9V66a1,1,0,0,1,1-1H40a1,1,0,0,1,1,1h0v60a1,1,0,0,1-1,1Zm-29-2H39V67H11Z" transform="translate(0 -0.42)"/><path class="cls-6" d="M34,127a1,1,0,0,1-1-1h0V66a1,1,0,0,1,2,0v60a1,1,0,0,1-1,1Z" transform="translate(0 -0.42)"/><path class="cls-6" d="M28,127a1,1,0,0,1-1-1h0V66a1,1,0,0,1,2,0v60a1,1,0,0,1-1,1Z" transform="translate(0 -0.42)"/><path class="cls-6" d="M22,127a1,1,0,0,1-1-1h0V66a1,1,0,0,1,2,0v60a1,1,0,0,1-1,1Z" transform="translate(0 -0.42)"/><path class="cls-6" d="M25,59a1,1,0,0,1-1-1h0V54a1,1,0,0,1,2,0v4a1,1,0,0,1-1,1Z" transform="translate(0 -0.42)"/><path class="cls-6" d="M16,127a1,1,0,0,1-1-1h0V66a1,1,0,0,1,2,0v60a1,1,0,0,1-1,1Z" transform="translate(0 -0.42)"/><path class="cls-6" d="M40,127H10a1,1,0,0,1,0-2H40a1,1,0,0,1,0,2Z" transform="translate(0 -0.42)"/><path class="cls-6" d="M40,97H10a1,1,0,0,1,0-2H40a1,1,0,0,1,0,2Z" transform="translate(0 -0.42)"/><path class="cls-6" d="M40,107H10a1,1,0,0,1,0-2H40a1,1,0,0,1,0,2Z" transform="translate(0 -0.42)"/><path class="cls-6" d="M40,117H10a1,1,0,0,1,0-2H40a1,1,0,0,1,0,2Z" transform="translate(0 -0.42)"/><path class="cls-6" d="M40,77H10a1,1,0,0,1,0-2H40a1,1,0,0,1,0,2Z" transform="translate(0 -0.42)"/><path class="cls-6" d="M40,87H10a1,1,0,0,1,0-2H40a1,1,0,0,1,0,2Z" transform="translate(0 -0.42)"/><path class="cls-6" d="M62,52a1,1,0,0,1-1-1,1,1,0,0,1,.4-.8l8-6a1,1,0,0,1,1.2,1.6h0l-8,6A1,1,0,0,1,62,52Z" transform="translate(0 -0.42)"/><path class="cls-6" d="M106,52l-.21,0-28-6a1,1,0,0,1,.42-2l28,6a1,1,0,0,1-.21,2Z" transform="translate(0 -0.42)"/><path class="cls-6" d="M82,102H66a1,1,0,0,1-1-1h0V97a1,1,0,0,1,1-1H82a1,1,0,0,1,1,1h0v4a1,1,0,0,1-1,1Zm-15-2H81V98H67Z" transform="translate(0 -0.42)"/><path class="cls-6" d="M104,73.2a2,2,0,0,1-1.66-.89l-2.14-3.2A2,2,0,0,1,101.87,66h4.26a2,2,0,0,1,2,2,2.09,2.09,0,0,1-.33,1.11l-2.14,3.2A2,2,0,0,1,104,73.2Zm2.13-5.2h-4.26L104,71.2h0Z" transform="translate(0 -0.42)"/><path class="cls-6" d="M78,98H70a1,1,0,0,1-1-1h0V45a1,1,0,0,1,1-1h8a1,1,0,0,1,1,1h0V97a1,1,0,0,1-1,1Zm-7-2h6V46H71Z" transform="translate(0 -0.42)"/><path class="cls-6" d="M112,60H62a1,1,0,0,1-1-1h0V51a1,1,0,0,1,1-1h44a1,1,0,0,1,.8.4l6,8a1,1,0,0,1-.2,1.4A1,1,0,0,1,112,60ZM63,58h47l-4.5-6H63Z" transform="translate(0 -0.42)"/><path class="cls-6" d="M104,80a3,3,0,0,1-2.61-1.52,1,1,0,0,1,1.74-1A1,1,0,1,0,104,76a1,1,0,0,1,0-2,3,3,0,0,1,0,6Z" transform="translate(0 -0.42)"/><path class="cls-6" d="M70,98a1,1,0,0,1-.71-1.7l8-8a1,1,0,0,1,1.41,1.41h0l-7.94,8A1,1,0,0,1,70,98Z" transform="translate(0 -0.42)"/><path class="cls-6" d="M70,88a1,1,0,0,1-.71-1.7l8-8a1,1,0,0,1,1.41,1.41l-7.94,8A1,1,0,0,1,70,88Z" transform="translate(0 -0.42)"/><path class="cls-6" d="M70,78a1,1,0,0,1-.71-1.7l8-8a1,1,0,0,1,1.41,1.41h0l-7.94,8A1,1,0,0,1,70,78Z" transform="translate(0 -0.42)"/><path class="cls-6" d="M70,68a1,1,0,0,1-.71-1.7l8-7.95a1,1,0,0,1,1.41,1.41l-7.94,8A1,1,0,0,1,70,68Z" transform="translate(0 -0.42)"/><path class="cls-6" d="M104,68a1,1,0,0,1-1-1h0V59a1,1,0,0,1,2,0v8a1,1,0,0,1-1,1Z" transform="translate(0 -0.42)"/><path class="cls-6" d="M104,76a1,1,0,0,1-1-1h0V72.2a1,1,0,1,1,2,0V75a1,1,0,0,1-1,1Z" transform="translate(0 -0.42)"/><path class="cls-6" d="M86,60a1,1,0,0,1-1-1h0V51a1,1,0,0,1,2,0v8a1,1,0,0,1-1,1Z" transform="translate(0 -0.42)"/><path class="cls-6" d="M94,60a1,1,0,0,1-1-1h0V51a1,1,0,0,1,2,0v8a1,1,0,0,1-1,1Z" transform="translate(0 -0.42)"/><path class="cls-6" d="M102,60a1,1,0,0,1-1-1h0V51a1,1,0,0,1,2,0v8a1,1,0,0,1-1,1Z" transform="translate(0 -0.42)"/></g></g><g class="cls-9"><path class="cls-10" d="M66.29,85.3,59.5,82.5a6.41,6.41,0,0,1-3-8.19H27.44c1.68,3.79-1.11,7.39-2.93,8.22C23.59,83,18,85.4,18,85.4A27.65,27.65,0,0,0,1,110.92V126H83V110.7A27.65,27.65,0,0,0,66.29,85.3Z" transform="translate(0 -0.42)"/><path class="cls-11" d="M56.52,74.31H27.44a5.78,5.78,0,0,1,0,4.91l1.8,1.8a13.58,13.58,0,0,0,9.61,4h6.24a13.58,13.58,0,0,0,9.61-4l1.82-1.82A5.73,5.73,0,0,1,56.52,74.31Z" transform="translate(0 -0.42)"/><path class="cls-6" d="M67,126a1,1,0,0,1-1-1h0V107.5a1,1,0,0,1,2,0V125a1,1,0,0,1-1,1Z" transform="translate(0 -0.42)"/><path class="cls-6" d="M17,126a1,1,0,0,1-1-1h0V107.5a1,1,0,0,1,2,0V125a1,1,0,0,1-1,1Z" transform="translate(0 -0.42)"/><path class="cls-6" d="M25,115l-.2,0a.64.64,0,0,1-.18-.06.76.76,0,0,1-.18-.09l-.15-.12-.12-.15a.76.76,0,0,1-.09-.18.64.64,0,0,1-.06-.18,1,1,0,0,1,0-.4.64.64,0,0,1,.06-.18.76.76,0,0,1,.09-.18l.12-.15.15-.12a.76.76,0,0,1,.18-.09.64.64,0,0,1,.18-.06,1,1,0,0,1,.91.27l.12.15a.76.76,0,0,1,.09.18.64.64,0,0,1,.06.18,1,1,0,0,1,0,.4.64.64,0,0,1-.06.18.76.76,0,0,1-.09.18l-.12.15A1.05,1.05,0,0,1,25,115Z" transform="translate(0 -0.42)"/><path class="cls-6" d="M59,115a1,1,0,0,1-1-1v0a1,1,0,0,1,.08-.38,1.15,1.15,0,0,1,.21-.33l.15-.12a.76.76,0,0,1,.18-.09.64.64,0,0,1,.18-.06,1,1,0,0,1,.91.27,1.15,1.15,0,0,1,.21.33A1,1,0,0,1,59,115Z" transform="translate(0 -0.42)"/><path class="cls-6" d="M83,126a1,1,0,0,1-1-1h0V110.7A26.63,26.63,0,0,0,65.89,86.22l-6.8-3a7.31,7.31,0,0,1-3.49-9.28,1,1,0,0,1,1.84.8,5.27,5.27,0,0,0,2.49,6.67l6.77,3A28.62,28.62,0,0,1,84,110.7V125a1,1,0,0,1-1,1Z" transform="translate(0 -0.42)"/><path class="cls-6" d="M1,126a1,1,0,0,1-1-1H0V110.92A28.57,28.57,0,0,1,17.61,84.48S22,82.54,24,81.64c1.63-.75,3.94-3.78,2.53-6.92a1,1,0,0,1,1.82-.82c2,4.38-1.19,8.49-3.51,9.56-2,.91-6.4,2.84-6.45,2.86A26.58,26.58,0,0,0,2,110.92V125a1,1,0,0,1-1,1Z" transform="translate(0 -0.42)"/><path class="cls-12" d="M66.29,85.3s-7-3-6.79-2.8c-2.31,5-11.25,7.5-17.5,9.27-6.22-1.76-15.81-4.29-17.47-9.2L18,85.4A27.65,27.65,0,0,0,1,110.92V126H83V110.7A27.65,27.65,0,0,0,66.29,85.3Z" transform="translate(0 -0.42)"/><path class="cls-13" d="M66.29,85.3s-7-3-6.79-2.8c-2.31,5-10,9.27-17.5,9.27s-15.81-4.29-17.47-9.2L18,85.4A27.65,27.65,0,0,0,1,110.92v5C1,105,9.5,90,23.25,87.5,26,92,34.5,95.78,42,95.78S57,92,60.75,87.5C74.5,91.25,83,104.65,83,115.7v-5A27.65,27.65,0,0,0,66.29,85.3Z" transform="translate(0 -0.42)"/><path class="cls-6" d="M42,92.77c-8.12,0-16.74-4.65-18.45-10a1,1,0,1,1,1.9-.62h0c1.45,4.49,9.34,8.58,16.55,8.58,6.94,0,14.38-3.9,16.59-8.69a1,1,0,1,1,1.82.84h0C57.86,88.45,49.77,92.77,42,92.77Z" transform="translate(0 -0.42)"/><path class="cls-6" d="M67,126a1,1,0,0,1-1-1h0V107.5a1,1,0,0,1,2,0V125a1,1,0,0,1-1,1Z" transform="translate(0 -0.42)"/><path class="cls-6" d="M17,126a1,1,0,0,1-1-1h0V107.5a1,1,0,0,1,2,0V125a1,1,0,0,1-1,1Z" transform="translate(0 -0.42)"/><path class="cls-6" d="M83,126a1,1,0,0,1-1-1h0V110.7A26.63,26.63,0,0,0,65.89,86.22l-6.81-3a1,1,0,0,1,.82-1.83l6.8,3A28.62,28.62,0,0,1,84,110.7V125a1,1,0,0,1-1,1Z" transform="translate(0 -0.42)"/><path class="cls-6" d="M1,126a1,1,0,0,1-1-1H0V110.92A28.57,28.57,0,0,1,17.61,84.48l6.49-2.82a1,1,0,1,1,.8,1.83h0l-6.51,2.83A26.59,26.59,0,0,0,2,110.92V125a1,1,0,0,1-1,1Z" transform="translate(0 -0.42)"/><path class="cls-3" d="M66.05,85.3s-7.29-3-7-2.8c-1.84,7.17-10.71,31.72-17,33.5-6.22-1.77-15.88-26.67-17.27-33.44L18,85.4A27.65,27.65,0,0,0,1,110.92V126H82.76V110.7A27.65,27.65,0,0,0,66.05,85.3Z" transform="translate(0 -0.42)"/><path class="cls-14" d="M59.42,82.56l6.79,2.84A27.48,27.48,0,0,1,83,110.92v5C83,105,74.45,90,60.7,87.5Z" transform="translate(0 -0.42)"/><path class="cls-14" d="M24.58,82.56,17.79,85.4A27.48,27.48,0,0,0,1,110.92v5C1,105,9.55,90,23.3,87.5Z" transform="translate(0 -0.42)"/><path class="cls-6" d="M67,126a1,1,0,0,1-1-1h0V107.5a1,1,0,0,1,2,0V125a1,1,0,0,1-1,1Z" transform="translate(0 -0.42)"/><path class="cls-6" d="M17,126a1,1,0,0,1-1-1h0V107.5a1,1,0,0,1,2,0V125a1,1,0,0,1-1,1Z" transform="translate(0 -0.42)"/><path class="cls-6" d="M83,126a1,1,0,0,1-1-1h0V110.69A26.61,26.61,0,0,0,65.89,86.22l-7-3a1,1,0,0,1,.79-1.84l7,3A28.61,28.61,0,0,1,84,110.69V125a1,1,0,0,1-1,1Z" transform="translate(0 -0.42)"/><path class="cls-6" d="M1,126a1,1,0,0,1-1-1H0V110.92A28.57,28.57,0,0,1,17.61,84.48l6.76-2.83a1,1,0,0,1,1.3.54,1,1,0,0,1-.53,1.31l-6.76,2.82A26.59,26.59,0,0,0,2,110.92V125a1,1,0,0,1-1,1Z" transform="translate(0 -0.42)"/><path class="cls-3" d="M22,102l2-7H15c0-5,0-11,10-15,1.25,13.75,7.25,21,16,36C35,110,22,102,22,102Z" transform="translate(0 -0.42)"/><g class="cls-2"><path class="cls-13" d="M23,84c0,9,8.18,21.29,11,26a50.05,50.05,0,0,1,7,6c-8.75-15-14.75-22.25-16-36-6.22,2.49-8.57,5.75-9.46,9.06A17.4,17.4,0,0,1,23,84Z" transform="translate(0 -0.42)"/></g><path class="cls-6" d="M41,117a1,1,0,0,1-.71-.29c-5.85-5.85-18.69-13.78-18.81-13.86a1,1,0,0,1-.44-1.12L22.67,96H15a1,1,0,0,1-1-1h0c0-4.93,0-11.68,10.63-15.93a1,1,0,0,1,1.3.56,1.28,1.28,0,0,1,.07.28c1,11,5.1,17.76,11.33,28,1.43,2.37,2.92,4.82,4.53,7.59a1,1,0,0,1-.36,1.36A1,1,0,0,1,41,117ZM23.17,101.55c2,1.28,8.45,5.38,13.77,9.58L35.62,109c-6.11-10.06-10.23-16.84-11.47-27.5C16.58,84.91,16,89.64,16,94h8a1,1,0,0,1,1,1,.8.8,0,0,1,0,.27Z" transform="translate(0 -0.42)"/><path class="cls-3" d="M62,102l-2-7h9c0-5,0-11-10-15-1.25,13.75-7.25,21-16,36C49,110,62,102,62,102Z" transform="translate(0 -0.42)"/><g class="cls-2"><path class="cls-13" d="M61,84c0,9-8.18,21.29-11,26a50.05,50.05,0,0,0-7,6c8.75-15,14.75-22.25,16-36,6.22,2.49,8.57,5.75,9.46,9.06A17.4,17.4,0,0,0,61,84Z" transform="translate(0 -0.42)"/></g><path class="cls-6" d="M43,117a1,1,0,0,1-1-1,1,1,0,0,1,.14-.5c1.61-2.77,3.1-5.22,4.53-7.59C52.9,97.67,57,90.9,58,79.91A1,1,0,0,1,59.09,79a1.28,1.28,0,0,1,.28.07C70,83.32,70,90.07,70,95a1,1,0,0,1-1,1H61.33L63,101.73a1,1,0,0,1-.44,1.12c-.12.08-13,8-18.81,13.86A1,1,0,0,1,43,117ZM59.85,81.45C58.61,92.11,54.49,98.89,48.38,109l-1.32,2.18c5.32-4.2,11.73-8.3,13.77-9.58L59,95.27A1,1,0,0,1,59.72,94,.9.9,0,0,1,60,94h8C68,89.64,67.42,84.91,59.85,81.45Z" transform="translate(0 -0.42)"/><path class="cls-6" d="M42,126a1,1,0,0,1-1-1h0v-9a1,1,0,0,1,2,0v9a1,1,0,0,1-1,1Z" transform="translate(0 -0.42)"/><path class="cls-6" d="M46.5,120.5A1.5,1.5,0,1,1,48,119,1.5,1.5,0,0,1,46.5,120.5Zm0-2a.5.5,0,1,0,.5.5A.5.5,0,0,0,46.5,118.5Z" transform="translate(0 -0.42)"/><circle class="cls-6" cx="46.5" cy="118.58" r="1"/><path class="cls-6" d="M46.5,125.5A1.5,1.5,0,1,1,48,124,1.5,1.5,0,0,1,46.5,125.5Zm0-2a.5.5,0,1,0,.5.5A.5.5,0,0,0,46.5,123.5Z" transform="translate(0 -0.42)"/><circle class="cls-6" cx="46.5" cy="123.58" r="1"/><path class="cls-10" d="M45.12,80H38.88a13.58,13.58,0,0,1-9.61-4L21,67.73a13.58,13.58,0,0,1-4-9.61V33.59c0-24.79,50-24.79,50,0V58.12a13.58,13.58,0,0,1-4,9.61L54.73,76A13.58,13.58,0,0,1,45.12,80Z" transform="translate(0 -0.42)"/><path class="cls-11" d="M54.73,71a13.58,13.58,0,0,1-9.61,4H38.88a13.58,13.58,0,0,1-9.61-4L21,62.73a13.58,13.58,0,0,1-4-9.61v5a13.58,13.58,0,0,0,4,9.61L29.27,76a13.58,13.58,0,0,0,9.61,4h6.24a13.58,13.58,0,0,0,9.61-4L63,67.73a13.58,13.58,0,0,0,4-9.61v-5a13.58,13.58,0,0,1-4,9.61Z" transform="translate(0 -0.42)"/><path class="cls-6" d="M45.12,81H38.88a14.53,14.53,0,0,1-10.32-4.27l-8.29-8.29A14.53,14.53,0,0,1,16,58.12V33.59c0-6.09,2.86-11.2,8.26-14.78C29,15.71,35.26,14,42,14s13,1.71,17.74,4.81C65.14,22.39,68,27.5,68,33.59V58.12a14.53,14.53,0,0,1-4.27,10.32l-8.29,8.29A14.53,14.53,0,0,1,45.12,81ZM42,16c-11.56,0-24,5.51-24,17.59V58.12A12.49,12.49,0,0,0,21.69,67L30,75.31A12.49,12.49,0,0,0,38.88,79h6.24A12.49,12.49,0,0,0,54,75.31L62.31,67A12.49,12.49,0,0,0,66,58.12V33.59a15.37,15.37,0,0,0-7.36-13.11A30.49,30.49,0,0,0,42,16Z" transform="translate(0 -0.42)"/><path class="cls-10" d="M17,54V45c0-3-2.22-4-3.6-3-2.19,1.53.6,8,.6,8C12.38,51,14.21,54.74,17,54Z" transform="translate(0 -0.42)"/><path class="cls-6" d="M16.26,55.1a4,4,0,0,1-3.55-2.45,2.93,2.93,0,0,1,.11-2.88c-.77-2-2.39-6.92,0-8.59A3,3,0,0,1,16,41a4.27,4.27,0,0,1,2,4v9a1,1,0,0,1-.75,1A4.14,4.14,0,0,1,16.26,55.1ZM14.53,42.64a1,1,0,0,0-.56.18c-.89.62-.22,4.08.95,6.78a1,1,0,0,1-.38,1.24c-.22.15-.17.63,0,1A2.11,2.11,0,0,0,16,53.07V45a2.42,2.42,0,0,0-1-2.23A1.06,1.06,0,0,0,14.53,42.64Z" transform="translate(0 -0.42)"/><path class="cls-6" d="M14,51a1,1,0,0,1-1-1,1,1,0,0,1,.46-.84l.37-.24a1,1,0,1,1,1.1,1.67h0l-.38.24A1,1,0,0,1,14,51Z" transform="translate(0 -0.42)"/><path class="cls-10" d="M67,54V45c0-3,2.23-4,3.6-3,2.19,1.53-.6,8-.6,8C71.63,51,69.79,54.74,67,54Z" transform="translate(0 -0.42)"/><path class="cls-6" d="M67.74,55.1a4.14,4.14,0,0,1-1-.13A1,1,0,0,1,66,54V45a4.27,4.27,0,0,1,2-4,3,3,0,0,1,3.13.18c2.4,1.67.78,6.61,0,8.59a2.93,2.93,0,0,1,.11,2.88A4,4,0,0,1,67.74,55.1Zm1.73-12.46a1.06,1.06,0,0,0-.5.13A2.42,2.42,0,0,0,68,45v8.07a2.11,2.11,0,0,0,1.46-1.22c.17-.38.22-.86,0-1a1,1,0,0,1-.38-1.24c1.17-2.7,1.84-6.16,1-6.78a1,1,0,0,0-.56-.18Z" transform="translate(0 -0.42)"/><path class="cls-6" d="M70,51a1,1,0,0,1-.54-.16l-.38-.24a1,1,0,0,1-.31-1.38,1,1,0,0,1,1.38-.31h0l.37.24A1,1,0,0,1,70,51Z" transform="translate(0 -0.42)"/><path class="cls-6" d="M60,43a1,1,0,0,1-.55-.17c-1.67-1.11-4.08-.71-6.62-.29a25.36,25.36,0,0,1-4.08.46,1,1,0,0,1,0-2,23.67,23.67,0,0,0,3.75-.43c2.82-.47,5.72-1,8,.6A1,1,0,0,1,60,43Z" transform="translate(0 -0.42)"/><path class="cls-6" d="M35,43.5a1,1,0,0,1-.71-.29c-1.48-1.49-7.9-2.16-10.09-1.07a1,1,0,0,1-.9-1.78c2.78-1.39,10.16-.82,12.41,1.43a1,1,0,0,1,0,1.42A1,1,0,0,1,35,43.5Z" transform="translate(0 -0.42)"/><circle class="cls-6" cx="29.5" cy="47.58" r="1.5"/><path class="cls-6" d="M29.5,50.5A2.5,2.5,0,1,1,32,48,2.5,2.5,0,0,1,29.5,50.5Zm0-3a.5.5,0,1,0,.5.5A.5.5,0,0,0,29.5,47.5Z" transform="translate(0 -0.42)"/><path class="cls-6" d="M34,47H25a1,1,0,0,1,0-2h9a1,1,0,0,1,0,2Z" transform="translate(0 -0.42)"/><path class="cls-6" d="M42,59.76a5.37,5.37,0,0,1-2.57-.93,1,1,0,1,1,1.11-1.66,3.6,3.6,0,0,0,1.46.59,3.72,3.72,0,0,0,1.46-.59,1,1,0,0,1,1.38.28,1,1,0,0,1-.27,1.38A5.44,5.44,0,0,1,42,59.76Z" transform="translate(0 -0.42)"/><path class="cls-6" d="M41.86,68c-2.66,0-5.28-.42-6.44-1.26a1,1,0,0,1-.24-1.39,1,1,0,0,1,1.39-.24h0c1.58,1.13,8.59,1.29,10.92,0a1,1,0,1,1,1,1.73h0C47.1,67.59,44.46,68,41.86,68Z" transform="translate(0 -0.42)"/><path class="cls-6" d="M45,75a1,1,0,0,1-.69-.28c-.82-.78-3.8-.78-4.62,0a1,1,0,1,1-1.38-1.44h0c1.59-1.52,5.79-1.52,7.38,0a1,1,0,0,1,0,1.41A1,1,0,0,1,45,75Z" transform="translate(0 -0.42)"/><circle class="cls-6" cx="54.64" cy="47.58" r="1.5"/><path class="cls-6" d="M54.64,50.5a2.5,2.5,0,1,1,2.5-2.5A2.5,2.5,0,0,1,54.64,50.5Zm0-3a.5.5,0,1,0,.5.5A.5.5,0,0,0,54.64,47.5Z" transform="translate(0 -0.42)"/><path class="cls-6" d="M59,47H50a1,1,0,0,1,0-2h9a1,1,0,0,1,0,2Z" transform="translate(0 -0.42)"/><path class="cls-6" d="M67,43H64a1,1,0,0,1,0-2h3a1,1,0,0,1,0,2Z" transform="translate(0 -0.42)"/><path class="cls-6" d="M20,43H17a1,1,0,0,1,0-2h3a1,1,0,0,1,0,2Z" transform="translate(0 -0.42)"/><path class="cls-15" d="M20,40.05c0,7,2,14,4,15,3.22,1.61,10,2,12,1,1.75-.87,1.9-2,3.56-4.4a3,3,0,0,1,4.14-.74,2.89,2.89,0,0,1,.74.74c1.66,2.42,1.81,3.53,3.56,4.4,2,1,8.78.61,12-1,2-1,4-8,4-15C60,37.05,24,37.05,20,40.05Z" transform="translate(0 -0.42)"/><path class="cls-16" d="M63.88,43C64,42,64,41,64,40.05c-4-3-40-3-44,0,0,1,0,2,.12,2.93C24.54,40.08,59.46,40.08,63.88,43Z" transform="translate(0 -0.42)"/><g class="cls-17"><path class="cls-13" d="M50.07,38,31.46,56.58A11.11,11.11,0,0,0,36,56.05a4.37,4.37,0,0,0,.55-.32l1.16-1.16c.5-.71,1-1.62,1.85-2.92a2.9,2.9,0,0,1,2.33-1.26L54.08,38.2C52.81,38.11,51.46,38,50.07,38Z" transform="translate(0 -0.42)"/><path class="cls-13" d="M20,40.05c0,7,2,14,4,15a14.51,14.51,0,0,0,3.63,1.11L46,37.84C34.79,37.62,22.27,38.35,20,40.05Z" transform="translate(0 -0.42)"/></g><path class="cls-6" d="M51.75,57.56a10.38,10.38,0,0,1-4.2-.67,6.37,6.37,0,0,1-2.82-3c-.3-.5-.64-1.08-1.11-1.76a2,2,0,0,0-3.24,0c-.47.68-.81,1.26-1.11,1.76a6.37,6.37,0,0,1-2.82,3c-2.45,1.23-9.56.67-12.9-1C20.83,54.53,19,46.58,19,40a1,1,0,0,1,.4-.8c4.44-3.33,40.76-3.33,45.2,0a1,1,0,0,1,.4.8c0,6.58-1.83,14.53-4.55,15.89A22,22,0,0,1,51.75,57.56ZM42,49.33A3.93,3.93,0,0,1,45.27,51c.5.73.87,1.36,1.18,1.86.7,1.18,1,1.72,2,2.21,1.58.79,8,.54,11.1-1,1.35-.68,3.34-6.6,3.45-13.54-5.13-2.39-36.87-2.39-42,0,.11,6.94,2.1,12.86,3.45,13.54,3.08,1.54,9.52,1.79,11.1,1,1-.49,1.3-1,2-2.21.31-.5.68-1.13,1.18-1.86A3.93,3.93,0,0,1,42,49.33Z" transform="translate(0 -0.42)"/><path class="cls-18" d="M18,34.9V45a135,135,0,0,0,24,1.9A135,135,0,0,0,66,45V34.9A135,135,0,0,0,42,33,135,135,0,0,0,18,34.9Z" transform="translate(0 -0.42)"/><ellipse class="cls-19" cx="42" cy="36.08" rx="34" ry="6.5"/><path class="cls-20" d="M67.17,40.92c8-1.19,8.5-3.34,8.83-4.42-1.72-4.07-9.89-4.13-14.54-2.21C65.15,36.66,67.37,38.9,67.17,40.92Z" transform="translate(0 -0.42)"/><path class="cls-19" d="M42,4c-16,0-29,11.42-29,29.21C13,35.07,28,37,42,37s29-1.93,29-3.79C71,15.42,58,4,42,4Z" transform="translate(0 -0.42)"/><path class="cls-21" d="M34.33,36.5c0-.6-4.41-.83-4.37-2.42C30.52,15.7,35.54,4,42,4,29.81,4,20,16.11,20,35a12.74,12.74,0,0,0-6,5.1C16.39,40.64,24.68,41.63,28,42a13.92,13.92,0,0,1,1-4.32C29.28,37.05,34,37.06,34.33,36.5Z" transform="translate(0 -0.42)"/><g class="cls-22"><path class="cls-23" d="M42,4c-.82,0-1.63,0-2.43.1C54.92,5.17,62.46,17.21,62.67,35.63c2,0,8.33-.56,8.33-2.42C71,15.42,58,4,42,4Z" transform="translate(0 -0.42)"/><path class="cls-23" d="M45,26h0a5,5,0,0,1-5-5V6c0-2,10-2,10,0V21A5,5,0,0,1,45,26Z" transform="translate(0 -0.42)"/></g><path class="cls-6" d="M42,44C29.89,44,7,42.43,7,36.5c0-1.73,1.87-3.15,5.7-4.35a1,1,0,1,1,.61,1.91h0C9.9,35.12,9,36.12,9,36.5,9,38.42,20.33,42,42,42s33-3.58,33-5.5c0-.38-.9-1.38-4.3-2.44a1,1,0,0,1,.59-1.91h0C75.13,33.35,77,34.77,77,36.5,77,42.43,54.11,44,42,44Z" transform="translate(0 -0.42)"/><path class="cls-6" d="M42,38c-1.32,0-2.66,0-4,0a1,1,0,0,1,0-2h0c1.32,0,2.64,0,3.95,0,14,0,26.3-1.81,28-3C69.88,16.74,58.13,5,42,5S14.08,16.74,14,33a8.4,8.4,0,0,0,2.29.79A1,1,0,0,1,17,35a1,1,0,0,1-1.21.73h0c-2.29-.56-3.81-1.2-3.81-2.47C12,15.71,24.58,3,42,3S72,15.71,72,33.21c0,.85,0,2.27-10.12,3.58A161.59,161.59,0,0,1,42,38Z" transform="translate(0 -0.42)"/><path class="cls-19" d="M42,30h0a5,5,0,0,1-5-5V3c0-2,10-2,10,0V25A5,5,0,0,1,42,30Z" transform="translate(0 -0.42)"/><g class="cls-17"><path class="cls-13" d="M37,5.5V16c0-2,10-2,10,0V5.5C47,3.5,37,3.5,37,5.5Z" transform="translate(0 -0.42)"/></g><path class="cls-6" d="M47,26a1,1,0,0,1-1-1h0V3.5c0-.11-.25-.38-.91-.62A9.27,9.27,0,0,0,42,2.42c-2.64,0-4,.76-4,1.08V25a1,1,0,0,1-2,0V3.5C36,1.22,39.23.42,42,.42s6,.8,6,3.08V25a1,1,0,0,1-1,1Z" transform="translate(0 -0.42)"/></g><path class="cls-6" d="M66.33,85.71a7.69,7.69,0,0,1-2.64-.47,5.61,5.61,0,0,1-3.43-7.14,4.71,4.71,0,0,1,2.48-2.72,4.39,4.39,0,0,1,3.48-.12,3.12,3.12,0,0,1,1.93,3.85,3,3,0,0,1-3.62,2.06.85.85,0,0,1-.59-1,.86.86,0,0,1,1-.62,1.26,1.26,0,0,0,1.6-.83v0a1.4,1.4,0,0,0-.91-1.77,2.7,2.7,0,0,0-2.14.08,3,3,0,0,0-1.58,1.71,3.89,3.89,0,0,0,2.34,5,5.18,5.18,0,0,0,4.12-.09,4.91,4.91,0,0,0,2.35-2.81.86.86,0,0,1,1.62.56,6.64,6.64,0,0,1-3.19,3.77A6.25,6.25,0,0,1,66.33,85.71Z" transform="translate(0 -0.42)"/><path class="cls-8" d="M82.2,115.63c-.12-5.21,0-13.6,1.46-18.66.37-4.69,4.15-8.2,8.39-7.79h0c4.29.41,7.42,4.58,7,9.27.62,5.27-.54,13.55-1.46,18.66C96.83,121.73,82.34,120.34,82.2,115.63Z" transform="translate(0 -0.42)"/><path class="cls-8" d="M110.46,117.27c-1-5.09-2.34-13.34-1.83-18.62-.45-4.68,2.64-8.93,6.85-9.42h0c4.28-.5,8.09,2.9,8.57,7.59-.75,5.93.75,13.21,1.82,18.62C126.79,120.05,111.39,121.86,110.46,117.27Z" transform="translate(0 -0.42)"/><path class="cls-24" d="M124.64,108.88a51.2,51.2,0,0,1-.59-12.08c-.47-4.68-4.29-8.09-8.57-7.59s-7.32,4.76-6.85,9.42c-.48,4.92.64,12.42,1.62,17.54C115.9,114.59,121,112.78,124.64,108.88Z" transform="translate(0 -0.42)"/><path class="cls-24" d="M92.09,89.18h0c-4.28-.41-8,3.1-8.39,7.79-1.13,4-1.36,11.19-1.4,16.14,4.36,2.88,9.54,3.73,15.3,4.23a1.55,1.55,0,0,0,.07-.23c.93-5.14,2.08-13.39,1.47-18.66C99.5,93.76,96.34,89.59,92.09,89.18Z" transform="translate(0 -0.42)"/><path class="cls-6" d="M91.34,120.82a13.67,13.67,0,0,1-1.43,0c-4.2-.34-8.46-2-8.56-5.14h0c-.08-3.77-.11-13.11,1.47-18.84a9.73,9.73,0,0,1,3.34-6.57,8,8,0,0,1,6-1.91c4.69.44,8.18,5,7.82,10.1.67,5.93-.81,15.14-1.49,18.84C98,119.9,94.62,120.82,91.34,120.82Zm-8.28-5.21c0,1.62,3.09,3.13,7,3.43,3.59.28,6.5-.61,6.77-2.08.66-3.63,2.12-12.71,1.46-18.4v-.17c.33-4.29-2.48-8-6.28-8.35a6.3,6.3,0,0,0-4.63,1.51A8,8,0,0,0,84.6,97v.16c-1.54,5.49-1.52,14.71-1.43,18.41Z" transform="translate(0 -0.42)"/><path class="cls-6" d="M116.6,120.82c-3.46,0-6.5-1-7-3.37h0c-.74-3.67-2.4-12.84-1.84-18.78-.47-5.14,2.94-9.73,7.63-10.28a8.12,8.12,0,0,1,6,1.78,9.66,9.66,0,0,1,3.42,6.58c.18,2.1.3,4,.42,5.72a97,97,0,0,0,1.4,12.84c.45,2.33-2,4.29-6.27,5.14A19,19,0,0,1,116.6,120.82Zm-5.29-3.72c.35,1.72,4.55,2.49,8.81,1.64,3.14-.62,5.14-1.92,4.93-3.15a98.5,98.5,0,0,1-1.44-13q-.17-2.58-.4-5.68a7.94,7.94,0,0,0-2.85-5.4,6.33,6.33,0,0,0-4.77-1.41c-3.78.46-6.53,4.28-6.11,8.5v.17c-.56,5.72,1.08,14.75,1.81,18.37Z" transform="translate(0 -0.42)"/><path class="cls-8" d="M110.77,80.15c-5.23-3.22-6.56-10.58-3-16.43s10.77-8,16-4.75C123.76,66.87,116,83.37,110.77,80.15Z" transform="translate(0 -0.42)"/><path class="cls-24" d="M120.36,57.66c-4.59-.86-9.7,1.42-12.56,6.06-3.2,5.22-.24,7.71,3.66,11.36C116.45,74.32,121.52,64.09,120.36,57.66Z" transform="translate(0 -0.42)"/><path class="cls-6" d="M112.17,81.43a3.54,3.54,0,0,1-1.87-.54h0a11.33,11.33,0,0,1-5.19-7.8,14,14,0,0,1,2-9.81c3.85-6.24,11.55-8.5,17.18-5a.86.86,0,0,1,.4.73c0,6.76-5.21,19-10.27,21.83A4.42,4.42,0,0,1,112.17,81.43Zm-.94-2a2.15,2.15,0,0,0,2.31-.12c4.28-2.39,9.12-13.61,9.42-19.85-4.79-2.57-11.13-.56-14.4,4.73a12.25,12.25,0,0,0-1.71,8.56,9.64,9.64,0,0,0,4.41,6.64Z" transform="translate(0 -0.42)"/><path class="cls-8" d="M134.2,79.76h-5.41c-4.28-10-15.41-17.12-28.56-17.12-16.79,0-30.4,11.69-30.4,26.11a23.68,23.68,0,0,0,5.93,15.5,108.67,108.67,0,0,0-.41,12.24c.1,4.71,14.6,6.09,15.41,1.48.22-1.25.46-2.69.7-4.23a35,35,0,0,0,8.77,1.09c.93,0,1.84,0,2.74-.12.22,1.24.43,2.38.64,3.43.93,4.6,15.41,2.87,15.41-1.84,0-2-.79-4.45-.17-6.92a27.43,27.43,0,0,0,9.11-10h6.24c2.28,0,4.12-4.4,4.12-9.83S136.48,79.76,134.2,79.76Z" transform="translate(0 -0.42)"/><g class="cls-25"><path class="cls-26" d="M131.86,94.28h-4.28c-4.76,9.08-15,15.41-27.35,15.41-15.78,0-28.74-10.33-30.25-23.54a24.45,24.45,0,0,0-.15,2.57c0,14.43,13.61,26.11,30.4,26.11,12.35,0,23-6.32,27.73-15.41h6.24c2.28,0,4.12-4.4,4.12-9.83a22.15,22.15,0,0,0-.15-2.57C137.86,90,135.29,94.28,131.86,94.28Z" transform="translate(0 -0.42)"/><path class="cls-26" d="M88.77,109.41c-.91,1.55-1.65,6.34-1.72,8.48-.08,2.47-4.59,2.34-8.49,1.84,4.34,1.71,11.67,1.48,12.26-1.76.4-2.24.86-5.07,1.18-8Z" transform="translate(0 -0.42)"/><path class="cls-26" d="M114.67,109.26c.15,2.66,1.21,5.28,1.14,7.56s-3.56,3.43-7.16,4c4.5.28,10.36-1.51,10.37-4.51,0-2.5-.47-5.5-.71-8.73Z" transform="translate(0 -0.42)"/></g><path class="cls-24" d="M106,63.09c-1.92,5.12-.78,10.48,3.65,13.2,3.42-1.71,7.71-5.13,9.42-7.7A27,27,0,0,0,106,63.09Z" transform="translate(0 -0.42)"/><path class="cls-21" d="M100.23,65.16c13.12,0,23.7,7.15,28,17.13h6c2.09,0,3.82,3.72,4.09,8.56V89.57c0-5.43-1.84-9.83-4.12-9.83h-5.36c-4.28-10-15.41-17.13-28.56-17.13-16.79,0-30.4,11.7-30.4,26.12V90C70.65,76.17,83.91,65.16,100.23,65.16Z" transform="translate(0 -0.42)"/><path class="cls-27" d="M134.31,79.72h-.14c-2.22,0-4,4.4-4,9.83s1.8,9.86,4,9.86h.14c2.21,0,4-4.4,4-9.83S136.52,79.72,134.31,79.72Z" transform="translate(0 -0.42)"/><path class="cls-6" d="M109.6,121.68c-3.13,0-6.33-.86-6.85-3.43-.16-.86-.33-1.71-.51-2.66-.69,0-1.37.06-2,.06a36.4,36.4,0,0,1-8-.82c-.17,1.13-.36,2.24-.56,3.33-.55,3-5,3.77-8.56,3.48-4.21-.33-8.47-2-8.56-5.14a106.39,106.39,0,0,1,.35-12A24.41,24.41,0,0,1,69,88.73c0-14.87,14-27,31.25-27,12.68,0,24,6.54,28.87,16.64a.86.86,0,0,0,.79.52h4.28c2.84,0,5,4.6,5,10.69s-2.16,10.66-5,10.66H129a.85.85,0,0,0-.76.46,28.39,28.39,0,0,1-8.67,9.18,11.31,11.31,0,0,0,.11,3.85,23.83,23.83,0,0,1,.23,2.52c0,3.09-4.29,4.89-8.57,5.31A10.4,10.4,0,0,1,109.6,121.68ZM103,113.87a.84.84,0,0,1,.86.71c.21,1.21.43,2.36.63,3.42.29,1.47,3.13,2.28,6.74,1.93,3.91-.39,7-2,7-3.61A19.68,19.68,0,0,0,118,114c-.24-1.85-.48-3.76.13-5a.79.79,0,0,1,.29-.34,26.88,26.88,0,0,0,8.36-8.81A2.57,2.57,0,0,1,129,98.56h5.23c1.36,0,3.26-3.43,3.26-9s-1.9-9-3.26-9h-4.28a2.6,2.6,0,0,1-2.34-1.48c-4.59-9.52-15.33-15.68-27.35-15.68C84,63.45,70.69,74.79,70.69,88.71a22.73,22.73,0,0,0,5.72,15,.9.9,0,0,1,.21.65,104.47,104.47,0,0,0-.41,12.13c0,1.62,3.09,3.13,7,3.42,3.59.29,6.5-.6,6.77-2.08s.48-2.78.69-4.19a.86.86,0,0,1,1-.73l.09,0a34.16,34.16,0,0,0,8.54,1.06,25,25,0,0,0,2.68-.1Z" transform="translate(0 -0.42)"/><path class="cls-21" d="M82.13,112.9c-.22,2.57-.56,3.95-2.11,3.49s-1.6-1.11-1.52-4.07c.06-2.27,1.28-3,2.13-2.78C81.77,109.87,82.27,111.25,82.13,112.9Z" transform="translate(0 -0.42)"/><path class="cls-21" d="M110.11,116.28c.1,1-.15,1.79-1.52,1.87a1.94,1.94,0,0,1-2.14-1.63c-.23-1.25.86-1.76,1.77-1.77a1.65,1.65,0,0,1,1.88,1.35C110.1,116.16,110.11,116.22,110.11,116.28Z" transform="translate(0 -0.42)"/><path class="cls-6" d="M132.72,90.85a.86.86,0,0,1-.86-.86v-.85a.86.86,0,1,1,1.72,0V90A.86.86,0,0,1,132.72,90.85Z" transform="translate(0 -0.42)"/><path class="cls-6" d="M135.29,90.85a.86.86,0,0,1-.86-.86v-.85a.86.86,0,1,1,1.71,0V90A.85.85,0,0,1,135.29,90.85Z" transform="translate(0 -0.42)"/><path class="cls-6" d="M89.05,68.37a.86.86,0,0,1-.35-1.64h0a28.89,28.89,0,0,1,10.61-2.24.86.86,0,1,1,0,1.71,27.81,27.81,0,0,0-9.93,2.1A.8.8,0,0,1,89.05,68.37Z" transform="translate(0 -0.42)"/><path class="cls-8" d="M103.53,79.29c-5.24-3.22-6.57-10.57-3-16.42s10.75-8,16-4.76C116.55,66,108.74,82.51,103.53,79.29Z" transform="translate(0 -0.42)"/><path class="cls-6" d="M109.6,77.4a.86.86,0,0,1-.67-1.39c3.43-4.28,6.56-12.42,6.76-17.41-4.79-2.61-11.13-.56-14.4,4.72a.86.86,0,0,1-1.5-.84l0-.06c3.84-6.24,11.54-8.5,17.13-5a.85.85,0,0,1,.41.72c0,5.34-3.34,14.2-7.15,19A.84.84,0,0,1,109.6,77.4Z" transform="translate(0 -0.42)"/><path class="cls-21" d="M108.74,63.81C106.47,66,104,67.73,103,66.73s-.63-3.43,1.65-5.64S110.75,58,111.74,59,111,61.57,108.74,63.81Z" transform="translate(0 -0.42)"/><ellipse class="cls-21" cx="88.72" cy="79.58" rx="12.95" ry="10.04" transform="translate(-24.64 42.37) rotate(-23.91)"/><path class="cls-6" d="M117.31,89.14a.86.86,0,0,1-.61-.25l-5.57-5.57a.86.86,0,0,1,1.22-1.21l5.56,5.56a.85.85,0,0,1,0,1.21h0A.86.86,0,0,1,117.31,89.14Z" transform="translate(0 -0.42)"/><path class="cls-6" d="M111.74,89.14a.86.86,0,0,1-.61-1.46h0l5.57-5.56a.86.86,0,0,1,1.21,1.21l-5.56,5.57A.86.86,0,0,1,111.74,89.14Z" transform="translate(0 -0.42)"/><path class="cls-6" d="M122.39,102.91h-.13a.86.86,0,0,1-.67-.93,4.67,4.67,0,0,1,4.72-3.42h4.29a.86.86,0,0,1,0,1.71h-4.29a3,3,0,0,0-3,1.88v.07A1,1,0,0,1,122.39,102.91Z" transform="translate(0 -0.42)"/><path class="cls-28" d="M131.09,57.75a2.12,2.12,0,0,1-3,0L107.92,37.39l6-6,20.25,20.25h0a2.12,2.12,0,0,1,0,3l-3,3.07Z" transform="translate(0 -0.42)"/><path class="cls-21" d="M132,56.78l2.12-2.13h0a2.12,2.12,0,0,0,0-3L113.94,31.4l-2.12,2.12L132,53.77C131.94,54.82,132.49,56.08,132,56.78Z" transform="translate(0 -0.42)"/><path class="cls-20" d="M107.87,37.43l20.22,20.29,0,0a2.12,2.12,0,0,0,3,0l2.12-2.16h0a2.12,2.12,0,0,1-3,0L110,35.31Z" transform="translate(0 -0.42)"/><path class="cls-29" d="M91.27,35.92,100.33,45,123,22.34l-3.14-3.16a12.84,12.84,0,0,1-12.92,1.13Z" transform="translate(0 -0.42)"/><path class="cls-21" d="M120.83,24.46,123,22.34l-3.14-3.16a12.84,12.84,0,0,1-12.92,1.13l-2.12,2.12c4.13,2,10.16,2.66,14-.06Z" transform="translate(0 -0.42)"/><rect class="cls-30" x="122.81" y="40.99" width="3.01" height="12.81" transform="translate(2.9 101.37) rotate(-45)"/><path class="cls-6" d="M125.38,56.15,107.31,38h0a.85.85,0,0,1,0-1.21l6-6a.86.86,0,0,1,.61-.25h0a.86.86,0,0,1,.61.25L129.2,45.47A.86.86,0,1,1,128,46.69L113.91,32.6l-4.83,4.83,17.51,17.5h0a.86.86,0,0,1-1.22,1.21Z" transform="translate(0 -0.42)"/><path class="cls-6" d="M99.72,45.58l-9.06-9.06a.85.85,0,0,1,0-1.2L106.28,19.7a.85.85,0,0,1,1-.17,11.93,11.93,0,0,0,12-1,.85.85,0,0,1,1.1.09l3.19,3.16a.85.85,0,0,1,0,1.2L100.93,45.58a.86.86,0,0,1-1.21,0Zm20-25.29a13.71,13.71,0,0,1-12.62,1.05L92.48,35.9l7.85,7.84,21.41-21.4Z" transform="translate(0 -0.42)"/><path class="cls-6" d="M93.33,92.56A.87.87,0,0,1,93,92.5a.86.86,0,0,1-.48-1.11h0L93.89,88l-2.48-.6a.86.86,0,0,1-.62-1,.88.88,0,0,1,.12-.26l1.26-1.9-2.78-2.1A.87.87,0,0,1,89.17,81L91,78H85.62a.86.86,0,0,1-.85-.86A.92.92,0,0,1,85,76.6l3.43-4.13-4.71-1.31a.86.86,0,0,1-.6-1l.86-3.43a.86.86,0,0,1,1.66.41l-.66,2.59,5.2,1.46a.85.85,0,0,1,.59.57.86.86,0,0,1-.17.8l-3.1,3.76h5a.86.86,0,0,1,.86.86.88.88,0,0,1-.12.44L91,81.21l2.8,2.1a.86.86,0,0,1,.2,1.16L93,86l2.24.56a.81.81,0,0,1,.56,1.15L94.09,92A.83.83,0,0,1,93.33,92.56Z" transform="translate(0 -0.42)"/><path class="cls-6" d="M89.61,58.72a.82.82,0,0,1-.12.43.85.85,0,0,1-1.17.3L84,56.88a.84.84,0,0,1-.42-1.13.86.86,0,0,1,1.13-.43l.15.09L89.17,58A.85.85,0,0,1,89.61,58.72Z" transform="translate(0 -0.42)"/><path class="cls-6" d="M92.18,56.15a.86.86,0,0,1-.86.85.85.85,0,0,1-.69-.36l-4.28-6a.85.85,0,0,1,.3-1.17.83.83,0,0,1,1.08.18l4.28,6A.82.82,0,0,1,92.18,56.15Z" transform="translate(0 -0.42)"/><path class="cls-6" d="M95.6,54.43a.86.86,0,0,1-1.71.16v0L93,49.43a.87.87,0,0,1,1.72-.27l.85,5.14Z" transform="translate(0 -0.42)"/></g></g></svg>