<svg xmlns="http://www.w3.org/2000/svg" viewBox="0 0 143.62 141.25"><defs><style>.cls-1,.cls-16{opacity:0.3;}.cls-2{fill:#97c1ff;}.cls-14,.cls-3{fill:#fff;}.cls-4{fill:#eef6ff;}.cls-5{fill:#6d6daa;}.cls-6{fill:#8d96b8;}.cls-7{fill:#939fc6;}.cls-8{fill:#96d7ff;}.cls-9{fill:#ff9797;}.cls-10{fill:#b1f1a8;}.cls-11{fill:#c9c1f5;}.cls-12{fill:#d4edff;}.cls-13{fill:#f9e2dc;}.cls-14{opacity:0.5;}.cls-14,.cls-16,.cls-18{isolation:isolate;}.cls-15,.cls-16{fill:#cc7e54;}.cls-17{fill:#89dbba;}.cls-18{fill:#2c4b75;opacity:0.2;}</style></defs><title>icon_3</title><g id="Layer_2" data-name="Layer 2"><g id="Artwork"><g class="cls-1"><path class="cls-2" d="M1.7,50.87A34.15,34.15,0,0,1,28.45,22.42a22.49,22.49,0,0,0,12.46-7.5,42.11,42.11,0,0,1,73.21,17.85,22.31,22.31,0,0,0,11.85,15A31.87,31.87,0,1,1,83.11,90.25a10.73,10.73,0,0,0-9.69-6h-.94A14.12,14.12,0,0,0,58.82,95.32a22.77,22.77,0,0,1-27.48,16.76c-.76-.19-1.51-.41-2.25-.67A22.76,22.76,0,0,1,13.9,91.06,24.32,24.32,0,0,0,8.74,77,34,34,0,0,1,1.7,50.87Z"/><path class="cls-3" d="M50.9,19.79a1.07,1.07,0,0,1-.76-.32,1.06,1.06,0,0,1-.31-.75,1,1,0,0,1,.07-.42,1.21,1.21,0,0,1,.24-.35,1,1,0,0,1,.34-.23,1.07,1.07,0,0,1,1.18.23,1,1,0,0,1,.23.35,1.17,1.17,0,0,1,.09.42,1.11,1.11,0,0,1-.32.75A1.07,1.07,0,0,1,50.9,19.79Z"/><path class="cls-3" d="M63.79,24.09H57.35a1.08,1.08,0,1,1,0-2.15h6.44a1.08,1.08,0,0,1,0,2.15Z"/><path class="cls-3" d="M71.31,19.79H55.2a1.08,1.08,0,1,1,0-2.15H71.31a1.08,1.08,0,0,1,0,2.15Z"/><path class="cls-3" d="M60.57,28.38H53.05a1.08,1.08,0,0,1,0-2.15h7.52a1.08,1.08,0,0,1,0,2.15Z"/><path class="cls-3" d="M53.05,24.09h-4.3a1.08,1.08,0,0,1,0-2.15h4.3a1.08,1.08,0,0,1,0,2.15Z"/><path class="cls-3" d="M50.9,19.79a1.07,1.07,0,0,1-.76-.32,1.06,1.06,0,0,1-.31-.75,1,1,0,0,1,.07-.42,1.21,1.21,0,0,1,.24-.35,1,1,0,0,1,.34-.23,1.07,1.07,0,0,1,1.18.23,1,1,0,0,1,.23.35,1.17,1.17,0,0,1,.09.42,1.11,1.11,0,0,1-.32.75A1.07,1.07,0,0,1,50.9,19.79Z"/><path class="cls-3" d="M63.79,24.09H57.35a1.08,1.08,0,1,1,0-2.15h6.44a1.08,1.08,0,0,1,0,2.15Z"/><path class="cls-3" d="M71.31,19.79H55.2a1.08,1.08,0,1,1,0-2.15H71.31a1.08,1.08,0,0,1,0,2.15Z"/><path class="cls-3" d="M60.57,28.38H53.05a1.08,1.08,0,0,1,0-2.15h7.52a1.08,1.08,0,0,1,0,2.15Z"/><path class="cls-3" d="M53.05,24.09h-4.3a1.08,1.08,0,0,1,0-2.15h4.3a1.08,1.08,0,0,1,0,2.15Z"/><rect class="cls-4" x="16.38" y="97.97" width="4.68" height="4.68"/><path class="cls-5" d="M21.06,103.82H16.38a1.17,1.17,0,0,1-1.17-1.17V98a1.17,1.17,0,0,1,1.17-1.17h4.68A1.18,1.18,0,0,1,22.23,98v4.68A1.17,1.17,0,0,1,21.06,103.82Zm-3.51-2.34h2.34V99.14H17.55Z"/><rect class="cls-4" x="16.38" y="86.27" width="4.68" height="4.68"/><path class="cls-5" d="M21.06,92.12H16.38A1.17,1.17,0,0,1,15.21,91V86.27a1.16,1.16,0,0,1,1.17-1.16h4.68a1.17,1.17,0,0,1,1.17,1.16V91A1.17,1.17,0,0,1,21.06,92.12Zm-3.51-2.34h2.34V87.44H17.55Z"/><rect class="cls-4" x="16.38" y="74.58" width="4.68" height="4.68"/><path class="cls-5" d="M21.06,80.43H16.38a1.17,1.17,0,0,1-1.17-1.17V74.58a1.17,1.17,0,0,1,1.17-1.17h4.68a1.17,1.17,0,0,1,1.17,1.17v4.68A1.18,1.18,0,0,1,21.06,80.43Zm-3.51-2.34h2.34V75.75H17.55Z"/><rect class="cls-4" x="16.38" y="62.88" width="4.68" height="4.68"/><path class="cls-5" d="M21.06,68.73H16.38a1.17,1.17,0,0,1-1.17-1.17V62.88a1.17,1.17,0,0,1,1.17-1.17h4.68a1.17,1.17,0,0,1,1.17,1.17v4.68A1.18,1.18,0,0,1,21.06,68.73Zm-3.51-2.34h2.34V64.05H17.55Z"/><rect class="cls-4" x="16.38" y="51.18" width="4.68" height="4.68"/><path class="cls-5" d="M21.06,57H16.38a1.17,1.17,0,0,1-1.17-1.17V51.18A1.17,1.17,0,0,1,16.38,50h4.68a1.18,1.18,0,0,1,1.17,1.17v4.68A1.17,1.17,0,0,1,21.06,57Zm-3.51-2.34h2.34V52.35H17.55Z"/><rect class="cls-4" x="16.38" y="121.37" width="4.68" height="4.68"/><path class="cls-5" d="M21.06,127.22H16.38a1.17,1.17,0,0,1-1.17-1.17v-4.68a1.17,1.17,0,0,1,1.17-1.17h4.68a1.17,1.17,0,0,1,1.17,1.17v4.68A1.18,1.18,0,0,1,21.06,127.22Zm-3.51-2.34h2.34v-2.34H17.55Z"/><rect class="cls-4" x="16.38" y="109.67" width="4.68" height="4.68"/><path class="cls-5" d="M21.06,115.52H16.38a1.17,1.17,0,0,1-1.17-1.17v-4.68a1.17,1.17,0,0,1,1.17-1.17h4.68a1.17,1.17,0,0,1,1.17,1.17v4.68A1.18,1.18,0,0,1,21.06,115.52Zm-3.51-2.34h2.34v-2.34H17.55Z"/><path class="cls-5" d="M79.54,133.06a1.17,1.17,0,0,1-1.17-1.17V45.33a1.17,1.17,0,0,1,2.34,0v86.56A1.17,1.17,0,0,1,79.54,133.06Z"/><path class="cls-5" d="M79.54,94.46h-7a1.17,1.17,0,0,1,0-2.34h7a1.17,1.17,0,0,1,0,2.34Z"/><path class="cls-5" d="M79.54,89.78h-7a1.17,1.17,0,0,1,0-2.34h7a1.17,1.17,0,0,1,0,2.34Z"/><path class="cls-5" d="M79.54,99.14h-7a1.17,1.17,0,0,1,0-2.34h7a1.17,1.17,0,0,1,0,2.34Z"/><path class="cls-5" d="M79.54,80.43h-7a1.17,1.17,0,0,1,0-2.34h7a1.17,1.17,0,0,1,0,2.34Z"/><path class="cls-5" d="M79.54,75.75h-7a1.17,1.17,0,0,1,0-2.34h7a1.17,1.17,0,0,1,0,2.34Z"/><path class="cls-5" d="M79.54,85.11h-7a1.17,1.17,0,0,1,0-2.34h7a1.17,1.17,0,0,1,0,2.34Z"/><path class="cls-5" d="M79.54,66.39h-7a1.17,1.17,0,0,1,0-2.34h7a1.17,1.17,0,0,1,0,2.34Z"/><path class="cls-5" d="M79.54,61.71h-7a1.17,1.17,0,0,1,0-2.34h7a1.17,1.17,0,0,1,0,2.34Z"/><path class="cls-5" d="M79.54,71.07h-7a1.17,1.17,0,0,1,0-2.34h7a1.17,1.17,0,0,1,0,2.34Z"/><path class="cls-5" d="M79.54,52.35h-7a1.17,1.17,0,0,1,0-2.34h7a1.17,1.17,0,0,1,0,2.34Z"/><path class="cls-5" d="M79.54,47.67h-7a1.17,1.17,0,0,1,0-2.34h7a1.17,1.17,0,1,1,0,2.34Z"/><path class="cls-5" d="M79.54,57h-7a1.17,1.17,0,0,1,0-2.34h7a1.17,1.17,0,0,1,0,2.34Z"/><path class="cls-5" d="M79.54,103.82h-7a1.17,1.17,0,0,1,0-2.34h7a1.17,1.17,0,0,1,0,2.34Z"/><path class="cls-5" d="M79.54,108.5h-7a1.17,1.17,0,0,1,0-2.34h7a1.17,1.17,0,0,1,0,2.34Z"/><path class="cls-5" d="M79.54,113.18h-7a1.17,1.17,0,0,1,0-2.34h7a1.17,1.17,0,0,1,0,2.34Z"/><path class="cls-5" d="M79.54,117.86h-7a1.17,1.17,0,0,1,0-2.34h7a1.17,1.17,0,0,1,0,2.34Z"/><path class="cls-5" d="M79.54,122.54h-7a1.17,1.17,0,0,1,0-2.34h7a1.17,1.17,0,0,1,0,2.34Z"/><path class="cls-5" d="M79.54,127.22h-7a1.17,1.17,0,0,1,0-2.34h7a1.17,1.17,0,0,1,0,2.34Z"/><path class="cls-5" d="M79.54,131.89h-7a1.17,1.17,0,1,1,0-2.33h7a1.17,1.17,0,1,1,0,2.33Z"/><rect class="cls-6" x="25.13" y="33.75" width="47.25" height="4.28"/><path class="cls-5" d="M72.38,39.12H25.13a1.07,1.07,0,0,1-1.08-1.07v-4.3a1.07,1.07,0,0,1,1.08-1.07H72.38a1.07,1.07,0,0,1,1.07,1.07v4.3A1.07,1.07,0,0,1,72.38,39.12ZM26.2,37H71.31V34.83H26.2Z"/><rect class="cls-4" x="21.06" y="39.49" width="51.47" height="100.6"/><path class="cls-5" d="M72.52,141.25H21.06a1.17,1.17,0,0,1-1.17-1.17V39.49a1.17,1.17,0,0,1,1.17-1.17H72.52a1.17,1.17,0,0,1,1.17,1.17V140.08A1.17,1.17,0,0,1,72.52,141.25Zm-50.29-2.34H71.35V40.65H22.23Z"/><rect class="cls-7" x="56.15" y="128.39" width="9.36" height="11.7"/><path class="cls-5" d="M65.51,141.25H56.15A1.17,1.17,0,0,1,55,140.08V128.39a1.17,1.17,0,0,1,1.17-1.17h9.36a1.17,1.17,0,0,1,1.17,1.17v11.69A1.17,1.17,0,0,1,65.51,141.25Zm-8.19-2.34h7v-9.35h-7Z"/><rect class="cls-8" x="28.07" y="128.39" width="23.39" height="7.02"/><path class="cls-5" d="M51.47,136.57H28.07a1.17,1.17,0,0,1-1.17-1.17v-7a1.17,1.17,0,0,1,1.17-1.17h23.4a1.17,1.17,0,0,1,1.17,1.17v7A1.17,1.17,0,0,1,51.47,136.57Zm-22.23-2.34H50.3v-4.67H29.24Z"/><rect class="cls-8" x="28.07" y="116.69" width="11.7" height="7.02"/><path class="cls-5" d="M39.77,124.88H28.07a1.18,1.18,0,0,1-1.17-1.17v-7a1.17,1.17,0,0,1,1.17-1.17h11.7a1.17,1.17,0,0,1,1.17,1.17v7A1.17,1.17,0,0,1,39.77,124.88Zm-10.53-2.34H38.6v-4.68H29.24Z"/><path class="cls-5" d="M33.92,124.88a1.18,1.18,0,0,1-1.17-1.17v-7a1.17,1.17,0,1,1,2.34,0v7A1.17,1.17,0,0,1,33.92,124.88Z"/><rect class="cls-8" x="28.07" y="104.99" width="11.7" height="7.02"/><path class="cls-5" d="M39.77,113.18H28.07A1.17,1.17,0,0,1,26.9,112v-7a1.17,1.17,0,0,1,1.17-1.17h11.7A1.17,1.17,0,0,1,40.94,105v7A1.17,1.17,0,0,1,39.77,113.18Zm-10.53-2.34H38.6v-4.68H29.24Z"/><path class="cls-5" d="M33.92,113.18A1.17,1.17,0,0,1,32.75,112v-7a1.17,1.17,0,0,1,2.34,0v7A1.17,1.17,0,0,1,33.92,113.18Z"/><rect class="cls-8" x="28.07" y="93.29" width="11.7" height="7.02"/><path class="cls-5" d="M39.77,101.48H28.07a1.17,1.17,0,0,1-1.17-1.17v-7a1.18,1.18,0,0,1,1.17-1.17h11.7a1.17,1.17,0,0,1,1.17,1.17v7A1.17,1.17,0,0,1,39.77,101.48ZM29.24,99.14H38.6V94.46H29.24Z"/><path class="cls-5" d="M33.92,101.48a1.17,1.17,0,0,1-1.17-1.17v-7a1.17,1.17,0,0,1,2.34,0v7A1.17,1.17,0,0,1,33.92,101.48Z"/><rect class="cls-8" x="28.07" y="81.6" width="11.7" height="7.02"/><path class="cls-5" d="M39.77,89.78H28.07a1.17,1.17,0,0,1-1.17-1.17v-7a1.17,1.17,0,0,1,1.17-1.17h11.7a1.17,1.17,0,0,1,1.17,1.17v7A1.17,1.17,0,0,1,39.77,89.78ZM29.24,87.44H38.6V82.77H29.24Z"/><path class="cls-5" d="M33.92,89.78a1.17,1.17,0,0,1-1.17-1.17v-7a1.17,1.17,0,0,1,2.34,0v7A1.17,1.17,0,0,1,33.92,89.78Z"/><rect class="cls-8" x="53.81" y="116.69" width="11.7" height="7.02"/><path class="cls-5" d="M65.51,124.88H53.81a1.17,1.17,0,0,1-1.17-1.17v-7a1.17,1.17,0,0,1,1.17-1.17h11.7a1.17,1.17,0,0,1,1.17,1.17v7A1.18,1.18,0,0,1,65.51,124.88ZM55,122.54h9.36v-4.68H55Z"/><path class="cls-5" d="M59.66,124.88a1.17,1.17,0,0,1-1.17-1.17v-7a1.17,1.17,0,1,1,2.34,0v7A1.18,1.18,0,0,1,59.66,124.88Z"/><rect class="cls-8" x="53.81" y="104.99" width="11.7" height="7.02"/><path class="cls-5" d="M65.51,113.18H53.81A1.17,1.17,0,0,1,52.64,112v-7a1.17,1.17,0,0,1,1.17-1.17h11.7A1.17,1.17,0,0,1,66.68,105v7A1.17,1.17,0,0,1,65.51,113.18ZM55,110.84h9.36v-4.68H55Z"/><path class="cls-5" d="M59.66,113.18A1.17,1.17,0,0,1,58.49,112v-7a1.17,1.17,0,1,1,2.34,0v7A1.17,1.17,0,0,1,59.66,113.18Z"/><rect class="cls-8" x="53.81" y="93.29" width="11.7" height="7.02"/><path class="cls-5" d="M65.51,101.48H53.81a1.17,1.17,0,0,1-1.17-1.17v-7a1.17,1.17,0,0,1,1.17-1.17h11.7a1.18,1.18,0,0,1,1.17,1.17v7A1.17,1.17,0,0,1,65.51,101.48ZM55,99.14h9.36V94.46H55Z"/><path class="cls-5" d="M59.66,101.48a1.17,1.17,0,0,1-1.17-1.17v-7a1.17,1.17,0,1,1,2.34,0v7A1.17,1.17,0,0,1,59.66,101.48Z"/><rect class="cls-8" x="53.81" y="81.6" width="11.7" height="7.02"/><path class="cls-5" d="M65.51,89.78H53.81a1.17,1.17,0,0,1-1.17-1.17v-7a1.17,1.17,0,0,1,1.17-1.17h11.7a1.17,1.17,0,0,1,1.17,1.17v7A1.17,1.17,0,0,1,65.51,89.78ZM55,87.44h9.36V82.77H55Z"/><path class="cls-5" d="M59.66,89.78a1.17,1.17,0,0,1-1.17-1.17v-7a1.17,1.17,0,0,1,2.34,0v7A1.17,1.17,0,0,1,59.66,89.78Z"/><rect class="cls-8" x="28.07" y="69.9" width="11.7" height="7.02"/><path class="cls-5" d="M39.77,78.09H28.07a1.18,1.18,0,0,1-1.17-1.17v-7a1.17,1.17,0,0,1,1.17-1.17h11.7a1.17,1.17,0,0,1,1.17,1.17v7A1.17,1.17,0,0,1,39.77,78.09ZM29.24,75.75H38.6V71.07H29.24Z"/><path class="cls-5" d="M33.92,78.09a1.18,1.18,0,0,1-1.17-1.17v-7a1.17,1.17,0,1,1,2.34,0v7A1.17,1.17,0,0,1,33.92,78.09Z"/><rect class="cls-8" x="53.81" y="69.9" width="11.7" height="7.02"/><path class="cls-5" d="M65.51,78.09H53.81a1.17,1.17,0,0,1-1.17-1.17v-7a1.17,1.17,0,0,1,1.17-1.17h11.7a1.17,1.17,0,0,1,1.17,1.17v7A1.18,1.18,0,0,1,65.51,78.09ZM55,75.75h9.36V71.07H55Z"/><path class="cls-5" d="M59.66,78.09a1.17,1.17,0,0,1-1.17-1.17v-7a1.17,1.17,0,0,1,2.34,0v7A1.18,1.18,0,0,1,59.66,78.09Z"/><rect class="cls-8" x="28.07" y="58.2" width="11.7" height="7.02"/><path class="cls-5" d="M39.77,66.39H28.07a1.17,1.17,0,0,1-1.17-1.17v-7A1.17,1.17,0,0,1,28.07,57h11.7a1.17,1.17,0,0,1,1.17,1.17v7A1.17,1.17,0,0,1,39.77,66.39ZM29.24,64.05H38.6V59.37H29.24Z"/><path class="cls-5" d="M33.92,66.39a1.17,1.17,0,0,1-1.17-1.17v-7a1.17,1.17,0,0,1,2.34,0v7A1.17,1.17,0,0,1,33.92,66.39Z"/><rect class="cls-8" x="53.81" y="58.2" width="11.7" height="7.02"/><path class="cls-5" d="M65.51,66.39H53.81a1.17,1.17,0,0,1-1.17-1.17v-7A1.17,1.17,0,0,1,53.81,57h11.7a1.17,1.17,0,0,1,1.17,1.17v7A1.17,1.17,0,0,1,65.51,66.39ZM55,64.05h9.36V59.37H55Z"/><path class="cls-5" d="M59.66,66.39a1.17,1.17,0,0,1-1.17-1.17v-7a1.17,1.17,0,1,1,2.34,0v7A1.17,1.17,0,0,1,59.66,66.39Z"/><rect class="cls-8" x="28.07" y="46.5" width="11.7" height="7.02"/><path class="cls-5" d="M39.77,54.69H28.07a1.17,1.17,0,0,1-1.17-1.17v-7a1.18,1.18,0,0,1,1.17-1.17h11.7a1.17,1.17,0,0,1,1.17,1.17v7A1.17,1.17,0,0,1,39.77,54.69ZM29.24,52.35H38.6V47.67H29.24Z"/><path class="cls-5" d="M33.92,54.69a1.17,1.17,0,0,1-1.17-1.17v-7a1.17,1.17,0,0,1,2.34,0v7A1.17,1.17,0,0,1,33.92,54.69Z"/><rect class="cls-8" x="53.81" y="46.5" width="11.7" height="7.02"/><path class="cls-5" d="M65.51,54.69H53.81a1.17,1.17,0,0,1-1.17-1.17v-7a1.17,1.17,0,0,1,1.17-1.17h11.7a1.18,1.18,0,0,1,1.17,1.17v7A1.17,1.17,0,0,1,65.51,54.69ZM55,52.35h9.36V47.67H55Z"/><path class="cls-5" d="M59.66,54.69a1.17,1.17,0,0,1-1.17-1.17v-7a1.17,1.17,0,0,1,2.34,0v7A1.17,1.17,0,0,1,59.66,54.69Z"/><rect class="cls-2" x="44.45" y="46.5" width="4.68" height="77.2"/><path class="cls-5" d="M49.13,124.88H44.45a1.17,1.17,0,0,1-1.17-1.17V46.5a1.17,1.17,0,0,1,1.17-1.17h4.68A1.17,1.17,0,0,1,50.3,46.5v77.21A1.17,1.17,0,0,1,49.13,124.88Zm-3.51-2.34H48V47.67H45.62Z"/><path class="cls-5" d="M49.13,115.52H44.45a1.17,1.17,0,1,1,0-2.34h4.68a1.17,1.17,0,0,1,0,2.34Z"/><path class="cls-5" d="M49.13,103.82H44.45a1.17,1.17,0,0,1,0-2.34h4.68a1.17,1.17,0,0,1,0,2.34Z"/><path class="cls-5" d="M49.13,92.12H44.45a1.17,1.17,0,0,1,0-2.34h4.68a1.17,1.17,0,0,1,0,2.34Z"/><path class="cls-5" d="M49.13,80.43H44.45a1.17,1.17,0,0,1,0-2.34h4.68a1.17,1.17,0,0,1,0,2.34Z"/><path class="cls-5" d="M49.13,68.73H44.45a1.17,1.17,0,0,1,0-2.34h4.68a1.17,1.17,0,0,1,0,2.34Z"/><path class="cls-5" d="M49.13,57H44.45a1.17,1.17,0,0,1,0-2.34h4.68a1.17,1.17,0,0,1,0,2.34Z"/><path class="cls-5" d="M72.38,39.12H25.13a1.08,1.08,0,1,1,0-2.15H72.38a1.08,1.08,0,0,1,0,2.15Z"/><path class="cls-5" d="M74.53,34.83H23a1.08,1.08,0,0,1,0-2.15H74.53a1.08,1.08,0,0,1,0,2.15Z"/><rect class="cls-2" x="3.51" y="74.61" width="58.49" height="16.38"/><path class="cls-5" d="M62,92.12H3.51A1.17,1.17,0,0,1,2.34,91V74.58a1.17,1.17,0,0,1,1.17-1.17H62a1.17,1.17,0,0,1,1.17,1.17V91A1.17,1.17,0,0,1,62,92.12ZM4.68,89.78H60.83v-14H4.68Z"/><polygon class="cls-4" points="57.32 95.67 57.32 93.33 32.75 77.5 8.19 93.33 8.19 95.67 5.85 95.67 5.85 140.12 59.66 140.12 59.66 133.46 59.66 103.18 59.66 95.67 57.32 95.67"/><path class="cls-5" d="M59.66,141.25H5.85a1.17,1.17,0,0,1-1.17-1.17V95.63a1.17,1.17,0,0,1,1.17-1.17H7V93.29a1.17,1.17,0,0,1,.54-1L32.12,76.48a1.19,1.19,0,0,1,1.26,0L58,92.31a1.19,1.19,0,0,1,.54,1v1.17h1.17a1.18,1.18,0,0,1,1.17,1.17v44.45A1.17,1.17,0,0,1,59.66,141.25ZM7,138.91H58.49V96.8H57.32a1.17,1.17,0,0,1-1.17-1.17V94L32.75,78.89,9.36,94v1.66A1.17,1.17,0,0,1,8.19,96.8H7Z"/><rect class="cls-8" x="12.87" y="121.4" width="21.06" height="14.04"/><path class="cls-5" d="M33.92,136.57H12.87a1.17,1.17,0,0,1-1.17-1.17v-14a1.17,1.17,0,0,1,1.17-1.17H33.92a1.17,1.17,0,0,1,1.17,1.17v14A1.17,1.17,0,0,1,33.92,136.57ZM14,134.23H32.75V122.54H14Z"/><rect class="cls-8" x="12.87" y="100.35" width="7.02" height="9.36"/><path class="cls-5" d="M19.89,110.84h-7a1.17,1.17,0,0,1-1.17-1.17v-9.36a1.17,1.17,0,0,1,1.17-1.17h7a1.18,1.18,0,0,1,1.17,1.17v9.36A1.17,1.17,0,0,1,19.89,110.84ZM14,108.5h4.68v-7H14Z"/><polygon class="cls-9" points="54.98 86.31 54.98 75.78 47.96 75.78 47.96 82 54.98 86.31"/><path class="cls-5" d="M55,87.44a1.17,1.17,0,0,1-.61-.17l-7-4.31a1.15,1.15,0,0,1-.56-1V75.75A1.17,1.17,0,0,1,48,74.58h7a1.17,1.17,0,0,1,1.17,1.17V86.27A1.17,1.17,0,0,1,55,87.44Zm-5.85-6.12,4.68,2.86V76.92H49.13Z"/><rect class="cls-9" x="46.79" y="72.27" width="9.36" height="3.51"/><path class="cls-5" d="M56.15,76.92H46.79a1.17,1.17,0,0,1-1.17-1.17V72.24a1.17,1.17,0,0,1,1.17-1.17h9.36a1.17,1.17,0,0,1,1.17,1.17v3.51A1.18,1.18,0,0,1,56.15,76.92ZM48,74.58h7V73.41H48Z"/><path class="cls-5" d="M23.39,136.57a1.16,1.16,0,0,1-1.16-1.17v-14a1.17,1.17,0,1,1,2.33,0v14A1.17,1.17,0,0,1,23.39,136.57Z"/><path class="cls-5" d="M35.09,136.57H11.7a1.17,1.17,0,0,1,0-2.34H35.09a1.17,1.17,0,1,1,0,2.34Z"/><rect class="cls-9" x="40.94" y="121.4" width="11.7" height="15.21"/><path class="cls-5" d="M52.64,137.74H40.94a1.17,1.17,0,0,1-1.17-1.17v-15.2a1.17,1.17,0,0,1,1.17-1.17h11.7a1.17,1.17,0,0,1,1.17,1.17v15.2A1.17,1.17,0,0,1,52.64,137.74ZM42.11,135.4h9.36V122.54H42.11Z"/><path class="cls-5" d="M43.28,130.73H40.94a1.17,1.17,0,0,1,0-2.34h2.34a1.17,1.17,0,0,1,0,2.34Z"/><rect class="cls-7" x="39.77" y="136.61" width="14.04" height="3.51"/><path class="cls-5" d="M53.81,141.25h-14a1.17,1.17,0,0,1-1.17-1.17v-3.51a1.18,1.18,0,0,1,1.17-1.17h14A1.18,1.18,0,0,1,55,136.57v3.51A1.17,1.17,0,0,1,53.81,141.25Zm-12.87-2.34h11.7v-1.17H40.94Z"/><rect class="cls-8" x="45.62" y="100.35" width="7.02" height="9.36"/><path class="cls-5" d="M52.64,110.84h-7a1.17,1.17,0,0,1-1.17-1.17v-9.36a1.17,1.17,0,0,1,1.17-1.17h7a1.18,1.18,0,0,1,1.17,1.17v9.36A1.17,1.17,0,0,1,52.64,110.84Zm-5.85-2.34h4.68v-7H46.79Z"/><path class="cls-5" d="M21.06,110.84H11.7a1.17,1.17,0,1,1,0-2.34h9.36a1.17,1.17,0,1,1,0,2.34Z"/><rect class="cls-8" x="29.24" y="100.35" width="7.02" height="9.36"/><path class="cls-5" d="M36.26,110.84h-7a1.17,1.17,0,0,1-1.17-1.17v-9.36a1.18,1.18,0,0,1,1.17-1.17h7a1.17,1.17,0,0,1,1.17,1.17v9.36A1.17,1.17,0,0,1,36.26,110.84Zm-5.85-2.34h4.68v-7H30.41Z"/><path class="cls-5" d="M19.89,106.16h-7a1.17,1.17,0,1,1,0-2.34h7a1.17,1.17,0,0,1,0,2.34Z"/><path class="cls-5" d="M36.26,106.16h-7a1.17,1.17,0,1,1,0-2.34h7a1.17,1.17,0,1,1,0,2.34Z"/><path class="cls-5" d="M52.64,106.16h-7a1.17,1.17,0,1,1,0-2.34h7a1.17,1.17,0,0,1,0,2.34Z"/><path class="cls-5" d="M53.81,110.84H44.45a1.17,1.17,0,0,1,0-2.34h9.36a1.17,1.17,0,0,1,0,2.34Z"/><path class="cls-5" d="M37.43,110.84H28.07a1.17,1.17,0,0,1,0-2.34h9.36a1.17,1.17,0,1,1,0,2.34Z"/><path class="cls-8" d="M29.24,91V87.44a3.51,3.51,0,0,1,3.51-3.5h0a3.51,3.51,0,0,1,3.51,3.5V91Z"/><path class="cls-5" d="M36.26,92.12h-7A1.17,1.17,0,0,1,28.07,91V87.44a4.68,4.68,0,0,1,9.36,0V91A1.17,1.17,0,0,1,36.26,92.12Zm-5.85-2.34h4.68V87.44a2.34,2.34,0,0,0-4.68,0Z"/><path class="cls-5" d="M37.43,92.12H28.07a1.17,1.17,0,1,1,0-2.34h9.36a1.17,1.17,0,0,1,0,2.34Z"/><path class="cls-5" d="M59.66,117.86H7a1.17,1.17,0,1,1,0-2.34H59.66a1.17,1.17,0,0,1,0,2.34Z"/><path class="cls-5" d="M59.66,96.8H7a1.17,1.17,0,1,1,0-2.34H59.66a1.17,1.17,0,0,1,0,2.34Z"/><polygon class="cls-2" points="57.32 95.67 57.32 93.33 32.75 77.5 8.19 93.33 8.19 95.67 3.51 95.67 3.51 90.99 32.75 72.27 62 90.99 62 95.67 57.32 95.67"/><path class="cls-5" d="M62,96.8H57.32a1.17,1.17,0,0,1-1.17-1.17V94L32.75,78.89,9.36,94v1.66A1.17,1.17,0,0,1,8.19,96.8H3.51a1.17,1.17,0,0,1-1.17-1.17V91a1.17,1.17,0,0,1,.54-1L32.12,71.26a1.15,1.15,0,0,1,1.26,0L62.63,90a1.19,1.19,0,0,1,.54,1v4.68A1.17,1.17,0,0,1,62,96.8Zm-3.51-2.34h2.34V91.63l-28.08-18-28.07,18v2.83H7V93.29a1.17,1.17,0,0,1,.54-1L32.12,76.48a1.19,1.19,0,0,1,1.26,0L58,92.31a1.19,1.19,0,0,1,.54,1Z"/><path class="cls-10" d="M23.39,135.4a3.73,3.73,0,0,0-1.31.26,3.49,3.49,0,0,0-4.3-2.46,3.62,3.62,0,0,0-1,.47,5.85,5.85,0,0,0-10.44.61H5.84A4.68,4.68,0,0,0,1.16,139v1.17H26.9V139a3.51,3.51,0,0,0-3.46-3.56Z"/><path class="cls-5" d="M26.9,141.25H1.17A1.17,1.17,0,0,1,0,140.08v-1.17a5.86,5.86,0,0,1,5.61-5.85,7,7,0,0,1,9.6-2.53,7.14,7.14,0,0,1,1.92,1.63,4.68,4.68,0,0,1,5.64,2.11,3.21,3.21,0,0,1,.62,0A4.67,4.67,0,0,1,28.07,139v1.17A1.16,1.16,0,0,1,26.9,141.25ZM2.34,138.91H25.73a2.33,2.33,0,0,0-2.34-2.33,2.27,2.27,0,0,0-.86.17A1.17,1.17,0,0,1,21,136.1.69.69,0,0,1,21,136a2.34,2.34,0,0,0-2.89-1.62,2.67,2.67,0,0,0-.62.28,1.15,1.15,0,0,1-1.62-.31l-.05-.07a4.69,4.69,0,0,0-8.39.49,1.17,1.17,0,0,1-1.17.7H5.85A3.51,3.51,0,0,0,2.34,138.91Z"/><path class="cls-5" d="M13,136.71a1.12,1.12,0,0,1-.69-.23c-.59-.43-.92-.37-1.3-.13a1.17,1.17,0,1,1-1.25-2h0a3.26,3.26,0,0,1,3.94.24,1.17,1.17,0,0,1-.7,2.1Z"/><rect class="cls-11" x="89.56" y="18.75" width="27.92" height="4.3"/><path class="cls-5" d="M117.49,24.09H89.56A1.07,1.07,0,0,1,88.49,23V18.72a1.07,1.07,0,0,1,1.07-1.08h27.93a1.07,1.07,0,0,1,1.07,1.08V23A1.07,1.07,0,0,1,117.49,24.09ZM90.64,21.94h25.77V19.79H90.64Z"/><rect class="cls-4" x="72.52" y="107.37" width="4.68" height="32.75"/><path class="cls-5" d="M77.2,141.25H72.52a1.17,1.17,0,0,1-1.17-1.17V107.33a1.17,1.17,0,0,1,1.17-1.17H77.2a1.17,1.17,0,0,1,1.17,1.17v32.75A1.17,1.17,0,0,1,77.2,141.25Zm-3.51-2.34H76V108.5H73.69Z"/><rect class="cls-12" x="77.2" y="107.37" width="7.02" height="32.75"/><path class="cls-5" d="M84.22,141.25h-7A1.17,1.17,0,0,1,76,140.08V107.33a1.17,1.17,0,0,1,1.17-1.17h7a1.17,1.17,0,0,1,1.17,1.17v32.75A1.17,1.17,0,0,1,84.22,141.25Zm-5.85-2.34h4.68V108.5H78.37Z"/><rect class="cls-4" x="135.69" y="107.37" width="4.68" height="32.75"/><path class="cls-5" d="M140.37,141.25h-4.68a1.17,1.17,0,0,1-1.17-1.17V107.33a1.17,1.17,0,0,1,1.17-1.17h4.68a1.17,1.17,0,0,1,1.17,1.17v32.75A1.17,1.17,0,0,1,140.37,141.25Zm-3.51-2.34h2.34V108.5h-2.34Z"/><rect class="cls-12" x="128.67" y="107.37" width="7.02" height="32.75"/><path class="cls-5" d="M135.69,141.25h-7a1.17,1.17,0,0,1-1.17-1.17V107.33a1.17,1.17,0,0,1,1.17-1.17h7a1.17,1.17,0,0,1,1.17,1.17v32.75A1.17,1.17,0,0,1,135.69,141.25Zm-5.85-2.34h4.68V108.5h-4.68Z"/><rect class="cls-4" x="84.22" y="23.14" width="44.45" height="116.97"/><path class="cls-5" d="M128.67,141.25H84.22a1.17,1.17,0,0,1-1.17-1.17v-117a1.17,1.17,0,0,1,1.17-1.17h44.45a1.17,1.17,0,0,1,1.17,1.17v117A1.17,1.17,0,0,1,128.67,141.25Zm-43.28-2.34H127.5V24.28H85.39Z"/><rect class="cls-8" x="88.9" y="27.82" width="35.09" height="93.58"/><path class="cls-5" d="M124,122.54H88.9a1.17,1.17,0,0,1-1.17-1.17V27.79a1.17,1.17,0,0,1,1.17-1.17H124a1.17,1.17,0,0,1,1.17,1.17v93.58A1.17,1.17,0,0,1,124,122.54ZM90.07,120.2h32.75V29H90.07Z"/><rect class="cls-12" x="88.9" y="121.4" width="35.09" height="18.72"/><path class="cls-5" d="M124,141.25H88.9a1.17,1.17,0,0,1-1.17-1.17V121.37a1.17,1.17,0,0,1,1.17-1.17H124a1.17,1.17,0,0,1,1.17,1.17v18.71A1.17,1.17,0,0,1,124,141.25Zm-33.92-2.34h32.75V122.54H90.07Z"/><path class="cls-5" d="M117,122.54a1.18,1.18,0,0,1-1.17-1.17V27.79a1.17,1.17,0,0,1,2.34,0v93.58A1.17,1.17,0,0,1,117,122.54Z"/><path class="cls-5" d="M110,122.54a1.17,1.17,0,0,1-1.17-1.17V27.79a1.17,1.17,0,1,1,2.34,0v93.58A1.18,1.18,0,0,1,110,122.54Z"/><path class="cls-5" d="M102.94,122.54a1.17,1.17,0,0,1-1.17-1.17V27.79a1.17,1.17,0,0,1,2.34,0v93.58A1.18,1.18,0,0,1,102.94,122.54Z"/><path class="cls-5" d="M103.52,19.79a1.07,1.07,0,0,1-1.07-1.07v-4.3a1.08,1.08,0,0,1,2.15,0v4.3A1.07,1.07,0,0,1,103.52,19.79Z"/><rect class="cls-7" x="72.52" y="135.44" width="11.7" height="4.68"/><path class="cls-5" d="M84.22,141.25H72.52a1.17,1.17,0,0,1-1.17-1.17V135.4a1.18,1.18,0,0,1,1.17-1.17h11.7a1.17,1.17,0,0,1,1.17,1.17v4.68A1.17,1.17,0,0,1,84.22,141.25Zm-10.53-2.34h9.36v-2.34H73.69Z"/><path class="cls-5" d="M95.92,122.54a1.17,1.17,0,0,1-1.17-1.17V27.79a1.17,1.17,0,1,1,2.34,0v93.58A1.17,1.17,0,0,1,95.92,122.54Z"/><path class="cls-5" d="M98.26,141.25a1.17,1.17,0,0,1-1.17-1.17V121.37a1.17,1.17,0,1,1,2.34,0v18.71A1.17,1.17,0,0,1,98.26,141.25Z"/><path class="cls-5" d="M114.63,141.25a1.16,1.16,0,0,1-1.16-1.17V121.37a1.17,1.17,0,1,1,2.33,0v18.71A1.17,1.17,0,0,1,114.63,141.25Z"/><path class="cls-5" d="M106.45,141.25a1.17,1.17,0,0,1-1.17-1.17V121.37a1.17,1.17,0,1,1,2.34,0v18.71A1.17,1.17,0,0,1,106.45,141.25Z"/><path class="cls-5" d="M124,99.14H88.9a1.17,1.17,0,0,1,0-2.34H124a1.17,1.17,0,0,1,0,2.34Z"/><path class="cls-5" d="M124,110.84H88.9a1.17,1.17,0,1,1,0-2.34H124a1.17,1.17,0,0,1,0,2.34Z"/><path class="cls-5" d="M124,64.05H88.9a1.17,1.17,0,0,1,0-2.34H124a1.17,1.17,0,0,1,0,2.34Z"/><path class="cls-5" d="M124,75.75H88.9a1.17,1.17,0,1,1,0-2.34H124a1.17,1.17,0,0,1,0,2.34Z"/><path class="cls-5" d="M124,87.44H88.9a1.17,1.17,0,1,1,0-2.33H124a1.17,1.17,0,1,1,0,2.33Z"/><path class="cls-5" d="M119.63,39.12H87.42a1.08,1.08,0,1,1,0-2.15h32.21a1.08,1.08,0,1,1,0,2.15Z"/><path class="cls-5" d="M124,52.35H88.9a1.17,1.17,0,1,1,0-2.34H124a1.17,1.17,0,0,1,0,2.34Z"/><path class="cls-5" d="M124,122.54H88.9a1.17,1.17,0,0,1,0-2.34H124a1.17,1.17,0,0,1,0,2.34Z"/><path class="cls-5" d="M135.69,136.57a1.17,1.17,0,0,1-1.17-1.17V112a1.17,1.17,0,0,1,2.34,0V135.4A1.17,1.17,0,0,1,135.69,136.57Z"/><rect class="cls-7" x="128.67" y="135.44" width="11.7" height="4.68"/><path class="cls-5" d="M140.37,141.25h-11.7a1.17,1.17,0,0,1-1.17-1.17V135.4a1.18,1.18,0,0,1,1.17-1.17h11.7a1.17,1.17,0,0,1,1.17,1.17v4.68A1.17,1.17,0,0,1,140.37,141.25Zm-10.53-2.34h9.36v-2.34h-9.36Z"/><rect class="cls-11" x="128.67" y="107.37" width="11.7" height="4.68"/><path class="cls-5" d="M140.37,113.18h-11.7A1.17,1.17,0,0,1,127.5,112v-4.68a1.17,1.17,0,0,1,1.17-1.17h11.7a1.17,1.17,0,0,1,1.17,1.17V112A1.17,1.17,0,0,1,140.37,113.18Zm-10.53-2.34h9.36V108.5h-9.36Z"/><rect class="cls-11" x="72.52" y="107.37" width="11.7" height="4.68"/><path class="cls-5" d="M84.22,113.18H72.52A1.17,1.17,0,0,1,71.35,112v-4.68a1.17,1.17,0,0,1,1.17-1.17h11.7a1.17,1.17,0,0,1,1.17,1.17V112A1.17,1.17,0,0,1,84.22,113.18Zm-10.53-2.34h9.36V108.5H73.69Z"/><path class="cls-5" d="M130,141.16a1.17,1.17,0,0,1-1.17-1.17v-9.36a1.17,1.17,0,0,1,2.34,0V140A1.17,1.17,0,0,1,130,141.16Z"/><path class="cls-10" d="M137,124.2a7,7,0,0,1-14,0c0-3.51,3.15-19.3,7-19.3S137,120.64,137,124.2Z"/><path class="cls-5" d="M130,131.8a7.92,7.92,0,0,1-8.19-7.6c0-2.28,2.74-20.47,8.19-20.47s8.19,18.19,8.19,20.47A7.93,7.93,0,0,1,130,131.8Zm0-25.73c-2.34,0-5.85,13.79-5.85,18.13a5.85,5.85,0,0,0,11.7,0C135.8,119.86,132.31,106.07,130,106.07Z"/><path class="cls-5" d="M128.45,127a1.4,1.4,0,0,1-.29,0,3.27,3.27,0,0,1-2.55-3,1.18,1.18,0,0,1,2.34-.29c.09.71.36.92.8,1a1.18,1.18,0,1,1-.28,2.34Z"/><path class="cls-5" d="M131.14,116a1.17,1.17,0,0,1-1-.51c-.41-.6-.74-.66-1.17-.55a1.2,1.2,0,0,1-.52-2.34h0a3.28,3.28,0,0,1,3.64,1.52,1.17,1.17,0,0,1-.31,1.62,1.19,1.19,0,0,1-.66.2Z"/><path class="cls-10" d="M72.69,135.6a3.5,3.5,0,0,1,4.38-2.33,3.6,3.6,0,0,1,.93.44,5.84,5.84,0,0,1,10.65,1.34,4.69,4.69,0,0,1,7.27,3.86v1.17H70.18v-1.17A3.52,3.52,0,0,1,72.69,135.6Z"/><path class="cls-5" d="M95.92,141.25H70.18A1.17,1.17,0,0,1,69,140.08v-1.17a4.68,4.68,0,0,1,2.77-4.25,4.67,4.67,0,0,1,5.84-2.5,7,7,0,0,1,9.88-1,6.85,6.85,0,0,1,1.82,2.25,5.84,5.84,0,0,1,7.77,5.52v1.17A1.17,1.17,0,0,1,95.92,141.25Zm-24.57-2.34h23.4a3.51,3.51,0,0,0-3.52-3.5,3.46,3.46,0,0,0-1.92.58,1.17,1.17,0,0,1-1.62-.34,1.66,1.66,0,0,1-.15-.33A4.65,4.65,0,0,0,79,134.23a1.18,1.18,0,0,1-1.6.44l-.08,0a2.34,2.34,0,0,0-3.23.68,2.58,2.58,0,0,0-.28.58,1.17,1.17,0,0,1-.78.79A2.35,2.35,0,0,0,71.35,138.91Z"/><path class="cls-5" d="M84.35,136.64a1.2,1.2,0,0,1-.64-.19c-.6-.4-.94-.33-1.31-.06a1.17,1.17,0,0,1-1.65-.17,1.16,1.16,0,0,1,.16-1.64l.14-.1a3.27,3.27,0,0,1,3.94,0,1.16,1.16,0,0,1,.32,1.62,1.15,1.15,0,0,1-1,.52Z"/><path class="cls-5" d="M10.09,131.48H4.72a1.08,1.08,0,0,1,0-2.15h5.37a1.08,1.08,0,1,1,0,2.15Z"/></g><path class="cls-13" d="M52.14,65.58c1.79-.69,3.6-1.34,5.44-1.85.73-.2,1.9-1.13,2.42-.36-1.68,1.68-8.08,9.31-9.37,11.25s3.8,2.41,5.06,2.44c2.18.06,4.48-1.32,6.19-2.62,1-.76,1.78-1.56,2.81-2.25,2.2-1.48,9.43-.39,9.43-.39C81,78.62,98.64,97,99.51,98.48c2.81,4.83-4.34,9-7.88,5.48a5.24,5.24,0,0,1-3,6.19,6.13,6.13,0,0,1-3.51.45c-.67-.12-1.71-1.06-2.25-1.06,0,0-.53,2.24-.64,2.45a5.73,5.73,0,0,1-3,2.58c-2.71,1.11-4.91.37-6.93-1.56a8.24,8.24,0,0,1-6.63,3.08,6.72,6.72,0,0,1-3-.68c-.91-.63-.84-.48-.42-1.45a4.71,4.71,0,0,0-8.41-4.25,17.22,17.22,0,0,1,1-2.27,4.83,4.83,0,0,0-.5-4.85,4.75,4.75,0,0,0-8,.85,8.64,8.64,0,0,1,.93-2.11,5.23,5.23,0,0,0,.46-3.82,4.73,4.73,0,0,0-5.75-3.18c-.53.14-1.57.94-1.91.83-.61-.2-4.16-3.06-5.5-3.4s-8.77-2.12-9.38-2.45C27.76,84.15,36.78,65.09,37.13,65a39.62,39.62,0,0,1,4.06.56C45.84,66.2,47.59,67.34,52.14,65.58Z"/><path class="cls-14" d="M34.1,70.72c.4-.09,5,.78,5.84.9,4.64.64,7.27.27,11.81-1.5,1.79-.69,4.69-2,4.69-2s2.88-3.82,3.5-4.43c-.52-.78-1.71.48-2.44.68-1.85.52-3.8,1.1-5.62,1.69-3.07,1-6,.14-10.69-.49A39.62,39.62,0,0,0,37.13,65C36.78,65.09,33.8,70.79,34.1,70.72Z"/><path class="cls-13" d="M39.81,95.44l-.93,1.73a4.71,4.71,0,0,1-6.31,2.14h0A4.7,4.7,0,0,1,30.43,93h0l.88-2C35.17,91.56,38.37,92.71,39.81,95.44Z"/><path class="cls-13" d="M53.49,110.63a3.81,3.81,0,0,1,.32-.68,4.71,4.71,0,0,1,6.26-2.28h0a4.73,4.73,0,0,1,2.28,6.26h0l-.32.68C59.87,119.82,52.19,116.81,53.49,110.63Z"/><path class="cls-13" d="M45.54,105.36l.9-1.92a4.71,4.71,0,0,1,6.26-2.28h0A4.72,4.72,0,0,1,55,107.42h0l-.9,1.92C51.37,114.7,44.36,111.42,45.54,105.36Z"/><path class="cls-13" d="M37.82,99.51l1.23-2.62a4.71,4.71,0,0,1,6.26-2.28h0a4.71,4.71,0,0,1,2.28,6.26h0l-1.22,2.63C44,108.68,36.61,105.42,37.82,99.51Z"/><g class="cls-1"><path class="cls-15" d="M31.31,91l-.88,2a4.45,4.45,0,0,0-.45,1.6l.27-.61c3.59.52,6.6,1.57,8.16,3.92a4.94,4.94,0,0,0,.47-.75l.93-1.73C38.37,92.71,35.17,91.56,31.31,91Z"/><path class="cls-15" d="M54.51,108.89a4.64,4.64,0,0,0-.7,1.06,3.81,3.81,0,0,0-.32.68c-1.3,6.18,6.38,9.19,8.54,4l.32-.68a4.6,4.6,0,0,0,.4-2.37C60.51,115.14,55,113.31,54.51,108.89Z"/><path class="cls-15" d="M47.24,102.27a4.42,4.42,0,0,0-.8,1.17l-.9,1.92c-1.18,6.06,5.83,9.34,8.54,4l.9-1.92a5.26,5.26,0,0,0,.36-1.23C52.51,110,47,107.33,47.24,102.27Z"/><path class="cls-15" d="M47.93,99.37c-2.24,4.84-8.79,2.32-8.67-2.83a3,3,0,0,0-.21.35l-1.23,2.62c-1.21,5.91,6.15,9.17,8.55,4l1.22-2.63A4.83,4.83,0,0,0,48,99.2Z"/></g><g class="cls-1"><path class="cls-15" d="M51.79,76.2c-.43.56-.78,1-1,1.35-1.36,2,3.15,2.8,4.41,2.83a9,9,0,0,0,5.82-2c1-.75,4.1-3.14,4.85-3.14h8c.5,0,24.76,25.21,25.63,26.7.09.16.17.32.25.48a4,4,0,0,0-.25-3.89C98.64,97,81.6,79.09,74.75,72.25c-.69-.69-9.55-.71-10.25-.13-1,.8-2.49,2-3.47,2.8a9.08,9.08,0,0,1-5.82,2A10.55,10.55,0,0,1,51.79,76.2Z"/><path class="cls-15" d="M62.34,114c-.42,1-.49.83.4,1.44a4.86,4.86,0,0,0-.3-1.74C62.4,113.76,62.38,113.86,62.34,114Z"/><path class="cls-15" d="M55,107.44a17.22,17.22,0,0,0-1,2.27,4.71,4.71,0,0,1,1.41-1.57,4.47,4.47,0,0,0-.25-1Z"/><path class="cls-15" d="M99.51,98.48C98.64,97,86.81,85.06,87.36,86c2.8,4.83-4.34,9-7.89,5.48,2.8,5.44-4.36,8.52-7.44,7.06,2.49,3.29-3.59,9-7.65,6.27-1.58,1.82-6.75,1.75-9,.27a5.15,5.15,0,0,1-.41,2.36,17.22,17.22,0,0,0-1,2.27A4.71,4.71,0,0,1,62.34,114c-.42,1-.49.82.42,1.45a6.72,6.72,0,0,0,3,.68A8.24,8.24,0,0,0,72.35,113c2,1.93,4.22,2.67,6.93,1.56a5.73,5.73,0,0,0,3-2.58c.11-.21.66-2.45.64-2.45.54,0,1.58.94,2.25,1.06a6.13,6.13,0,0,0,3.51-.45,5.24,5.24,0,0,0,3-6.19C95.17,107.44,102.32,103.31,99.51,98.48Z"/><path class="cls-15" d="M32,75.37C30.94,79.56,28.94,85.69,33.38,87c5.13,1.52,11.36,3.25,14.68,4.75,2.93,1.32,7.75,6.07,9.63,7.75,3,2.69,7.59,5.86,8.44,8.31,1.65,4.81-4.07.77-3.57.94a7.81,7.81,0,0,0-4.43-1.25,28.26,28.26,0,0,0-3.19.12c-.06,0,1.19-4.06-1.69-5.93a6.74,6.74,0,0,0-5.87-.5c.48-1.54,2-4.09-1.69-6.44-2.38-1.5-5.19.06-5.37.56l-2.55-2.48-12.5-3.66Z"/></g><path class="cls-5" d="M76.58,116.12a5.61,5.61,0,0,1-3.84-1.37c-2.34-2.13-8.81-8.64-9.08-8.92a1,1,0,0,1,1.42-1.41c.06.07,6.71,6.76,9,8.85,1.62,1.48,4.84.77,6.22-.43a3.49,3.49,0,0,0,1.45-3L71.05,99.17a1,1,0,0,1,1.4-1.43h0l11.2,11.13c1.73,1.45,4.62.84,6.09-.66a4.41,4.41,0,0,0,1-3.77L78.37,92.15a1,1,0,1,1,1.41-1.41l13.08,13c1.1.93,4.19.61,5.53-1,.86-1,1.69-2.71-1.08-5.46a1,1,0,0,1,1.41-1.42c3.82,3.8,2.39,6.75,1.2,8.17A7,7,0,0,1,92.8,106a6.56,6.56,0,0,1-1.62,3.67,7.08,7.08,0,0,1-7.5,1.57,6.08,6.08,0,0,1-2.06,3.14A8,8,0,0,1,76.58,116.12Z"/><path class="cls-5" d="M40.13,96.12a1,1,0,0,1-.68-.26l-1.31-1.2a7.84,7.84,0,0,0-3.43-1.86l-9.26-2.33a1,1,0,1,1,.47-1.94h0l9.27,2.33a9.8,9.8,0,0,1,4.29,2.33l1.31,1.19a1,1,0,0,1,.07,1.42,1,1,0,0,1-.74.32Z"/><path class="cls-5" d="M66,117.07a8.53,8.53,0,0,1-4.38-1.17,1,1,0,1,1,1-1.72h0a7,7,0,0,0,8.3-1,1,1,0,0,1,1.41,0,1,1,0,0,1,0,1.42h0A9.07,9.07,0,0,1,66,117.07Z"/><path class="cls-5" d="M49.33,67.58a14.73,14.73,0,0,1-1.76-.13L36.9,66a1,1,0,1,1,.27-2h0l10.67,1.45a7.84,7.84,0,0,0,4-.32l.59-.17a52,52,0,0,0,7.49-2.64,1,1,0,1,1,.8,1.84A54.08,54.08,0,0,1,53,66.9l-.55.16A10,10,0,0,1,49.33,67.58Z"/><path class="cls-5" d="M57.92,118.4a5.37,5.37,0,0,1-1.78-.3c-2.45-.85-4.5-3.54-3.52-7.6h0a7.63,7.63,0,0,1,.32-1.06,5.42,5.42,0,0,1,3.24-3,5.78,5.78,0,0,1,7.08,7.86h0L63,115A5.5,5.5,0,0,1,57.92,118.4ZM54.56,111c-.73,3,.75,4.72,2.24,5.24a3.42,3.42,0,0,0,4.32-2l.32-.68a3.71,3.71,0,0,0-1.79-4.93h0a3.78,3.78,0,0,0-2.82-.2,3.48,3.48,0,0,0-2,1.83h0S54.65,110.57,54.56,111Z"/><path class="cls-5" d="M50.05,113.05a5.54,5.54,0,0,1-1.89-.34,6.15,6.15,0,0,1-3.59-7.59h0a13.17,13.17,0,0,1,1-2.16,5.71,5.71,0,0,1,10.32,4.89L55,109.77A5.48,5.48,0,0,1,50.05,113.05Zm-3.54-7.44a4.18,4.18,0,0,0,2.35,5.22,3.36,3.36,0,0,0,4.33-1.94l.88-1.89a3.71,3.71,0,0,0-6.73-3.14,14,14,0,0,0-.83,1.75Z"/><path class="cls-5" d="M42.54,107.13a5.24,5.24,0,0,1-1.63-.25,6.41,6.41,0,0,1-4.07-7.55h0a14.44,14.44,0,0,1,1.34-2.94,5.62,5.62,0,0,1,3.19-2.88,5.71,5.71,0,0,1,7.13,7.78l-1.23,2.63A5.13,5.13,0,0,1,42.54,107.13ZM38.81,99.7A4.36,4.36,0,0,0,41.52,105a3.12,3.12,0,0,0,3.94-1.89l1.22-2.63A3.71,3.71,0,0,0,40,97.31,14.2,14.2,0,0,0,38.81,99.7Z"/><path class="cls-5" d="M34.65,100.8a5.71,5.71,0,0,1-5.12-8.24l.87-2a1,1,0,0,1,1.83.81l-.89,2A3.71,3.71,0,1,0,38,96.77l0,0,1-1.77a1,1,0,0,1,1.36-.4,1,1,0,0,1,.4,1.35l-.93,1.73A5.7,5.7,0,0,1,34.65,100.8Z"/><path class="cls-13" d="M101.5,67.19c3.66,7.63,7.38,15,11,22.64.52,1.09.89,2.39,1.41,3.48a55.36,55.36,0,0,1-10.46,3.78c-1.1.22-3.47,1-4.43.46a4.84,4.84,0,0,1-.89-.92l-5-5.25L77.25,74.77c-.45-.47-2.29-2.25-2.75-2.71s-9.19-.5-9.69-.06c-1.54,1.35-4.42,3.67-6.36,4.4a8.68,8.68,0,0,1-4.57.4c-1.21-.23-4.09-.94-3.09-2.66A22.23,22.23,0,0,1,53,71.43l4-4.93c.74-.9,3-3.44,3.77-4.31,2.34-2.65,8.89-2,12.38-2.5,2.74-.41,5.25-.57,7.5-.69s5.38,2.23,7.32,3.54l5.58,3.79C95.39,67.54,97.44,69.56,101.5,67.19Z"/><path class="cls-16" d="M106.5,76.75c3.67,10.33,1.31,14.32-4.94,15.12-5.68.73-7.06-6.68-3.81-10.87-2.06,1.5-3.75,2.12-7.56,2.63-5-4.71-10.35-10.51-13.72-13.91A2.45,2.45,0,0,0,74.74,69H65.42a2.4,2.4,0,0,0-1.52.53c-1.46,1.16-4.94,3.93-6.52,5.22-2,1.62-4.71,1.82-3.5,2a8.68,8.68,0,0,0,4.57-.4c1.94-.73,3.47-2.26,5.12-3.46,2.33-1.7,9.93-2,12.34.43.45.46,22.85,23.93,23.14,24.18.93.83,12-2.44,14.89-4.24C113.42,92.22,106.5,76.75,106.5,76.75Z"/><path class="cls-14" d="M51.44,75.87a6.82,6.82,0,0,0,4.92-2.33c1.08-1.29.33-2.52,1.12-3.37,5-5.42,6.52-6.42,7.33-6.55s14.32-1.22,15.44-1.31c1.63-.12,11.58,8.8,13.44,10.06s5.79,4,8,2.75c1.87-.62,1.92-4.14-.19-7.93-4.12,2.31-6.11.35-7.91-.86L88,62.54a21.76,21.76,0,0,0-6.11-3.25,21.09,21.09,0,0,0-8.59-.43c-3.49.52-11.72,2.29-14.05,4.94-.77.88-1.48,1.8-2.22,2.7-1.35,1.64-2.69,3.29-4,4.93a22.23,22.23,0,0,0-2.22,2.71C50.15,75.25,50.35,75.46,51.44,75.87Z"/><path class="cls-5" d="M99.19,98.8a1,1,0,0,1-.72-.31S80.67,79.89,75.2,74.15c-.46-.47-.93-.92-1.43-1.35H65.52L61.31,76a9.58,9.58,0,0,1-10.74.68,2.09,2.09,0,0,1-.74-2.85A1.81,1.81,0,0,1,50,73.6l4.68-4.82.45-1.33a1.06,1.06,0,0,1,.18-.33l4.93-5.83a5,5,0,0,1,3.26-1.74L80.77,58a4.94,4.94,0,0,1,3.34.83l11.37,7.7a4.39,4.39,0,0,0,3.81.55l1.46-.53a1,1,0,0,1,.68,1.88h0l-1.5.54a6.33,6.33,0,0,1-5.57-.79L83,60.45A3,3,0,0,0,81,60L63.71,61.54a3,3,0,0,0-1.94,1.05L57,68.27l-.46,1.36a1,1,0,0,1-.23.38L51.5,74.93a7.59,7.59,0,0,0,8.58-.47L64.56,71a1,1,0,0,1,.61-.21h9a1,1,0,0,1,.61.21,17.7,17.7,0,0,1,1.91,1.76l22.94,24a44.1,44.1,0,0,0,13.73-4.16,1,1,0,1,1,.88,1.8,45.53,45.53,0,0,1-14.91,4.39Z"/><path class="cls-5" d="M90.09,84.59A10.92,10.92,0,0,1,81.8,81a1,1,0,0,1,1.53-1.3h0c2.66,3.14,8.63,4.13,13.25.61a1,1,0,0,1,1.41.18,1,1,0,0,1-.19,1.41h0A12.63,12.63,0,0,1,90.09,84.59Z"/><path class="cls-17" d="M119.82,96.75l7.6-3.6a4,4,0,0,0,2.15-4.69,195.29,195.29,0,0,0-11.86-31.67,4,4,0,0,0-5.3-1.88L102.12,59.8a3.73,3.73,0,0,0-1.75,5h0L114.85,95a3.73,3.73,0,0,0,5,1.75Z"/><path class="cls-2" d="M19.59,96.75,12,93.15a4,4,0,0,1-2.14-4.69A196.18,196.18,0,0,1,21.69,56.79,4,4,0,0,1,27,54.91c2.88,1.36,7,3.31,10.29,4.89a3.73,3.73,0,0,1,1.76,5h0L24.56,95a3.73,3.73,0,0,1-5,1.75Z"/><path class="cls-18" d="M21.77,92.17l-8-3.81a4.2,4.2,0,0,1-2.35-4.8c.07-.27-.95,2.8-1.53,4.9A4,4,0,0,0,12,93.15l7.61,3.6a3.73,3.73,0,0,0,5-1.75h0l2-3.85A3.9,3.9,0,0,1,21.77,92.17Z"/><path class="cls-14" d="M37.28,59.8C34,58.22,29.87,56.27,27,54.91a4,4,0,0,0-5.3,1.88c-.58,1.21-1.29,2.74-2.08,4.5a4,4,0,0,1,5.05-1.46c2.87,1.36,7,3.3,10.29,4.89a3.71,3.71,0,0,1,1.82,4.78L39,64.77a3.72,3.72,0,0,0-1.74-5Z"/><path class="cls-18" d="M117.57,92.17l8.05-3.81a4.2,4.2,0,0,0,2.35-4.8c-.07-.27.95,2.8,1.53,4.9a4,4,0,0,1-2.14,4.69l-7.61,3.6a3.73,3.73,0,0,1-5-1.75h0l-2-3.85A3.9,3.9,0,0,0,117.57,92.17Z"/><path class="cls-14" d="M102.06,59.8c3.3-1.58,7.41-3.53,10.29-4.89a4,4,0,0,1,5.3,1.88c.58,1.21,1.29,2.74,2.08,4.5a4,4,0,0,0-5-1.46c-2.87,1.36-7,3.3-10.29,4.89a3.72,3.72,0,0,0-1.82,4.78l-2.26-4.73a3.72,3.72,0,0,1,1.74-5Z"/><path class="cls-5" d="M118.21,98.11A4.71,4.71,0,0,1,114,95.43L99.47,65.2a4.72,4.72,0,0,1,2.22-6.3h0C105,57.31,109.11,55.37,112,54a5,5,0,0,1,6.64,2.35,196.87,196.87,0,0,1,11.91,31.83,5,5,0,0,1-2.68,5.87l-7.6,3.59A4.79,4.79,0,0,1,118.21,98.11Zm-4.1-42.58a3,3,0,0,0-1.27.29c-2.87,1.35-7,3.3-10.29,4.88a2.73,2.73,0,0,0-1.28,3.63h0l14.48,30.23a2.73,2.73,0,0,0,3.63,1.28h0L127,92.25a3,3,0,0,0,1.61-3.53,195.43,195.43,0,0,0-11.8-31.5A3,3,0,0,0,114.11,55.53Z"/><path class="cls-5" d="M121.19,89.07a1,1,0,0,1-.92-1.39,1,1,0,0,1,.21-.32,1,1,0,0,1,1.09-.22,1.19,1.19,0,0,1,.33.22,1,1,0,0,1,.29.71,1,1,0,0,1-1,1Z"/><path class="cls-5" d="M21.19,98.11a4.75,4.75,0,0,1-2-.46l-7.61-3.59a5,5,0,0,1-2.68-5.87A196.91,196.91,0,0,1,20.79,56.36,5,5,0,0,1,27.42,54c2.88,1.36,7,3.3,10.3,4.89a4.73,4.73,0,0,1,2.22,6.3h0L25.46,95.43A4.74,4.74,0,0,1,21.19,98.11Zm4.1-42.58a3,3,0,0,0-2.7,1.69A195.39,195.39,0,0,0,10.8,88.72a3,3,0,0,0,1.61,3.53L20,95.84h0a2.74,2.74,0,0,0,3.64-1.28L38.13,64.34a2.73,2.73,0,0,0-1.27-3.64h0c-3.3-1.58-7.41-3.53-10.28-4.88A3,3,0,0,0,25.29,55.53Z"/><path class="cls-5" d="M18.69,88.67l-.2,0a.64.64,0,0,1-.18-.06l-.18-.09L18,88.37a1,1,0,0,1-.21-.32.84.84,0,0,1-.08-.38A1,1,0,0,1,18,87a.44.44,0,0,1,.15-.12l.18-.1.18,0a1.05,1.05,0,0,1,.58,0,1.19,1.19,0,0,1,.33.22,1,1,0,0,1,0,1.41,1,1,0,0,1-.71.3Z"/></g></g></svg>