<svg xmlns="http://www.w3.org/2000/svg" viewBox="0 0 139.52 125.01"><defs><style>.cls-1{opacity:0.3;}.cls-2{fill:#97c1ff;}.cls-3{fill:#fff;}.cls-4{fill:#eef6ff;}.cls-5{fill:#6d6daa;}.cls-6{fill:#8d96b8;}.cls-7{fill:#939fc6;}.cls-8{fill:#96d7ff;}.cls-9{fill:#ff9797;}.cls-10{fill:#b1f1a8;}.cls-11{fill:#c9c1f5;}.cls-12{fill:#d4edff;}.cls-13{fill:#efdcd2;}.cls-14{fill:#cc7e54;}.cls-15{fill:#f9e2dc;}.cls-16{fill:#d6b5b0;}.cls-17{fill:#4c5a7f;}.cls-18{fill:#7690a8;}.cls-19{fill:#5cbeff;}.cls-20{fill:#ced8ee;}.cls-21{fill:#5f6b87;}</style></defs><title>icon_5</title><g id="Layer_2" data-name="Layer 2"><g id="Artwork"><g class="cls-1"><path class="cls-2" d="M13.33,44.7a30,30,0,0,1,23.51-25,19.71,19.71,0,0,0,10.94-6.59,37,37,0,0,1,64.33,15.68A19.56,19.56,0,0,0,122.52,42,28,28,0,1,1,84.86,79.3,9.42,9.42,0,0,0,76.35,74h-.83a12.39,12.39,0,0,0-12,9.74A20,20,0,0,1,39.37,98.48c-.67-.17-1.33-.36-2-.59A20,20,0,0,1,24.05,80a21.43,21.43,0,0,0-4.53-12.35A29.9,29.9,0,0,1,13.33,44.7Z"/><path class="cls-3" d="M55.52,11a1,1,0,0,1-.71-.3,1,1,0,0,1-.29-.7,1,1,0,0,1,.07-.39.87.87,0,0,1,.22-.32,1,1,0,0,1,.32-.22,1,1,0,0,1,1.1.22,1,1,0,0,1,.21.32,1,1,0,0,1,.08.39,1,1,0,0,1-.29.7A1,1,0,0,1,55.52,11Z"/><path class="cls-3" d="M67.52,15h-6a1,1,0,0,1,0-2h6a1,1,0,0,1,0,2Z"/><path class="cls-3" d="M74.52,11h-15a1,1,0,0,1,0-2h15a1,1,0,0,1,0,2Z"/><path class="cls-3" d="M64.52,19h-7a1,1,0,0,1,0-2h7a1,1,0,0,1,0,2Z"/><path class="cls-3" d="M57.52,15h-4a1,1,0,0,1,0-2h4a1,1,0,0,1,0,2Z"/><path class="cls-3" d="M55.52,11a1,1,0,0,1-.71-.3,1,1,0,0,1-.29-.7,1,1,0,0,1,.07-.39.87.87,0,0,1,.22-.32,1,1,0,0,1,.32-.22,1,1,0,0,1,1.1.22,1,1,0,0,1,.21.32,1,1,0,0,1,.08.39,1,1,0,0,1-.29.7A1,1,0,0,1,55.52,11Z"/><path class="cls-3" d="M67.52,15h-6a1,1,0,0,1,0-2h6a1,1,0,0,1,0,2Z"/><path class="cls-3" d="M74.52,11h-15a1,1,0,0,1,0-2h15a1,1,0,0,1,0,2Z"/><path class="cls-3" d="M64.52,19h-7a1,1,0,0,1,0-2h7a1,1,0,0,1,0,2Z"/><path class="cls-3" d="M57.52,15h-4a1,1,0,0,1,0-2h4a1,1,0,0,1,0,2Z"/><rect class="cls-4" x="27.52" y="78.01" width="4" height="4"/><path class="cls-5" d="M31.52,83h-4a1,1,0,0,1-1-1V78a1,1,0,0,1,1-1h4a1,1,0,0,1,1,1v4A1,1,0,0,1,31.52,83Zm-3-2h2V79h-2Z"/><rect class="cls-4" x="27.52" y="68.01" width="4" height="4"/><path class="cls-5" d="M31.52,73h-4a1,1,0,0,1-1-1V68a1,1,0,0,1,1-1h4a1,1,0,0,1,1,1v4A1,1,0,0,1,31.52,73Zm-3-2h2V69h-2Z"/><rect class="cls-4" x="27.52" y="58.01" width="4" height="4"/><path class="cls-5" d="M31.52,63h-4a1,1,0,0,1-1-1V58a1,1,0,0,1,1-1h4a1,1,0,0,1,1,1v4A1,1,0,0,1,31.52,63Zm-3-2h2V59h-2Z"/><rect class="cls-4" x="27.52" y="48.01" width="4" height="4"/><path class="cls-5" d="M31.52,53h-4a1,1,0,0,1-1-1V48a1,1,0,0,1,1-1h4a1,1,0,0,1,1,1v4A1,1,0,0,1,31.52,53Zm-3-2h2V49h-2Z"/><rect class="cls-4" x="27.52" y="38.01" width="4" height="4"/><path class="cls-5" d="M31.52,43h-4a1,1,0,0,1-1-1V38a1,1,0,0,1,1-1h4a1,1,0,0,1,1,1v4A1,1,0,0,1,31.52,43Zm-3-2h2V39h-2Z"/><rect class="cls-4" x="27.52" y="98.01" width="4" height="4"/><path class="cls-5" d="M31.52,103h-4a1,1,0,0,1-1-1V98a1,1,0,0,1,1-1h4a1,1,0,0,1,1,1v4A1,1,0,0,1,31.52,103Zm-3-2h2V99h-2Z"/><rect class="cls-4" x="27.52" y="88.01" width="4" height="4"/><path class="cls-5" d="M31.52,93h-4a1,1,0,0,1-1-1V88a1,1,0,0,1,1-1h4a1,1,0,0,1,1,1v4A1,1,0,0,1,31.52,93Zm-3-2h2V89h-2Z"/><path class="cls-5" d="M81.52,108a1,1,0,0,1-1-1V33a1,1,0,0,1,2,0v74A1,1,0,0,1,81.52,108Z"/><path class="cls-5" d="M81.52,75h-6a1,1,0,0,1,0-2h6a1,1,0,0,1,0,2Z"/><path class="cls-5" d="M81.52,71h-6a1,1,0,0,1,0-2h6a1,1,0,0,1,0,2Z"/><path class="cls-5" d="M81.52,79h-6a1,1,0,0,1,0-2h6a1,1,0,0,1,0,2Z"/><path class="cls-5" d="M81.52,63h-6a1,1,0,0,1,0-2h6a1,1,0,0,1,0,2Z"/><path class="cls-5" d="M81.52,59h-6a1,1,0,0,1,0-2h6a1,1,0,0,1,0,2Z"/><path class="cls-5" d="M81.52,67h-6a1,1,0,0,1,0-2h6a1,1,0,0,1,0,2Z"/><path class="cls-5" d="M81.52,51h-6a1,1,0,0,1,0-2h6a1,1,0,0,1,0,2Z"/><path class="cls-5" d="M81.52,47h-6a1,1,0,0,1,0-2h6a1,1,0,0,1,0,2Z"/><path class="cls-5" d="M81.52,55h-6a1,1,0,0,1,0-2h6a1,1,0,0,1,0,2Z"/><path class="cls-5" d="M81.52,39h-6a1,1,0,0,1,0-2h6a1,1,0,0,1,0,2Z"/><path class="cls-5" d="M81.52,35h-6a1,1,0,0,1,0-2h6a1,1,0,0,1,0,2Z"/><path class="cls-5" d="M81.52,43h-6a1,1,0,0,1,0-2h6a1,1,0,0,1,0,2Z"/><path class="cls-5" d="M81.52,83h-6a1,1,0,0,1,0-2h6a1,1,0,0,1,0,2Z"/><path class="cls-5" d="M81.52,87h-6a1,1,0,0,1,0-2h6a1,1,0,0,1,0,2Z"/><path class="cls-5" d="M81.52,91h-6a1,1,0,0,1,0-2h6a1,1,0,0,1,0,2Z"/><path class="cls-5" d="M81.52,95h-6a1,1,0,0,1,0-2h6a1,1,0,0,1,0,2Z"/><path class="cls-5" d="M81.52,99h-6a1,1,0,0,1,0-2h6a1,1,0,0,1,0,2Z"/><path class="cls-5" d="M81.52,103h-6a1,1,0,0,1,0-2h6a1,1,0,0,1,0,2Z"/><path class="cls-5" d="M81.52,107h-6a1,1,0,0,1,0-2h6a1,1,0,0,1,0,2Z"/><rect class="cls-6" x="31.52" y="24.01" width="44" height="3.99"/><path class="cls-5" d="M75.52,29h-44a1,1,0,0,1-1-1V24a1,1,0,0,1,1-1h44a1,1,0,0,1,1,1v4A1,1,0,0,1,75.52,29Zm-43-2h42V25h-42Z"/><rect class="cls-4" x="31.52" y="28.01" width="44" height="86"/><path class="cls-5" d="M75.52,115h-44a1,1,0,0,1-1-1V28a1,1,0,0,1,1-1h44a1,1,0,0,1,1,1v86A1,1,0,0,1,75.52,115Zm-43-2h42V29h-42Z"/><rect class="cls-7" x="61.52" y="104.01" width="8" height="10"/><path class="cls-5" d="M69.52,115h-8a1,1,0,0,1-1-1V104a1,1,0,0,1,1-1h8a1,1,0,0,1,1,1v10A1,1,0,0,1,69.52,115Zm-7-2h6v-8h-6Z"/><rect class="cls-8" x="37.52" y="104.01" width="20" height="6"/><path class="cls-5" d="M57.52,111h-20a1,1,0,0,1-1-1v-6a1,1,0,0,1,1-1h20a1,1,0,0,1,1,1v6A1,1,0,0,1,57.52,111Zm-19-2h18v-4h-18Z"/><rect class="cls-8" x="37.52" y="94.01" width="10" height="6"/><path class="cls-5" d="M47.52,101h-10a1,1,0,0,1-1-1V94a1,1,0,0,1,1-1h10a1,1,0,0,1,1,1v6A1,1,0,0,1,47.52,101Zm-9-2h8V95h-8Z"/><path class="cls-5" d="M42.52,101a1,1,0,0,1-1-1V94a1,1,0,0,1,2,0v6A1,1,0,0,1,42.52,101Z"/><rect class="cls-8" x="37.52" y="84.01" width="10" height="6"/><path class="cls-5" d="M47.52,91h-10a1,1,0,0,1-1-1V84a1,1,0,0,1,1-1h10a1,1,0,0,1,1,1v6A1,1,0,0,1,47.52,91Zm-9-2h8V85h-8Z"/><path class="cls-5" d="M42.52,91a1,1,0,0,1-1-1V84a1,1,0,0,1,2,0v6A1,1,0,0,1,42.52,91Z"/><rect class="cls-8" x="37.52" y="74.01" width="10" height="6"/><path class="cls-5" d="M47.52,81h-10a1,1,0,0,1-1-1V74a1,1,0,0,1,1-1h10a1,1,0,0,1,1,1v6A1,1,0,0,1,47.52,81Zm-9-2h8V75h-8Z"/><path class="cls-5" d="M42.52,81a1,1,0,0,1-1-1V74a1,1,0,0,1,2,0v6A1,1,0,0,1,42.52,81Z"/><rect class="cls-8" x="37.52" y="64.01" width="10" height="6"/><path class="cls-5" d="M47.52,71h-10a1,1,0,0,1-1-1V64a1,1,0,0,1,1-1h10a1,1,0,0,1,1,1v6A1,1,0,0,1,47.52,71Zm-9-2h8V65h-8Z"/><path class="cls-5" d="M42.52,71a1,1,0,0,1-1-1V64a1,1,0,0,1,2,0v6A1,1,0,0,1,42.52,71Z"/><rect class="cls-8" x="59.52" y="94.01" width="10" height="6"/><path class="cls-5" d="M69.52,101h-10a1,1,0,0,1-1-1V94a1,1,0,0,1,1-1h10a1,1,0,0,1,1,1v6A1,1,0,0,1,69.52,101Zm-9-2h8V95h-8Z"/><path class="cls-5" d="M64.52,101a1,1,0,0,1-1-1V94a1,1,0,0,1,2,0v6A1,1,0,0,1,64.52,101Z"/><rect class="cls-8" x="59.52" y="84.01" width="10" height="6"/><path class="cls-5" d="M69.52,91h-10a1,1,0,0,1-1-1V84a1,1,0,0,1,1-1h10a1,1,0,0,1,1,1v6A1,1,0,0,1,69.52,91Zm-9-2h8V85h-8Z"/><path class="cls-5" d="M64.52,91a1,1,0,0,1-1-1V84a1,1,0,0,1,2,0v6A1,1,0,0,1,64.52,91Z"/><rect class="cls-8" x="59.52" y="74.01" width="10" height="6"/><path class="cls-5" d="M69.52,81h-10a1,1,0,0,1-1-1V74a1,1,0,0,1,1-1h10a1,1,0,0,1,1,1v6A1,1,0,0,1,69.52,81Zm-9-2h8V75h-8Z"/><path class="cls-5" d="M64.52,81a1,1,0,0,1-1-1V74a1,1,0,0,1,2,0v6A1,1,0,0,1,64.52,81Z"/><rect class="cls-8" x="59.52" y="64.01" width="10" height="6"/><path class="cls-5" d="M69.52,71h-10a1,1,0,0,1-1-1V64a1,1,0,0,1,1-1h10a1,1,0,0,1,1,1v6A1,1,0,0,1,69.52,71Zm-9-2h8V65h-8Z"/><path class="cls-5" d="M64.52,71a1,1,0,0,1-1-1V64a1,1,0,1,1,2,0v6A1,1,0,0,1,64.52,71Z"/><rect class="cls-8" x="37.52" y="54.01" width="10" height="6"/><path class="cls-5" d="M47.52,61h-10a1,1,0,0,1-1-1V54a1,1,0,0,1,1-1h10a1,1,0,0,1,1,1v6A1,1,0,0,1,47.52,61Zm-9-2h8V55h-8Z"/><path class="cls-5" d="M42.52,61a1,1,0,0,1-1-1V54a1,1,0,0,1,2,0v6A1,1,0,0,1,42.52,61Z"/><rect class="cls-8" x="59.52" y="54.01" width="10" height="6"/><path class="cls-5" d="M69.52,61h-10a1,1,0,0,1-1-1V54a1,1,0,0,1,1-1h10a1,1,0,0,1,1,1v6A1,1,0,0,1,69.52,61Zm-9-2h8V55h-8Z"/><path class="cls-5" d="M64.52,61a1,1,0,0,1-1-1V54a1,1,0,0,1,2,0v6A1,1,0,0,1,64.52,61Z"/><rect class="cls-8" x="37.52" y="44.01" width="10" height="6"/><path class="cls-5" d="M47.52,51h-10a1,1,0,0,1-1-1V44a1,1,0,0,1,1-1h10a1,1,0,0,1,1,1v6A1,1,0,0,1,47.52,51Zm-9-2h8V45h-8Z"/><path class="cls-5" d="M42.52,51a1,1,0,0,1-1-1V44a1,1,0,0,1,2,0v6A1,1,0,0,1,42.52,51Z"/><rect class="cls-8" x="59.52" y="44.01" width="10" height="6"/><path class="cls-5" d="M69.52,51h-10a1,1,0,0,1-1-1V44a1,1,0,0,1,1-1h10a1,1,0,0,1,1,1v6A1,1,0,0,1,69.52,51Zm-9-2h8V45h-8Z"/><path class="cls-5" d="M64.52,51a1,1,0,0,1-1-1V44a1,1,0,0,1,2,0v6A1,1,0,0,1,64.52,51Z"/><rect class="cls-8" x="37.52" y="34.01" width="10" height="6"/><path class="cls-5" d="M47.52,41h-10a1,1,0,0,1-1-1V34a1,1,0,0,1,1-1h10a1,1,0,0,1,1,1v6A1,1,0,0,1,47.52,41Zm-9-2h8V35h-8Z"/><path class="cls-5" d="M42.52,41a1,1,0,0,1-1-1V34a1,1,0,0,1,2,0v6A1,1,0,0,1,42.52,41Z"/><rect class="cls-8" x="59.52" y="34.01" width="10" height="6"/><path class="cls-5" d="M69.52,41h-10a1,1,0,0,1-1-1V34a1,1,0,0,1,1-1h10a1,1,0,0,1,1,1v6A1,1,0,0,1,69.52,41Zm-9-2h8V35h-8Z"/><path class="cls-5" d="M64.52,41a1,1,0,0,1-1-1V34a1,1,0,0,1,2,0v6A1,1,0,0,1,64.52,41Z"/><rect class="cls-2" x="51.52" y="34.01" width="4" height="66"/><path class="cls-5" d="M55.52,101h-4a1,1,0,0,1-1-1V34a1,1,0,0,1,1-1h4a1,1,0,0,1,1,1v66A1,1,0,0,1,55.52,101Zm-3-2h2V35h-2Z"/><path class="cls-5" d="M55.52,93h-4a1,1,0,1,1,0-2h4a1,1,0,0,1,0,2Z"/><path class="cls-5" d="M55.52,83h-4a1,1,0,1,1,0-2h4a1,1,0,0,1,0,2Z"/><path class="cls-5" d="M55.52,73h-4a1,1,0,1,1,0-2h4a1,1,0,0,1,0,2Z"/><path class="cls-5" d="M55.52,63h-4a1,1,0,0,1,0-2h4a1,1,0,0,1,0,2Z"/><path class="cls-5" d="M55.52,53h-4a1,1,0,0,1,0-2h4a1,1,0,0,1,0,2Z"/><path class="cls-5" d="M55.52,43h-4a1,1,0,0,1,0-2h4a1,1,0,0,1,0,2Z"/><path class="cls-5" d="M75.52,29h-44a1,1,0,0,1,0-2h44a1,1,0,0,1,0,2Z"/><path class="cls-5" d="M77.52,25h-48a1,1,0,0,1,0-2h48a1,1,0,0,1,0,2Z"/><rect class="cls-2" x="16.52" y="58.04" width="50" height="14"/><path class="cls-5" d="M66.52,73h-50a1,1,0,0,1-1-1V58a1,1,0,0,1,1-1h50a1,1,0,0,1,1,1V72A1,1,0,0,1,66.52,73Zm-49-2h48V59h-48Z"/><polygon class="cls-4" points="62.52 76.04 62.52 74.04 41.52 60.51 20.52 74.04 20.52 76.04 18.52 76.04 18.52 114.04 64.52 114.04 64.52 108.35 64.52 82.46 64.52 76.04 62.52 76.04"/><path class="cls-5" d="M64.52,115h-46a1,1,0,0,1-1-1V76a1,1,0,0,1,1-1h1V74a1,1,0,0,1,.46-.84L41,59.64a1,1,0,0,1,1.08,0l21,13.53a1,1,0,0,1,.46.84v1h1a1,1,0,0,1,1,1v38A1,1,0,0,1,64.52,115Zm-45-2h44V77h-1a1,1,0,0,1-1-1V74.59l-20-12.89-20,12.89V76a1,1,0,0,1-1,1h-1Z"/><rect class="cls-8" x="24.52" y="98.04" width="18" height="12"/><path class="cls-5" d="M42.52,111h-18a1,1,0,0,1-1-1V98a1,1,0,0,1,1-1h18a1,1,0,0,1,1,1v12A1,1,0,0,1,42.52,111Zm-17-2h16V99h-16Z"/><rect class="cls-8" x="24.52" y="80.04" width="6" height="8"/><path class="cls-5" d="M30.52,89h-6a1,1,0,0,1-1-1V80a1,1,0,0,1,1-1h6a1,1,0,0,1,1,1v8A1,1,0,0,1,30.52,89Zm-5-2h4V81h-4Z"/><polygon class="cls-9" points="60.52 68.04 60.52 59.04 54.52 59.04 54.52 64.36 60.52 68.04"/><path class="cls-5" d="M60.52,69a.93.93,0,0,1-.52-.15l-6-3.68a1,1,0,0,1-.48-.85V59a1,1,0,0,1,1-1h6a1,1,0,0,1,1,1v9A1,1,0,0,1,60.52,69Zm-5-5.24,4,2.45V60h-4Z"/><rect class="cls-9" x="53.52" y="56.04" width="8" height="3"/><path class="cls-5" d="M61.52,60h-8a1,1,0,0,1-1-1V56a1,1,0,0,1,1-1h8a1,1,0,0,1,1,1v3A1,1,0,0,1,61.52,60Zm-7-2h6V57h-6Z"/><path class="cls-5" d="M33.52,111a1,1,0,0,1-1-1V98a1,1,0,0,1,2,0v12A1,1,0,0,1,33.52,111Z"/><path class="cls-5" d="M43.52,111h-20a1,1,0,1,1,0-2h20a1,1,0,0,1,0,2Z"/><rect class="cls-9" x="48.52" y="98.04" width="10" height="13"/><path class="cls-5" d="M58.52,112h-10a1,1,0,0,1-1-1V98a1,1,0,0,1,1-1h10a1,1,0,0,1,1,1v13A1,1,0,0,1,58.52,112Zm-9-2h8V99h-8Z"/><path class="cls-5" d="M50.52,106h-2a1,1,0,1,1,0-2h2a1,1,0,0,1,0,2Z"/><rect class="cls-7" x="47.52" y="111.04" width="12" height="3"/><path class="cls-5" d="M59.52,115h-12a1,1,0,0,1-1-1v-3a1,1,0,0,1,1-1h12a1,1,0,0,1,1,1v3A1,1,0,0,1,59.52,115Zm-11-2h10v-1h-10Z"/><rect class="cls-8" x="52.52" y="80.04" width="6" height="8"/><path class="cls-5" d="M58.52,89h-6a1,1,0,0,1-1-1V80a1,1,0,0,1,1-1h6a1,1,0,0,1,1,1v8A1,1,0,0,1,58.52,89Zm-5-2h4V81h-4Z"/><path class="cls-5" d="M31.52,89h-8a1,1,0,1,1,0-2h8a1,1,0,0,1,0,2Z"/><rect class="cls-8" x="38.52" y="80.04" width="6" height="8"/><path class="cls-5" d="M44.52,89h-6a1,1,0,0,1-1-1V80a1,1,0,0,1,1-1h6a1,1,0,0,1,1,1v8A1,1,0,0,1,44.52,89Zm-5-2h4V81h-4Z"/><path class="cls-5" d="M30.52,85h-6a1,1,0,1,1,0-2h6a1,1,0,0,1,0,2Z"/><path class="cls-5" d="M44.52,85h-6a1,1,0,1,1,0-2h6a1,1,0,0,1,0,2Z"/><path class="cls-5" d="M58.52,85h-6a1,1,0,1,1,0-2h6a1,1,0,0,1,0,2Z"/><path class="cls-5" d="M59.52,89h-8a1,1,0,1,1,0-2h8a1,1,0,0,1,0,2Z"/><path class="cls-5" d="M45.52,89h-8a1,1,0,1,1,0-2h8a1,1,0,0,1,0,2Z"/><path class="cls-8" d="M38.52,72V69a3,3,0,0,1,3-3h0a3,3,0,0,1,3,3v3Z"/><path class="cls-5" d="M44.52,73h-6a1,1,0,0,1-1-1V69a4,4,0,0,1,8,0v3A1,1,0,0,1,44.52,73Zm-5-2h4V69a2,2,0,0,0-4,0Z"/><path class="cls-5" d="M45.52,73h-8a1,1,0,1,1,0-2h8a1,1,0,0,1,0,2Z"/><path class="cls-5" d="M64.52,95h-45a1,1,0,1,1,0-2h45a1,1,0,0,1,0,2Z"/><path class="cls-5" d="M64.52,77h-45a1,1,0,1,1,0-2h45a1,1,0,0,1,0,2Z"/><polygon class="cls-2" points="62.52 76.04 62.52 74.04 41.52 60.51 20.52 74.04 20.52 76.04 16.52 76.04 16.52 72.04 41.52 56.04 66.52 72.04 66.52 76.04 62.52 76.04"/><path class="cls-5" d="M66.52,77h-4a1,1,0,0,1-1-1V74.59l-20-12.89-20,12.89V76a1,1,0,0,1-1,1h-4a1,1,0,0,1-1-1V72a1,1,0,0,1,.46-.84l25-16a1,1,0,0,1,1.08,0l25,16a1,1,0,0,1,.46.84v4A1,1,0,0,1,66.52,77Zm-3-2h2V72.59l-24-15.36-24,15.36V75h2V74a1,1,0,0,1,.46-.84L41,59.64a1,1,0,0,1,1.08,0l21,13.53a1,1,0,0,1,.46.84Z"/><path class="cls-10" d="M33.52,110a3,3,0,0,0-1.12.22,3,3,0,0,0-3.68-2.11,3.14,3.14,0,0,0-.89.41,5,5,0,0,0-8.92.52h-.4a4,4,0,0,0-4,4v1h22v-1a3,3,0,0,0-3-3Z"/><path class="cls-5" d="M36.52,115h-22a1,1,0,0,1-1-1v-1a5,5,0,0,1,4.8-5,6,6,0,0,1,9.84-.77A4,4,0,0,1,33,109a4.68,4.68,0,0,1,.53,0,4,4,0,0,1,4,4v1A1,1,0,0,1,36.52,115Zm-21-2h20a2,2,0,0,0-2.74-1.85,1,1,0,0,1-1.3-.55.56.56,0,0,1,0-.12A2,2,0,0,0,29,109.11a1.7,1.7,0,0,0-.53.24,1,1,0,0,1-1.39-.27.21.21,0,0,1,0-.06,4,4,0,0,0-7.17.42,1,1,0,0,1-1,.6h-.32A3,3,0,0,0,15.52,113Z"/><path class="cls-5" d="M24.63,111.13a1,1,0,0,1-.59-.2c-.5-.37-.78-.32-1.11-.11a1,1,0,1,1-1.07-1.69h0a2.78,2.78,0,0,1,3.37.2,1,1,0,0,1,.2,1.4A1,1,0,0,1,24.63,111.13Z"/><rect class="cls-11" x="91.52" y="10.04" width="26" height="4"/><path class="cls-5" d="M117.52,15h-26a1,1,0,0,1-1-1V10a1,1,0,0,1,1-1h26a1,1,0,0,1,1,1v4A1,1,0,0,1,117.52,15Zm-25-2h24V11h-24Z"/><rect class="cls-4" x="75.52" y="86.04" width="4" height="28"/><path class="cls-5" d="M79.52,115h-4a1,1,0,0,1-1-1V86a1,1,0,0,1,1-1h4a1,1,0,0,1,1,1v28A1,1,0,0,1,79.52,115Zm-3-2h2V87h-2Z"/><rect class="cls-12" x="79.52" y="86.04" width="6" height="28"/><path class="cls-5" d="M85.52,115h-6a1,1,0,0,1-1-1V86a1,1,0,0,1,1-1h6a1,1,0,0,1,1,1v28A1,1,0,0,1,85.52,115Zm-5-2h4V87h-4Z"/><rect class="cls-4" x="129.52" y="86.04" width="4" height="28"/><path class="cls-5" d="M133.52,115h-4a1,1,0,0,1-1-1V86a1,1,0,0,1,1-1h4a1,1,0,0,1,1,1v28A1,1,0,0,1,133.52,115Zm-3-2h2V87h-2Z"/><rect class="cls-12" x="123.52" y="86.04" width="6" height="28"/><path class="cls-5" d="M129.52,115h-6a1,1,0,0,1-1-1V86a1,1,0,0,1,1-1h6a1,1,0,0,1,1,1v28A1,1,0,0,1,129.52,115Zm-5-2h4V87h-4Z"/><rect class="cls-4" x="85.52" y="14.04" width="38" height="100"/><path class="cls-5" d="M123.52,115h-38a1,1,0,0,1-1-1V14a1,1,0,0,1,1-1h38a1,1,0,0,1,1,1V114A1,1,0,0,1,123.52,115Zm-37-2h36V15h-36Z"/><rect class="cls-8" x="89.52" y="18.04" width="30" height="80"/><path class="cls-5" d="M119.52,99h-30a1,1,0,0,1-1-1V18a1,1,0,0,1,1-1h30a1,1,0,0,1,1,1V98A1,1,0,0,1,119.52,99Zm-29-2h28V19h-28Z"/><rect class="cls-12" x="89.52" y="98.04" width="30" height="16"/><path class="cls-5" d="M119.52,115h-30a1,1,0,0,1-1-1V98a1,1,0,0,1,1-1h30a1,1,0,0,1,1,1v16A1,1,0,0,1,119.52,115Zm-29-2h28V99h-28Z"/><path class="cls-5" d="M113.52,99a1,1,0,0,1-1-1V18a1,1,0,0,1,2,0V98A1,1,0,0,1,113.52,99Z"/><path class="cls-5" d="M107.52,99a1,1,0,0,1-1-1V18a1,1,0,0,1,2,0V98A1,1,0,0,1,107.52,99Z"/><path class="cls-5" d="M101.52,99a1,1,0,0,1-1-1V18a1,1,0,0,1,2,0V98A1,1,0,0,1,101.52,99Z"/><path class="cls-5" d="M104.52,11a1,1,0,0,1-1-1V6a1,1,0,0,1,2,0v4A1,1,0,0,1,104.52,11Z"/><rect class="cls-7" x="75.52" y="110.04" width="10" height="4"/><path class="cls-5" d="M85.52,115h-10a1,1,0,0,1-1-1v-4a1,1,0,0,1,1-1h10a1,1,0,0,1,1,1v4A1,1,0,0,1,85.52,115Zm-9-2h8v-2h-8Z"/><path class="cls-5" d="M95.52,99a1,1,0,0,1-1-1V18a1,1,0,0,1,2,0V98A1,1,0,0,1,95.52,99Z"/><path class="cls-5" d="M97.52,115a1,1,0,0,1-1-1V98a1,1,0,0,1,2,0v16A1,1,0,0,1,97.52,115Z"/><path class="cls-5" d="M111.52,115a1,1,0,0,1-1-1V98a1,1,0,0,1,2,0v16A1,1,0,0,1,111.52,115Z"/><path class="cls-5" d="M104.52,115a1,1,0,0,1-1-1V98a1,1,0,0,1,2,0v16A1,1,0,0,1,104.52,115Z"/><path class="cls-5" d="M119.52,79h-30a1,1,0,0,1,0-2h30a1,1,0,0,1,0,2Z"/><path class="cls-5" d="M119.52,89h-30a1,1,0,0,1,0-2h30a1,1,0,0,1,0,2Z"/><path class="cls-5" d="M119.52,49h-30a1,1,0,0,1,0-2h30a1,1,0,0,1,0,2Z"/><path class="cls-5" d="M119.52,59h-30a1,1,0,0,1,0-2h30a1,1,0,0,1,0,2Z"/><path class="cls-5" d="M119.52,69h-30a1,1,0,0,1,0-2h30a1,1,0,0,1,0,2Z"/><path class="cls-5" d="M119.52,29h-30a1,1,0,0,1,0-2h30a1,1,0,0,1,0,2Z"/><path class="cls-5" d="M119.52,39h-30a1,1,0,0,1,0-2h30a1,1,0,0,1,0,2Z"/><path class="cls-5" d="M119.52,99h-30a1,1,0,0,1,0-2h30a1,1,0,0,1,0,2Z"/><path class="cls-5" d="M129.52,111a1,1,0,0,1-1-1V90a1,1,0,0,1,2,0v20A1,1,0,0,1,129.52,111Z"/><rect class="cls-7" x="123.52" y="110.04" width="10" height="4"/><path class="cls-5" d="M133.52,115h-10a1,1,0,0,1-1-1v-4a1,1,0,0,1,1-1h10a1,1,0,0,1,1,1v4A1,1,0,0,1,133.52,115Zm-9-2h8v-2h-8Z"/><rect class="cls-11" x="123.52" y="86.04" width="10" height="4"/><path class="cls-5" d="M133.52,91h-10a1,1,0,0,1-1-1V86a1,1,0,0,1,1-1h10a1,1,0,0,1,1,1v4A1,1,0,0,1,133.52,91Zm-9-2h8V87h-8Z"/><rect class="cls-11" x="75.52" y="86.04" width="10" height="4"/><path class="cls-5" d="M85.52,91h-10a1,1,0,0,1-1-1V86a1,1,0,0,1,1-1h10a1,1,0,0,1,1,1v4A1,1,0,0,1,85.52,91Zm-9-2h8V87h-8Z"/><path class="cls-5" d="M124.61,114.93a1,1,0,0,1-1-1v-8a1,1,0,0,1,2,0v8A1,1,0,0,1,124.61,114.93Z"/><path class="cls-10" d="M130.61,100.43a6,6,0,1,1-12,0c0-3,2.69-16.5,6-16.5S130.61,97.39,130.61,100.43Z"/><path class="cls-5" d="M124.61,106.93a6.77,6.77,0,0,1-7-6.5c0-2,2.34-17.5,7-17.5s7,15.55,7,17.5A6.78,6.78,0,0,1,124.61,106.93Zm0-22c-2,0-5,11.79-5,15.5a5,5,0,1,0,10,0C129.61,96.72,126.63,84.93,124.61,84.93Z"/><path class="cls-5" d="M123.33,102.79h-.25a2.79,2.79,0,0,1-2.18-2.57,1,1,0,1,1,2-.25c.08.61.31.79.69.88a1,1,0,0,1-.24,2Z"/><path class="cls-5" d="M125.63,93.38a1,1,0,0,1-.83-.44c-.35-.51-.63-.56-1-.47a1,1,0,0,1-.44-2h0a2.8,2.8,0,0,1,3.11,1.3,1,1,0,0,1-.27,1.39,1,1,0,0,1-.56.17Z"/><path class="cls-10" d="M75.66,110.18a3,3,0,0,1,3.74-2,3.45,3.45,0,0,1,.8.38,5,5,0,0,1,9.11,1.15,4,4,0,0,1,5.54,1.12,4.05,4.05,0,0,1,.67,2.18v1h-22v-1A3,3,0,0,1,75.66,110.18Z"/><path class="cls-5" d="M95.52,115h-22a1,1,0,0,1-1-1v-1a4,4,0,0,1,2.36-3.64,4,4,0,0,1,5-2.13,6,6,0,0,1,8.44-.88,6.07,6.07,0,0,1,1.56,1.93,5,5,0,0,1,6.36,3.08,5.09,5.09,0,0,1,.28,1.64v1A1,1,0,0,1,95.52,115Zm-21-2h20a3,3,0,0,0-4.65-2.5,1,1,0,0,1-1.39-.29,1.39,1.39,0,0,1-.12-.28,4,4,0,0,0-7.29-.93,1,1,0,0,1-1.37.37l-.06,0a2,2,0,0,0-2.77.58,1.89,1.89,0,0,0-.23.5,1,1,0,0,1-.67.67A2,2,0,0,0,74.52,113Z"/><path class="cls-5" d="M85.63,111.07a1,1,0,0,1-.55-.17c-.51-.34-.8-.28-1.12-.05a1,1,0,1,1-1.27-1.55l.12-.08a2.81,2.81,0,0,1,3.37,0,1,1,0,0,1-.55,1.83Z"/><path class="cls-5" d="M123.52,115h-89a1,1,0,1,1,0-2h89a1,1,0,0,1,0,2Z"/><path class="cls-5" d="M138.52,115h-12a1,1,0,0,1,0-2h12a1,1,0,0,1,0,2Z"/><path class="cls-5" d="M17.52,115h-5a1,1,0,1,1,0-2h5a1,1,0,0,1,0,2Z"/><path class="cls-5" d="M31.52,115h-11a1,1,0,1,1,0-2h11a1,1,0,1,1,0,2Z"/><path class="cls-5" d="M138.52,125h-32a1,1,0,0,1,0-2h32a1,1,0,0,1,0,2Z"/><path class="cls-5" d="M103.52,125h-83a1,1,0,1,1,0-2h83a1,1,0,0,1,0,2Z"/><path class="cls-5" d="M14.52,125h-2a1,1,0,1,1,0-2h2a1,1,0,0,1,0,2Z"/></g><path class="cls-4" d="M130.71,88.91H114.33v2.87h-4.81L108.3,81.2a6.63,6.63,0,0,1,0-1.78l.92-7.74a5,5,0,0,1,2.82-4l5-2.27c.5,1.64,2.95,3,5.5,3A6.06,6.06,0,0,0,128,65.28h.05l5,2.38a5,5,0,0,1,2.78,4l.92,7.78a7.57,7.57,0,0,1,0,1.78l-1.23,10.6h-4.77Z"/><path class="cls-3" d="M108.39,81.93l.83-7a5,5,0,0,1,2.82-4l4.06-2c.84,1.56,3.83,2.78,6.39,2.78a9.33,9.33,0,0,0,6.44-2.7L133,71A5,5,0,0,1,135.82,75l.83,7,.09-.73a7.57,7.57,0,0,0,0-1.78l-.92-7.78a5,5,0,0,0-2.78-4l-5-2.38h0a6.05,6.05,0,0,1-5.47,3.12c-2.55,0-5-1.38-5.5-3l-5,2.27a5,5,0,0,0-2.82,4l-.92,7.74a6.63,6.63,0,0,0,0,1.78Z"/><polygon class="cls-3" points="113.47 91.77 109.52 91.77 109.16 88.19 113.47 88.19 113.47 91.77"/><polygon class="cls-3" points="131.62 91.77 135.57 91.89 135.96 88.19 131.62 88.19 131.62 91.77"/><path class="cls-13" d="M127.19,62.7a2.12,2.12,0,0,0,.94,2.63c-.72,1.65-3.53,2.55-5.5,3.13-2-.59-5-1.39-5.5-3a2.24,2.24,0,0,0,.92-2.74Z"/><g class="cls-1"><path class="cls-14" d="M127.19,62.7h-9.14a2.59,2.59,0,0,1,0,1.86l.57.6a4.16,4.16,0,0,0,3,1.31h2a4.17,4.17,0,0,0,3-1.31l.57-.6A2.59,2.59,0,0,1,127.19,62.7Z"/></g><path class="cls-15" d="M109.52,92h4v5.6h-.64a3.35,3.35,0,0,1-3.36-3.36h0V92Z"/><path class="cls-5" d="M113.52,98.61h-.64a4.36,4.36,0,0,1-4.36-4.36V92a1,1,0,0,1,1-1h4a1,1,0,0,1,1,1v5.6A1,1,0,0,1,113.52,98.61Zm-3-5.6v1.24a2.36,2.36,0,0,0,2,2.33V93Z"/><path class="cls-15" d="M132.16,97.61h-.64V92h4v2.24a3.36,3.36,0,0,1-3.36,3.36Z"/><path class="cls-5" d="M132.16,98.61h-.64a1,1,0,0,1-1-1V92a1,1,0,0,1,1-1h4a1,1,0,0,1,1,1v2.24A4.38,4.38,0,0,1,132.16,98.61Zm.36-5.6v3.57a2.37,2.37,0,0,0,2-2.33V93Z"/><path class="cls-5" d="M131.52,89.91a1,1,0,0,1-1-1V76.42a2.43,2.43,0,0,0-.71-1.71,1,1,0,1,1,1.42-1.41,4.4,4.4,0,0,1,1.29,3.12V88.91A1,1,0,0,1,131.52,89.91Z"/><path class="cls-5" d="M113.52,89.91a1,1,0,0,1-1-1V76.42a4.36,4.36,0,0,1,1.29-3.12,1,1,0,0,1,1.41,1.41,2.39,2.39,0,0,0-.71,1.71V88.91A1,1,0,0,1,113.52,89.91Z"/><path class="cls-5" d="M135.52,93h-4.77a1,1,0,0,1,0-2h3.88l1.15-9.93a6.53,6.53,0,0,0,0-1.53l-.92-7.79a4,4,0,0,0-2.21-3.16l-5-2.38a1,1,0,0,1-.48-1.34,1,1,0,0,1,1.34-.47l5,2.38a6,6,0,0,1,3.34,4.73l.92,7.78a8.36,8.36,0,0,1,0,2l-1.25,10.83A1,1,0,0,1,135.52,93Z"/><path class="cls-5" d="M114.33,93h-4.81a1,1,0,0,1-1-.88l-1.21-10.82a7.44,7.44,0,0,1,0-2l.92-7.74a6,6,0,0,1,3.4-4.77l5-2.27.44.9.36.93h0l-4.89,2.25a4,4,0,0,0-2.25,3.18l-.92,7.75a5.6,5.6,0,0,0,0,1.53L110.45,91h3.88a1,1,0,0,1,0,2Z"/><path class="cls-5" d="M122.63,69.46c-3,0-5.81-1.64-6.45-3.73a1,1,0,0,1,.42-1.14,1.44,1.44,0,0,0,.54-1.65,1,1,0,1,1,1.84-.79h0a3.34,3.34,0,0,1-.61,3.51,5.55,5.55,0,0,0,4.26,1.79,5.34,5.34,0,0,0,4.21-2,3.43,3.43,0,0,1-.57-3.49,1,1,0,1,1,1.85.77,1.55,1.55,0,0,0,.55,1.72,1,1,0,0,1,.34,1.22A7.08,7.08,0,0,1,122.63,69.46Z"/><polygon class="cls-7" points="113.52 123.01 120.52 123.01 120.52 96.01 124.52 96.01 124.52 123.01 131.52 123.01 131.52 88.91 113.52 88.91 113.52 123.01"/><path class="cls-5" d="M131.52,124h-7a1,1,0,0,1-1-1V97h-2v26a1,1,0,0,1-1,1h-7a1,1,0,0,1-1-1V88.91a1,1,0,0,1,1-1h18a1,1,0,0,1,1,1V123A1,1,0,0,1,131.52,124Zm-6-2h5V89.91h-16V122h5V96a1,1,0,0,1,1-1h4a1,1,0,0,1,1,1Z"/><path class="cls-5" d="M113.52,94.71a1,1,0,0,1-1-1,1,1,0,0,1,.3-.72l4.83-4.8a1,1,0,0,1,1.41,0,1,1,0,0,1,0,1.42l-4.83,4.8A1,1,0,0,1,113.52,94.71Z"/><path class="cls-5" d="M131.44,94.41a1,1,0,0,1-.71-.29l-4.5-4.5a1,1,0,0,1,1.41-1.41l4.5,4.5a1,1,0,0,1-.71,1.71Z"/><path class="cls-5" d="M135.52,89h-4a1,1,0,0,1,0-2h4a1,1,0,0,1,0,2Z"/><path class="cls-5" d="M113.52,89h-3.77a1,1,0,0,1,0-2h3.77a1,1,0,0,1,0,2Z"/><path class="cls-5" d="M108.37,81.31a1,1,0,0,1-1-1,1,1,0,0,1,.66-.94l1.72-.61a1,1,0,0,1,.67,1.88l-1.72.61A1,1,0,0,1,108.37,81.31Z"/><path class="cls-5" d="M136.67,81.31a.92.92,0,0,1-.33-.06l-1.63-.57a1,1,0,1,1,.66-1.89h0l1.63.57a1,1,0,0,1-.33,1.94Z"/><path class="cls-16" d="M116.22,118.92h.6a3.7,3.7,0,0,1,3.7,3.7V124h-7.33a.67.67,0,0,1-.67-.67v-.72a3.7,3.7,0,0,1,3.7-3.7Z"/><path class="cls-5" d="M120.52,125h-7.33a1.67,1.67,0,0,1-1.67-1.67v-.72a4.69,4.69,0,0,1,4.7-4.7h.6a4.7,4.7,0,0,1,4.7,4.7V124A1,1,0,0,1,120.52,125Zm-7-2h6v-.39a2.7,2.7,0,0,0-2.7-2.7h-.6a2.7,2.7,0,0,0-2.7,2.7Z"/><path class="cls-16" d="M128.22,118.92h.6a3.7,3.7,0,0,1,3.7,3.7v.72a.67.67,0,0,1-.67.67h-7.33v-1.39A3.7,3.7,0,0,1,128.22,118.92Z"/><path class="cls-5" d="M131.85,125h-7.33a1,1,0,0,1-1-1v-1.39a4.69,4.69,0,0,1,4.7-4.7h.6a4.7,4.7,0,0,1,4.7,4.7v.72A1.67,1.67,0,0,1,131.85,125Zm-6.33-2h6v-.39a2.7,2.7,0,0,0-2.7-2.7h-.6a2.7,2.7,0,0,0-2.7,2.7Z"/><path class="cls-15" d="M123.62,64h-2.2a4.31,4.31,0,0,1-3-1.24l-2.61-2.59a4.21,4.21,0,0,1-1.25-3V49.84c0-6.18,16-6.18,16,0v7.34a4.21,4.21,0,0,1-1.25,3l-2.61,2.59A4.28,4.28,0,0,1,123.62,64Z"/><g class="cls-1"><path class="cls-14" d="M126.65,60a4.32,4.32,0,0,1-3,1.24h-2.23a4.31,4.31,0,0,1-3-1.24l-2.61-2.59a4.21,4.21,0,0,1-1.25-3v2.8a4.21,4.21,0,0,0,1.25,3l2.61,2.59a4.31,4.31,0,0,0,3,1.24h2.21a4.32,4.32,0,0,0,3-1.24l2.61-2.59a4.21,4.21,0,0,0,1.25-3v-2.8a4.21,4.21,0,0,1-1.25,3Z"/></g><g class="cls-1"><path class="cls-14" d="M130.42,52.7V49.52c0-5.75-15.85-5.75-15.85,0v2.91c.72-.84,1.88-1.49,2.27-2.66,4.5,2.1,9,.24,12,.78A2.35,2.35,0,0,1,130.42,52.7Z"/></g><path class="cls-5" d="M123.62,65h-2.2a5.26,5.26,0,0,1-3.73-1.53l-2.61-2.59a5.28,5.28,0,0,1-1.56-3.71V49.84c0-3.87,4.67-5.63,9-5.63s9,1.76,9,5.63v7.34A5.27,5.27,0,0,1,130,60.89l-2.61,2.59A5.26,5.26,0,0,1,123.62,65Zm-1.1-18.8c-3.48,0-7,1.25-7,3.63v7.34a3.2,3.2,0,0,0,1,2.29L119.09,62a3.27,3.27,0,0,0,2.32,1h2.21a3.29,3.29,0,0,0,2.32-1l2.58-2.54a3.29,3.29,0,0,0,1-2.29V49.84a3,3,0,0,0-2-2.58A11.52,11.52,0,0,0,122.52,46.21Z"/><path class="cls-16" d="M127.7,43c2.3,1.06,4.26,2.25,4.26,5.52a11.62,11.62,0,0,1-.25,2.28c-.15.71-1.18.39-1.18.39s0-1.91-1.4-2.45c-3.52-1.41-9.25,1.07-13.13-1.56A3.56,3.56,0,0,1,114.82,50s-1.36,0-1.45-.78c-.39-3.51,1.06-5.07,2.62-4.68C119.9,40.63,126.31,42.33,127.7,43Z"/><g class="cls-1"><path class="cls-3" d="M116,46.46c3.9-3.9,10.32-2.2,11.7-1.56,2.07,1,4,1.57,4.26,4.15.3-3.7-1.83-5-4.26-6.08-1.38-.64-7.8-2.34-11.7,1.56-1.48-.37-2.89,1-2.66,4.18C113.52,46.61,114.77,46.15,116,46.46Z"/></g><path class="cls-5" d="M131,52.23a2.54,2.54,0,0,1-.78-.12,1,1,0,0,1-.7-.89,2.31,2.31,0,0,0-.9-1.65c-1-.56-2.67-.44-4.46-.31-2.3.17-4.9.36-7.37-.67a5.23,5.23,0,0,1-1.19,2,1.11,1.11,0,0,1-.79.38h0a2.21,2.21,0,0,1-2.44-1.67c-.26-2.35.21-4.18,1.33-5.16a2.67,2.67,0,0,1,1.94-.69c4.21-3.78,10.37-2.33,12.44-1.42h0c2.21,1,4.76,2.57,4.86,6.41a11.67,11.67,0,0,1-.27,2.5,1.54,1.54,0,0,1-.72,1A1.89,1.89,0,0,1,131,52.23Zm-4.64-5.08a6.44,6.44,0,0,1,3.25.68,3.56,3.56,0,0,1,1.32,1.35c0-.23,0-.45,0-.68-.07-2.54-1.51-3.69-3.66-4.63h0c-1.67-.73-7.19-2-10.6,1.35a1,1,0,0,1-1,.26.73.73,0,0,0-.72.17c-.22.19-.89,1-.68,3.24h0a2.36,2.36,0,0,0,.53-1.1,1.63,1.63,0,0,1,.88-1.17,1.67,1.67,0,0,1,1.48,0c2.1,1,4.46.81,6.74.65.82-.05,1.61-.11,2.36-.11Z"/><path class="cls-5" d="M122.71,58.27a1.85,1.85,0,0,1-1.14-.49,1,1,0,0,1,0-1.41,1,1,0,0,1,1.19-.21,1,1,0,0,1,1.13,1.63A1.89,1.89,0,0,1,122.71,58.27Z"/><path class="cls-5" d="M122.63,61a3.56,3.56,0,0,1-2.09-.53,1,1,0,0,1-.5-1.32l0,0a1,1,0,0,1,1.31-.47l.22.12a1.67,1.67,0,0,0,1,.24,2,2,0,0,0,1.1-.23A1,1,0,1,1,125,60.31,3.61,3.61,0,0,1,122.63,61Z"/><path class="cls-5" d="M128.09,54.09a1,1,0,0,1-.45-.11,5.45,5.45,0,0,0-1.71,0c-.45,0-.92.09-1.36.09a1,1,0,0,1,0-2,5.86,5.86,0,0,0,1.16-.08,5.34,5.34,0,0,1,2.8.19,1,1,0,0,1,.43,1.35,1,1,0,0,1-.88.54Z"/><path class="cls-5" d="M118.71,56.24a1.36,1.36,0,1,1,1.36-1.36,1.36,1.36,0,0,1-1.36,1.36Zm0-2a.64.64,0,1,0,0,1.28.64.64,0,0,0,.64-.64h0A.64.64,0,0,0,118.71,54.24Z"/><path class="cls-5" d="M120.68,54.09a11.45,11.45,0,0,1-1.55-.14,4.56,4.56,0,0,0-1.52-.07,1,1,0,0,1-.89-1.79A4.7,4.7,0,0,1,119.4,52a9.09,9.09,0,0,0,1.28.12,1,1,0,0,1,0,2Z"/><path class="cls-5" d="M126.59,56.24A1.36,1.36,0,1,1,128,54.88a1.36,1.36,0,0,1-1.36,1.36Zm0-2a.64.64,0,0,0,0,1.28.64.64,0,0,0,.64-.64h0A.64.64,0,0,0,126.59,54.24Z"/><circle class="cls-5" cx="118.71" cy="54.88" r="1"/><circle class="cls-5" cx="126.59" cy="54.88" r="1"/><path class="cls-2" d="M124.91,68.13V68a6.82,6.82,0,0,1-2.32.44,7.32,7.32,0,0,1-2.54-.46v.14L121.69,71,120,80.51l2.5,3.33,2.5-3.33L123.35,71Z"/><path class="cls-5" d="M122.52,84.84a1,1,0,0,1-.8-.4l-2.5-3.33a1,1,0,0,1-.19-.77l1.61-9.16-1.39-2.57-.06-.12v-.12a1,1,0,0,1,.25-1.06,1,1,0,0,1,1-.25,5.87,5.87,0,0,0,4.17,0,1,1,0,0,1,1.29.58,1.05,1.05,0,0,1,0,.78.47.47,0,0,1-.06.15h0l-1.39,2.57L126,80.3a1.06,1.06,0,0,1-.19.77l-2.5,3.33A1,1,0,0,1,122.52,84.84Zm-1.44-4.58,1.44,1.91L124,80.25l-1.44-8.19Zm.9-10.83.54,1,.54-1A6.49,6.49,0,0,1,122,69.43Z"/><rect class="cls-7" x="3.52" y="40.01" width="84" height="82" rx="6" ry="6"/><g class="cls-1"><path class="cls-17" d="M81.52,118h-72a6,6,0,0,1-6-6v4a6,6,0,0,0,6,6h72a6,6,0,0,0,6-6v-4A6,6,0,0,1,81.52,118Z"/></g><g class="cls-1"><path class="cls-3" d="M81.52,40h-72a6,6,0,0,0-6,6v4a6,6,0,0,1,6-6h72a6,6,0,0,1,6,6V46A6,6,0,0,0,81.52,40Z"/></g><g class="cls-1"><rect class="cls-17" x="3.52" y="108.01" width="84" height="4"/></g><path class="cls-5" d="M81.52,123h-72a7,7,0,0,1-7-7V46a7,7,0,0,1,7-7h72a7,7,0,0,1,7,7v70A7,7,0,0,1,81.52,123Zm-72-82a5,5,0,0,0-5,5v70a5,5,0,0,0,5,5h72a5,5,0,0,0,5-5V46a5,5,0,0,0-5-5Z"/><rect class="cls-4" x="7.52" y="44.01" width="76" height="74" rx="2" ry="2"/><g class="cls-1"><rect class="cls-18" x="7.52" y="108.01" width="76" height="4"/></g><path class="cls-3" d="M81.52,44h-72a2,2,0,0,0-2,2v4a2,2,0,0,1,2-2h72a2,2,0,0,1,2,2V46A2,2,0,0,0,81.52,44Z"/><path class="cls-5" d="M81.52,119h-72a3,3,0,0,1-3-3V46a3,3,0,0,1,3-3h72a3,3,0,0,1,3,3v70A3,3,0,0,1,81.52,119Zm-72-74a1,1,0,0,0-1,1v70a1,1,0,0,0,1,1h72a1,1,0,0,0,1-1V46a1,1,0,0,0-1-1Z"/><path class="cls-5" d="M81.52,116h-72a3,3,0,0,1-3-3,1,1,0,0,1,2,0,1,1,0,0,0,1,1h72a1,1,0,0,0,1-1,1,1,0,0,1,2,0A3,3,0,0,1,81.52,116Z"/><path class="cls-3" d="M7.52,78,1.09,105.56a2,2,0,0,0,1.5,2.4A2.22,2.22,0,0,0,3,108H88a2,2,0,0,0,2-2,2.3,2.3,0,0,0-.05-.45L83.52,78"/><g class="cls-1"><path class="cls-19" d="M89.62,104.16A2,2,0,0,1,88,105H3a2,2,0,0,1-1.62-.85l-.32,1.39A2,2,0,0,0,2.54,108,2.83,2.83,0,0,0,3,108H88a2,2,0,0,0,2-2,2.3,2.3,0,0,0-.05-.45Z"/></g><path class="cls-5" d="M88,109H3a3,3,0,0,1-3-3,3.08,3.08,0,0,1,.08-.68L6.52,77.78a1,1,0,1,1,2,.46l-6.4,27.54a1,1,0,0,0,.74,1.2,1.15,1.15,0,0,0,.26,0h85a1,1,0,0,0,1-1,.74.74,0,0,0,0-.26L82.52,78.24A1,1,0,0,1,83.26,77a1,1,0,0,1,1.21.75l6.43,27.55a3,3,0,0,1-2.24,3.6A3.16,3.16,0,0,1,88,109Z"/><g class="cls-1"><path class="cls-18" d="M15.52,73a3,3,0,0,0-3,3v8a3,3,0,0,0,6,0V76A3,3,0,0,0,15.52,73Z"/></g><path class="cls-20" d="M15.52,72h0a2,2,0,0,1,2,2v8a2,2,0,0,1-2,2h0a2,2,0,0,1-2-2V74A2,2,0,0,1,15.52,72Z"/><g class="cls-1"><path class="cls-18" d="M15.52,81a2,2,0,0,1-2-2v3a2,2,0,0,0,4,0V79A2,2,0,0,1,15.52,81Z"/></g><path class="cls-4" d="M15.52,72a2,2,0,0,0-2,2v3a2,2,0,0,1,4,0V74A2,2,0,0,0,15.52,72Z"/><path class="cls-5" d="M15.52,85a3,3,0,0,1-3-3V74a3,3,0,0,1,6,0v8A3,3,0,0,1,15.52,85Zm0-12a1,1,0,0,0-1,1v8a1,1,0,0,0,2,0V74A1,1,0,0,0,15.52,73Z"/><path class="cls-21" d="M40.64,68.89l-4.32,4.55a15.21,15.21,0,0,1-1.56,1.33,9.1,9.1,0,0,1,5.87,2.51c1.52,1.49,2.28,3.66,2.28,6.53a8.66,8.66,0,0,1-3.15,7,11.29,11.29,0,0,1-7.52,2.65,14.45,14.45,0,0,1-8.17-2.22,2,2,0,0,1-.66-2.57,5.85,5.85,0,0,1,.52-.81,2,2,0,0,1,2.59-.45,9.55,9.55,0,0,0,5,1.4,5.53,5.53,0,0,0,4-1.45A5.14,5.14,0,0,0,37,83.42a5.06,5.06,0,0,0-1.29-3.73,4.22,4.22,0,0,0-3.08-1.29,8.1,8.1,0,0,0-2.35.34,1.92,1.92,0,0,1-2-.53,4.41,4.41,0,0,1-.5-.72,2,2,0,0,1,.29-2.36l4.32-4.59c1.23-1.32,3.35-3.26,3.35-3.26a23.66,23.66,0,0,1-5.37.55H25.82a2,2,0,0,1-2-1.92v-.42a5.75,5.75,0,0,1,0-.83,2,2,0,0,1,2-1.71H39.33a2,2,0,0,1,1.82,1.18,6.46,6.46,0,0,1,.59,2.32A3.53,3.53,0,0,1,40.64,68.89Z"/><path class="cls-21" d="M47.14,85.45a36.6,36.6,0,0,1-.53-7.61,36.41,36.41,0,0,1,.53-7.59,10.9,10.9,0,0,1,2.65-5.13,10.24,10.24,0,0,1,14.08,0,11.11,11.11,0,0,1,2.65,5.15A37.82,37.82,0,0,1,67,77.86a37.82,37.82,0,0,1-.46,7.59,11.11,11.11,0,0,1-2.65,5.15,10.24,10.24,0,0,1-14.08,0A11,11,0,0,1,47.14,85.45Zm5.22-7.59c0,4.81.47,8,1.43,9.43a3.07,3.07,0,0,0,3,1.48,3.08,3.08,0,0,0,3-1.48c1-1.47,1.43-4.62,1.43-9.43s-.48-8-1.43-9.43a3.77,3.77,0,0,0-5.27-.8,3.57,3.57,0,0,0-.8.8C52.81,69.9,52.36,73.05,52.36,77.86Z"/><g class="cls-1"><path class="cls-3" d="M61.28,78c0,4.73-.48,7.82-1.42,9.28a3.08,3.08,0,0,1-3,1.48,3.07,3.07,0,0,1-3-1.48q-1.5-2.19-1.5-9.28H46.61a36.39,36.39,0,0,0,.52,7.44,11,11,0,0,0,2.65,5.15,10.24,10.24,0,0,0,14.08,0,11,11,0,0,0,2.66-5.15A37.06,37.06,0,0,0,67,78Z"/></g><g class="cls-1"><path class="cls-3" d="M28.11,78c0,.07.09.14.14.21a1.92,1.92,0,0,0,2,.53,8.1,8.1,0,0,1,2.35-.34,4.22,4.22,0,0,1,3.08,1.29A5.06,5.06,0,0,1,37,83.43a5.13,5.13,0,0,1-1.45,3.88,5.53,5.53,0,0,1-4,1.45,9.55,9.55,0,0,1-5-1.4,2,2,0,0,0-2.63.45,5.85,5.85,0,0,0-.52.81A2,2,0,0,0,24,91.19a14.45,14.45,0,0,0,8.17,2.22,11.29,11.29,0,0,0,7.52-2.65,8.66,8.66,0,0,0,3.15-7A9.4,9.4,0,0,0,41.25,78Z"/></g><g class="cls-1"><path class="cls-18" d="M75.52,73a3,3,0,0,0-3,3v8a3,3,0,0,0,6,0V76A3,3,0,0,0,75.52,73Z"/></g><path class="cls-20" d="M75.52,72h0a2,2,0,0,1,2,2v8a2,2,0,0,1-2,2h0a2,2,0,0,1-2-2V74A2,2,0,0,1,75.52,72Z"/><g class="cls-1"><path class="cls-18" d="M75.52,81a2,2,0,0,1-2-2v3a2,2,0,0,0,4,0V79A2,2,0,0,1,75.52,81Z"/></g><path class="cls-4" d="M75.52,72a2,2,0,0,0-2,2v3a2,2,0,0,1,4,0V74A2,2,0,0,0,75.52,72Z"/><path class="cls-5" d="M75.52,85a3,3,0,0,1-3-3V74a3,3,0,0,1,6,0v8A3,3,0,0,1,75.52,85Zm0-12a1,1,0,0,0-1,1v8a1,1,0,0,0,2,0V74A1,1,0,0,0,75.52,73Z"/></g></g></svg>