<svg xmlns="http://www.w3.org/2000/svg" xmlns:xlink="http://www.w3.org/1999/xlink" viewBox="0 0 158 141.96"><defs><style>.cls-1{fill:none;}.cls-2{opacity:0.4;}.cls-3{fill:#97c1ff;}.cls-4{fill:#eef6ff;}.cls-5{fill:#6d6daa;}.cls-6{fill:#8d96b8;}.cls-7{fill:#939fc6;}.cls-8{fill:#96d7ff;}.cls-9{fill:#ff9797;}.cls-10{fill:#d4edff;}.cls-11{fill:#c9c1f5;}.cls-12{fill:#b1f1a8;}.cls-13,.cls-18{fill:#fff;}.cls-14,.cls-18,.cls-19{opacity:0.3;}.cls-15{fill:#5cbeff;}.cls-16{fill:#5eca9e;}.cls-17{fill:#6d6da8;}.cls-17,.cls-27{opacity:0.5;}.cls-17,.cls-18,.cls-19{isolation:isolate;}.cls-19{fill:#5cbcff;}.cls-20{clip-path:url(#clip-path);}.cls-21{fill:#7690a8;}.cls-22{fill:#db4962;}.cls-23{fill:#d6b5b0;}.cls-24{fill:#9eb2cc;}.cls-25{fill:#c7e9ff;}.cls-26{fill:#1c64ba;}.cls-28{fill:#fff27d;}</style><clipPath id="clip-path"><rect class="cls-1" x="46.91" y="62.05" width="58.02" height="58.02"/></clipPath></defs><title>icon_1</title><g id="Layer_2" data-name="Layer 2"><g id="Artwork"><g class="cls-2"><path class="cls-3" d="M2.23,55.18a37,37,0,0,1,29-30.86,24.33,24.33,0,0,0,13.51-8.14,45.68,45.68,0,0,1,79.41,19.36A24.13,24.13,0,0,0,137,51.79a34.57,34.57,0,1,1-46.49,46.1A11.6,11.6,0,0,0,80,91.36H79a15.29,15.29,0,0,0-14.81,12,24.7,24.7,0,0,1-29.83,18.15c-.79-.2-1.57-.43-2.34-.7A24.68,24.68,0,0,1,15.47,98.76,26.46,26.46,0,0,0,9.88,83.52,36.91,36.91,0,0,1,2.23,55.18Z"/><rect class="cls-4" x="82.7" y="96.29" width="4.94" height="4.94"/><path class="cls-5" d="M87.64,102.46H82.7a1.23,1.23,0,0,1-1.23-1.23V96.29a1.23,1.23,0,0,1,1.23-1.23h4.94a1.24,1.24,0,0,1,1.24,1.23v4.94A1.24,1.24,0,0,1,87.64,102.46ZM83.94,100h2.47V97.53H83.94Z"/><rect class="cls-4" x="82.7" y="83.95" width="4.94" height="4.94"/><path class="cls-5" d="M87.64,90.12H82.7a1.23,1.23,0,0,1-1.23-1.23V84a1.24,1.24,0,0,1,1.23-1.24h4.94A1.25,1.25,0,0,1,88.88,84v4.94A1.24,1.24,0,0,1,87.64,90.12Zm-3.7-2.47h2.47V85.18H83.94Z"/><rect class="cls-4" x="82.7" y="120.98" width="4.94" height="4.94"/><path class="cls-5" d="M87.64,127.15H82.7a1.23,1.23,0,0,1-1.23-1.23V121a1.23,1.23,0,0,1,1.23-1.23h4.94A1.24,1.24,0,0,1,88.88,121v4.94A1.24,1.24,0,0,1,87.64,127.15Zm-3.7-2.47h2.47v-2.47H83.94Z"/><rect class="cls-4" x="82.7" y="108.64" width="4.94" height="4.94"/><path class="cls-5" d="M87.64,114.81H82.7a1.23,1.23,0,0,1-1.23-1.24v-4.93a1.24,1.24,0,0,1,1.23-1.24h4.94a1.25,1.25,0,0,1,1.24,1.24v4.93A1.24,1.24,0,0,1,87.64,114.81Zm-3.7-2.47h2.47v-2.47H83.94Z"/><path class="cls-5" d="M149.36,133.32a1.23,1.23,0,0,1-1.23-1.23V75.31a1.23,1.23,0,1,1,2.46,0v56.78A1.23,1.23,0,0,1,149.36,133.32Z"/><path class="cls-5" d="M149.36,92.59H142a1.24,1.24,0,0,1,0-2.47h7.41a1.24,1.24,0,0,1,0,2.47Z"/><path class="cls-5" d="M149.36,87.65H142a1.24,1.24,0,0,1,0-2.47h7.41a1.24,1.24,0,0,1,0,2.47Z"/><path class="cls-5" d="M149.36,97.53H142a1.24,1.24,0,0,1,0-2.47h7.41a1.24,1.24,0,0,1,0,2.47Z"/><path class="cls-5" d="M149.36,77.78H142a1.24,1.24,0,0,1,0-2.47h7.41a1.24,1.24,0,0,1,0,2.47Z"/><path class="cls-5" d="M149.36,82.71H142a1.23,1.23,0,0,1,0-2.46h7.41a1.23,1.23,0,0,1,0,2.46Z"/><path class="cls-5" d="M149.36,102.46H142a1.23,1.23,0,0,1,0-2.46h7.41a1.23,1.23,0,0,1,0,2.46Z"/><path class="cls-5" d="M149.36,107.4H142a1.24,1.24,0,0,1,0-2.47h7.41a1.24,1.24,0,0,1,0,2.47Z"/><path class="cls-5" d="M149.36,112.34H142a1.24,1.24,0,0,1,0-2.47h7.41a1.24,1.24,0,0,1,0,2.47Z"/><path class="cls-5" d="M149.36,117.28H142a1.24,1.24,0,0,1,0-2.47h7.41a1.24,1.24,0,0,1,0,2.47Z"/><path class="cls-5" d="M149.36,122.21H142a1.23,1.23,0,1,1,0-2.46h7.41a1.23,1.23,0,0,1,0,2.46Z"/><path class="cls-5" d="M149.36,127.15H142a1.24,1.24,0,0,1,0-2.47h7.41a1.24,1.24,0,0,1,0,2.47Z"/><path class="cls-5" d="M149.36,132.09H142a1.24,1.24,0,0,1,0-2.47h7.41a1.24,1.24,0,0,1,0,2.47Z"/><rect class="cls-6" x="87.64" y="66.67" width="54.31" height="4.93"/><path class="cls-5" d="M142,72.84H87.64a1.23,1.23,0,0,1-1.23-1.23V66.67a1.24,1.24,0,0,1,1.23-1.24H142a1.25,1.25,0,0,1,1.24,1.24v4.94A1.24,1.24,0,0,1,142,72.84ZM88.88,70.37h51.84V67.9H88.88Z"/><rect class="cls-4" x="87.64" y="71.61" width="54.31" height="69.13"/><path class="cls-5" d="M142,142H87.64a1.23,1.23,0,0,1-1.23-1.23V71.61a1.23,1.23,0,0,1,1.23-1.24H142a1.24,1.24,0,0,1,1.24,1.24v69.12A1.24,1.24,0,0,1,142,142ZM88.88,139.5h51.84V72.84H88.88Z"/><rect class="cls-7" x="124.67" y="128.39" width="9.88" height="12.34"/><path class="cls-5" d="M134.55,142h-9.88a1.23,1.23,0,0,1-1.23-1.23V128.39a1.24,1.24,0,0,1,1.23-1.24h9.88a1.24,1.24,0,0,1,1.23,1.24v12.34A1.23,1.23,0,0,1,134.55,142Zm-8.64-2.46h7.4v-9.88h-7.4Z"/><rect class="cls-8" x="95.05" y="128.39" width="24.69" height="7.41"/><path class="cls-5" d="M119.73,137H95.05a1.25,1.25,0,0,1-1.24-1.24v-7.4a1.25,1.25,0,0,1,1.24-1.24h24.68a1.24,1.24,0,0,1,1.24,1.24v7.4A1.24,1.24,0,0,1,119.73,137Zm-23.45-2.47H118.5v-4.94H96.28Z"/><rect class="cls-8" x="95.05" y="116.04" width="12.34" height="7.41"/><path class="cls-5" d="M107.39,124.68H95.05a1.24,1.24,0,0,1-1.24-1.23V116a1.24,1.24,0,0,1,1.24-1.23h12.34a1.24,1.24,0,0,1,1.24,1.23v7.41A1.24,1.24,0,0,1,107.39,124.68Zm-11.11-2.47h9.88v-4.93H96.28Z"/><path class="cls-5" d="M101.22,124.68a1.24,1.24,0,0,1-1.24-1.23V116a1.24,1.24,0,0,1,2.47,0v7.41A1.23,1.23,0,0,1,101.22,124.68Z"/><rect class="cls-8" x="95.05" y="103.7" width="12.34" height="7.41"/><path class="cls-5" d="M107.39,112.34H95.05a1.24,1.24,0,0,1-1.24-1.23V103.7a1.25,1.25,0,0,1,1.24-1.24h12.34a1.25,1.25,0,0,1,1.24,1.24v7.41A1.24,1.24,0,0,1,107.39,112.34Zm-11.11-2.47h9.88v-4.94H96.28Z"/><path class="cls-5" d="M101.22,112.34a1.24,1.24,0,0,1-1.24-1.23V103.7a1.24,1.24,0,1,1,2.47,0v7.41A1.23,1.23,0,0,1,101.22,112.34Z"/><rect class="cls-8" x="95.05" y="91.36" width="12.34" height="7.41"/><path class="cls-5" d="M107.39,100H95.05a1.25,1.25,0,0,1-1.24-1.24v-7.4a1.24,1.24,0,0,1,1.24-1.24h12.34a1.24,1.24,0,0,1,1.24,1.24v7.4A1.25,1.25,0,0,1,107.39,100ZM96.28,97.53h9.88V92.59H96.28Z"/><path class="cls-5" d="M101.22,100A1.25,1.25,0,0,1,100,98.76v-7.4a1.24,1.24,0,1,1,2.47,0v7.4A1.24,1.24,0,0,1,101.22,100Z"/><rect class="cls-8" x="95.05" y="79.01" width="12.34" height="7.41"/><path class="cls-5" d="M107.39,87.65H95.05a1.24,1.24,0,0,1-1.24-1.23V79a1.24,1.24,0,0,1,1.24-1.23h12.34A1.24,1.24,0,0,1,108.63,79v7.41A1.24,1.24,0,0,1,107.39,87.65ZM96.28,85.18h9.88V80.25H96.28Z"/><path class="cls-5" d="M101.22,87.65A1.24,1.24,0,0,1,100,86.42V79a1.24,1.24,0,0,1,2.47,0v7.41A1.23,1.23,0,0,1,101.22,87.65Z"/><rect class="cls-8" x="122.2" y="116.04" width="12.34" height="7.41"/><path class="cls-5" d="M134.55,124.68H122.2a1.23,1.23,0,0,1-1.23-1.23V116a1.23,1.23,0,0,1,1.23-1.23h12.35a1.23,1.23,0,0,1,1.23,1.23v7.41A1.23,1.23,0,0,1,134.55,124.68Zm-11.11-2.47h9.87v-4.93h-9.87Z"/><path class="cls-5" d="M128.38,124.68a1.23,1.23,0,0,1-1.24-1.23V116a1.24,1.24,0,0,1,2.47,0v7.41A1.23,1.23,0,0,1,128.38,124.68Z"/><rect class="cls-8" x="122.2" y="103.7" width="12.34" height="7.41"/><path class="cls-5" d="M134.55,112.34H122.2a1.23,1.23,0,0,1-1.23-1.23V103.7a1.24,1.24,0,0,1,1.23-1.24h12.35a1.24,1.24,0,0,1,1.23,1.24v7.41A1.23,1.23,0,0,1,134.55,112.34Zm-11.11-2.47h9.87v-4.94h-9.87Z"/><path class="cls-5" d="M128.38,112.34a1.23,1.23,0,0,1-1.24-1.23V103.7a1.24,1.24,0,1,1,2.47,0v7.41A1.23,1.23,0,0,1,128.38,112.34Z"/><rect class="cls-8" x="122.2" y="91.36" width="12.34" height="7.41"/><path class="cls-5" d="M134.55,100H122.2A1.24,1.24,0,0,1,121,98.76v-7.4a1.23,1.23,0,0,1,1.23-1.24h12.35a1.23,1.23,0,0,1,1.23,1.24v7.4A1.24,1.24,0,0,1,134.55,100Zm-11.11-2.47h9.87V92.59h-9.87Z"/><path class="cls-5" d="M128.38,100a1.24,1.24,0,0,1-1.24-1.24v-7.4a1.24,1.24,0,1,1,2.47,0v7.4A1.24,1.24,0,0,1,128.38,100Z"/><rect class="cls-8" x="122.2" y="79.01" width="12.34" height="7.41"/><path class="cls-5" d="M134.55,87.65H122.2A1.23,1.23,0,0,1,121,86.42V79a1.23,1.23,0,0,1,1.23-1.23h12.35A1.23,1.23,0,0,1,135.78,79v7.41A1.23,1.23,0,0,1,134.55,87.65Zm-11.11-2.47h9.87V80.25h-9.87Z"/><path class="cls-5" d="M128.38,87.65a1.23,1.23,0,0,1-1.24-1.23V79a1.24,1.24,0,0,1,2.47,0v7.41A1.23,1.23,0,0,1,128.38,87.65Z"/><rect class="cls-3" x="112.33" y="79.01" width="4.94" height="44.44"/><path class="cls-5" d="M117.27,124.68h-4.94a1.24,1.24,0,0,1-1.24-1.23V79a1.24,1.24,0,0,1,1.24-1.23h4.94A1.23,1.23,0,0,1,118.5,79v44.44A1.23,1.23,0,0,1,117.27,124.68Zm-3.71-2.47H116v-42h-2.47Z"/><path class="cls-5" d="M117.27,114.81h-4.94a1.24,1.24,0,1,1,0-2.47h4.94a1.24,1.24,0,0,1,0,2.47Z"/><path class="cls-5" d="M117.27,102.46h-4.94a1.23,1.23,0,1,1,0-2.46h4.94a1.23,1.23,0,1,1,0,2.46Z"/><path class="cls-5" d="M117.27,90.12h-4.94a1.24,1.24,0,1,1,0-2.47h4.94a1.24,1.24,0,0,1,0,2.47Z"/><path class="cls-5" d="M142,72.84H87.64a1.24,1.24,0,0,1,0-2.47H142a1.24,1.24,0,1,1,0,2.47Z"/><path class="cls-5" d="M144.42,67.9H85.17a1.24,1.24,0,0,1,0-2.47h59.25a1.24,1.24,0,1,1,0,2.47Z"/><rect class="cls-3" x="6.17" y="71.64" width="61.72" height="17.28"/><path class="cls-5" d="M67.89,90.12H6.17a1.23,1.23,0,0,1-1.23-1.23V71.61a1.23,1.23,0,0,1,1.23-1.24H67.89a1.24,1.24,0,0,1,1.24,1.24V88.89A1.24,1.24,0,0,1,67.89,90.12ZM7.41,87.65H66.66V72.84H7.41Z"/><polygon class="cls-4" points="62.95 93.86 62.95 91.39 37.03 74.69 11.11 91.39 11.11 93.86 8.64 93.86 8.64 140.77 65.42 140.77 65.42 133.74 65.42 101.79 65.42 93.86 62.95 93.86"/><path class="cls-5" d="M65.42,142H8.64a1.23,1.23,0,0,1-1.23-1.23V93.82a1.23,1.23,0,0,1,1.23-1.23H9.88V91.36a1.24,1.24,0,0,1,.56-1l25.92-16.7a1.25,1.25,0,0,1,1.34,0l25.92,16.7a1.25,1.25,0,0,1,.57,1v1.23h1.23a1.24,1.24,0,0,1,1.24,1.23v46.91A1.24,1.24,0,0,1,65.42,142ZM9.88,139.5H64.19V95.06H63a1.23,1.23,0,0,1-1.23-1.24V92.07L37,76.16,12.34,92.07v1.75a1.23,1.23,0,0,1-1.23,1.24H9.88Z"/><rect class="cls-8" x="16.05" y="121.02" width="22.22" height="14.81"/><path class="cls-5" d="M38.27,137H16.05a1.25,1.25,0,0,1-1.24-1.24V121a1.24,1.24,0,0,1,1.24-1.23H38.27A1.23,1.23,0,0,1,39.5,121v14.81A1.24,1.24,0,0,1,38.27,137Zm-21-2.47H37V122.21H17.28Z"/><rect class="cls-8" x="16.05" y="98.8" width="7.41" height="9.88"/><path class="cls-5" d="M23.45,109.87h-7.4a1.24,1.24,0,0,1-1.24-1.23V98.76a1.24,1.24,0,0,1,1.24-1.23h7.4a1.24,1.24,0,0,1,1.24,1.23v9.88A1.24,1.24,0,0,1,23.45,109.87Zm-6.17-2.47h4.94V100H17.28Z"/><polygon class="cls-9" points="60.48 83.99 60.48 72.88 53.08 72.88 53.08 79.44 60.48 83.99"/><path class="cls-5" d="M60.48,85.18a1.24,1.24,0,0,1-.64-.18l-7.4-4.54a1.26,1.26,0,0,1-.6-1V72.84a1.24,1.24,0,0,1,1.24-1.23h7.4a1.23,1.23,0,0,1,1.24,1.23V84A1.23,1.23,0,0,1,60.48,85.18Zm-6.17-6.46,4.94,3V74.07H54.31Z"/><rect class="cls-9" x="51.84" y="69.17" width="9.88" height="3.7"/><path class="cls-5" d="M61.72,74.07H51.84a1.23,1.23,0,0,1-1.23-1.23v-3.7a1.24,1.24,0,0,1,1.23-1.24h9.88A1.24,1.24,0,0,1,63,69.14v3.7A1.23,1.23,0,0,1,61.72,74.07Zm-8.64-2.46h7.4V70.37h-7.4Z"/><path class="cls-5" d="M27.16,137a1.24,1.24,0,0,1-1.24-1.24V121a1.24,1.24,0,0,1,2.47,0v14.81A1.24,1.24,0,0,1,27.16,137Z"/><path class="cls-5" d="M39.5,137H14.81a1.24,1.24,0,0,1,0-2.47H39.5a1.24,1.24,0,0,1,0,2.47Z"/><rect class="cls-9" x="45.67" y="121.02" width="12.34" height="16.05"/><path class="cls-5" d="M58,138.26H45.67A1.23,1.23,0,0,1,44.44,137V121a1.23,1.23,0,0,1,1.23-1.23H58A1.23,1.23,0,0,1,59.25,121v16A1.23,1.23,0,0,1,58,138.26Zm-11.11-2.47h9.87V122.21H46.91Z"/><path class="cls-5" d="M48.14,130.86H45.67a1.24,1.24,0,0,1,0-2.47h2.47a1.24,1.24,0,1,1,0,2.47Z"/><rect class="cls-7" x="44.44" y="137.06" width="14.81" height="3.7"/><path class="cls-5" d="M59.25,142H44.44a1.24,1.24,0,0,1-1.24-1.23V137a1.25,1.25,0,0,1,1.24-1.24H59.25A1.24,1.24,0,0,1,60.48,137v3.7A1.23,1.23,0,0,1,59.25,142ZM45.67,139.5H58v-1.24H45.67Z"/><rect class="cls-8" x="50.61" y="98.8" width="7.41" height="9.88"/><path class="cls-5" d="M58,109.87H50.61a1.23,1.23,0,0,1-1.23-1.23V98.76a1.23,1.23,0,0,1,1.23-1.23H58a1.23,1.23,0,0,1,1.23,1.23v9.88A1.23,1.23,0,0,1,58,109.87Zm-6.18-2.47h4.94V100H51.84Z"/><path class="cls-5" d="M24.69,109.87H14.81a1.24,1.24,0,0,1,0-2.47h9.88a1.24,1.24,0,0,1,0,2.47Z"/><rect class="cls-8" x="33.33" y="98.8" width="7.41" height="9.88"/><path class="cls-5" d="M40.73,109.87h-7.4a1.24,1.24,0,0,1-1.24-1.23V98.76a1.24,1.24,0,0,1,1.24-1.23h7.4A1.23,1.23,0,0,1,42,98.76v9.88A1.23,1.23,0,0,1,40.73,109.87Zm-6.17-2.47H39.5V100H34.56Z"/><path class="cls-5" d="M23.45,104.93h-7.4a1.24,1.24,0,1,1,0-2.47h7.4a1.24,1.24,0,1,1,0,2.47Z"/><path class="cls-5" d="M40.73,104.93h-7.4a1.24,1.24,0,1,1,0-2.47h7.4a1.24,1.24,0,1,1,0,2.47Z"/><path class="cls-5" d="M58,104.93H50.61a1.24,1.24,0,0,1,0-2.47H58a1.24,1.24,0,0,1,0,2.47Z"/><path class="cls-5" d="M59.25,109.87H49.38a1.24,1.24,0,1,1,0-2.47h9.87a1.24,1.24,0,0,1,0,2.47Z"/><path class="cls-5" d="M42,109.87H32.09a1.24,1.24,0,0,1,0-2.47H42a1.24,1.24,0,0,1,0,2.47Z"/><path class="cls-8" d="M33.33,88.89V85.18a3.7,3.7,0,0,1,3.7-3.7h0a3.7,3.7,0,0,1,3.7,3.7v3.71Z"/><path class="cls-5" d="M40.73,90.12h-7.4a1.24,1.24,0,0,1-1.24-1.23V85.18a4.94,4.94,0,0,1,9.88,0v3.71A1.23,1.23,0,0,1,40.73,90.12Zm-6.17-2.47H39.5V85.18a2.47,2.47,0,1,0-4.94,0Z"/><path class="cls-5" d="M42,90.12H32.09a1.24,1.24,0,0,1,0-2.47H42a1.24,1.24,0,0,1,0,2.47Z"/><path class="cls-5" d="M65.42,117.28H9.88a1.24,1.24,0,1,1,0-2.47H65.42a1.24,1.24,0,1,1,0,2.47Z"/><path class="cls-5" d="M65.42,95.06H9.88a1.24,1.24,0,1,1,0-2.47H65.42a1.24,1.24,0,1,1,0,2.47Z"/><polygon class="cls-3" points="62.95 93.86 62.95 91.39 37.03 74.69 11.11 91.39 11.11 93.86 6.17 93.86 6.17 88.92 37.03 69.17 67.89 88.92 67.89 93.86 62.95 93.86"/><path class="cls-5" d="M67.89,95.06H63a1.23,1.23,0,0,1-1.23-1.24V92.07L37,76.16,12.34,92.07v1.75a1.23,1.23,0,0,1-1.23,1.24H6.17a1.23,1.23,0,0,1-1.23-1.24V88.89a1.23,1.23,0,0,1,.57-1L36.36,68.1a1.25,1.25,0,0,1,1.34,0L68.56,87.85a1.28,1.28,0,0,1,.57,1v4.93A1.24,1.24,0,0,1,67.89,95.06Zm-3.7-2.47h2.47v-3L37,70.64,7.41,89.6v3H9.88V91.36a1.24,1.24,0,0,1,.56-1l25.92-16.7a1.25,1.25,0,0,1,1.34,0l25.92,16.7a1.25,1.25,0,0,1,.57,1Z"/><rect class="cls-4" x="41.97" y="106.21" width="4.94" height="34.56"/><path class="cls-5" d="M46.91,142H42a1.24,1.24,0,0,1-1.24-1.23V106.17A1.25,1.25,0,0,1,42,104.93h4.94a1.24,1.24,0,0,1,1.23,1.24v34.56A1.23,1.23,0,0,1,46.91,142ZM43.2,139.5h2.47V107.4H43.2Z"/><rect class="cls-10" x="46.91" y="106.21" width="7.41" height="34.56"/><path class="cls-5" d="M54.31,142h-7.4a1.23,1.23,0,0,1-1.24-1.23V106.17a1.24,1.24,0,0,1,1.24-1.24h7.4a1.25,1.25,0,0,1,1.24,1.24v34.56A1.24,1.24,0,0,1,54.31,142Zm-6.17-2.46h4.94V107.4H48.14Z"/><rect class="cls-4" x="108.63" y="106.21" width="4.94" height="34.56"/><path class="cls-5" d="M113.56,142h-4.93a1.23,1.23,0,0,1-1.24-1.23V106.17a1.24,1.24,0,0,1,1.24-1.24h4.93a1.25,1.25,0,0,1,1.24,1.24v34.56A1.24,1.24,0,0,1,113.56,142Zm-3.7-2.46h2.47V107.4h-2.47Z"/><rect class="cls-10" x="101.22" y="106.21" width="7.41" height="34.56"/><path class="cls-5" d="M108.63,142h-7.41a1.24,1.24,0,0,1-1.24-1.23V106.17a1.25,1.25,0,0,1,1.24-1.24h7.41a1.24,1.24,0,0,1,1.23,1.24v34.56A1.23,1.23,0,0,1,108.63,142Zm-6.18-2.46h4.94V107.4h-4.94Z"/><polyline class="cls-4" points="101.22 86.45 101.22 140.77 54.31 140.77 54.31 86.45"/><path class="cls-5" d="M101.22,142H54.31a1.23,1.23,0,0,1-1.23-1.23V86.42a1.24,1.24,0,1,1,2.47,0V139.5H100V86.42a1.24,1.24,0,1,1,2.47,0v54.31A1.23,1.23,0,0,1,101.22,142Z"/><polyline class="cls-8" points="96.28 86.45 96.28 121.02 59.25 121.02 59.25 86.45"/><path class="cls-5" d="M96.28,122.21h-37A1.23,1.23,0,0,1,58,121V86.42a1.23,1.23,0,1,1,2.46,0v33.33H95.05V86.42a1.24,1.24,0,1,1,2.47,0V121A1.24,1.24,0,0,1,96.28,122.21Z"/><rect class="cls-10" x="59.25" y="121.02" width="37.03" height="19.75"/><path class="cls-5" d="M96.28,142h-37A1.23,1.23,0,0,1,58,140.73V121a1.23,1.23,0,0,1,1.23-1.23h37A1.24,1.24,0,0,1,97.52,121v19.75A1.24,1.24,0,0,1,96.28,142Zm-35.8-2.46H95.05V122.21H60.48Z"/><path class="cls-5" d="M88.88,122.21A1.23,1.23,0,0,1,87.64,121V86.42a1.24,1.24,0,1,1,2.47,0V121A1.23,1.23,0,0,1,88.88,122.21Z"/><path class="cls-5" d="M81.47,122.21A1.24,1.24,0,0,1,80.23,121V86.42a1.24,1.24,0,1,1,2.47,0V121A1.23,1.23,0,0,1,81.47,122.21Z"/><path class="cls-5" d="M74.06,122.21A1.23,1.23,0,0,1,72.83,121V86.42a1.24,1.24,0,1,1,2.47,0V121A1.24,1.24,0,0,1,74.06,122.21Z"/><rect class="cls-7" x="41.97" y="135.83" width="12.34" height="4.94"/><path class="cls-5" d="M54.31,142H42a1.24,1.24,0,0,1-1.24-1.23v-4.94A1.24,1.24,0,0,1,42,134.56H54.31a1.24,1.24,0,0,1,1.24,1.23v4.94A1.24,1.24,0,0,1,54.31,142ZM43.2,139.5h9.88V137H43.2Z"/><path class="cls-5" d="M66.66,122.21A1.23,1.23,0,0,1,65.42,121V86.42a1.24,1.24,0,1,1,2.47,0V121A1.23,1.23,0,0,1,66.66,122.21Z"/><path class="cls-5" d="M69.13,142a1.23,1.23,0,0,1-1.24-1.23V121a1.24,1.24,0,0,1,2.47,0v19.75A1.23,1.23,0,0,1,69.13,142Z"/><path class="cls-5" d="M86.41,142a1.23,1.23,0,0,1-1.24-1.23V121a1.24,1.24,0,0,1,2.47,0v19.75A1.23,1.23,0,0,1,86.41,142Z"/><path class="cls-5" d="M77.77,142a1.23,1.23,0,0,1-1.24-1.23V121A1.24,1.24,0,0,1,79,121v19.75A1.23,1.23,0,0,1,77.77,142Z"/><path class="cls-5" d="M96.28,97.53h-37a1.24,1.24,0,0,1,0-2.47h37a1.24,1.24,0,1,1,0,2.47Z"/><path class="cls-5" d="M96.28,109.87h-37a1.24,1.24,0,0,1,0-2.47h37a1.24,1.24,0,1,1,0,2.47Z"/><path class="cls-5" d="M96.28,122.21h-37a1.23,1.23,0,0,1,0-2.46h37a1.23,1.23,0,1,1,0,2.46Z"/><path class="cls-5" d="M108.63,137a1.24,1.24,0,0,1-1.24-1.24V111.11a1.24,1.24,0,1,1,2.47,0v24.68A1.24,1.24,0,0,1,108.63,137Z"/><rect class="cls-7" x="101.22" y="135.83" width="12.34" height="4.94"/><path class="cls-5" d="M113.56,142H101.22a1.24,1.24,0,0,1-1.24-1.23v-4.94a1.24,1.24,0,0,1,1.24-1.23h12.34a1.24,1.24,0,0,1,1.24,1.23v4.94A1.24,1.24,0,0,1,113.56,142Zm-11.11-2.46h9.88V137h-9.88Z"/><rect class="cls-11" x="101.22" y="106.21" width="12.34" height="4.94"/><path class="cls-5" d="M113.56,112.34H101.22a1.24,1.24,0,0,1-1.24-1.23v-4.94a1.25,1.25,0,0,1,1.24-1.24h12.34a1.25,1.25,0,0,1,1.24,1.24v4.94A1.24,1.24,0,0,1,113.56,112.34Zm-11.11-2.47h9.88V107.4h-9.88Z"/><rect class="cls-11" x="41.97" y="106.21" width="12.34" height="4.94"/><path class="cls-5" d="M54.31,112.34H42a1.24,1.24,0,0,1-1.24-1.23v-4.94A1.25,1.25,0,0,1,42,104.93H54.31a1.25,1.25,0,0,1,1.24,1.24v4.94A1.24,1.24,0,0,1,54.31,112.34ZM43.2,109.87h9.88V107.4H43.2Z"/><path class="cls-12" d="M27.16,135.79a3.86,3.86,0,0,0-1.39.27,3.69,3.69,0,0,0-4.54-2.59,3.53,3.53,0,0,0-1.1.5,6.17,6.17,0,0,0-11,.64,4,4,0,0,0-.49,0,4.94,4.94,0,0,0-4.94,4.94v1.23H30.86v-1.23a3.71,3.71,0,0,0-3.65-3.76Z"/><path class="cls-5" d="M30.86,142H3.7a1.23,1.23,0,0,1-1.23-1.23V139.5a6.18,6.18,0,0,1,5.92-6.18,7.42,7.42,0,0,1,12.15-.95,4.93,4.93,0,0,1,6,2.23,3.64,3.64,0,0,1,.66,0,4.93,4.93,0,0,1,4.93,4.93v1.24A1.22,1.22,0,0,1,30.86,142ZM4.94,139.5H29.63A2.47,2.47,0,0,0,27.15,137a2.58,2.58,0,0,0-.91.17,1.25,1.25,0,0,1-1.65-.82,2.47,2.47,0,0,0-3.05-1.71,2.56,2.56,0,0,0-.65.3,1.24,1.24,0,0,1-1.72-.33.56.56,0,0,1-.05-.08,5,5,0,0,0-8.85.52,1.23,1.23,0,0,1-1.23.74H8.83l-.19,0A3.71,3.71,0,0,0,4.94,139.5Z"/><path class="cls-5" d="M16.18,137.18a1.28,1.28,0,0,1-.73-.25c-.61-.46-1-.4-1.37-.14a1.22,1.22,0,0,1-1.72-.26,1.24,1.24,0,0,1,.27-1.73.54.54,0,0,1,.15-.09,3.46,3.46,0,0,1,4.16.24,1.24,1.24,0,0,1-.75,2.23Z"/><path class="cls-12" d="M125.73,136a3.7,3.7,0,0,0-4.62-2.46,3.52,3.52,0,0,0-1,.46,6.18,6.18,0,0,0-11.25,1.42,4.93,4.93,0,0,0-7.66,4.08v1.23h27.16V139.5A3.73,3.73,0,0,0,125.73,136Z"/><path class="cls-5" d="M128.38,142H101.22a1.24,1.24,0,0,1-1.24-1.23V139.5a6.18,6.18,0,0,1,6.18-6.17,6.28,6.28,0,0,1,2.06.35,7.4,7.4,0,0,1,12.34-1.29,4.93,4.93,0,0,1,6.17,2.63,4.93,4.93,0,0,1,2.88,4.48v1.23A1.23,1.23,0,0,1,128.38,142Zm-25.93-2.46h24.69a2.47,2.47,0,0,0-1.76-2.35,1.23,1.23,0,0,1-.83-.83,2.46,2.46,0,0,0-3.7-1.33,1.24,1.24,0,0,1-1.72-.33.56.56,0,0,1,0-.08,4.9,4.9,0,0,0-9,1.21,1.24,1.24,0,0,1-1.52.87,1.17,1.17,0,0,1-.36-.16,3.71,3.71,0,0,0-5.13,1.07A3.75,3.75,0,0,0,102.45,139.5Z"/><path class="cls-5" d="M113.41,137.1a1.22,1.22,0,0,1-1.22-1.24,1.24,1.24,0,0,1,.55-1,3.45,3.45,0,0,1,4.16,0,1.24,1.24,0,0,1-1.28,2.12l-.14-.11c-.4-.27-.74-.35-1.39.07A1.24,1.24,0,0,1,113.41,137.1Z"/><path class="cls-5" d="M124.78,141.87a1.24,1.24,0,0,1-1.23-1.24v-9.87a1.24,1.24,0,1,1,2.47,0v9.87A1.25,1.25,0,0,1,124.78,141.87Z"/><path class="cls-12" d="M132.19,124a7.41,7.41,0,0,1-14.81,0h0c0-3.71,3.32-20.37,7.4-20.37S132.19,120.22,132.19,124Z"/><path class="cls-5" d="M124.78,132a8.36,8.36,0,0,1-8.64-8c0-2.41,2.89-21.6,8.64-21.6s8.64,19.19,8.64,21.6A8.36,8.36,0,0,1,124.78,132Zm0-27.16c-2.47,0-6.17,14.56-6.17,19.14A6.17,6.17,0,1,0,131,124C131,119.39,127.28,104.83,124.78,104.83Z"/><path class="cls-5" d="M123.2,126.88a1.6,1.6,0,0,1-.31,0,3.46,3.46,0,0,1-2.69-3.17,1.25,1.25,0,0,1,1.08-1.39,1.24,1.24,0,0,1,1.39,1.08c.1.75.38,1,.85,1.09a1.24,1.24,0,1,1-.29,2.46Z"/><path class="cls-5" d="M126,115.27a1.24,1.24,0,0,1-1-.55c-.42-.63-.78-.69-1.24-.59a1.26,1.26,0,0,1-.54-2.47,3.45,3.45,0,0,1,3.84,1.61,1.24,1.24,0,0,1-.33,1.71,1.25,1.25,0,0,1-.7.21Z"/><path class="cls-5" d="M138.25,142H28.39a1.23,1.23,0,0,1,0-2.46H138.25a1.23,1.23,0,0,1,0,2.46Z"/><path class="cls-5" d="M156.77,142H142a1.23,1.23,0,1,1,0-2.46h14.82a1.23,1.23,0,0,1,0,2.46Z"/><path class="cls-5" d="M7.41,142H1.23a1.23,1.23,0,0,1,0-2.46H7.41a1.23,1.23,0,1,1,0,2.46Z"/><path class="cls-5" d="M24.69,142H11.11a1.23,1.23,0,0,1,0-2.46H24.69a1.23,1.23,0,1,1,0,2.46Z"/><path class="cls-13" d="M19.75,58H19.5L19.27,58l-.21-.11-.19-.16a.49.49,0,0,1-.14-.18,2.39,2.39,0,0,1-.13-.21,1,1,0,0,1,0-.24.79.79,0,0,1-.08-.26,1.19,1.19,0,0,1,.35-.87l.19-.16.21-.11h.23a1.11,1.11,0,0,1,.72,0,1.22,1.22,0,0,1,.41.27,1.19,1.19,0,0,1,.35.87A1,1,0,0,1,21,57a.88.88,0,0,1-.07.23,1,1,0,0,1-.11.21.9.9,0,0,1-.15.19A1.26,1.26,0,0,1,19.75,58Z"/><path class="cls-13" d="M34.56,63h-7.4a1.23,1.23,0,1,1,0-2.46h7.4a1.23,1.23,0,1,1,0,2.46Z"/><path class="cls-13" d="M43.2,58H24.69a1.24,1.24,0,1,1,0-2.47H43.2a1.24,1.24,0,1,1,0,2.47Z"/><path class="cls-13" d="M30.86,67.9H22.22a1.24,1.24,0,1,1,0-2.47h8.64a1.24,1.24,0,0,1,0,2.47Z"/><path class="cls-13" d="M22.22,63H17.28a1.23,1.23,0,0,1,0-2.46h4.94a1.23,1.23,0,0,1,0,2.46Z"/><path class="cls-4" d="M14.32,21.81a7.4,7.4,0,0,1,14.34-3.42,4,4,0,0,1,6.43,3.1v.33a5.91,5.91,0,0,1-2,11.52H16.26a5.93,5.93,0,0,1-1.94-11.53Z"/><path class="cls-13" d="M14.32,24.28a7.4,7.4,0,0,1,14.34-3.42A4,4,0,0,1,35.09,24v.33a5.94,5.94,0,0,1,3.84,4.37,5.88,5.88,0,0,0-3.84-6.84v-.33a4,4,0,0,0-6.43-3.1,7.4,7.4,0,0,0-14.34,3.42,5.88,5.88,0,0,0-3.88,6.85A6,6,0,0,1,14.32,24.28Z"/><g class="cls-14"><path class="cls-15" d="M33.12,30.87H16.26a5.93,5.93,0,0,1-5.82-4.66,5.58,5.58,0,0,0-.13,1.23,5.93,5.93,0,0,0,6,5.9H33.12a5.94,5.94,0,0,0,6-5.92h0a5.73,5.73,0,0,0-.14-1.23A5.93,5.93,0,0,1,33.12,30.87Z"/></g><path class="cls-5" d="M33.12,34.57H16.26A7.14,7.14,0,0,1,13,21h0a8.64,8.64,0,0,1,16.17-4.32A5.22,5.22,0,0,1,36.32,21a7.14,7.14,0,0,1-3.2,13.57ZM21.71,14.82A6.18,6.18,0,0,0,15.5,21a5.79,5.79,0,0,0,0,.72,1.22,1.22,0,0,1-.83,1.3,4.7,4.7,0,0,0,1.55,9.13H33.12A4.68,4.68,0,0,0,34.67,23a1.24,1.24,0,0,1-.82-1.24v-.23a2.73,2.73,0,0,0-4.43-2.13,1.24,1.24,0,0,1-1.74-.19,1.41,1.41,0,0,1-.19-.34A6.18,6.18,0,0,0,21.71,14.82Z"/><path class="cls-4" d="M16.26,21.49a6.09,6.09,0,0,0-2,.32"/><path class="cls-5" d="M14.31,23.05a1.24,1.24,0,0,1-.41-2.41,7.26,7.26,0,0,1,2.36-.4,1.24,1.24,0,0,1,0,2.47,4.8,4.8,0,0,0-1.55.26A1.35,1.35,0,0,1,14.31,23.05Z"/><path class="cls-4" d="M35.08,21.81a5.93,5.93,0,0,0-2-.33"/><path class="cls-5" d="M35.08,23.06a1.15,1.15,0,0,1-.41-.08,4.8,4.8,0,0,0-1.55-.26,1.23,1.23,0,1,1,0-2.46,7.1,7.1,0,0,1,2.37.39,1.24,1.24,0,0,1-.41,2.4Z"/><path class="cls-4" d="M28.7,18.37a3.83,3.83,0,0,0-1.07,1.23"/><path class="cls-5" d="M27.61,20.89a1.24,1.24,0,0,1-1.23-1.24,1.19,1.19,0,0,1,.15-.58A5.13,5.13,0,0,1,28,17.38a1.23,1.23,0,0,1,1.51,1.95,2.91,2.91,0,0,0-.74.89A1.25,1.25,0,0,1,27.61,20.89Z"/><path class="cls-4" d="M102.16,22.23a9.87,9.87,0,0,1,14.66-10.92A12.95,12.95,0,0,1,140,17.79a9.26,9.26,0,0,1-3,18H102.45a6.79,6.79,0,1,1-.28-13.58Z"/><path class="cls-13" d="M102.16,25.93a9.42,9.42,0,0,1-.25-3.7,6.75,6.75,0,0,0-6.23,7.24,6.17,6.17,0,0,0,.26,1.4A6.75,6.75,0,0,1,102.16,25.93Z"/><path class="cls-13" d="M111.71,13.59A9.9,9.9,0,0,1,116.82,15,13,13,0,0,1,140,21.5a9.3,9.3,0,0,1,6.05,6.94A9.25,9.25,0,0,0,140,17.8a13,13,0,0,0-23.21-6.48,9.87,9.87,0,0,0-15,8.44,9,9,0,0,0,.18,1.79A9.87,9.87,0,0,1,111.71,13.59Z"/><path class="cls-15" d="M102.16,18.53a4.94,4.94,0,0,0-.14-.71c0,.25-.09.49-.11.73Z"/><g class="cls-14"><path class="cls-15" d="M137,32.11H102.45a6.79,6.79,0,0,1-6.51-4.94,6.44,6.44,0,0,0-.28,1.8,6.8,6.8,0,0,0,6.74,6.84H137a9.2,9.2,0,0,0,9.06-11.11A9.27,9.27,0,0,1,137,32.11Z"/></g><path class="cls-5" d="M137,37H102.45a8,8,0,0,1-1.75-15.85,11.32,11.32,0,0,1-.1-1.43,11.11,11.11,0,0,1,15.91-10,14.18,14.18,0,0,1,24.69,7.17A10.49,10.49,0,0,1,137,37ZM111.71,11.12a8.66,8.66,0,0,0-8.36,10.81,1.22,1.22,0,0,1-.9,1.5,1,1,0,0,1-.24,0,5.56,5.56,0,0,0,.24,11.11H137A8,8,0,0,0,139.63,19a1.22,1.22,0,0,1-.82-1,11.72,11.72,0,0,0-21-5.86,1.23,1.23,0,0,1-1.63.31A8.64,8.64,0,0,0,111.71,11.12Z"/><path class="cls-5" d="M139.48,24.39a1.23,1.23,0,0,1-1.29-1.17,1.17,1.17,0,0,1,.06-.45A11.73,11.73,0,0,0,127.14,7.42a1.24,1.24,0,0,1,0-2.47,14.19,14.19,0,0,1,13.5,18.59A1.22,1.22,0,0,1,139.48,24.39Z"/><path class="cls-5" d="M106.92,25.14a1.25,1.25,0,0,1-.81-.3,5.53,5.53,0,0,0-3.66-1.38,1.23,1.23,0,0,1,0-2.46,8,8,0,0,1,5.29,2,1.23,1.23,0,0,1-.82,2.16Z"/><path class="cls-5" d="M119.73,15.24a1.24,1.24,0,0,1-1-.51,8.61,8.61,0,0,0-7-3.61,1.24,1.24,0,0,1,0-2.47,11.13,11.13,0,0,1,9,4.64,1.25,1.25,0,0,1-.29,1.73A1.19,1.19,0,0,1,119.73,15.24Z"/></g><rect class="cls-4" x="46.05" y="18.27" width="60.76" height="103.29" rx="5.7" ry="5.7"/><path class="cls-13" d="M51.75,121.56h49.37a5.7,5.7,0,0,0,5.69-5.7h0V58.33L46.05,91.07v24.79a5.7,5.7,0,0,0,5.7,5.7Z"/><polygon class="cls-13" points="46.05 78.69 46.05 84.88 106.83 52.13 106.81 45.94 46.05 78.69"/><path class="cls-16" d="M60.29,54A1.91,1.91,0,0,1,59,53.42l-3.8-3.8a1.91,1.91,0,0,1,2.69-2.7h0L59.91,49l4.45-7.38a1.9,1.9,0,0,1,3.26,1.9L61.93,53a1.93,1.93,0,0,1-1.41.91Z"/><path class="cls-17" d="M97.32,53H74.53a1.9,1.9,0,0,1,0-3.8H97.32a1.9,1.9,0,1,1,0,3.8Z"/><path class="cls-17" d="M84,45.42h-9.5a1.9,1.9,0,1,1,0-3.79H84a1.9,1.9,0,1,1,0,3.79Z"/><path class="cls-18" d="M51.75,121.56h49.37a5.7,5.7,0,0,0,5.69-5.7h0V58.33L46.05,91.07v24.79a5.7,5.7,0,0,0,5.7,5.7Z"/><polygon class="cls-18" points="46.05 78.69 46.05 84.88 106.83 52.13 106.81 45.94 46.05 78.69"/><path class="cls-13" d="M101.12,115.86H51.75c-4.2,0-5.7-3.39-5.7-7.59v7.59a5.7,5.7,0,0,0,5.7,5.7h49.37a5.7,5.7,0,0,0,5.69-5.7h0v-7.59C106.81,112.47,105.31,115.86,101.12,115.86Z"/><path class="cls-19" d="M101.12,18.27H51.75a5.7,5.7,0,0,0-5.7,5.7v7.59c0-4.19,1.5-7.59,5.7-7.59h49.37c4.19,0,5.69,3.4,5.69,7.59V24A5.7,5.7,0,0,0,101.12,18.27Z"/><path class="cls-7" d="M91.62,18.27v3.8a3.8,3.8,0,0,1-3.8,3.8H65a3.8,3.8,0,0,1-3.8-3.8v-3.8Z"/><path class="cls-5" d="M87.82,27.77H65a5.7,5.7,0,0,1-5.7-5.7v-3.8a1.9,1.9,0,1,1,3.8,0v3.8A1.9,1.9,0,0,0,65,24H87.82a1.9,1.9,0,0,0,1.9-1.9v-3.8a1.9,1.9,0,1,1,3.8,0v3.8A5.7,5.7,0,0,1,87.82,27.77Z"/><g class="cls-20"><polygon class="cls-7" points="62.04 79.33 34.38 91.62 34.38 95.72 38.48 95.72 38.48 93.67 62.04 83.42 85.61 93.67 85.61 95.72 89.7 95.72 89.7 91.62 62.04 79.33"/><g class="cls-14"><polygon class="cls-13" points="62.04 79.33 34.38 91.62 34.38 93.67 62.04 81.38 89.7 93.67 89.7 91.62 62.04 79.33"/></g><polygon class="cls-4" points="62.04 83.42 38.48 93.67 38.48 120.31 85.61 120.31 85.61 93.67 62.04 83.42"/><g class="cls-14"><polygon class="cls-21" points="62.04 83.42 38.48 93.67 38.48 96.4 62.04 86.16 85.61 96.4 85.61 93.67 62.04 83.42"/></g><path class="cls-5" d="M85.61,121H38.48a.68.68,0,0,1-.68-.68V93.67a.69.69,0,0,1,.41-.63L61.77,82.8a.66.66,0,0,1,.55,0L85.88,93a.69.69,0,0,1,.41.63v26.64A.69.69,0,0,1,85.61,121Zm-46.45-1.37H84.92V94.12L62,84.17l-22.88,10Z"/><path class="cls-5" d="M89.7,96.4H85.61a.68.68,0,0,1-.69-.68v-1.6L62,84.17l-22.88,10v1.6a.67.67,0,0,1-.68.68h-4.1a.67.67,0,0,1-.68-.68v-4.1a.68.68,0,0,1,.4-.62L61.76,78.71a.68.68,0,0,1,.56,0L90,91a.68.68,0,0,1,.41.62v4.1A.68.68,0,0,1,89.7,96.4ZM86.29,95H89v-3l-27-12-27,12v3H37.8V93.67a.69.69,0,0,1,.41-.63L61.77,82.8a.66.66,0,0,1,.55,0L85.88,93a.69.69,0,0,1,.41.63Z"/><polygon class="cls-9" points="84.24 82.74 84.24 89.19 78.78 86.77 78.78 82.74 84.24 82.74"/><path class="cls-5" d="M84.24,89.87a.67.67,0,0,1-.28-.06L78.5,87.38a.68.68,0,0,1-.41-.62v-4a.68.68,0,0,1,.69-.68h5.46a.67.67,0,0,1,.68.68v6.45A.67.67,0,0,1,84.24,89.87Zm-4.78-3.56,4.1,1.83V83.42h-4.1Z"/><rect class="cls-9" x="78.09" y="80.69" width="6.83" height="2.05"/><path class="cls-5" d="M84.92,83.42H78.09a.68.68,0,0,1-.68-.68v-2a.69.69,0,0,1,.68-.68h6.83a.69.69,0,0,1,.69.68v2A.68.68,0,0,1,84.92,83.42Zm-6.14-1.36h5.46v-.68H78.78Z"/><rect class="cls-9" x="77.41" y="77.96" width="8.2" height="2.73"/><path class="cls-5" d="M85.61,81.38h-8.2a.68.68,0,0,1-.68-.69V78a.67.67,0,0,1,.68-.68h8.2a.68.68,0,0,1,.68.68v2.73A.69.69,0,0,1,85.61,81.38ZM78.09,80h6.83V78.64H78.09Z"/><rect class="cls-9" x="54.87" y="99.82" width="14.34" height="20.49"/><g class="cls-14"><rect class="cls-22" x="54.87" y="99.82" width="14.34" height="2.05"/></g><path class="cls-5" d="M69.21,121H54.87a.68.68,0,0,1-.68-.68V99.82a.68.68,0,0,1,.68-.69H69.21a.69.69,0,0,1,.69.69v20.49A.69.69,0,0,1,69.21,121Zm-13.66-1.37h13V100.5h-13Z"/><path class="cls-5" d="M59.65,111.43h-2a.69.69,0,0,1,0-1.37h2a.69.69,0,1,1,0,1.37Z"/><rect class="cls-23" x="38.48" y="120.31" width="47.13" height="4.1"/><path class="cls-5" d="M85.61,125.09H38.48a.68.68,0,0,1-.68-.68v-4.1a.68.68,0,0,1,.68-.69H85.61a.69.69,0,0,1,.68.69v4.1A.69.69,0,0,1,85.61,125.09Zm-46.45-1.37H84.92V121H39.16Z"/><rect class="cls-24" x="54.87" y="120.31" width="14.34" height="2.05"/><path class="cls-5" d="M69.21,123H54.87a.68.68,0,0,1-.68-.68v-2a.68.68,0,0,1,.68-.69H69.21a.69.69,0,0,1,.69.69v2A.69.69,0,0,1,69.21,123Zm-13.66-1.37h13V121h-13Z"/><rect class="cls-24" x="54.87" y="122.36" width="14.34" height="2.05"/><path class="cls-5" d="M69.21,125.09H54.87a.68.68,0,0,1-.68-.68v-2a.68.68,0,0,1,.68-.69H69.21a.69.69,0,0,1,.69.69v2A.69.69,0,0,1,69.21,125.09Zm-13.66-1.37h13V123h-13Z"/><rect class="cls-8" x="73.31" y="99.82" width="8.2" height="10.25"/><polygon class="cls-25" points="81.51 103.23 81.51 99.82 73.31 99.82 73.31 106.92 81.51 103.23"/><polygon class="cls-25" points="73.31 109.65 81.51 105.96 81.51 104.6 73.31 108.29 73.31 109.65"/><g class="cls-14"><rect class="cls-26" x="73.31" y="99.82" width="8.2" height="2.05"/></g><path class="cls-5" d="M81.51,110.74h-8.2a.68.68,0,0,1-.68-.68V99.82a.69.69,0,0,1,.68-.69h8.2a.68.68,0,0,1,.68.69v10.24A.67.67,0,0,1,81.51,110.74ZM74,109.38h6.83V100.5H74Z"/><path class="cls-5" d="M82.53,110.74H72.29a.68.68,0,1,1,0-1.36H82.53a.68.68,0,1,1,0,1.36Z"/><path class="cls-5" d="M81.51,104.6h-8.2a.69.69,0,0,1,0-1.37h8.2a.69.69,0,0,1,0,1.37Z"/><path class="cls-12" d="M43.6,120.31a3.17,3.17,0,0,0-1.14.22,3.06,3.06,0,0,0-3.75-2.16,3.13,3.13,0,0,0-.91.42,5.11,5.11,0,0,0-9.14.53l-.41,0a4.1,4.1,0,0,0-4.09,4.1v1H46.68v-1a3.07,3.07,0,0,0-3.08-3.07Z"/><g class="cls-27"><path class="cls-13" d="M43.6,120.31a3.17,3.17,0,0,0-1.14.22,3.06,3.06,0,0,0-3.75-2.16,3.13,3.13,0,0,0-.91.42,5.11,5.11,0,0,0-9.14.53l-.41,0a4.1,4.1,0,0,0-4.09,4.1v1h.13a4.1,4.1,0,0,1,4-3.08l.41,0a5.11,5.11,0,0,1,9.14-.53,3.06,3.06,0,0,1,4.25.81,2.9,2.9,0,0,1,.42.93,3.06,3.06,0,0,1,4,1.67.75.75,0,0,1,0,.16h.18v-1a3.07,3.07,0,0,0-3.08-3.07Z"/></g><path class="cls-5" d="M46.68,125.09H24.14a.69.69,0,0,1-.69-.68v-1a4.78,4.78,0,0,1,4.78-4.78h0a5.78,5.78,0,0,1,7.82-2.38,5.69,5.69,0,0,1,2,1.7,3.73,3.73,0,0,1,4.87,1.81,3.68,3.68,0,0,1,.73-.11,3.78,3.78,0,0,1,3.76,3.76v1A.69.69,0,0,1,46.68,125.09Zm-21.86-1.37H46v-.34A2.39,2.39,0,0,0,43.61,121a2.33,2.33,0,0,0-.9.18.67.67,0,0,1-.88-.38.26.26,0,0,1,0-.08,2.38,2.38,0,0,0-2.9-1.7,2.41,2.41,0,0,0-.73.33.67.67,0,0,1-1-.18l0,0a4.43,4.43,0,0,0-7.93.5.67.67,0,0,1-.68.41h-.35a3.42,3.42,0,0,0-3.41,3.42Z"/><path class="cls-5" d="M34.5,121.08a.68.68,0,0,1-.41-.14,1.18,1.18,0,0,0-1.52-.13.7.7,0,0,1-.73-1.19h0a2.57,2.57,0,0,1,3.07.2.67.67,0,0,1,.13,1,.68.68,0,0,1-.54.27Z"/><path class="cls-7" d="M91.32,123v1.37h4.09V123a.67.67,0,0,0-.68-.68H92A.67.67,0,0,0,91.32,123Z"/><path class="cls-5" d="M95.41,125.09H91.32a.69.69,0,0,1-.69-.68V123A1.37,1.37,0,0,1,92,121.67h2.73A1.37,1.37,0,0,1,96.1,123v1.37A.69.69,0,0,1,95.41,125.09ZM92,123.72h2.73V123H92Z"/><rect class="cls-10" x="89.27" y="106.65" width="9.56" height="5.46"/><path class="cls-5" d="M98.83,112.79H89.27a.68.68,0,0,1-.69-.68v-5.46a.69.69,0,0,1,.69-.69h9.56a.68.68,0,0,1,.68.69v5.46A.67.67,0,0,1,98.83,112.79ZM90,111.43h8.2v-4.1H90Z"/><rect class="cls-28" x="87.22" y="110.06" width="2.05" height="2.05"/><path class="cls-5" d="M89.27,112.79h-2a.68.68,0,0,1-.69-.68v-2a.68.68,0,0,1,.69-.68h2a.68.68,0,0,1,.68.68v2A.68.68,0,0,1,89.27,112.79Zm-1.37-1.36h.68v-.69H87.9Z"/><path class="cls-5" d="M89.27,112.79h-4.1a.68.68,0,1,1,0-1.36h4.1a.68.68,0,0,1,0,1.36Z"/><circle class="cls-4" cx="96.1" cy="109.38" r="1.02"/><path class="cls-5" d="M96.1,111.09a1.71,1.71,0,1,1,1.7-1.71A1.71,1.71,0,0,1,96.1,111.09Zm0-2a.34.34,0,1,0,.34.34A.35.35,0,0,0,96.1,109Z"/><path class="cls-5" d="M91.32,112.79a.68.68,0,0,1-.69-.68v-5.46a.69.69,0,1,1,1.37,0v5.46A.68.68,0,0,1,91.32,112.79Z"/><path class="cls-5" d="M96.1,109a.69.69,0,0,1-.69-.69v-4.09a.69.69,0,1,1,1.37,0v4.09A.69.69,0,0,1,96.1,109Z"/><polygon class="cls-9" points="100.54 100.84 96.1 100.84 96.1 104.26 100.54 104.26 99.52 102.55 100.54 100.84"/><path class="cls-5" d="M100.54,104.94H96.1a.69.69,0,0,1-.69-.68v-3.42a.68.68,0,0,1,.69-.68h4.44a.68.68,0,0,1,.68.68.64.64,0,0,1-.1.35l-.81,1.37.81,1.36a.68.68,0,0,1-.24.94.67.67,0,0,1-.34.09Zm-3.75-1.37h2.54l-.4-.68a.69.69,0,0,1,0-.68l.4-.69H96.78Z"/><path class="cls-5" d="M93.36,123a.69.69,0,0,1-.68-.68V112.11a.69.69,0,0,1,1.37,0v10.25A.69.69,0,0,1,93.36,123Z"/><path class="cls-12" d="M75.61,118.67a2,2,0,0,1,.76.15,2.06,2.06,0,0,1,2.52-1.44,2.19,2.19,0,0,1,.6.28,3.41,3.41,0,0,1,6.09.36h.28a2.73,2.73,0,0,1,2.73,2.73v.68h-15v-.68a2.05,2.05,0,0,1,2-2.08Z"/><path class="cls-5" d="M88.58,122.09h-15a.69.69,0,0,1-.69-.68v-.69A2.74,2.74,0,0,1,75.61,118H76a2.72,2.72,0,0,1,3.3-1.23,4.1,4.1,0,0,1,5.76-.59,4,4,0,0,1,1,1.12,3.42,3.42,0,0,1,3.28,3.41v.68a.69.69,0,0,1-.67.71Zm-14.34-1.37H87.9a2.05,2.05,0,0,0-2.05-2h-.2a.67.67,0,0,1-.68-.41,2.75,2.75,0,0,0-4.89-.27.68.68,0,0,1-.93.25l-.05,0a1.36,1.36,0,0,0-1.88.41,1.69,1.69,0,0,0-.17.36.67.67,0,0,1-.83.49l-.08,0a1.36,1.36,0,0,0-1.79.73A1.41,1.41,0,0,0,74.24,120.72Z"/><path class="cls-5" d="M84.84,119.44a.69.69,0,0,1-.41-1.23,1.91,1.91,0,0,1,2.3-.14.68.68,0,1,1-.64,1.21l-.08,0c-.23-.15-.42-.17-.76.07A.68.68,0,0,1,84.84,119.44Z"/><rect class="cls-8" x="42.58" y="99.82" width="8.2" height="10.25"/><polygon class="cls-25" points="50.77 103.23 50.77 99.82 42.58 99.82 42.58 106.92 50.77 103.23"/><polygon class="cls-25" points="42.58 109.65 50.77 105.96 50.77 104.6 42.58 108.29 42.58 109.65"/><g class="cls-14"><rect class="cls-26" x="42.58" y="99.82" width="8.2" height="2.05"/></g><path class="cls-5" d="M50.77,110.74H42.58a.68.68,0,0,1-.69-.68V99.82a.69.69,0,0,1,.69-.69h8.19a.69.69,0,0,1,.69.69v10.24A.68.68,0,0,1,50.77,110.74Zm-7.51-1.36h6.83V100.5H43.26Z"/><path class="cls-5" d="M51.8,110.74H41.55a.68.68,0,0,1,0-1.36H51.8a.68.68,0,0,1,0,1.36Z"/><path class="cls-5" d="M50.77,104.6H42.58a.69.69,0,1,1,0-1.37h8.19a.69.69,0,1,1,0,1.37Z"/></g><path class="cls-5" d="M101.12,123.46H51.75a7.6,7.6,0,0,1-7.6-7.6V24a7.6,7.6,0,0,1,7.6-7.6h49.37a7.59,7.59,0,0,1,7.59,7.6v91.89A7.59,7.59,0,0,1,101.12,123.46ZM51.75,20.17A3.8,3.8,0,0,0,48,24v91.89a3.8,3.8,0,0,0,3.8,3.8h49.37a3.8,3.8,0,0,0,3.79-3.8V24a3.8,3.8,0,0,0-3.79-3.8Z"/></g></g></svg>