<svg xmlns="http://www.w3.org/2000/svg" viewBox="0 0 125 122.69"><defs><style>.cls-1,.cls-10,.cls-18,.cls-20,.cls-21,.cls-25{opacity:0.3;}.cls-2{fill:#c7bff3;}.cls-3{fill:#f0ecd3;}.cls-23,.cls-4{fill:#6d6da8;}.cls-5{fill:#fff8cf;}.cls-6{fill:#def1ff;}.cls-7{fill:#ff948a;}.cls-8{fill:#fff0ca;}.cls-9{fill:#ff9595;}.cls-10{fill:#fff7de;}.cls-10,.cls-17,.cls-18,.cls-20,.cls-21,.cls-23,.cls-25{isolation:isolate;}.cls-11{fill:#ccd6ec;}.cls-12{fill:#ecf4ff;}.cls-13,.cls-17{fill:#fff;}.cls-14,.cls-17,.cls-23{opacity:0.5;}.cls-15{fill:#231f20;}.cls-16{fill:#afefa6;}.cls-18{fill:#554dab;}.cls-19{fill:#ffd397;}.cls-20{fill:#bd8f4c;}.cls-21{fill:#768ea6;}.cls-22{fill:#5eca9e;}.cls-24{fill:#eef6ff;}.cls-25{fill:#5cbeff;}.cls-26{fill:#6d6daa;}</style></defs><title>icon_7</title><g id="Layer_2" data-name="Layer 2"><g id="Artwork"><g class="cls-1"><path class="cls-2" d="M124.69,47.33a30,30,0,0,0-23.51-25,19.71,19.71,0,0,1-10.93-6.55A37,37,0,0,0,26,31.11,21,21,0,0,1,15.11,44.78C1,52.14-6.15,71.24,6.76,89.17a16.54,16.54,0,0,0,6.35,4.91,20.56,20.56,0,0,1,10,10.87,28.49,28.49,0,0,0,42.62,12.64,20,20,0,0,1,16.65-2.92,29,29,0,0,0,36-33.8,20.08,20.08,0,0,1,2.51-14.13A29.93,29.93,0,0,0,124.69,47.33Z"/><rect class="cls-3" x="84" y="52.67" width="6" height="21"/><path class="cls-4" d="M90,74.67H84a1,1,0,0,1-1-1v-21a1,1,0,0,1,1-1h6a1,1,0,0,1,1,1v21A1,1,0,0,1,90,74.67Zm-5-2h4v-19H85Z"/><rect class="cls-5" x="78" y="73.67" width="44" height="6"/><path class="cls-4" d="M122,80.67H78a1,1,0,0,1-1-1v-6a1,1,0,0,1,1-1h44a1,1,0,0,1,1,1v6A1,1,0,0,1,122,80.67Zm-43-2h42v-4H79Z"/><rect class="cls-6" x="101" y="13.67" width="6" height="21"/><path class="cls-4" d="M107,35.67h-6a1,1,0,0,1-1-1v-21a1,1,0,0,1,1-1h6a1,1,0,0,1,1,1v21A1,1,0,0,1,107,35.67Zm-5-2h4v-19h-4Z"/><rect class="cls-6" x="81" y="22.67" width="15" height="12"/><path class="cls-4" d="M96,35.67H81a1,1,0,0,1-1-1v-12a1,1,0,0,1,1-1H96a1,1,0,0,1,1,1v12A1,1,0,0,1,96,35.67Zm-14-2H95v-10H82Z"/><rect class="cls-6" x="80" y="17.67" width="17" height="5"/><path class="cls-4" d="M97,23.67H80a1,1,0,0,1-1-1v-5a1,1,0,0,1,1-1H97a1,1,0,0,1,1,1v5A1,1,0,0,1,97,23.67Zm-16-2H96v-3H81Z"/><rect class="cls-7" x="107" y="13.67" width="6" height="21"/><path class="cls-4" d="M113,35.67h-6a1,1,0,0,1-1-1v-21a1,1,0,0,1,1-1h6a1,1,0,0,1,1,1v21A1,1,0,0,1,113,35.67Zm-5-2h4v-19h-4Z"/><rect class="cls-6" x="96" y="52.67" width="6" height="21"/><path class="cls-4" d="M102,74.67H96a1,1,0,0,1-1-1v-21a1,1,0,0,1,1-1h6a1,1,0,0,1,1,1v21A1,1,0,0,1,102,74.67Zm-5-2h4v-19H97Z"/><rect class="cls-7" x="90" y="52.67" width="6" height="21"/><path class="cls-4" d="M96,74.67H90a1,1,0,0,1-1-1v-21a1,1,0,0,1,1-1h6a1,1,0,0,1,1,1v21A1,1,0,0,1,96,74.67Zm-5-2h4v-19H91Z"/><rect class="cls-8" x="113" y="13.67" width="6" height="21"/><path class="cls-4" d="M119,35.67h-6a1,1,0,0,1-1-1v-21a1,1,0,0,1,1-1h6a1,1,0,0,1,1,1v21A1,1,0,0,1,119,35.67Zm-5-2h4v-19h-4Z"/><rect class="cls-5" x="78" y="34.67" width="44" height="6"/><path class="cls-4" d="M122,41.67H78a1,1,0,0,1-1-1v-6a1,1,0,0,1,1-1h44a1,1,0,0,1,1,1v6A1,1,0,0,1,122,41.67Zm-43-2h42v-4H79Z"/><path class="cls-4" d="M91,27.67H86a1,1,0,0,1,0-2h5a1,1,0,0,1,0,2Z"/><path class="cls-4" d="M46,115.67H10a1,1,0,1,1,0-2H46a1,1,0,0,1,0,2Z"/><path class="cls-4" d="M49.14,115.67H49a1,1,0,1,1,0-2h.15a1,1,0,0,1,0,2Z"/><path class="cls-4" d="M7,115.67H6a1,1,0,1,1,0-2H7a1,1,0,0,1,0,2Z"/><path class="cls-4" d="M111,115.67H80a1,1,0,0,1,0-2h31a1,1,0,0,1,0,2Z"/><path class="cls-4" d="M118.14,115.67H114a1,1,0,0,1,0-2h4.15a1,1,0,0,1,0,2Z"/><path class="cls-4" d="M77,115.67H75a1,1,0,0,1,0-2h2a1,1,0,0,1,0,2Z"/><circle class="cls-5" cx="52.97" cy="26.93" r="7"/><path class="cls-4" d="M53,34.93a8,8,0,1,1,5.66-2.34h0A8,8,0,0,1,53,34.93Zm0-14a6,6,0,1,0,4.24,10.25h0A6,6,0,0,0,53,20.93Z"/><path class="cls-9" d="M59.22,11.67h-8.5L43.57,4.52A9.2,9.2,0,0,0,31.06,3.9a9,9,0,0,0-.83,12.7c.13.15.26.29.4.43L38,24.4v8.5a6.78,6.78,0,0,0,2,4.77l1.55,1.55,24-24L64,13.67A6.8,6.8,0,0,0,59.22,11.67Z"/><path class="cls-10" d="M42,20.4,34.63,13a9,9,0,0,1-2-9.68A7.21,7.21,0,0,0,31.29,4a9,9,0,0,0,1.33,11L40,22.4Z"/><path class="cls-10" d="M34.37,2.1A9,9,0,0,1,35.3,0a7.85,7.85,0,0,0-1.24.9A8.86,8.86,0,0,0,32.3,3,8.66,8.66,0,0,1,34.37,2.1Z"/><path class="cls-10" d="M42,20.4l-2,2,1,7.5a6.78,6.78,0,0,0,2,4.77l1.55,1.55,3-3C44,32.05,42.37,27.41,42,20.4Z"/><path class="cls-4" d="M41.53,40.25h0a1,1,0,0,1-.71-.3l-1.55-1.54A7.7,7.7,0,0,1,37,32.9V24.81l-7.07-7.07a10,10,0,0,1,0-14.14l.49-.46a10.19,10.19,0,0,1,13.88.68l6.85,6.85h8.09A7.75,7.75,0,0,1,64.73,13l1.54,1.55a1,1,0,0,1,0,1.41l-24,24A1,1,0,0,1,41.53,40.25ZM36.88,2.73a7.82,7.82,0,0,0-5.16,1.94A8,8,0,0,0,31,16l.37.39,7.37,7.32a1,1,0,0,1,.29.71v8.5a5.79,5.79,0,0,0,1.7,4.1l.84.83,22.62-22.6-.83-.84a5.79,5.79,0,0,0-4.1-1.7h-8.5a1,1,0,0,1-.71-.29L42.87,5.23A8.52,8.52,0,0,0,36.88,2.73Z"/><path class="cls-4" d="M48.49,15.17a1,1,0,0,1-.72-1.7h0l2.5-2.5a1,1,0,0,1,1.42,1.42h0l-2.5,2.5A1,1,0,0,1,48.49,15.17Z"/><path class="cls-4" d="M38,25.67a1,1,0,0,1-.72-1.7h0l6.5-6.5a1,1,0,0,1,1.42,1.42h0l-6.5,6.5A1,1,0,0,1,38,25.67Z"/><path class="cls-4" d="M28,23.67a1,1,0,0,1-.72-1.7h0l4-4a1,1,0,0,1,1.42,1.42h0l-4,4A1,1,0,0,1,28,23.67Z"/><polygon class="cls-11" points="7.68 51.2 19.99 78.67 15.99 80.67 3.4 52.79 7.68 51.2"/><path class="cls-4" d="M16,81.67a1,1,0,0,1-.34-.06,1,1,0,0,1-.57-.53L2.49,53.2a1,1,0,0,1,0-.8.94.94,0,0,1,.57-.55l4.27-1.58a1,1,0,0,1,1.26.53L20.9,78.26a1,1,0,0,1-.46,1.3l-4,2A1,1,0,0,1,16,81.67ZM4.75,53.35l11.72,26,2.21-1.11L7.15,52.47Z"/><path class="cls-11" d="M4,85.67H32a2,2,0,0,1,2,2v2H2v-2A2,2,0,0,1,4,85.67Z"/><path class="cls-4" d="M34,90.67H2a1,1,0,0,1-1-1v-2a3,3,0,0,1,3-3H32a3,3,0,0,1,3,3v2A1,1,0,0,1,34,90.67Zm-31-2H33v-1a1,1,0,0,0-1-1H4a1,1,0,0,0-1,1Z"/><path class="cls-12" d="M27,85.67H7a8,8,0,0,1,8-8h6a8,8,0,0,1,8,8Z"/><path class="cls-13" d="M15,80.67h6a8,8,0,0,1,7.41,5H29a8,8,0,0,0-8-8H15a8,8,0,0,0-8,8h.59A8,8,0,0,1,15,80.67Z"/><path class="cls-4" d="M27,86.67H7a1,1,0,0,1-1-1,9,9,0,0,1,9-9h6a9,9,0,0,1,9,9,1,1,0,0,1-1,1Zm-18.94-2H27.91a7,7,0,0,0-6.92-6H15A7,7,0,0,0,8.05,84.67Z"/><polygon class="cls-11" points="25 27.9 8.02 51.2 4.27 50.46 23.38 26.64 25 27.9"/><path class="cls-4" d="M8,52.2H7.83l-3.75-.75a1,1,0,0,1-.75-.63,1,1,0,0,1,.16-1L22.6,26A1,1,0,0,1,24,25.85l1.62,1.26a1,1,0,0,1,.2,1.38l-17,23.3A1,1,0,0,1,8,52.2ZM6.05,49.8l1.51.3,16-22L23.48,28Z"/><circle class="cls-12" cx="5.99" cy="52.67" r="4"/><path class="cls-4" d="M6,57.67a5,5,0,1,1,5-5A5,5,0,0,1,6,57.67Zm0-8a3,3,0,1,0,3,3A3,3,0,0,0,6,49.67Z"/><path class="cls-4" d="M21.87,23.92a1,1,0,0,1-.68-.25l-3.72-3.4a1,1,0,0,1,1.34-1.48l3.73,3.4a1,1,0,0,1-.67,1.73Z"/><path class="cls-4" d="M18,83.67a1,1,0,0,1-1-1v-1a1,1,0,0,1,2,0v1A1,1,0,0,1,18,83.67Z"/><circle class="cls-12" cx="24.99" cy="25.67" r="4"/><path class="cls-4" d="M25,30.67a5,5,0,1,1,5-5A5,5,0,0,1,25,30.67Zm0-8a3,3,0,1,0,3,3A3,3,0,0,0,25,22.67Z"/><g class="cls-14"><path class="cls-4" d="M113,18.67h-6a1,1,0,0,1,0-2h6a1,1,0,0,1,0,2Z"/><path class="cls-4" d="M113,31.67h-6a1,1,0,0,1,0-2h6a1,1,0,0,1,0,2Z"/></g><g class="cls-14"><path class="cls-4" d="M119,18.67h-6a1,1,0,0,1,0-2h6a1,1,0,0,1,0,2Z"/><path class="cls-4" d="M119,31.67h-6a1,1,0,0,1,0-2h6a1,1,0,0,1,0,2Z"/><path class="cls-15" d="M119,18.67h-6a1,1,0,0,1,0-2h6a1,1,0,0,1,0,2Z"/><path class="cls-15" d="M119,31.67h-6a1,1,0,0,1,0-2h6a1,1,0,0,1,0,2Z"/></g><g class="cls-14"><path class="cls-4" d="M107,18.67h-6a1,1,0,0,1,0-2h6a1,1,0,0,1,0,2Z"/><path class="cls-4" d="M107,31.67h-6a1,1,0,0,1,0-2h6a1,1,0,0,1,0,2Z"/><path class="cls-15" d="M107,18.67h-6a1,1,0,0,1,0-2h6a1,1,0,0,1,0,2Z"/><path class="cls-15" d="M107,31.67h-6a1,1,0,0,1,0-2h6a1,1,0,0,1,0,2Z"/></g><g class="cls-14"><path class="cls-4" d="M96,57.67H90a1,1,0,0,1,0-2h6a1,1,0,0,1,0,2Z"/><path class="cls-4" d="M96,70.67H90a1,1,0,0,1,0-2h6a1,1,0,0,1,0,2Z"/></g><g class="cls-14"><path class="cls-4" d="M102,57.67H96a1,1,0,0,1,0-2h6a1,1,0,0,1,0,2Z"/><path class="cls-4" d="M102,70.67H96a1,1,0,0,1,0-2h6a1,1,0,0,1,0,2Z"/><path class="cls-15" d="M102,57.67H96a1,1,0,0,1,0-2h6a1,1,0,0,1,0,2Z"/><path class="cls-15" d="M102,70.67H96a1,1,0,0,1,0-2h6a1,1,0,0,1,0,2Z"/></g><g class="cls-14"><path class="cls-4" d="M90,57.67H84a1,1,0,0,1,0-2h6a1,1,0,0,1,0,2Z"/><path class="cls-4" d="M90,70.67H84a1,1,0,0,1,0-2h6a1,1,0,0,1,0,2Z"/><path class="cls-15" d="M90,57.67H84a1,1,0,0,1,0-2h6a1,1,0,0,1,0,2Z"/><path class="cls-15" d="M90,70.67H84a1,1,0,0,1,0-2h6a1,1,0,0,1,0,2Z"/></g><path class="cls-16" d="M120.72,61.67A26.36,26.36,0,0,0,122,53.4c0-5.29-2.91-8.73-6.5-8.73s-6.5,3.5-6.5,8.73a26.36,26.36,0,0,0,1.27,8.27Z"/><path class="cls-17" d="M117.5,45.05a5.51,5.51,0,0,0-2-.38c-3.59,0-6.5,3.5-6.5,8.73a26.35,26.35,0,0,0,1.26,8.27h4A26.36,26.36,0,0,1,113,53.4C113,49.18,114.88,46.09,117.5,45.05Z"/><path class="cls-4" d="M120.72,62.67H110.26a1,1,0,0,1-1-.68A27.23,27.23,0,0,1,108,53.4c0-5.64,3.15-9.73,7.5-9.73s7.5,4.09,7.5,9.73A27.52,27.52,0,0,1,121.67,62,1,1,0,0,1,120.72,62.67Zm-9.73-2h9a25.88,25.88,0,0,0,1-7.27c0-4.48-2.31-7.73-5.5-7.73S110,48.92,110,53.4A25.88,25.88,0,0,0,111,60.67Z"/><path class="cls-4" d="M110.49,50.17a1,1,0,0,1-.56-.17l-1.5-1a1,1,0,0,1-.27-1.39h0a1,1,0,0,1,1.38-.27l1.5,1a1,1,0,0,1-.55,1.83Z"/><path class="cls-4" d="M113.24,47a1,1,0,0,1-.73-.32l-1.24-1.31a1,1,0,0,1,0-1.41,1,1,0,0,1,1.42,0L114,45.29a1,1,0,0,1,0,1.41h0A1,1,0,0,1,113.24,47Z"/><path class="cls-4" d="M117.74,47a1,1,0,0,1-.7-1.72h0L118.37,44a1,1,0,0,1,1.36,1.47l-1.31,1.17A1,1,0,0,1,117.74,47Z"/><path class="cls-4" d="M109.49,55.67h-.32l-1.5-.5a1,1,0,0,1,.64-1.9h0l1.5.5a1,1,0,1,1-.32,2Z"/><path class="cls-4" d="M109,60.67a1,1,0,1,1-.32-2l1.5-.5a1,1,0,1,1,.64,1.9l-1.5.5A1.19,1.19,0,0,1,109,60.67Z"/><path class="cls-4" d="M121,51.67a1,1,0,0,1-.83-.45,1,1,0,0,1,.27-1.38l1.5-1a1,1,0,0,1,1.2,1.6l-.09.06-1.5,1A1,1,0,0,1,121,51.67Z"/><path class="cls-4" d="M122.49,54.67h-1a1,1,0,0,1,0-2h1a1,1,0,0,1,0,2Z"/><path class="cls-4" d="M113.49,58.17a1,1,0,0,1-.71-.3l-.5-.5A1,1,0,0,1,113.69,56h0l.5.5a1,1,0,0,1-.71,1.71Z"/><path class="cls-4" d="M113.49,52.17a1,1,0,0,1-.71-.3l-.5-.5A1,1,0,0,1,113.69,50h0l.5.5a1,1,0,0,1-.71,1.71Z"/><path class="cls-4" d="M117.49,55.17a1,1,0,0,1-1-1,1,1,0,0,1,.3-.72l.5-.5a1,1,0,0,1,1.41,0h0a1,1,0,0,1,0,1.41l-.5.5A1,1,0,0,1,117.49,55.17Z"/><path class="cls-4" d="M117.49,50.17a1,1,0,0,1-1-1,1,1,0,0,1,.3-.72l.5-.5a1,1,0,0,1,1.41,0h0a1,1,0,0,1,0,1.41l-.5.5A1,1,0,0,1,117.49,50.17Z"/><path class="cls-4" d="M117.49,60.17a1,1,0,0,1-1-1,1,1,0,0,1,.3-.72l.5-.5a1,1,0,0,1,1.41,0h0a1,1,0,0,1,0,1.41l-.5.5A1,1,0,0,1,117.49,60.17Z"/><path class="cls-4" d="M122.49,59.17h-.32l-1.5-.5a1,1,0,0,1,.64-1.9l1.5.5a1,1,0,1,1-.32,2Z"/><polygon class="cls-2" points="121.49 73.67 109.49 73.67 107.99 64.67 122.99 64.67 121.49 73.67"/><polygon class="cls-17" points="113.99 73.67 111.99 73.67 110.99 64.67 112.99 64.67 113.99 73.67"/><polygon class="cls-18" points="122.49 67.67 122.99 64.67 107.99 64.67 108.49 67.67 122.49 67.67"/><path class="cls-4" d="M121.49,74.67h-12a1,1,0,0,1-1-.84l-1.5-9a1,1,0,0,1,.83-1.15H123a1,1,0,0,1,.76.35,1,1,0,0,1,.23.81l-1.5,9A1,1,0,0,1,121.49,74.67Zm-11.15-2h10.3l1.17-7H109.17Z"/><rect class="cls-2" x="106.99" y="61.67" width="17" height="3"/><rect class="cls-17" x="109.99" y="61.67" width="2" height="3"/><path class="cls-4" d="M124,65.67H107a1,1,0,0,1-1-1v-3a1,1,0,0,1,1-1h17a1,1,0,0,1,1,1v3A1,1,0,0,1,124,65.67Zm-16-2h15v-1H108Z"/></g><polygon class="cls-19" points="50.99 32.67 34.99 32.67 34.99 110.67 98.99 110.67 98.99 32.67 83.99 32.67 50.99 32.67"/><polygon class="cls-5" points="50.99 32.67 34.99 32.67 34.99 35.67 98.99 35.67 98.99 32.67 83.99 32.67 50.99 32.67"/><rect class="cls-20" x="34.99" y="107.67" width="64" height="3"/><rect class="cls-12" x="40.99" y="101.67" width="52" height="3"/><path class="cls-4" d="M93,105.67H41a1,1,0,0,1-1-1v-3a1,1,0,0,1,1-1H93a1,1,0,0,1,1,1v3A1,1,0,0,1,93,105.67Zm-51-2H92v-1H42Z"/><rect class="cls-12" x="40.99" y="90.67" width="52" height="11"/><path class="cls-4" d="M93,102.67H41a1,1,0,0,1-1-1v-11a1,1,0,0,1,1-1H93a1,1,0,0,1,1,1v11A1,1,0,0,1,93,102.67Zm-51-2H92v-9H42Z"/><polygon class="cls-13" points="40.99 38.67 40.99 98.67 84.99 98.67 92.99 90.67 92.99 38.67 40.99 38.67"/><path class="cls-4" d="M85,99.67H41a1,1,0,0,1-1-1v-60a1,1,0,0,1,1-1H93a1,1,0,0,1,1,1v52a1.1,1.1,0,0,1-.29.71l-8,8A1,1,0,0,1,85,99.67Zm-43-2H84.58L92,90.26V39.67H42Z"/><path class="cls-12" d="M60,27.67v2H74v-2a7,7,0,0,0-7-7h0A7,7,0,0,0,60,27.67Z"/><path class="cls-13" d="M67,20.67a7,7,0,0,0-7,7v2h.08a7,7,0,0,1,13.84,0H74v-2A7,7,0,0,0,67,20.67Z"/><path class="cls-4" d="M74,30.67H60a1,1,0,0,1-1-1v-2a8,8,0,0,1,16,0v2A1,1,0,0,1,74,30.67Zm-13-2H73v-1a6,6,0,0,0-12,0Z"/><path class="cls-4" d="M99,111.67H35a1,1,0,0,1-1-1v-78a1,1,0,0,1,1-1H99a1,1,0,0,1,1,1v78A1,1,0,0,1,99,111.67Zm-63-2H98v-76H36Z"/><path class="cls-21" d="M81,31.67H53a4,4,0,0,0-4,4v8a1,1,0,0,0,1,1H84a1,1,0,0,0,1-1v-8A4,4,0,0,0,81,31.67Z"/><path class="cls-11" d="M84,32.67a3,3,0,0,0-3-3H53a3,3,0,0,0-3,3v9H84Z"/><rect class="cls-21" x="49.99" y="38.67" width="34" height="3"/><path class="cls-12" d="M81,29.67H53a3,3,0,0,0-3,3v3a3,3,0,0,1,3-3H81a3,3,0,0,1,3,3v-3A3,3,0,0,0,81,29.67Z"/><path class="cls-4" d="M57,36.67H50a1,1,0,1,1,0-2h7a1,1,0,0,1,0,2Z"/><path class="cls-4" d="M84,36.67H77a1,1,0,0,1,0-2h7a1,1,0,0,1,0,2Z"/><path class="cls-4" d="M84,42.67H50a1,1,0,0,1-1-1v-9a4,4,0,0,1,4-4H81a4,4,0,0,1,4,4v9A1,1,0,0,1,84,42.67Zm-33-2H83v-8a2,2,0,0,0-2-2H53a2,2,0,0,0-2,2Z"/><path class="cls-4" d="M67,26.67a.84.84,0,0,1-.38-.08,1,1,0,0,1-.33-.21l-.12-.15a.76.76,0,0,1-.09-.18.71.71,0,0,1-.08-.18.67.67,0,0,1,0-.2,1,1,0,0,1,.29-.71,1,1,0,0,1,.33-.21.93.93,0,0,1,.57-.06.7.7,0,0,1,.19.06.56.56,0,0,1,.17.09l.16.12a1,1,0,0,1,0,1.41h0l-.16.12a.56.56,0,0,1-.17.09.7.7,0,0,1-.19.06Z"/><polygon class="cls-12" points="84.99 98.67 84.99 90.67 92.99 90.67 84.99 98.67"/><path class="cls-4" d="M85,99.67a.84.84,0,0,1-.38-.08,1,1,0,0,1-.62-.92v-8a1,1,0,0,1,1-1h8a1,1,0,0,1,.71,1.71l-8,8A1,1,0,0,1,85,99.67Zm1-8v4.59l4.59-4.59Z"/><path class="cls-22" d="M52,57.67a1,1,0,0,1-.71-.29l-3-3A1,1,0,0,1,49.7,53l2.09,2.1,3.84-6.39a1,1,0,0,1,1.82.82,1,1,0,0,1-.1.18l-4.5,7.5a1,1,0,0,1-.74.48Z"/><path class="cls-23" d="M85,55.67H63a1,1,0,1,1,0-2H85a1,1,0,0,1,0,2Z"/><path class="cls-23" d="M73,51.67H63a1,1,0,1,1,0-2H73a1,1,0,0,1,0,2Z"/><path class="cls-23" d="M79,66.67H63a1,1,0,1,1,0-2H79a1,1,0,0,1,0,2Z"/><path class="cls-23" d="M76,81.67H63a1,1,0,1,1,0-2H76a1,1,0,0,1,0,2Z"/><path class="cls-22" d="M52,72.67a1,1,0,0,1-.71-.29l-3-3A1,1,0,1,1,49.7,68l2.09,2.1,3.84-6.39a1,1,0,0,1,1.82.82,1,1,0,0,1-.1.18l-4.5,7.5a1,1,0,0,1-.74.48Z"/><path class="cls-23" d="M85,70.67H63a1,1,0,1,1,0-2H85a1,1,0,0,1,0,2Z"/><path class="cls-22" d="M52,87.67a1,1,0,0,1-.71-.29l-3-3A1,1,0,1,1,49.7,83l2.09,2.1,3.84-6.39a1,1,0,0,1,1.82.82,1,1,0,0,1-.1.18l-4.5,7.5a1,1,0,0,1-.74.48Z"/><path class="cls-23" d="M85,85.67H63a1,1,0,1,1,0-2H85a1,1,0,0,1,0,2Z"/><path class="cls-23" d="M39,74.67H27a1,1,0,1,1,0-2H39a1,1,0,0,1,0,2Z"/><path class="cls-23" d="M32,70.67H27a1,1,0,1,1,0-2h5a1,1,0,0,1,0,2Z"/><circle class="cls-24" cx="96.99" cy="92.67" r="22"/><path class="cls-13" d="M97,73.42a22,22,0,0,1,22,20.63V92.67a22,22,0,0,0-44,0v1.38A22,22,0,0,1,97,73.42Z"/><path class="cls-25" d="M97,111.92A22,22,0,0,1,75,91.29v1.38a22,22,0,0,0,44,0V91.29A22,22,0,0,1,97,111.92Z"/><path class="cls-26" d="M97,115.67a23,23,0,1,1,23-23A23,23,0,0,1,97,115.67Zm0-44a21,21,0,1,0,21,21,21,21,0,0,0-21-21Z"/><circle class="cls-24" cx="96.99" cy="92.67" r="18"/><path class="cls-17" d="M97,74.67a18,18,0,0,0-17.06,23.7l32.25-15.32A18,18,0,0,0,97,74.67Z"/><path class="cls-26" d="M97,95.67a3,3,0,1,1,3-3A3,3,0,0,1,97,95.67Zm0-4a1,1,0,1,0,1,1A1,1,0,0,0,97,91.67Z"/><path class="cls-26" d="M97,91.67a1,1,0,0,1-1-1v-8a1,1,0,0,1,2,0v8A1,1,0,0,1,97,91.67Z"/><path class="cls-26" d="M95,93.67H90a1,1,0,0,1,0-2h5a1,1,0,0,1,0,2Z"/><g class="cls-14"><path class="cls-26" d="M97,79.67h-.2a.64.64,0,0,1-.18-.06.51.51,0,0,1-.18-.09l-.15-.12-.12-.15a.76.76,0,0,1-.09-.18.5.5,0,0,1-.08-.2.9.9,0,0,1,0-.4.64.64,0,0,1,.06-.18.76.76,0,0,1,.09-.18l.12-.15.15-.12a.51.51,0,0,1,.18-.09.7.7,0,0,1,.2-.08.86.86,0,0,1,.39,0,.7.7,0,0,1,.19.06.56.56,0,0,1,.17.09l.16.12.12.15a.76.76,0,0,1,.09.18.64.64,0,0,1,.06.18.9.9,0,0,1,0,.4.64.64,0,0,1-.06.18.76.76,0,0,1-.09.18l-.12.15-.16.12a.56.56,0,0,1-.17.09.7.7,0,0,1-.19.06Z"/><path class="cls-26" d="M97,107.67h-.2a.64.64,0,0,1-.18-.06.51.51,0,0,1-.18-.09l-.15-.12a1.15,1.15,0,0,1-.21-.33.92.92,0,0,1,0-.76,1.15,1.15,0,0,1,.21-.33l.15-.12a.51.51,0,0,1,.18-.09.64.64,0,0,1,.18-.06.86.86,0,0,1,.39,0,.7.7,0,0,1,.19.06.56.56,0,0,1,.17.09.61.61,0,0,1,.16.12,1.15,1.15,0,0,1,.21.33.92.92,0,0,1,0,.76,1.15,1.15,0,0,1-.21.33.61.61,0,0,1-.16.12.56.56,0,0,1-.17.09.7.7,0,0,1-.19.06Z"/><path class="cls-26" d="M83,93.67a1,1,0,0,1-.71-.29,1.15,1.15,0,0,1-.21-.33.84.84,0,0,1-.08-.38,1,1,0,0,1,.29-.71,1,1,0,0,1,.91-.29.64.64,0,0,1,.18.06.76.76,0,0,1,.18.09l.15.12a1.05,1.05,0,0,1,.29.73,1,1,0,0,1-.08.38,1.15,1.15,0,0,1-.21.33l-.15.12a.76.76,0,0,1-.18.09.64.64,0,0,1-.18.06Z"/><path class="cls-26" d="M111,93.67a1,1,0,0,1-.38-.08,1,1,0,0,1-.33-.21A1,1,0,0,1,111.7,92a1,1,0,0,1,.21.33.92.92,0,0,1,0,.76.9.9,0,0,1-.54.54A1,1,0,0,1,111,93.67Z"/><path class="cls-26" d="M90,81.55a1,1,0,0,1-.71-.3.44.44,0,0,1-.12-.15.56.56,0,0,1-.09-.17.64.64,0,0,1-.06-.38.88.88,0,0,1,.08-.39,1,1,0,0,1,1.11-.59h.19l.17.09.16.13a1,1,0,0,1,.21.32,1,1,0,0,1,.08.39v.19a.6.6,0,0,1-.06.19.56.56,0,0,1-.09.17l-.12.15-.16.13-.17.09-.19.06Z"/><path class="cls-26" d="M104,105.8a1,1,0,0,1-.38-.08,1.06,1.06,0,0,1-.33-.22,1,1,0,0,1-.29-.7.76.76,0,0,1,.08-.39,1,1,0,0,1,.21-.32.83.83,0,0,1,.33-.22,1,1,0,0,1,1.08.22.87.87,0,0,1,.22.32,1,1,0,0,1,.08.39A1,1,0,0,1,104,105.8Z"/><path class="cls-26" d="M84.87,100.67a1,1,0,0,1-.39-.08,1,1,0,0,1-.32-.21,1.19,1.19,0,0,1-.22-.33,1,1,0,0,1-.07-.38,1,1,0,0,1,1-1l.21,0a.7.7,0,0,1,.19.06.56.56,0,0,1,.17.09l.15.12a1,1,0,0,1,.22,1.09.91.91,0,0,1-.22.33A1,1,0,0,1,84.87,100.67Z"/><path class="cls-26" d="M109.11,86.67a1,1,0,0,1-.7-.29.91.91,0,0,1-.22-.33,1,1,0,0,1,.54-1.31,1,1,0,0,1,1.09.22,1.46,1.46,0,0,1,.22.33,1.1,1.1,0,0,1,0,.76,1.19,1.19,0,0,1-.22.33A1,1,0,0,1,109.11,86.67Z"/><path class="cls-26" d="M84.87,86.67a1,1,0,0,1-.71-.29,1.19,1.19,0,0,1-.22-.33,1.1,1.1,0,0,1,0-.76,1.19,1.19,0,0,1,.22-.33,1,1,0,0,1,.32-.21,1,1,0,0,1,1.31.54h0a1,1,0,0,1-.22,1.09l-.15.12a.56.56,0,0,1-.17.09.7.7,0,0,1-.19.06Z"/><path class="cls-26" d="M109.11,100.67a1,1,0,0,1-1-1,1,1,0,0,1,.08-.38.91.91,0,0,1,.22-.33,1,1,0,0,1,.32-.21,1,1,0,0,1,1.09.21,1.19,1.19,0,0,1,.22.33,1,1,0,0,1,.07.38A1,1,0,0,1,109.11,100.67Z"/><path class="cls-26" d="M90,105.79a1,1,0,0,1-.92-.61.84.84,0,0,1-.08-.38.76.76,0,0,1,.08-.39,1,1,0,0,1,1.11-.6l.19.06.17.09.16.13a1,1,0,0,1,.21.32,1,1,0,0,1,.08.39,1,1,0,0,1-.29.7l-.16.13-.17.09h-.19A.62.62,0,0,1,90,105.79Z"/><path class="cls-26" d="M104,81.55a1,1,0,0,1-.38-.08.83.83,0,0,1-.33-.22,1,1,0,0,1-.29-.7.88.88,0,0,1,.08-.39,1,1,0,0,1,.21-.32,1.06,1.06,0,0,1,.33-.22,1,1,0,0,1,1.08.22.87.87,0,0,1,.22.32,1,1,0,0,1,.08.39A1,1,0,0,1,104,81.55Z"/></g><path class="cls-13" d="M97,107.67a18,18,0,0,1-17.92-16.5c0,.5-.08,1-.08,1.5a18,18,0,0,0,36,0c0-.5,0-1-.08-1.5A18,18,0,0,1,97,107.67Z"/><path class="cls-25" d="M97,78.1A18,18,0,0,0,79.08,94.3,9.84,9.84,0,0,1,79,92.67a18,18,0,0,1,36,0,9.84,9.84,0,0,1-.09,1.63A18,18,0,0,0,97,78.1Z"/><path class="cls-17" d="M97,74.67a18,18,0,0,0-17.06,23.7l32.25-15.32A18,18,0,0,0,97,74.67Z"/><path class="cls-17" d="M82.1,102.79l32.13-15.27a17.74,17.74,0,0,0-1-2.53L80.76,100.42A19.75,19.75,0,0,0,82.1,102.79Z"/><path class="cls-26" d="M97,111.67a19,19,0,1,1,19-19h0A19,19,0,0,1,97,111.67Zm0-36a17,17,0,1,0,17,17A17,17,0,0,0,97,75.67Z"/><polygon class="cls-13" points="47.75 113.7 47.75 68.78 42.62 63.64 9.24 63.64 9.24 113.7 47.75 113.7"/><path class="cls-26" d="M47.75,114.34H9.24a.64.64,0,0,1-.64-.64V63.64A.64.64,0,0,1,9.24,63H42.62a.64.64,0,0,1,.45.19l5.14,5.13a.63.63,0,0,1,.18.45V113.7A.64.64,0,0,1,47.75,114.34ZM9.89,113.06H47.11V69l-4.76-4.76H9.89Z"/><polygon class="cls-24" points="47.75 68.78 42.62 68.78 42.62 63.64 47.75 68.78"/><path class="cls-26" d="M47.75,69.42H42.62a.64.64,0,0,1-.64-.65V63.64a.64.64,0,0,1,1.09-.45l5.14,5.13a.65.65,0,0,1,0,.91A.66.66,0,0,1,47.75,69.42Zm-4.49-1.29H46.2l-2.94-2.94Z"/><path class="cls-26" d="M47.75,69.42H42.62a.64.64,0,0,1-.64-.65V63.64a.64.64,0,0,1,1.09-.45l5.14,5.13a.65.65,0,0,1,0,.91A.66.66,0,0,1,47.75,69.42Zm-4.49-1.29H46.2l-2.94-2.94Z"/><g class="cls-14"><path class="cls-26" d="M20.8,79.68H15.66A.64.64,0,0,1,15,79a.64.64,0,0,1,.64-.64H20.8a.64.64,0,0,1,.64.64A.64.64,0,0,1,20.8,79.68Z"/><path class="cls-26" d="M33.63,77.12h-18a.65.65,0,0,1,0-1.29h18a.65.65,0,0,1,0,1.29Z"/><path class="cls-26" d="M41.33,79.68H22.72a.64.64,0,0,1-.64-.64.64.64,0,0,1,.64-.64H41.33a.64.64,0,1,1,0,1.28Z"/><path class="cls-26" d="M41.33,77.12H35.56a.65.65,0,0,1,0-1.29h5.77a.65.65,0,1,1,0,1.29Z"/><path class="cls-26" d="M32.35,73.27H26.57a.65.65,0,0,1,0-1.29h5.78a.65.65,0,0,1,0,1.29Z"/><path class="cls-26" d="M24.65,82.25h-9a.64.64,0,0,1,0-1.28h9a.64.64,0,0,1,0,1.28Z"/><path class="cls-26" d="M41.33,82.25H29.78a.64.64,0,0,1,0-1.28H41.33a.64.64,0,1,1,0,1.28Z"/><path class="cls-26" d="M27.86,82.25H26.57a.64.64,0,0,1,0-1.28h1.29a.64.64,0,0,1,0,1.28Z"/><path class="cls-26" d="M33.63,84.82h-18a.64.64,0,0,1-.64-.64.64.64,0,0,1,.64-.64h18a.64.64,0,1,1,0,1.28Z"/></g><g class="cls-14"><path class="cls-26" d="M21.53,100.22h-.18a1.16,1.16,0,0,1-.8-.43,2.9,2.9,0,0,1-.39-1.6,14.17,14.17,0,0,1-1.8.51.64.64,0,0,1-.26-1.26,14.63,14.63,0,0,0,2.17-.64,4.6,4.6,0,0,1,.63-1.65,2.92,2.92,0,0,1,3.4-1.21,1,1,0,0,1,.85,1c0,.93-1.81,2-3.7,2.81a3.7,3.7,0,0,0,.09,1.24h0A5.85,5.85,0,0,0,24,97.58a.65.65,0,0,1,.91.1l.06.09a1.89,1.89,0,0,1,.11.25c.09.23.09.23.22.23a3.12,3.12,0,0,0,.91-.46,2.76,2.76,0,0,1,1.31-.54,2.09,2.09,0,0,1,1.22.58,2,2,0,0,0,.83.47s.08-.09.11-.15a1.35,1.35,0,0,1,1.23-.79,1.8,1.8,0,0,1,1.29.56,1,1,0,0,0,.15.14.64.64,0,0,1,.64.63h0a.66.66,0,0,1-.65.64,1.43,1.43,0,0,1-1-.48c-.18-.17-.24-.22-.41-.22a.42.42,0,0,0-.12.16,1.33,1.33,0,0,1-1.22.78A2.78,2.78,0,0,1,28,98.85a2.77,2.77,0,0,0-.45-.31,5.36,5.36,0,0,0-.62.34,3.19,3.19,0,0,1-1.59.65,1.33,1.33,0,0,1-1.1-.49A5.52,5.52,0,0,1,21.53,100.22Zm1.8-5.13a1.48,1.48,0,0,0-1.26.61,2.22,2.22,0,0,0-.25.42,10.07,10.07,0,0,0,1.73-1Z"/></g></g></g></svg>