<svg xmlns="http://www.w3.org/2000/svg" viewBox="0 0 125 125.02"><defs><style>.cls-1{opacity:0.3;}.cls-2{fill:#d6b5b0;}.cls-3{fill:#fff;}.cls-4{fill:#fff2cc;}.cls-5{fill:#c1a29f;}.cls-6{fill:#6d6daa;}.cls-7{opacity:0.5;}.cls-8{fill:#96d7ff;}.cls-9{fill:#ff9797;}.cls-10{fill:#eef6ff;}.cls-11{fill:#80d880;}.cls-12{fill:#939fc6;}.cls-13{fill:#b1f1a8;}.cls-14{fill:#ced8ee;}.cls-15{fill:#d4edff;}.cls-16{fill:#d63c74;}.cls-17{fill:#fff27d;}.cls-18{fill:#ffc661;}.cls-19{fill:#fff9e0;}</style></defs><title>icon_6</title><g id="Layer_2" data-name="Layer 2"><g id="Artwork"><g class="cls-1"><path class="cls-2" d="M124.69,49.66a30,30,0,0,0-23.51-25,19.71,19.71,0,0,1-10.93-6.55A37,37,0,0,0,26,33.44,21,21,0,0,1,15.11,47.11C1,54.47-6.15,73.57,6.76,91.5a16.54,16.54,0,0,0,6.35,4.91,20.58,20.58,0,0,1,10,10.88,28.5,28.5,0,0,0,42.62,12.64A20.08,20.08,0,0,1,82.38,117a29,29,0,0,0,36-33.79,20.08,20.08,0,0,1,2.51-14.13A29.82,29.82,0,0,0,124.69,49.66Z"/><polygon class="cls-3" points="108.99 62 108.99 54 116.99 54 108.99 62"/><polygon class="cls-4" points="108.99 62 82.99 62 82.99 28 116.99 28 116.99 54 108.99 54 108.99 62"/><g class="cls-1"><rect class="cls-5" x="82.99" y="28" width="34" height="5"/></g><path class="cls-6" d="M109,63a1,1,0,0,1-1-1V54a1,1,0,0,1,1-1h8a1,1,0,0,1,1,1,1,1,0,0,1-.29.72l-8,8A1,1,0,0,1,109,63Zm1-8v4.59L114.58,55Z"/><path class="cls-6" d="M109,63H83a1,1,0,0,1-1-1V28a1,1,0,0,1,1-1h34a1,1,0,0,1,1,1V54a1,1,0,0,1-1,1h-7v7A1,1,0,0,1,109,63ZM84,61h24V54a1,1,0,0,1,1-1h7V29H84Z"/><rect class="cls-3" x="66.99" y="1" width="34" height="22"/><path class="cls-6" d="M101,24H67a1,1,0,0,1-1-1V1a1,1,0,0,1,1-1h34a1,1,0,0,1,1,1V23A1,1,0,0,1,101,24ZM68,22h32V2H68Z"/><g class="cls-7"><path class="cls-6" d="M84,7H72a1,1,0,0,1,0-2H84a1,1,0,0,1,0,2Z"/></g><g class="cls-7"><path class="cls-6" d="M79,11H72a1,1,0,0,1,0-2h7a1,1,0,0,1,0,2Z"/></g><rect class="cls-3" x="46.99" y="71" width="76" height="50" rx="2" ry="2"/><polygon class="cls-8" points="54.82 121 104.82 71 99.16 71 49.16 121 54.82 121"/><polygon class="cls-9" points="62.82 121 112.82 71 107.16 71 57.16 121 62.82 121"/><polygon class="cls-8" points="70.82 121 120.82 71 115.16 71 65.16 121 70.82 121"/><path class="cls-9" d="M78.82,121,123,76.83V73a2,2,0,0,0-.51-1.32L73.16,121Z"/><polygon class="cls-8" points="86.82 121 122.99 84.83 122.99 79.17 81.16 121 86.82 121"/><polygon class="cls-9" points="46.99 88.83 64.82 71 59.16 71 46.99 83.17 46.99 88.83"/><polygon class="cls-8" points="46.99 96.83 72.82 71 67.16 71 46.99 91.17 46.99 96.83"/><polygon class="cls-9" points="46.99 104.83 80.82 71 75.16 71 46.99 99.17 46.99 104.83"/><polygon class="cls-8" points="46.99 112.83 88.82 71 83.16 71 46.99 107.17 46.99 112.83"/><path class="cls-9" d="M91.16,71,47,115.17V119a2,2,0,0,0,.51,1.32L96.82,71Z"/><polygon class="cls-9" points="94.82 121 122.99 92.83 122.99 87.17 89.16 121 94.82 121"/><polygon class="cls-8" points="102.82 121 122.99 100.83 122.99 95.17 97.16 121 102.82 121"/><polygon class="cls-9" points="110.82 121 122.99 108.83 122.99 103.17 105.16 121 110.82 121"/><polygon class="cls-8" points="118.82 121 122.99 116.83 122.99 111.17 113.16 121 118.82 121"/><polygon class="cls-8" points="46.99 80.83 56.82 71 51.16 71 46.99 75.17 46.99 80.83"/><rect class="cls-10" x="49.99" y="74" width="70" height="44"/><rect class="cls-8" x="101.99" y="79" width="13" height="12"/><path class="cls-6" d="M115,92H102a1,1,0,0,1-1-1V79a1,1,0,0,1,1-1h13a1,1,0,0,1,1,1V91A1,1,0,0,1,115,92Zm-12-2h11V80H103Z"/><path class="cls-6" d="M121,122H49a3,3,0,0,1-3-3V73a3,3,0,0,1,3-3h72a3,3,0,0,1,3,3v46A3,3,0,0,1,121,122ZM49,72a1,1,0,0,0-1,1v46a1,1,0,0,0,1,1h72a1,1,0,0,0,1-1V73a1,1,0,0,0-1-1Z"/><g class="cls-7"><path class="cls-6" d="M66,104H57a1,1,0,0,1,0-2h9a1,1,0,1,1,0,2Z"/><path class="cls-6" d="M84,108H57a1,1,0,0,1,0-2H84a1,1,0,1,1,0,2Z"/><path class="cls-6" d="M84,112H57a1,1,0,0,1,0-2H84a1,1,0,1,1,0,2Z"/></g><path class="cls-6" d="M105,87a1,1,0,0,1-1-1V84a1,1,0,0,1,2,0v2A1,1,0,0,1,105,87Z"/><path class="cls-6" d="M112,86h-7a1,1,0,0,1,0-2h7a1,1,0,1,1,0,2Z"/><path class="cls-6" d="M110,86a1,1,0,0,1-.71-.29l-3-3a1,1,0,0,1,1.41-1.41l3,3a1,1,0,0,1,0,1.41A1,1,0,0,1,110,86Z"/><path class="cls-6" d="M107,89a1,1,0,0,1-1-1,1,1,0,0,1,.3-.72l3-3a1,1,0,0,1,1.41,1.41l-3,3A1,1,0,0,1,107,89Z"/><polygon class="cls-10" points="35.99 112 33.99 112 31.99 111 29.99 112 27.99 111 25.99 112 23.99 111 21.99 112 19.99 111 17.99 112 15.99 112 15.99 110 16.99 108 15.99 106 16.99 104 15.99 102 16.99 100 15.99 98 16.99 96 15.99 94 15.99 92 17.99 92 19.99 93 21.99 92 23.99 93 25.99 92 27.99 93 29.99 92 31.99 93 33.99 92 35.99 92 35.99 94 34.99 96 35.99 98 34.99 100 35.99 102 34.99 104 35.99 106 34.99 108 35.99 110 35.99 112"/><path class="cls-6" d="M30,113a1,1,0,0,1-.45-.11L28,112.12l-1.55.78a1,1,0,0,1-.89,0L24,112.12l-1.55.78a1,1,0,0,1-.89,0L20,112.12l-1.55.78a1,1,0,0,1-.45.1H16a1,1,0,0,1-1-1v-2a1,1,0,0,1,.11-.45l.78-1.55-.78-1.55a1,1,0,0,1,0-.89l.78-1.55-.78-1.55a1,1,0,0,1,0-.89l.78-1.55-.78-1.55a1,1,0,0,1,0-.89L15.87,96l-.78-1.55A1,1,0,0,1,15,94V92a1,1,0,0,1,1-1h2a1,1,0,0,1,.45.11l1.55.78,1.55-.78a1,1,0,0,1,.89,0l1.55.78,1.55-.78a1,1,0,0,1,.89,0l1.55.78,1.55-.78a1,1,0,0,1,.89,0l1.55.78,1.55-.78A1,1,0,0,1,34,91h2a1,1,0,0,1,1,1v2a1,1,0,0,1-.11.45L36.11,96l.78,1.55a1,1,0,0,1,0,.89L36.11,100l.78,1.55a1,1,0,0,1,0,.89L36.11,104l.78,1.55a1,1,0,0,1,0,.89L36.11,108l.78,1.55a1,1,0,0,1,.1.45v2a1,1,0,0,1-1,1H34a1,1,0,0,1-.45-.11L32,112.12l-1.55.78A1,1,0,0,1,30,113Zm4.24-2H35v-.76l-.89-1.79a1,1,0,0,1,0-.89l.78-1.55-.78-1.55a1,1,0,0,1,0-.89l.78-1.55-.78-1.55a1,1,0,0,1,0-.89L34.87,98l-.78-1.55a1,1,0,0,1,0-.89l.9-1.8V93h-.76l-1.79.89a1,1,0,0,1-.89,0L30,93.12l-1.55.78a1,1,0,0,1-.89,0L26,93.12l-1.55.78a1,1,0,0,1-.89,0L22,93.12l-1.55.78a1,1,0,0,1-.89,0l-1.8-.9H17v.76l.89,1.79a1,1,0,0,1,0,.89L17.11,98l.78,1.55a1,1,0,0,1,0,.89L17.11,102l.78,1.55a1,1,0,0,1,0,.89L17.11,106l.78,1.55a1,1,0,0,1,0,.89l-.9,1.8V111h.76l1.79-.89a1,1,0,0,1,.89,0l1.55.78,1.55-.78a1,1,0,0,1,.89,0l1.55.78,1.55-.78a1,1,0,0,1,.89,0l1.55.78,1.55-.78a1,1,0,0,1,.89,0Z"/><rect class="cls-11" x="20.99" y="97" width="10" height="10"/><path class="cls-6" d="M31,108H21a1,1,0,0,1-1-1V97a1,1,0,0,1,1-1H31a1,1,0,0,1,1,1v10A1,1,0,0,1,31,108Zm-9-2h8V98H22Z"/><path class="cls-12" d="M13,11H45a4,4,0,0,1,4,4V59a4,4,0,0,1-4,4H13V11Z"/><path class="cls-6" d="M45,64H13a1,1,0,0,1-1-1V11a1,1,0,0,1,1-1H45a5,5,0,0,1,5,5V59A5,5,0,0,1,45,64ZM14,62H45a3,3,0,0,0,3-3V15a3,3,0,0,0-3-3H14Z"/><rect class="cls-12" x="8.99" y="11" width="4" height="52"/><path class="cls-6" d="M13,64H9a1,1,0,0,1-1-1V11a1,1,0,0,1,1-1h4a1,1,0,0,1,1,1V63A1,1,0,0,1,13,64Zm-3-2h2V12H10Z"/><polygon class="cls-9" points="13.99 63 13.99 67 19.99 69 19.99 63 13.99 63"/><path class="cls-6" d="M20,70a1.13,1.13,0,0,1-.32,0l-6-2A1,1,0,0,1,13,67V63a1,1,0,0,1,1-1h6a1,1,0,0,1,1,1v6A1,1,0,0,1,20,70Zm-5-3.72,4,1.33V64H15Z"/><rect class="cls-13" x="8.99" y="27" width="40" height="20"/><g class="cls-1"><path class="cls-6" d="M11,35a1,1,0,0,1-1-1,1,1,0,0,1,.3-.72,1.15,1.15,0,0,1,.33-.21A1,1,0,0,1,11.7,34.7,1,1,0,0,1,11,35Z"/><path class="cls-6" d="M11,29a1,1,0,0,1-.92-1.38,1.15,1.15,0,0,1,.21-.33,1,1,0,0,1,1.09-.21.9.9,0,0,1,.54.54A1,1,0,0,1,12,28a1.1,1.1,0,0,1-.29.71,1.15,1.15,0,0,1-.33.21A1,1,0,0,1,11,29Z"/><path class="cls-6" d="M14,32a1,1,0,0,1-1-1,1,1,0,0,1,.63-.93A1,1,0,0,1,14.7,31.7,1,1,0,0,1,14,32Z"/><path class="cls-6" d="M17,35a1,1,0,0,1-1-1,1,1,0,0,1,.63-.93A1,1,0,0,1,17.7,34.7,1,1,0,0,1,17,35Z"/><path class="cls-6" d="M17,29a1,1,0,0,1-.92-1.38,1.15,1.15,0,0,1,.21-.33,1,1,0,0,1,1.41,0h0a1.15,1.15,0,0,1,.21.33A1,1,0,0,1,17,29Z"/><path class="cls-6" d="M20,32a1,1,0,0,1-1-1,1,1,0,0,1,.3-.72,1,1,0,0,1,1.09-.21,1.15,1.15,0,0,1,.33.21,1,1,0,0,1,0,1.41A1,1,0,0,1,20,32Z"/><path class="cls-6" d="M23,35a1,1,0,0,1-.71-.29,1.15,1.15,0,0,1-.21-.33A1,1,0,0,1,22,34a1,1,0,0,1,1-1,1,1,0,0,1,.72.3,1,1,0,0,1,.21,1.09,1.15,1.15,0,0,1-.21.33A1.05,1.05,0,0,1,23,35Z"/><path class="cls-6" d="M23,29a1,1,0,0,1-.92-1.38,1.15,1.15,0,0,1,.21-.33,1,1,0,0,1,1.41,0h0a1.15,1.15,0,0,1,.21.33A1,1,0,0,1,23,29Z"/><path class="cls-6" d="M26,32a1,1,0,1,1,0-2,1,1,0,0,1,.7,1.71A1.05,1.05,0,0,1,26,32Z"/><path class="cls-6" d="M29,35a1,1,0,0,1-.71-.29,1.15,1.15,0,0,1-.21-.33A1,1,0,1,1,29,35Z"/><path class="cls-6" d="M29,29a1,1,0,0,1-.92-1.38,1.15,1.15,0,0,1,.21-.33,1,1,0,0,1,1.41,0h0a1.15,1.15,0,0,1,.21.33A1,1,0,0,1,29,29Z"/><path class="cls-6" d="M32,32a1,1,0,0,1-1-1,1,1,0,0,1,.63-.93A1,1,0,0,1,32.7,31.7,1,1,0,0,1,32,32Z"/><path class="cls-6" d="M35,35a1,1,0,0,1-1-1,1,1,0,0,1,.3-.72,1.15,1.15,0,0,1,.33-.21A1,1,0,0,1,35.7,34.7,1,1,0,0,1,35,35Z"/><path class="cls-6" d="M35,29a1,1,0,0,1-.71-.29.89.89,0,0,1-.21-.33.92.92,0,0,1,0-.76,1.15,1.15,0,0,1,.21-.33,1,1,0,0,1,1.41,0h0a1.15,1.15,0,0,1,.21.33A1,1,0,0,1,35,29Z"/><path class="cls-6" d="M38,32a1,1,0,0,1-1-1,1,1,0,0,1,.3-.72,1,1,0,0,1,1.09-.21,1.15,1.15,0,0,1,.33.21,1,1,0,0,1,0,1.41A1,1,0,0,1,38,32Z"/><path class="cls-6" d="M41,35a1,1,0,1,1,.92-.62,1.15,1.15,0,0,1-.21.33A1.05,1.05,0,0,1,41,35Z"/><path class="cls-6" d="M41,29a1,1,0,0,1-.92-1.38,1.15,1.15,0,0,1,.21-.33,1,1,0,0,1,1.41,1.42A1,1,0,0,1,41,29Z"/><path class="cls-6" d="M44,32a1,1,0,1,1,0-2,1,1,0,0,1,.7,1.71A1.05,1.05,0,0,1,44,32Z"/><path class="cls-6" d="M11,41a1,1,0,1,1,0-2,1,1,0,0,1,.7,1.71A1.05,1.05,0,0,1,11,41Z"/><path class="cls-6" d="M14,38a1,1,0,0,1-1-1,1,1,0,0,1,.3-.72,1.15,1.15,0,0,1,.33-.21A1,1,0,0,1,14.7,37.7,1,1,0,0,1,14,38Z"/><path class="cls-6" d="M17,41a1,1,0,1,1,0-2,1,1,0,0,1,.7,1.71A1.05,1.05,0,0,1,17,41Z"/><path class="cls-6" d="M20,38a1,1,0,0,1-1-1,1,1,0,0,1,.3-.72,1,1,0,0,1,1.09-.21,1.15,1.15,0,0,1,.33.21,1,1,0,0,1,0,1.41h0a1.15,1.15,0,0,1-.33.21A.84.84,0,0,1,20,38Z"/><path class="cls-6" d="M23,41a1,1,0,1,1,0-2,1,1,0,0,1,.7,1.71A1.05,1.05,0,0,1,23,41Z"/><path class="cls-6" d="M26,38a1,1,0,0,1-1-1,1,1,0,0,1,.63-.93,1,1,0,0,1,1.09.21l.12.15a.76.76,0,0,1,.09.18.64.64,0,0,1,.06.18V37a1,1,0,0,1-1,1Z"/><path class="cls-6" d="M29,41a1,1,0,1,1,0-2,1,1,0,0,1,.7,1.71A1.05,1.05,0,0,1,29,41Z"/><path class="cls-6" d="M32,38a1,1,0,0,1-.71-.29A1,1,0,0,1,31,37a1,1,0,1,1,1,1Z"/><path class="cls-6" d="M35,41a1,1,0,1,1,0-2,1,1,0,0,1,.7,1.71A1.05,1.05,0,0,1,35,41Z"/><path class="cls-6" d="M38,38a1,1,0,1,1,0-2,1,1,0,0,1,.7,1.71A1.05,1.05,0,0,1,38,38Z"/><path class="cls-6" d="M41,41a1,1,0,1,1,0-2,1,1,0,0,1,.7,1.71A1.05,1.05,0,0,1,41,41Z"/><path class="cls-6" d="M44,38a1,1,0,0,1-.71-.29A1,1,0,0,1,43,37a1,1,0,0,1,2,0,1,1,0,0,1-.29.71A1.05,1.05,0,0,1,44,38Z"/><path class="cls-6" d="M11,47a1,1,0,0,1-1-1,1,1,0,0,1,.3-.72,1,1,0,0,1,1.09-.21,1.15,1.15,0,0,1,.33.21,1,1,0,0,1,0,1.41h0a1.15,1.15,0,0,1-.33.21A.84.84,0,0,1,11,47Z"/><path class="cls-6" d="M14,44a1,1,0,1,1,0-2,1,1,0,0,1,.7,1.71A1.05,1.05,0,0,1,14,44Z"/><path class="cls-6" d="M17,47a1,1,0,0,1-.71-.29A1,1,0,0,1,16,46a1,1,0,1,1,1,1Z"/><path class="cls-6" d="M20,44a1,1,0,0,1-.71-.29,1,1,0,0,1,0-1.41h0a1,1,0,0,1,1.09-.21,1.15,1.15,0,0,1,.33.21,1,1,0,0,1,0,1.41A1,1,0,0,1,20,44Z"/><path class="cls-6" d="M23,47a1,1,0,1,1,0-2,1,1,0,0,1,.7,1.71A1.05,1.05,0,0,1,23,47Z"/><path class="cls-6" d="M26,44a1,1,0,0,1-.71-.29A1,1,0,0,1,25,43a1.05,1.05,0,0,1,.29-.71,1,1,0,0,1,1.09-.21,1.15,1.15,0,0,1,.33.21,1,1,0,0,1,0,1.41h0a1.15,1.15,0,0,1-.33.21A1,1,0,0,1,26,44Z"/><path class="cls-6" d="M29,47a.84.84,0,0,1-.38-.08,1.15,1.15,0,0,1-.33-.21,1,1,0,0,1,0-1.41h0a1.15,1.15,0,0,1,.33-.21A1,1,0,0,1,29.7,46.7,1,1,0,0,1,29,47Z"/><path class="cls-6" d="M32,44a1,1,0,0,1-1-1,1,1,0,0,1,.3-.72,1,1,0,0,1,1.41,0h0a1,1,0,0,1,0,1.41A1,1,0,0,1,32,44Z"/><path class="cls-6" d="M35,47a1,1,0,0,1-1-1,1,1,0,0,1,.3-.72,1,1,0,0,1,1.09-.21,1.15,1.15,0,0,1,.33.21,1,1,0,0,1,0,1.41h0a1.15,1.15,0,0,1-.33.21A.84.84,0,0,1,35,47Z"/><path class="cls-6" d="M38,44a1,1,0,0,1-1-1,1,1,0,0,1,.3-.72.93.93,0,0,1,.33-.21A1,1,0,0,1,38.7,43.7,1,1,0,0,1,38,44Z"/><path class="cls-6" d="M41,47a1,1,0,1,1,0-2,1,1,0,0,1,.7,1.71A1.05,1.05,0,0,1,41,47Z"/><path class="cls-6" d="M47,35a1,1,0,0,1-.71-.29,1.15,1.15,0,0,1-.21-.33,1,1,0,1,1,1.84,0,1.15,1.15,0,0,1-.21.33A1.05,1.05,0,0,1,47,35Z"/><path class="cls-6" d="M47,29a1,1,0,0,1-.92-1.38,1.15,1.15,0,0,1,.21-.33,1,1,0,0,1,1.41,0h0a1.15,1.15,0,0,1,.21.33A1,1,0,0,1,47,29Z"/><path class="cls-6" d="M47,41a1,1,0,1,1,0-2,1,1,0,0,1,.7,1.71A1.05,1.05,0,0,1,47,41Z"/><path class="cls-6" d="M47,47a1,1,0,1,1,0-2,1,1,0,0,1,.7,1.71A1.05,1.05,0,0,1,47,47Z"/><path class="cls-6" d="M44,44a1,1,0,0,1-1-1,1,1,0,0,1,.3-.72.93.93,0,0,1,.33-.21A1,1,0,0,1,44.7,43.7,1,1,0,0,1,44,44Z"/></g><g class="cls-1"><path class="cls-6" d="M13,48a1,1,0,0,1-1-1V27a1,1,0,0,1,2,0V47A1,1,0,0,1,13,48Z"/></g><path class="cls-6" d="M49,48H9a1,1,0,0,1-1-1V27a1,1,0,0,1,1-1H49a1,1,0,0,1,1,1V47A1,1,0,0,1,49,48ZM10,46H48V28H10Z"/><rect class="cls-14" x="38.99" y="10" width="4" height="54"/><path class="cls-6" d="M43,65H39a1,1,0,0,1-1-1V10a1,1,0,0,1,1-1h4a1,1,0,0,1,1,1V64A1,1,0,0,1,43,65Zm-3-2h2V11H40Z"/></g><polygon class="cls-15" points="90.99 105 90.99 35 82.99 27 30.99 27 30.99 105 90.99 105"/><path class="cls-6" d="M91,106H31a1,1,0,0,1-1-1V27a1,1,0,0,1,1-1H83a1,1,0,0,1,.71.29l8,8A1,1,0,0,1,92,35v70A1,1,0,0,1,91,106Zm-59-2H90V35.41L82.58,28H32Z"/><g class="cls-7"><path class="cls-6" d="M83,102H39a1,1,0,0,1-1-1,3,3,0,0,0-3-3,1,1,0,0,1-1-1V35a1,1,0,0,1,1-1,3,3,0,0,0,3-3,1,1,0,0,1,1-1H83a1,1,0,0,1,1,1,3,3,0,0,0,3,3,1,1,0,0,1,1,1V97a1,1,0,0,1-1,1,3,3,0,0,0-3,3A1,1,0,0,1,83,102Zm-43.1-2h42.2A5,5,0,0,1,86,96.1V35.9a5,5,0,0,1-3.9-3.9H39.89A5,5,0,0,1,36,35.9V96.1A5,5,0,0,1,39.89,100Z"/></g><polygon class="cls-10" points="90.99 35 82.99 35 82.99 27 90.99 35"/><path class="cls-6" d="M91,36H83a1,1,0,0,1-1-1V27a1,1,0,0,1,1-1,1,1,0,0,1,.72.3l8,8a1,1,0,0,1,0,1.41A1,1,0,0,1,91,36Zm-7-2h4.59L84,29.41Z"/><path class="cls-6" d="M91,36H83a1,1,0,0,1-1-1V27a1,1,0,0,1,1-1,1,1,0,0,1,.72.3l8,8a1,1,0,0,1,0,1.41A1,1,0,0,1,91,36Zm-7-2h4.59L84,29.41Z"/><g class="cls-7"><path class="cls-6" d="M48,52H45a1,1,0,0,1,0-2h3a1,1,0,1,1,0,2Z"/><path class="cls-6" d="M67,48H45a1,1,0,0,1,0-2H67a1,1,0,0,1,0,2Z"/><path class="cls-6" d="M77,52H51a1,1,0,0,1,0-2H77a1,1,0,0,1,0,2Z"/><path class="cls-6" d="M77,48H70a1,1,0,0,1,0-2h7a1,1,0,0,1,0,2Z"/><path class="cls-6" d="M65,42H57a1,1,0,0,1,0-2h8a1,1,0,0,1,0,2Z"/><path class="cls-6" d="M54,56H45a1,1,0,0,1,0-2h9a1,1,0,1,1,0,2Z"/><path class="cls-6" d="M77,56H62a1,1,0,0,1,0-2H77a1,1,0,1,1,0,2Z"/><path class="cls-6" d="M59,56H57a1,1,0,0,1,0-2h2a1,1,0,1,1,0,2Z"/><path class="cls-6" d="M67,60H45a1,1,0,0,1,0-2H67a1,1,0,0,1,0,2Z"/><path class="cls-6" d="M50.13,78h-.27a1.83,1.83,0,0,1-1.26-.68A4.59,4.59,0,0,1,48,74.81a24.77,24.77,0,0,1-2.8.79,1,1,0,1,1-.4-2,22.21,22.21,0,0,0,3.38-1,7.48,7.48,0,0,1,1-2.57,4.57,4.57,0,0,1,5.3-1.88,1.52,1.52,0,0,1,1.32,1.49c0,1.49-2.8,3.18-5.8,4.36a5.62,5.62,0,0,0,.16,2A9.22,9.22,0,0,0,54,73.87a1,1,0,0,1,1.5.29,3.39,3.39,0,0,1,.18.39c.15.36.15.36.34.36a5.17,5.17,0,0,0,1.43-.71,4.21,4.21,0,0,1,2-.85,3.26,3.26,0,0,1,1.89.9,3.13,3.13,0,0,0,1.3.74s.12-.15.17-.23a2.1,2.1,0,0,1,1.91-1.23,2.76,2.76,0,0,1,2,.88,1.64,1.64,0,0,0,.25.21,1,1,0,0,1,0,2,2.25,2.25,0,0,1-1.59-.74c-.28-.27-.38-.34-.64-.34-.06,0-.13.15-.19.24A2.11,2.11,0,0,1,62.68,77a4.32,4.32,0,0,1-2.51-1.15,5.43,5.43,0,0,0-.7-.48,6.43,6.43,0,0,0-1,.54,5.1,5.1,0,0,1-2.48,1,2.09,2.09,0,0,1-1.71-.76A8.33,8.33,0,0,1,50.13,78Zm2.81-8a2.3,2.3,0,0,0-2,1,3.86,3.86,0,0,0-.39.65A16.87,16.87,0,0,0,53.27,70Z"/><path class="cls-6" d="M45,96a1,1,0,0,1-1-1V93a1,1,0,0,1,2,0v2A1,1,0,0,1,45,96Z"/><path class="cls-6" d="M48,96a1,1,0,0,1-1-1V93a1,1,0,0,1,2,0v2A1,1,0,0,1,48,96Z"/><path class="cls-6" d="M51,96a1,1,0,0,1-1-1V93a1,1,0,0,1,2,0v2A1,1,0,0,1,51,96Z"/><path class="cls-6" d="M56,96a1,1,0,0,1-1-1V93a1,1,0,0,1,2,0v2A1,1,0,0,1,56,96Z"/><path class="cls-6" d="M59,96a1,1,0,0,1-1-1V93a1,1,0,0,1,2,0v2A1,1,0,0,1,59,96Z"/><path class="cls-6" d="M62,96a1,1,0,0,1-1-1V93a1,1,0,0,1,2,0v2A1,1,0,0,1,62,96Z"/><path class="cls-6" d="M67,96a1,1,0,0,1-1-1V93a1,1,0,0,1,2,0v2A1,1,0,0,1,67,96Z"/><path class="cls-6" d="M70,96a1,1,0,0,1-1-1V93a1,1,0,0,1,2,0v2A1,1,0,0,1,70,96Z"/><path class="cls-6" d="M73,96a1,1,0,0,1-1-1V93a1,1,0,0,1,2,0v2A1,1,0,0,1,73,96Z"/></g><polygon class="cls-9" points="67.49 97 67.49 114 72.99 109 78.49 114 78.49 97 67.49 97"/><g class="cls-1"><polygon class="cls-16" points="72.99 97 72.99 109 78.49 114 78.49 97 72.99 97"/></g><g class="cls-1"><path class="cls-16" d="M67.49,102.07h.24A3.9,3.9,0,0,0,73,103.52a4.75,4.75,0,0,0,2,.48,4,4,0,0,0,3.26-1.89h.24V97h-11Z"/></g><path class="cls-6" d="M78.49,115a1,1,0,0,1-.67-.26L73,110.35l-4.83,4.39a1,1,0,0,1-1.67-.74V97a1,1,0,0,1,1-1h11a1,1,0,0,1,1,1v17A1,1,0,0,1,78.49,115ZM73,108a1,1,0,0,1,.67.26l3.83,3.48V98h-9v13.74l3.83-3.48A1,1,0,0,1,73,108Z"/><path class="cls-17" d="M81.13,86.3Q84.06,88,82.39,91q1.67,3-1.26,4.7c0,2.27-1.15,3.41-3.44,3.44Q76,102.07,73,100.4q-3,1.66-4.7-1.26c-2.27,0-3.41-1.15-3.44-3.44Q61.93,94,63.59,91q-1.67-3,1.26-4.7c0-2.27,1.15-3.41,3.44-3.44Q70,79.94,73,81.6q3-1.66,4.7,1.26Q81.08,82.91,81.13,86.3Z"/><path class="cls-6" d="M75,102a4.75,4.75,0,0,1-2-.48,3.9,3.9,0,0,1-5.26-1.41,3.9,3.9,0,0,1-3.85-3.85A3.89,3.89,0,0,1,62.47,91a3.89,3.89,0,0,1,1.41-5.26,3.9,3.9,0,0,1,3.85-3.85A3.9,3.9,0,0,1,73,80.48a3.9,3.9,0,0,1,5.26,1.41,3.9,3.9,0,0,1,3.85,3.85A3.9,3.9,0,0,1,83.51,91a3.9,3.9,0,0,1-1.41,5.26,3.9,3.9,0,0,1-3.85,3.85A4,4,0,0,1,75,102Zm-2-2.6a1.05,1.05,0,0,1,.49.13c1.5.84,2.47.58,3.35-.9a1,1,0,0,1,.85-.49c1.72,0,2.43-.73,2.45-2.45a1,1,0,0,1,.49-.85c1.48-.88,1.74-1.85.9-3.35a1,1,0,0,1,0-1c.84-1.5.58-2.47-.9-3.35a1,1,0,0,1-.49-.85c0-1.72-.73-2.43-2.45-2.45a1,1,0,0,1-.85-.49c-.88-1.48-1.85-1.74-3.35-.9a1,1,0,0,1-1,0c-1.5-.84-2.47-.58-3.35.9a1,1,0,0,1-.85.49c-1.72,0-2.43.73-2.45,2.45a1,1,0,0,1-.49.85c-1.48.88-1.74,1.85-.9,3.35a1,1,0,0,1,0,1c-.84,1.5-.58,2.47.9,3.35a1,1,0,0,1,.49.85c0,1.72.73,2.43,2.45,2.45a1,1,0,0,1,.85.49c.88,1.48,1.85,1.74,3.35.9A1,1,0,0,1,73,99.4Z"/><circle class="cls-18" cx="72.99" cy="91" r="6"/><g class="cls-7"><path class="cls-19" d="M73,88a6,6,0,0,1,5.8,4.5,6,6,0,1,0-11.61,0A6,6,0,0,1,73,88Z"/></g><path class="cls-6" d="M73,98a7,7,0,1,1,7-7A7,7,0,0,1,73,98Zm0-12a5,5,0,1,0,5,5A5,5,0,0,0,73,86Z"/><path class="cls-12" d="M103,54V66H97V54a2,2,0,0,1,2-2h2A2,2,0,0,1,103,54Z"/><polygon class="cls-10" points="102.99 97 100.99 103 98.99 103 96.99 97 102.99 97"/><polygon class="cls-3" points="99.99 97 96.99 97 98.99 103 99.99 103 99.99 97"/><path class="cls-6" d="M101,104H99a1,1,0,0,1-.95-.68l-2-6a1,1,0,0,1,.63-1.27A1.13,1.13,0,0,1,97,96h6a1,1,0,0,1,1,1,1.13,1.13,0,0,1,0,.32l-2,6A1,1,0,0,1,101,104Zm-1.28-2h.56l1.33-4H98.37Z"/><polygon class="cls-12" points="102.99 66 96.99 66 96.99 79 97.99 82 96.99 85 96.99 97 102.99 97 102.99 85 101.99 82 102.99 79 102.99 66"/><g class="cls-1"><path class="cls-3" d="M100,79V52H99a2,2,0,0,0-2,2V79l1,3-1,3V97h3Z"/></g><path class="cls-6" d="M103,67H97a1,1,0,0,1-1-1V54a3,3,0,0,1,3-3h2a3,3,0,0,1,3,3V66A1,1,0,0,1,103,67Zm-5-2h4V54a1,1,0,0,0-1-1H99a1,1,0,0,0-1,1Z"/><path class="cls-6" d="M103,98H97a1,1,0,0,1-1-1V85a1,1,0,0,1,1-1h6a1,1,0,0,1,1,1V97A1,1,0,0,1,103,98Zm-5-2h4V86H98Z"/><path class="cls-6" d="M103,94H97a1,1,0,0,1,0-2h6a1,1,0,1,1,0,2Z"/><path class="cls-6" d="M103,90H97a1,1,0,0,1,0-2h6a1,1,0,1,1,0,2Z"/><path class="cls-6" d="M103,80H97a1,1,0,0,1-1-1V66a1,1,0,0,1,1-1h6a1,1,0,0,1,1,1V79A1,1,0,0,1,103,80Zm-5-2h4V67H98Z"/><path class="cls-6" d="M103,86H97a1,1,0,0,1-1-1,.86.86,0,0,1,.05-.32l1-3A1,1,0,0,1,98,81h4a1,1,0,0,1,1,.68l1,3a1,1,0,0,1-.63,1.27A1.13,1.13,0,0,1,103,86Zm-4.61-2h3.23l-.33-1H98.72Z"/><path class="cls-6" d="M102,83H98a1,1,0,0,1-.95-.68l-1-3a1,1,0,0,1,.63-1.27A1.13,1.13,0,0,1,97,78h6a1,1,0,0,1,1,1,1.13,1.13,0,0,1,0,.32l-1,3A1,1,0,0,1,102,83Zm-3.28-2h2.56l.33-1H98.37Z"/><path class="cls-6" d="M100,106a1,1,0,0,1-1-1v-2a1,1,0,0,1,2,0v2A1,1,0,0,1,100,106Z"/><path class="cls-6" d="M106,68a1,1,0,0,1-1-1V57h-3a1,1,0,0,1,0-2h4a1,1,0,0,1,1,1V67A1,1,0,0,1,106,68Z"/><rect class="cls-10" x="98.99" y="49" width="2" height="3"/><path class="cls-6" d="M101,53H99a1,1,0,0,1-1-1V49a1,1,0,0,1,1-1h2a1,1,0,0,1,1,1v3A1,1,0,0,1,101,53Z"/></g></g></svg>