<svg xmlns="http://www.w3.org/2000/svg" viewBox="0 0 150 146.8"><defs><style>.cls-1,.cls-26,.cls-9{opacity:0.3;}.cls-2{fill:#c7bff3;}.cls-3{fill:#6d6da8;}.cls-4{fill:#fff8cf;}.cls-5{fill:#87d9b8;}.cls-6{fill:#afefa6;}.cls-7{fill:#ecf4ff;}.cls-11,.cls-8{fill:#fff;}.cls-9{fill:#768ea6;}.cls-11,.cls-17,.cls-22,.cls-25,.cls-26,.cls-9{isolation:isolate;}.cls-10{fill:#fff07d;}.cls-11,.cls-21,.cls-25{opacity:0.5;}.cls-12{fill:#94d5ff;}.cls-13{fill:#c5e7ff;}.cls-14{fill:#ff88ca;}.cls-15{fill:#ffcfe1;}.cls-16{fill:#97c1ff;}.cls-17{fill:#2c4b75;}.cls-17,.cls-19,.cls-22{opacity:0.2;}.cls-18{fill:#f9e2dc;}.cls-20,.cls-22{fill:#cc7e54;}.cls-23,.cls-25{fill:#6d6daa;}.cls-24{fill:#ccd6ec;}.cls-26{fill:#48ba33;}</style></defs><title>icon_2</title><g id="Layer_2" data-name="Layer 2"><g id="Artwork"><g class="cls-1"><path class="cls-2" d="M136.34,55.49a46,46,0,1,0-90.9-14.71c0,.18,0,.36-.08.54A24.32,24.32,0,0,1,27.19,61.05a36.3,36.3,0,1,0,18.24,70.27,36.79,36.79,0,0,0,7.73-3c9-4.72,20.07-3.17,26.72,4.52A39.84,39.84,0,0,0,143,84.34,39.79,39.79,0,0,1,136.34,55.49Z"/><rect class="cls-2" x="13.55" y="17.71" width="17.71" height="14.17"/><path class="cls-3" d="M31.27,33.06H13.57a1.18,1.18,0,0,1-1.18-1.19V17.71a1.18,1.18,0,0,1,1.18-1.18h17.7a1.18,1.18,0,0,1,1.18,1.18V31.87A1.18,1.18,0,0,1,31.27,33.06ZM14.75,30.69H30.09V18.89H14.75Z"/><rect class="cls-2" x="12.37" y="11.81" width="20.07" height="5.9"/><path class="cls-3" d="M32.45,18.89H12.39a1.18,1.18,0,0,1-1.19-1.18v-5.9a1.19,1.19,0,0,1,1.19-1.19H32.45a1.19,1.19,0,0,1,1.19,1.19v5.9A1.18,1.18,0,0,1,32.45,18.89ZM13.57,16.53h17.7V13H13.57Z"/><rect class="cls-4" x="2.93" y="31.87" width="144.04" height="7.08"/><path class="cls-3" d="M147,40.14H2.94A1.18,1.18,0,0,1,1.76,39V31.87a1.18,1.18,0,0,1,1.18-1.18H147a1.18,1.18,0,0,1,1.18,1.18V39A1.18,1.18,0,0,1,147,40.14ZM4.12,37.78H145.79V33.06H4.12Z"/><rect class="cls-4" x="2.93" y="81.46" width="144.04" height="7.08"/><path class="cls-3" d="M147,89.72H2.94a1.18,1.18,0,0,1-1.18-1.18V81.46a1.18,1.18,0,0,1,1.18-1.18H147a1.18,1.18,0,0,1,1.18,1.18v7.08A1.18,1.18,0,0,1,147,89.72ZM4.12,87.36H145.79V82.64H4.12Z"/><path class="cls-3" d="M25.37,23.61h-5.9a1.18,1.18,0,0,1,0-2.36h5.9a1.18,1.18,0,0,1,0,2.36Z"/><rect class="cls-5" x="48.97" y="11.81" width="49.57" height="4.71"/><path class="cls-3" d="M98.57,17.71H49a1.18,1.18,0,0,1-1.18-1.18V11.81A1.18,1.18,0,0,1,49,10.62H98.57a1.18,1.18,0,0,1,1.18,1.19v4.72A1.18,1.18,0,0,1,98.57,17.71ZM50.16,15.35H97.38V13H50.16Z"/><rect class="cls-6" x="48.97" y="7.08" width="49.57" height="4.71"/><path class="cls-3" d="M98.57,13H49a1.18,1.18,0,0,1-1.18-1.18V7.08A1.18,1.18,0,0,1,49,5.9H98.57a1.18,1.18,0,0,1,1.18,1.18v4.73A1.18,1.18,0,0,1,98.57,13ZM50.16,10.62H97.38V8.26H50.16Z"/><rect class="cls-5" x="48.97" y="2.36" width="49.57" height="4.71"/><path class="cls-3" d="M98.57,8.26H49A1.18,1.18,0,0,1,47.8,7.08V2.36A1.18,1.18,0,0,1,49,1.18H98.57a1.18,1.18,0,0,1,1.18,1.18V7.08A1.18,1.18,0,0,1,98.57,8.26ZM50.16,5.9H97.38V3.54H50.16Z"/><rect class="cls-7" x="67.86" y="0.59" width="11.79" height="16.53"/><rect class="cls-8" x="67.86" y="1.18" width="11.79" height="3.54"/><rect class="cls-9" x="67.86" y="14.17" width="11.79" height="3.54"/><path class="cls-3" d="M79.68,18.89H67.87a1.18,1.18,0,0,1-1.18-1.18V1.18A1.18,1.18,0,0,1,67.87,0H79.68a1.18,1.18,0,0,1,1.18,1.18V17.71A1.18,1.18,0,0,1,79.68,18.89ZM69.05,16.53H78.5V2.36H69.05Z"/><rect class="cls-5" x="84.39" y="25.98" width="49.57" height="4.71"/><path class="cls-3" d="M134,31.87H84.4a1.18,1.18,0,0,1-1.18-1.18V26a1.18,1.18,0,0,1,1.18-1.18H134A1.18,1.18,0,0,1,135.16,26v4.72A1.18,1.18,0,0,1,134,31.87Zm-48.4-2.36H132.8V27.15H85.58Z"/><rect class="cls-6" x="84.39" y="21.25" width="49.57" height="4.71"/><path class="cls-3" d="M134,27.15H84.4A1.18,1.18,0,0,1,83.22,26V21.25a1.18,1.18,0,0,1,1.18-1.18H134a1.18,1.18,0,0,1,1.18,1.18V26A1.18,1.18,0,0,1,134,27.15Zm-48.4-2.36H132.8V22.43H85.58Z"/><rect class="cls-5" x="84.39" y="16.53" width="49.57" height="4.71"/><path class="cls-3" d="M134,22.43H84.4a1.18,1.18,0,0,1-1.18-1.18V16.53a1.18,1.18,0,0,1,1.18-1.18H134a1.18,1.18,0,0,1,1.18,1.18v4.72A1.18,1.18,0,0,1,134,22.43Zm-48.4-2.36H132.8V17.71H85.58Z"/><rect class="cls-7" x="103.28" y="14.77" width="11.81" height="16.53"/><rect class="cls-8" x="103.28" y="15.35" width="11.81" height="3.54"/><rect class="cls-9" x="103.28" y="28.35" width="11.81" height="3.54"/><path class="cls-3" d="M115.09,33.06h-11.8a1.18,1.18,0,0,1-1.18-1.19V15.35a1.18,1.18,0,0,1,1.18-1.18h11.8a1.18,1.18,0,0,1,1.18,1.18V31.87A1.18,1.18,0,0,1,115.09,33.06Zm-10.62-2.37h9.44V16.53h-9.44Z"/><rect class="cls-5" x="41.89" y="25.98" width="49.57" height="4.71"/><path class="cls-3" d="M91.48,31.87H41.9a1.18,1.18,0,0,1-1.18-1.18V26a1.18,1.18,0,0,1,1.18-1.18H91.48A1.18,1.18,0,0,1,92.66,26v4.72A1.18,1.18,0,0,1,91.48,31.87Zm-48.4-2.36H90.3V27.15H43.08Z"/><rect class="cls-6" x="41.89" y="21.25" width="49.57" height="4.71"/><path class="cls-3" d="M91.48,27.15H41.9A1.18,1.18,0,0,1,40.72,26V21.25a1.18,1.18,0,0,1,1.18-1.18H91.48a1.18,1.18,0,0,1,1.18,1.18V26A1.18,1.18,0,0,1,91.48,27.15Zm-48.4-2.36H90.3V22.43H43.08Z"/><rect class="cls-5" x="41.89" y="16.53" width="49.57" height="4.71"/><path class="cls-3" d="M91.48,22.43H41.9a1.18,1.18,0,0,1-1.18-1.18V16.53a1.18,1.18,0,0,1,1.18-1.18H91.48a1.18,1.18,0,0,1,1.18,1.18v4.72A1.18,1.18,0,0,1,91.48,22.43Zm-48.4-2.36H90.3V17.71H43.08Z"/><rect class="cls-7" x="60.78" y="14.77" width="11.81" height="16.53"/><rect class="cls-8" x="60.78" y="15.35" width="11.81" height="3.54"/><rect class="cls-9" x="60.78" y="28.35" width="11.81" height="3.54"/><path class="cls-3" d="M72.59,33.06H60.79a1.18,1.18,0,0,1-1.18-1.19V15.35a1.18,1.18,0,0,1,1.18-1.18h11.8a1.18,1.18,0,0,1,1.18,1.18V31.87A1.18,1.18,0,0,1,72.59,33.06ZM62,30.69h9.44V16.53H62Z"/><path class="cls-10" d="M6.21,78.42l2.13-7.08a2.36,2.36,0,0,1,2.26-1.69h13a2.38,2.38,0,0,1,2.27,1.69L28,78.42a2.37,2.37,0,0,1-2.24,3H8.48A2.37,2.37,0,0,1,6.11,79.1,2.6,2.6,0,0,1,6.21,78.42Z"/><path class="cls-11" d="M6.21,78.42v.11L24.4,69.79a2.9,2.9,0,0,0-.78-.14h-13a2.37,2.37,0,0,0-2.27,1.69Z"/><path class="cls-11" d="M26.3,72.75,26,71.9,7.16,81a2.25,2.25,0,0,0,1.32.46h5L27,75Z"/><path class="cls-3" d="M25.74,82.64H8.48a3.54,3.54,0,0,1-3.54-3.55,3.48,3.48,0,0,1,.15-1L7.21,71a3.55,3.55,0,0,1,3.39-2.53h13A3.55,3.55,0,0,1,27,71l2.12,7.08a3.54,3.54,0,0,1-2.37,4.41A3.41,3.41,0,0,1,25.74,82.64ZM10.6,70.83a1.19,1.19,0,0,0-1.18.84L7.3,78.75h0a1.14,1.14,0,0,0,.19,1,1.17,1.17,0,0,0,.94.48H25.74a1.2,1.2,0,0,0,1.13-1.53l-2.12-7.08a1.19,1.19,0,0,0-1.18-.84Z"/><path class="cls-10" d="M29.82,78.42,32,71.34a2.37,2.37,0,0,1,2.26-1.69h13a2.37,2.37,0,0,1,2.27,1.69l2.12,7.08a2.37,2.37,0,0,1-2.24,3H32.09a2.37,2.37,0,0,1-2.37-2.36A2.6,2.6,0,0,1,29.82,78.42Z"/><path class="cls-11" d="M29.82,78.42v.11L48,69.79a2.9,2.9,0,0,0-.77-.14h-13A2.37,2.37,0,0,0,32,71.34Z"/><path class="cls-11" d="M49.91,72.75l-.25-.85L30.77,81a2.27,2.27,0,0,0,1.38.46h5L50.64,75Z"/><path class="cls-3" d="M49.35,82.64H32.09a3.54,3.54,0,0,1-3.54-3.55,3.48,3.48,0,0,1,.15-1L30.83,71a3.53,3.53,0,0,1,3.38-2.53h13A3.55,3.55,0,0,1,50.6,71l2.12,7.08a3.53,3.53,0,0,1-2.37,4.41A3.41,3.41,0,0,1,49.35,82.64ZM34.21,70.83a1.19,1.19,0,0,0-1.18.84l-2.12,7.08h0a1.14,1.14,0,0,0,.19,1,1.17,1.17,0,0,0,.94.48H49.35a1.2,1.2,0,0,0,1.13-1.53l-2.12-7.08a1.19,1.19,0,0,0-1.18-.84Z"/><path class="cls-10" d="M53.43,78.42l2.13-7.08a2.37,2.37,0,0,1,2.26-1.69h13a2.37,2.37,0,0,1,2.27,1.69l2.12,7.08a2.37,2.37,0,0,1-2.24,3H55.7a2.36,2.36,0,0,1-2.36-2.36A2.23,2.23,0,0,1,53.43,78.42Z"/><path class="cls-11" d="M53.43,78.42v.11l18.2-8.74a3.05,3.05,0,0,0-.78-.14h-13a2.37,2.37,0,0,0-2.27,1.69Z"/><path class="cls-11" d="M73.53,72.75l-.26-.85L54.38,81a2.29,2.29,0,0,0,1.38.46h5L74.25,75Z"/><path class="cls-3" d="M73,82.64H55.7a3.54,3.54,0,0,1-3.54-3.55,3.48,3.48,0,0,1,.15-1L54.44,71a3.53,3.53,0,0,1,3.38-2.53h13A3.55,3.55,0,0,1,74.21,71l2.13,7.08A3.55,3.55,0,0,1,74,82.49,3.41,3.41,0,0,1,73,82.64ZM57.82,70.83a1.2,1.2,0,0,0-1.18.84l-2.12,7.08h0a1.2,1.2,0,0,0,.19,1,1.17,1.17,0,0,0,.94.48H73a1.2,1.2,0,0,0,1.13-1.53L72,71.66a1.18,1.18,0,0,0-1.18-.84Z"/><path class="cls-10" d="M41.63,66.62l2.12-7.08A2.36,2.36,0,0,1,46,57.85H59a2.35,2.35,0,0,1,2.26,1.69l2.13,7.08a2.35,2.35,0,0,1-1.59,2.93,2.16,2.16,0,0,1-.66.1H43.89a2.36,2.36,0,0,1-2.36-2.36A2.22,2.22,0,0,1,41.63,66.62Z"/><path class="cls-11" d="M41.63,66.62a.17.17,0,0,0,0,.1L59.82,58a2.29,2.29,0,0,0-.78-.14h-13a2.35,2.35,0,0,0-2.26,1.69Z"/><path class="cls-11" d="M61.72,60.94l-.26-.85-18.89,9.1a2.29,2.29,0,0,0,1.38.46h5l13.47-6.47Z"/><path class="cls-3" d="M61.15,70.83H43.89a3.53,3.53,0,0,1-3.53-3.54,3.38,3.38,0,0,1,.15-1l2.12-7.09A3.55,3.55,0,0,1,46,56.67H59a3.54,3.54,0,0,1,3.4,2.52l2.12,7.09a3.53,3.53,0,0,1-2.38,4.4A3.37,3.37,0,0,1,61.15,70.83ZM46,59a1.16,1.16,0,0,0-1.18.84L42.71,67h0a1.18,1.18,0,0,0,1.14,1.51h17.3a1.18,1.18,0,0,0,1.14-1.52l-2.13-7.09A1.17,1.17,0,0,0,59,59Z"/><path class="cls-10" d="M18,66.62l2.12-7.08a2.36,2.36,0,0,1,2.27-1.69h13a2.36,2.36,0,0,1,2.27,1.69l2.13,7.08a2.35,2.35,0,0,1-1.59,2.93,2.16,2.16,0,0,1-.66.1H20.28a2.36,2.36,0,0,1-2.36-2.36A2.22,2.22,0,0,1,18,66.62Z"/><path class="cls-11" d="M18,66.62a.17.17,0,0,0,0,.1L36.21,58a2.29,2.29,0,0,0-.78-.14h-13a2.35,2.35,0,0,0-2.26,1.69Z"/><path class="cls-11" d="M38.11,60.94l-.26-.85L19,69.19a2.29,2.29,0,0,0,1.38.46h5l13.47-6.47Z"/><path class="cls-3" d="M37.54,70.83H20.28a3.53,3.53,0,0,1-3.53-3.54,3.73,3.73,0,0,1,.14-1L19,59.19a3.54,3.54,0,0,1,3.39-2.52h13a3.53,3.53,0,0,1,3.4,2.52l2.13,7.09a3.53,3.53,0,0,1-2.38,4.4A3.37,3.37,0,0,1,37.54,70.83ZM22.41,59a1.16,1.16,0,0,0-1.18.84L19.1,67h0a1.21,1.21,0,0,0,.19,1,1.17,1.17,0,0,0,.95.47h17.3a1.19,1.19,0,0,0,1-.47,1.23,1.23,0,0,0,.19-1l-2.13-7.09A1.17,1.17,0,0,0,35.37,59Z"/><path class="cls-10" d="M29.82,54.81,32,47.73A2.37,2.37,0,0,1,34.21,46h13a2.37,2.37,0,0,1,2.27,1.69l2.12,7.08a2.37,2.37,0,0,1-2.24,3H32.09a2.37,2.37,0,0,1-2.37-2.36A2.6,2.6,0,0,1,29.82,54.81Z"/><path class="cls-11" d="M29.82,54.81v.11L48,46.18a2.55,2.55,0,0,0-.77-.14h-13A2.37,2.37,0,0,0,32,47.73Z"/><path class="cls-11" d="M49.91,49.13l-.25-.85L30.77,57.39a2.27,2.27,0,0,0,1.38.46h5l13.48-6.47Z"/><path class="cls-3" d="M49.35,59H32.09a3.55,3.55,0,0,1-3.54-3.55,3.48,3.48,0,0,1,.15-1l2.13-7.08a3.53,3.53,0,0,1,3.38-2.53h13a3.55,3.55,0,0,1,3.4,2.53l2.12,7.08a3.54,3.54,0,0,1-2.37,4.41A3.41,3.41,0,0,1,49.35,59ZM34.21,47.22a1.18,1.18,0,0,0-1.18.84l-2.12,7.08h0a1.14,1.14,0,0,0,.19,1,1.16,1.16,0,0,0,.94.47H49.35a1.18,1.18,0,0,0,1.13-1.52l-2.12-7.08a1.19,1.19,0,0,0-1.18-.84Z"/><path class="cls-10" d="M100.66,78.42l2.12-7.08a2.37,2.37,0,0,1,2.27-1.69h13a2.37,2.37,0,0,1,2.27,1.69l2.12,7.08a2.36,2.36,0,0,1-1.59,2.94,2.38,2.38,0,0,1-.65.1H102.92a2.36,2.36,0,0,1-2.36-2.36A2.24,2.24,0,0,1,100.66,78.42Z"/><path class="cls-11" d="M100.66,78.42a.2.2,0,0,0,0,.11l18.19-8.74a3,3,0,0,0-.78-.14h-13a2.36,2.36,0,0,0-2.26,1.69Z"/><path class="cls-11" d="M120.75,72.75l-.26-.85L101.6,81a2.29,2.29,0,0,0,1.38.46h5L121.47,75Z"/><path class="cls-3" d="M120.18,82.64H102.92a3.55,3.55,0,0,1-3.54-3.55,4.33,4.33,0,0,1,.15-1L101.66,71a3.54,3.54,0,0,1,3.39-2.53h13a3.55,3.55,0,0,1,3.4,2.53l2.13,7.08a3.55,3.55,0,0,1-2.38,4.41A3.37,3.37,0,0,1,120.18,82.64ZM105.05,70.83a1.19,1.19,0,0,0-1.18.84l-2.13,7.08h0a1.2,1.2,0,0,0,.19,1,1.17,1.17,0,0,0,.94.48h17.26a1.2,1.2,0,0,0,1.14-1.53l-2.13-7.08a1.17,1.17,0,0,0-1.18-.84Z"/><path class="cls-10" d="M124.27,78.42l2.12-7.08a2.37,2.37,0,0,1,2.27-1.69h13a2.37,2.37,0,0,1,2.27,1.69L146,78.42a2.37,2.37,0,0,1-1.59,2.94,2.51,2.51,0,0,1-.66.1H126.53a2.36,2.36,0,0,1-2.36-2.36A2.24,2.24,0,0,1,124.27,78.42Z"/><path class="cls-11" d="M124.27,78.42a.2.2,0,0,0,0,.11l18.19-8.74a3,3,0,0,0-.78-.14h-13a2.36,2.36,0,0,0-2.26,1.69Z"/><path class="cls-11" d="M144.36,72.75l-.26-.85L125.21,81a2.29,2.29,0,0,0,1.38.46h5L145.08,75Z"/><path class="cls-3" d="M143.79,82.64H126.53A3.53,3.53,0,0,1,123,79.09a3.85,3.85,0,0,1,.14-1L125.27,71a3.54,3.54,0,0,1,3.39-2.53h13A3.55,3.55,0,0,1,145,71l2.13,7.08a3.54,3.54,0,0,1-2.38,4.41A3.37,3.37,0,0,1,143.79,82.64ZM128.66,70.83a1.19,1.19,0,0,0-1.18.84l-2.13,7.08h0a1.2,1.2,0,0,0,.19,1,1.17,1.17,0,0,0,.95.48h17.26a1.2,1.2,0,0,0,1.13-1.53l-2.13-7.08a1.17,1.17,0,0,0-1.18-.84Z"/><path class="cls-10" d="M124.27,66.62l2.12-7.08a2.36,2.36,0,0,1,2.27-1.69h13a2.36,2.36,0,0,1,2.27,1.69L146,66.62a2.35,2.35,0,0,1-1.59,2.93,2.16,2.16,0,0,1-.66.1H126.53a2.36,2.36,0,0,1-2.36-2.36A2.22,2.22,0,0,1,124.27,66.62Z"/><path class="cls-11" d="M124.27,66.62a.17.17,0,0,0,0,.1L142.46,58a2.33,2.33,0,0,0-.78-.14h-13a2.35,2.35,0,0,0-2.26,1.69Z"/><path class="cls-11" d="M144.36,60.94l-.26-.85-18.89,9.1a2.29,2.29,0,0,0,1.38.46h5l13.47-6.47Z"/><path class="cls-3" d="M143.79,70.83H126.53A3.53,3.53,0,0,1,123,67.29a3.73,3.73,0,0,1,.14-1l2.13-7.09a3.54,3.54,0,0,1,3.39-2.52h13a3.53,3.53,0,0,1,3.4,2.52l2.13,7.09a3.53,3.53,0,0,1-2.38,4.4A3.37,3.37,0,0,1,143.79,70.83ZM128.66,59a1.16,1.16,0,0,0-1.18.84L125.35,67h0a1.21,1.21,0,0,0,.19,1,1.17,1.17,0,0,0,.95.47h17.26a1.18,1.18,0,0,0,1.13-1.52l-2.13-7.09a1.17,1.17,0,0,0-1.18-.83Z"/><path class="cls-10" d="M100.66,66.62l2.12-7.08a2.36,2.36,0,0,1,2.27-1.69h13a2.36,2.36,0,0,1,2.27,1.69l2.12,7.08a2.35,2.35,0,0,1-1.59,2.93,2.05,2.05,0,0,1-.65.1H102.92a2.36,2.36,0,0,1-2.36-2.36A2.22,2.22,0,0,1,100.66,66.62Z"/><path class="cls-11" d="M100.66,66.62a.17.17,0,0,0,0,.1L118.85,58a2.33,2.33,0,0,0-.78-.14h-13a2.35,2.35,0,0,0-2.26,1.69Z"/><path class="cls-11" d="M120.75,60.94l-.26-.85-18.89,9.1a2.29,2.29,0,0,0,1.38.46h5l13.47-6.47Z"/><path class="cls-3" d="M120.18,70.83H102.92a3.55,3.55,0,0,1-3.54-3.54,4.18,4.18,0,0,1,.15-1l2.13-7.09a3.54,3.54,0,0,1,3.39-2.52h13a3.53,3.53,0,0,1,3.4,2.52l2.13,7.09a3.54,3.54,0,0,1-2.38,4.4A3.37,3.37,0,0,1,120.18,70.83ZM105.05,59a1.16,1.16,0,0,0-1.18.84L101.74,67h0a1.21,1.21,0,0,0,.19,1,1.16,1.16,0,0,0,.94.47h17.26a1.18,1.18,0,0,0,1.14-1.52l-2.13-7.09A1.17,1.17,0,0,0,118,59Z"/><path class="cls-10" d="M112.46,54.81l2.13-7.08A2.36,2.36,0,0,1,116.85,46h13a2.36,2.36,0,0,1,2.26,1.69l2.13,7.08a2.37,2.37,0,0,1-2.24,3H114.73a2.37,2.37,0,0,1-2.37-2.36A2.6,2.6,0,0,1,112.46,54.81Z"/><path class="cls-11" d="M112.46,54.81a.21.21,0,0,0,0,.11l18.19-8.74a2.56,2.56,0,0,0-.78-.14h-13a2.37,2.37,0,0,0-2.27,1.69Z"/><path class="cls-11" d="M132.55,49.13l-.26-.85-18.88,9.11a2.27,2.27,0,0,0,1.38.46h5l13.47-6.47Z"/><path class="cls-3" d="M132,59H114.73a3.55,3.55,0,0,1-3.54-3.55,3.48,3.48,0,0,1,.15-1l2.12-7.08a3.55,3.55,0,0,1,3.39-2.53h13a3.55,3.55,0,0,1,3.4,2.53l2.12,7.08A3.54,3.54,0,0,1,133,58.88,3.41,3.41,0,0,1,132,59ZM116.85,47.22a1.18,1.18,0,0,0-1.18.84l-2.12,7.08h0a1.14,1.14,0,0,0,.19,1,1.16,1.16,0,0,0,.94.47h17.26a1.18,1.18,0,0,0,1.13-1.52L131,48.05a1.18,1.18,0,0,0-1.18-.84Z"/><polygon class="cls-12" points="20.91 121.87 33.72 128.76 15.93 126.85 20.91 121.87"/><polygon class="cls-12" points="15.93 119.19 20.91 121.87 15.93 126.85 15.93 119.19"/><polygon class="cls-12" points="20.04 115.08 21.13 121.64 20.91 121.87 15.93 119.19 20.04 115.08"/><polygon class="cls-8" points="20.04 115.08 26.6 116.18 21.13 121.64 20.04 115.08"/><polygon class="cls-12" points="24.14 110.97 26.82 115.95 26.6 116.18 20.04 115.08 24.14 110.97"/><polygon class="cls-13" points="26.6 116.18 26.82 115.95 33.72 128.76 20.91 121.87 21.13 121.64 26.6 116.18"/><polygon class="cls-12" points="31.8 110.97 33.72 128.76 26.82 115.95 31.8 110.97"/><polygon class="cls-12" points="31.8 110.97 26.82 115.95 24.14 110.97 31.8 110.97"/><path class="cls-3" d="M15.93,128a1.18,1.18,0,0,1-1.18-1.18v-7.61a1.19,1.19,0,0,1,.35-.84l8.26-8.27a1.22,1.22,0,0,1,.83-.34h7.66A1.18,1.18,0,0,1,33,111a1.16,1.16,0,0,1-.35.84L16.77,127.69A1.21,1.21,0,0,1,15.93,128Zm1.18-8.36V124l11.8-11.81H24.63Z"/><path class="cls-3" d="M33.72,129.94a1.19,1.19,0,0,1-.56-.14l-17.79-9.57a1.21,1.21,0,0,1-.45-1.63,1.19,1.19,0,0,1,1.63-.45l17.78,9.57a1.18,1.18,0,0,1-.55,2.22Z"/><path class="cls-3" d="M21.13,122.78a1.18,1.18,0,0,1-1.18-1l-1.1-6.58a1.2,1.2,0,0,1,2.37-.38l1.08,6.57a1.18,1.18,0,0,1-1,1.36Z"/><path class="cls-3" d="M26.55,117.36h-.19l-6.56-1.09a1.2,1.2,0,0,1,.38-2.36l6.57,1.1a1.18,1.18,0,0,1-.2,2.36Z"/><path class="cls-3" d="M33.72,129.94a1.17,1.17,0,0,1-1-.62L23.1,111.54a1.2,1.2,0,0,1,.45-1.63,1.18,1.18,0,0,1,1.63.45l9.64,17.85a1.18,1.18,0,0,1-.49,1.59,1.07,1.07,0,0,1-.55.14Z"/><path class="cls-3" d="M33.72,129.94h-.08L15.81,128a1.18,1.18,0,0,1-1.05-1.3h0a1.18,1.18,0,0,1,1.3-1l16.32,1.75L30.64,111.1a1.19,1.19,0,0,1,2.36-.25l1.9,17.83a1.21,1.21,0,0,1-.34,1A1.18,1.18,0,0,1,33.72,129.94Z"/><path class="cls-8" d="M29,112.81a4.23,4.23,0,0,0,2.85,2.88c1.42.48,1.42,1,0,1.43A4.24,4.24,0,0,0,29,120c-.48,1.43-.95,1.43-1.42,0a4.3,4.3,0,0,0-2.85-2.85c-1.43-.47-1.43-1,0-1.43a4.29,4.29,0,0,0,2.85-2.84C28,111.39,28.5,111.39,29,112.81Z"/><polygon class="cls-14" points="125.35 112.47 115.58 126.99 119.97 105.92 125.35 112.47"/><polygon class="cls-14" points="129.15 106.82 125.35 112.47 119.97 105.92 129.15 106.82"/><polygon class="cls-14" points="133.58 112.22 125.59 112.75 125.35 112.47 129.15 106.82 133.58 112.22"/><polygon class="cls-8" points="133.58 112.22 131.49 119.96 125.59 112.75 133.58 112.22"/><polygon class="cls-14" points="138.01 117.62 131.73 120.25 131.49 119.96 133.58 112.22 138.01 117.62"/><polygon class="cls-15" points="131.49 119.96 131.73 120.25 115.58 126.99 125.35 112.47 125.59 112.75 131.49 119.96"/><polygon class="cls-14" points="137.1 126.8 115.58 126.99 131.73 120.25 137.1 126.8"/><polygon class="cls-14" points="137.1 126.8 131.73 120.25 138.01 117.62 137.1 126.8"/><path class="cls-3" d="M137.1,128a1.17,1.17,0,0,1-.91-.42l-17.13-20.89a1.18,1.18,0,0,1,1-1.92l9.17.91a1.19,1.19,0,0,1,.81.42l8.85,10.8a1.18,1.18,0,0,1,.27.87l-.91,9.17a1.15,1.15,0,0,1-.84,1A.87.87,0,0,1,137.1,128Zm-14.4-20.54L136.2,124l.58-5.9-8.26-10Z"/><path class="cls-3" d="M115.58,128.17a1.18,1.18,0,0,1-1-1.84h0l13.57-20.16a1.18,1.18,0,0,1,2,1.3h0l-13.57,20.16A1.18,1.18,0,0,1,115.58,128.17Z"/><path class="cls-3" d="M125.59,113.94a1.19,1.19,0,0,1-.09-2.37h0l8-.53a1.18,1.18,0,1,1,.15,2.36l-8,.54Z"/><path class="cls-3" d="M131.49,121.14a1.6,1.6,0,0,1-.31,0,1.2,1.2,0,0,1-.84-1.45h0l2.09-7.73a1.17,1.17,0,0,1,1.41-.88,1.19,1.19,0,0,1,.89,1.42l0,.08-2.07,7.73A1.2,1.2,0,0,1,131.49,121.14Z"/><path class="cls-3" d="M115.58,128.17a1.18,1.18,0,0,1-1.21-1.15,1.19,1.19,0,0,1,.75-1.13l22.43-9.36a1.19,1.19,0,0,1,.92,2.19L116,128.08A1.22,1.22,0,0,1,115.58,128.17Z"/><path class="cls-3" d="M115.58,128.17a1.18,1.18,0,0,1-1.21-1.15,1.33,1.33,0,0,1,0-.28l4.4-21.07a1.21,1.21,0,1,1,2.36.49l-4.1,19.64,20.07-.19h0a1.18,1.18,0,0,1,0,2.36l-21.52.2Z"/><path class="cls-8" d="M123,108.37a4.58,4.58,0,0,0,3,3c1.5.49,1.5,1,0,1.5a4.54,4.54,0,0,0-3,3c-.51,1.51-1,1.51-1.51,0a4.51,4.51,0,0,0-3-3c-1.51-.5-1.51-1,0-1.5a4.52,4.52,0,0,0,3-3C122,106.86,122.48,106.86,123,108.37Z"/><path class="cls-3" d="M111.82,120.12a1.15,1.15,0,0,1-.82-.34l-3.54-3.54a1.18,1.18,0,0,1-.25-1.3l2.89-6.75a1.16,1.16,0,0,1,.86-.7,1.17,1.17,0,0,1,1.05.33l7.43,7.41a1.23,1.23,0,0,1,.32,1.07,1.22,1.22,0,0,1-.7.86l-6.74,2.89A1.21,1.21,0,0,1,111.82,120.12Zm-2.16-5,2.43,2.44,4.42-1.85-5-5Z"/><polygon class="cls-5" points="118.58 116.05 118.58 127.17 111.82 124.28 111.82 118.94 118.58 116.05"/><polygon class="cls-5" points="118.58 127.17 111.16 134.58 108.27 127.83 111.82 124.28 118.58 127.17"/><polygon class="cls-5" points="108.27 127.83 111.16 134.58 100.04 134.58 102.93 127.83 108.27 127.83"/><polygon class="cls-5" points="102.98 127.82 100.09 134.56 92.67 127.14 99.42 124.25 102.98 127.82"/><polygon class="cls-5" points="99.37 118.92 99.37 124.25 92.63 127.14 92.63 116.03 99.37 118.92"/><polygon class="cls-5" points="100.04 108.63 102.93 115.38 99.37 118.94 92.63 116.05 100.04 108.63"/><polygon class="cls-5" points="118.64 116.05 111.88 118.94 108.33 115.38 111.22 108.63 118.64 116.05"/><polygon class="cls-8" points="111.16 108.63 108.27 115.38 102.93 115.38 100.04 108.63 111.16 108.63"/><polygon class="cls-6" points="111.82 118.94 111.82 124.28 108.27 127.83 102.93 127.83 99.37 124.28 99.37 118.94 102.93 115.38 108.27 115.38 111.82 118.94"/><path class="cls-3" d="M111.16,135.76H100a1.17,1.17,0,0,1-.84-.34L91.79,128a1.22,1.22,0,0,1-.36-.84V116.05a1.2,1.2,0,0,1,.36-.84l7.41-7.41a1.22,1.22,0,0,1,.84-.35h11.12a1.19,1.19,0,0,1,.84.35l7.41,7.41a1.15,1.15,0,0,1,.35.84v11.12a1.27,1.27,0,0,1-.35.84L112,135.42A1.21,1.21,0,0,1,111.16,135.76Zm-10.62-2.36h10.14l6.73-6.73V116.53l-6.74-6.74H100.53l-6.69,6.74v10.14Z"/><path class="cls-3" d="M108.27,129h-5.34a1.2,1.2,0,0,1-.82-.33l-3.54-3.54a1.16,1.16,0,0,1-.35-.84V119a1.18,1.18,0,0,1,.35-.9l3.54-3.55a1.19,1.19,0,0,1,.84-.35h5.33a1.18,1.18,0,0,1,.83.35l3.54,3.55a1.17,1.17,0,0,1,.34.83v5.34a1.21,1.21,0,0,1-.34.84l-3.54,3.54A1.18,1.18,0,0,1,108.27,129Zm-4.85-2.36h4.35l2.87-2.86v-4.37l-2.87-2.86h-4.35l-2.87,2.86v4.37Z"/><path class="cls-3" d="M102.93,116.56a1.18,1.18,0,0,1-1.08-.71L99,109.09a1.18,1.18,0,0,1,2.16-.93h0l2.88,6.75a1.19,1.19,0,0,1-.62,1.55A1,1,0,0,1,102.93,116.56Z"/><path class="cls-3" d="M108.27,116.56a1.1,1.1,0,0,1-.47-.1,1.19,1.19,0,0,1-.62-1.55l2.9-6.75a1.18,1.18,0,1,1,2.17.93l-2.89,6.76A1.2,1.2,0,0,1,108.27,116.56Z"/><path class="cls-3" d="M99.37,120.12a1.18,1.18,0,0,1-.46-.09l-6.75-2.9a1.17,1.17,0,0,1-.62-1.55h0a1.19,1.19,0,0,1,1.55-.62l6.74,2.89a1.18,1.18,0,0,1,.62,1.55A1.16,1.16,0,0,1,99.37,120.12Z"/><path class="cls-3" d="M92.66,128.35a1.18,1.18,0,0,1-1.18-1.18,1.21,1.21,0,0,1,.72-1.09L99,123.19a1.18,1.18,0,0,1,.92,2.17l-6.75,2.9A1.27,1.27,0,0,1,92.66,128.35Z"/><path class="cls-3" d="M111.82,120.12a1.16,1.16,0,0,1-1.08-.72,1.18,1.18,0,0,1,.62-1.55l6.76-2.89a1.18,1.18,0,0,1,.93,2.17h0L112.3,120A1.28,1.28,0,0,1,111.82,120.12Z"/><path class="cls-3" d="M118.63,128.35a1.25,1.25,0,0,1-.46-.09l-6.75-2.9a1.18,1.18,0,0,1,.93-2.17h0l6.75,2.89a1.18,1.18,0,0,1-.47,2.27Z"/><path class="cls-3" d="M111.16,135.76a1.16,1.16,0,0,1-1.08-.72l-2.9-6.74a1.19,1.19,0,0,1,2.18-.93l2.89,6.75a1.18,1.18,0,0,1-1.09,1.64Z"/><path class="cls-3" d="M100,135.76a1.27,1.27,0,0,1-.47-.09,1.17,1.17,0,0,1-.61-1.55l2.89-6.75a1.18,1.18,0,1,1,2.23.75.75.75,0,0,1-.07.18L101.13,135A1.19,1.19,0,0,1,100,135.76Z"/><path class="cls-8" d="M111.1,126.22a4.39,4.39,0,0,0,2.91,2.91c1.45.48,1.45,1,0,1.46a4.41,4.41,0,0,0-2.91,2.91c-.48,1.45-1,1.45-1.46,0a4.39,4.39,0,0,0-2.91-2.91c-1.45-.48-1.45-1,0-1.46a4.37,4.37,0,0,0,2.91-2.91C110.12,124.77,110.62,124.77,111.1,126.22Z"/><path class="cls-3" d="M115.09,135.76H95a1.18,1.18,0,0,1,0-2.36h20.07a1.18,1.18,0,0,1,0,2.36Z"/><path class="cls-3" d="M119.23,135.76h-.6a1.18,1.18,0,0,1,0-2.36h.6a1.18,1.18,0,0,1,0,2.36Z"/><path class="cls-3" d="M91.48,135.76H89.62a1.18,1.18,0,1,1,0-2.36h1.86a1.18,1.18,0,0,1,0,2.36Z"/><path class="cls-3" d="M40.72,129.86H13.57a1.18,1.18,0,1,1,0-2.36H40.72a1.18,1.18,0,0,1,0,2.36Z"/><path class="cls-3" d="M10,129.86H9.34a1.18,1.18,0,1,1,0-2.36H10a1.18,1.18,0,0,1,0,2.36Z"/><path class="cls-3" d="M139.88,128.68H112.73a1.18,1.18,0,0,1,0-2.36h27.15a1.18,1.18,0,1,1,0,2.36Z"/></g><path class="cls-16" d="M43.36,115a2.28,2.28,0,0,0-3.21,0l-5.65,7.28a2.12,2.12,0,0,0-.24,2.93c7.5,7.5,12.54,12.61,16.36,16.37a2.3,2.3,0,0,0,3.21,0l6.44-6.46a2.25,2.25,0,0,0,0-3.17l0,0Z"/><path class="cls-17" d="M60.27,132,57,128.68a2.26,2.26,0,0,1,0,3.19l0,0-6.43,6.46a2.3,2.3,0,0,1-3.21,0c-.88-.86,1.5,1.53,3.23,3.23a2.28,2.28,0,0,0,3.21,0l6.44-6.45a2.25,2.25,0,0,0,0-3.18Z"/><path class="cls-11" d="M38,125.82l5.66-7.27a2.28,2.28,0,0,1,3.21,0L43.34,115a2.28,2.28,0,0,0-3.21,0l-5.66,7.27a2.14,2.14,0,0,0-.23,2.94C40.09,131,37.18,126.61,38,125.82Z"/><path class="cls-18" d="M87.66,94.44c-1.71,2.37-5.91,5.6-9.21,8a24.23,24.23,0,0,1-4.72,2.88v-.14C78,102.63,82,92.66,82,92.66c-.35-1.18,1.72-6.35,4.72-8.89s8.11-3.29,8.11-.9l.17.24C91.31,85.72,88.8,90.51,87.66,94.44Z"/><path class="cls-18" d="M95.37,82.84c3.64-2.36,7.94-.74,4.88,3.06-4,4.92-3.83,8.92-5.56,12.37-.27,3.86-6,8.12-8.34,10.91a48,48,0,0,1-11.5,10.47A176.46,176.46,0,0,0,59,130.7l-12.4-12.37.56-.57a19.42,19.42,0,0,1,3.76-12.18,37,37,0,0,0,4.31-8.27c1.8-9.81-.52-11.5.93-14.34.78-1.51,4-2.36,5.91-.25a11.51,11.51,0,0,1,2.24,8.1c-.43,5.64-1.88,11.45,1.18,13.73a7.41,7.41,0,0,0,8.12.81,23.47,23.47,0,0,0,4.72-2.88c3.27-2.36,7.5-5.6,9.21-8,1.18-4,3.65-8.76,7.27-11.33Z"/><g class="cls-19"><path class="cls-20" d="M92.31,95.12C92,99,85.32,103,83,105.8a48,48,0,0,1-11.5,10.47,180.66,180.66,0,0,0-15.83,11L59,130.7a176.46,176.46,0,0,1,15.83-11,48,48,0,0,0,11.5-10.47c2.36-2.79,8.07-7.09,8.34-10.91a112.34,112.34,0,0,0,5.56-12.37C103,78.65,94.56,88.92,92.31,95.12Z"/></g><g class="cls-21"><path class="cls-8" d="M78.77,105.36a23.76,23.76,0,0,0,4.72-2.88c3.28-2.36,7.5-5.6,9.21-8,1.18-4,3.65-8.76,7.27-11.33l.45-.31.49-.27c-.89-1.1-3.35-1.18-5.57.27l-.43.31c-3.63,2.57-6.13,7.36-7.28,11.33-1.71,2.36-5.9,5.6-9.2,8a23.83,23.83,0,0,1-4.73,2.88,10,10,0,0,1-.94.36A7.54,7.54,0,0,0,78.77,105.36Z"/><path class="cls-8" d="M49.24,121.29l1.47-1.7a6.63,6.63,0,0,0,1.59-3.81,19.73,19.73,0,0,1,3.77-10.2,38,38,0,0,0,4.29-8.27c1.8-9.81-.52-11.5.94-14.34a1.74,1.74,0,0,1,.47-.58c-1.93-1.59-4.81-.84-5.54.58-1.45,2.84.86,4.53-.93,14.34A37.82,37.82,0,0,1,51,105.58a19.5,19.5,0,0,0-3.78,12.18l-.55.57Z"/></g><path class="cls-22" d="M86.65,83.82a13,13,0,0,0-2.36,2.71h7.27a15.84,15.84,0,0,1,3.37-3.37l-.17-.24C94.76,80.51,89.71,81.27,86.65,83.82Z"/><path class="cls-23" d="M59,131.91a1.15,1.15,0,0,1-.84-.35,1.17,1.17,0,0,1,0-1.66l.19-.16a178.08,178.08,0,0,1,15.91-11.09,46.36,46.36,0,0,0,11.22-10.24c.67-.79,1.58-1.68,2.55-2.62,2.36-2.36,5.35-5.23,5.51-7.6a1.37,1.37,0,0,1,.13-.45,23,23,0,0,0,1.29-3.6,23.88,23.88,0,0,1,4.4-9c.68-.84,1-1.6.69-1.88s-2.14-.65-4,.55l-.36.25c-3.54,2.47-5.82,7.15-6.85,10.72a1.29,1.29,0,0,1-.18.35c-1.7,2.37-5.55,5.4-9.44,8.27a24.63,24.63,0,0,1-5,3,8.61,8.61,0,0,1-9.28-1c-3-2.24-2.52-6.74-2-11.51.12-1.07.24-2.17.32-3.27a10.37,10.37,0,0,0-1.92-7.19,2.82,2.82,0,0,0-2.45-.82,2.11,2.11,0,0,0-1.56.82A5.29,5.29,0,0,0,57,86.78a35.34,35.34,0,0,1-.54,10.76,38.85,38.85,0,0,1-4.55,8.71,18.46,18.46,0,0,0-3.54,11.37,1.19,1.19,0,0,1-1.07,1.29A1.2,1.2,0,0,1,46,117.83a20.46,20.46,0,0,1,4-13A37.43,37.43,0,0,0,54.14,97a32.71,32.71,0,0,0,.5-10,7.38,7.38,0,0,1,.52-4.54,4.29,4.29,0,0,1,3.34-2.09A5.06,5.06,0,0,1,63,81.91c1.79,2,2.81,5.58,2.5,9-.08,1.18-.21,2.26-.33,3.36-.45,4.07-.87,7.92,1,9.33a6.27,6.27,0,0,0,7,.69,22.21,22.21,0,0,0,4.56-2.75c2.48-1.83,7.08-5.19,8.83-7.59.65-2.14,2.86-8.36,7.67-11.81l.48-.33c2.61-1.66,5.63-1.72,7.08-.15.41.47,1.59,2.19-.6,4.93a21.25,21.25,0,0,0-4,8.17,25.38,25.38,0,0,1-1.35,3.78c-.36,3.19-3.46,6.21-6.21,8.89a33.81,33.81,0,0,0-2.36,2.45,48.77,48.77,0,0,1-11.8,10.72,183.24,183.24,0,0,0-15.72,11l-.1.08A1.17,1.17,0,0,1,59,131.91Z"/><path class="cls-23" d="M73.66,106.4a1.18,1.18,0,0,1-.62-2.19c3.13-1.87,6.47-8.81,7.64-11.68-.11-2.25,2.36-7.2,5.22-9.63,2.63-2.17,6.56-3.21,8.58-2.26a2.43,2.43,0,0,1,1.46,2.27,1.18,1.18,0,0,1-2.36,0c0-.09-.19-.21-.59-.25a8.71,8.71,0,0,0-5.58,2.06C84.65,87,82.93,91.54,83,92.4a1,1,0,0,1,0,.72c-.17.43-4.16,10.38-8.74,13.12A1.16,1.16,0,0,1,73.66,106.4Z"/><path class="cls-23" d="M52.24,143.44a3.56,3.56,0,0,1-2.44-1c-2.36-2.37-5.34-5.29-9-9l-7.36-7.38a3.26,3.26,0,0,1,.19-4.54l5.61-7.22.09-.1a3.39,3.39,0,0,1,2.45-1h0a3.37,3.37,0,0,1,2.45,1l3.28,3.29h0l13.62,13.61a3.44,3.44,0,0,1,0,4.86l0,0-6.43,6.45A3.48,3.48,0,0,1,52.24,143.44ZM41,115.82,35.43,123l-.09.1c-.36.36-.54,1-.24,1.28l7.35,7.38c3.69,3.69,6.59,6.62,9,9a1.12,1.12,0,0,0,1.56,0l6.43-6.45a1.08,1.08,0,0,0,.32-.78,1,1,0,0,0-.32-.75L42.52,115.87a1,1,0,0,0-.76-.32h0A1.11,1.11,0,0,0,41,115.82Z"/><path class="cls-23" d="M41.76,122.66a1,1,0,0,1-.45-.1,1.27,1.27,0,0,1-.64-.63,1.09,1.09,0,0,1,0-.9,1,1,0,0,1,.26-.39,1.18,1.18,0,0,1,1.67,0,1.16,1.16,0,0,1,.26.39,1.38,1.38,0,0,1,.08.45,1.22,1.22,0,0,1-.34.83,1,1,0,0,1-.38.25A1.06,1.06,0,0,1,41.76,122.66Z"/><path class="cls-23" d="M89.12,96.88a1.82,1.82,0,0,1-.33,0,3.32,3.32,0,0,1-2.28-2.06A1.18,1.18,0,1,1,88.74,94a1.6,1.6,0,0,1,.05.21,1.73,1.73,0,0,0,.66.37A1.19,1.19,0,1,1,89.12,97Z"/><path class="cls-23" d="M62.85,108.22A1.18,1.18,0,0,1,61.67,107a1.16,1.16,0,0,1,.17-.6,9.94,9.94,0,0,0,.78-4.72,1.19,1.19,0,1,1,2.36-.37,11.62,11.62,0,0,1-1.08,6.33A1.17,1.17,0,0,1,62.85,108.22Z"/><path class="cls-23" d="M82.79,94.22a3.65,3.65,0,0,1-.93-.12,1.18,1.18,0,0,1,.53-2.3l.12,0a3.32,3.32,0,0,0,.89,0,1.2,1.2,0,1,1,.38,2.36A6.52,6.52,0,0,1,82.79,94.22Z"/><path class="cls-23" d="M57.74,92.08a3.21,3.21,0,0,1-2.21-.89,1.18,1.18,0,0,1,.06-1.67h0a1.18,1.18,0,0,1,1.64,0,.86.86,0,0,0,.69.16A1.18,1.18,0,0,1,58.34,92,2.89,2.89,0,0,1,57.74,92.08Z"/><path class="cls-24" d="M132.66,81.46H17.25a4.73,4.73,0,0,1-4.58-3.54L11.2,72H138.7l-1.46,5.91A4.73,4.73,0,0,1,132.66,81.46Z"/><path class="cls-9" d="M126.62,72l-.9,9.45h7a4.72,4.72,0,0,0,4.59-3.54L138.7,72Z"/><polygon class="cls-11" points="35.41 72.01 36.91 81.46 53.11 81.46 52.52 72.01 35.41 72.01"/><polygon class="cls-11" points="57.25 72.01 57.74 81.46 65.71 81.46 65.51 72.01 57.25 72.01"/><path class="cls-23" d="M132.66,82.64H17.25a5.91,5.91,0,0,1-5.73-4.48L10,72.3a1.22,1.22,0,0,1,.22-1,1.17,1.17,0,0,1,1-.46H138.7A1.18,1.18,0,0,1,139.92,72a1.17,1.17,0,0,1,0,.32l-1.46,5.9A5.9,5.9,0,0,1,132.66,82.64ZM12.72,73.19l1.09,4.41a3.55,3.55,0,0,0,3.44,2.68H132.66a3.56,3.56,0,0,0,3.44-2.68l1.09-4.41Z"/><path class="cls-23" d="M141.07,73.19H8.84a1.18,1.18,0,0,1,0-2.36H141.07a1.18,1.18,0,0,1,0,2.36Z"/><path class="cls-25" d="M137.8,76.74H12.09a1.19,1.19,0,0,1,0-2.37H137.8a1.19,1.19,0,0,1,0,2.37Z"/><rect class="cls-5" x="34.82" y="21.25" width="79.1" height="40.14"/><rect class="cls-26" x="34.82" y="41.32" width="79.1" height="20.07"/><path class="cls-6" d="M109.19,51.45A5.23,5.23,0,0,0,104,56.67H44.76a5.22,5.22,0,0,0-5.22-5.22V31.19A5.22,5.22,0,0,0,44.76,26H104a5.23,5.23,0,0,0,5.23,5.22Z"/><path class="cls-3" d="M113.91,62.57H34.82a1.18,1.18,0,0,1-1.18-1.18V21.25a1.18,1.18,0,0,1,1.18-1.18h79.09a1.18,1.18,0,0,1,1.18,1.18V61.39A1.18,1.18,0,0,1,113.91,62.57ZM36,60.21h76.73V22.43H36Z"/><path class="cls-26" d="M39,41.32V51.94a5.31,5.31,0,0,1,5.31,5.29v0h60.21a5.3,5.3,0,0,1,5.29-5.32h0V41.32Z"/><path class="cls-3" d="M104,57.85H44.76a1.18,1.18,0,0,1-1.18-1.18,4,4,0,0,0-4-4,1.18,1.18,0,0,1-1.18-1.18V31.19A1.18,1.18,0,0,1,39.54,30a4,4,0,0,0,4-4,1.18,1.18,0,0,1,1.18-1.18H104A1.18,1.18,0,0,1,105.14,26a4.06,4.06,0,0,0,4,4,1.18,1.18,0,0,1,1.18,1.18V51.45a1.18,1.18,0,0,1-1.18,1.18,4.05,4.05,0,0,0-4,4A1.18,1.18,0,0,1,104,57.85ZM45.83,55.49H102.9a6.38,6.38,0,0,1,5.11-5.1V32.26a6.42,6.42,0,0,1-5.11-5.11H45.83a6.42,6.42,0,0,1-5.11,5.11V50.39A6.38,6.38,0,0,1,45.83,55.49Z"/><ellipse class="cls-5" cx="74.36" cy="43.09" rx="11.33" ry="14.17"/><path class="cls-3" d="M74.36,58.44c-6.9,0-12.51-6.89-12.51-15.35s5.61-15.35,12.51-15.35,12.52,6.89,12.52,15.35S81.26,58.44,74.36,58.44Zm0-28.34c-5.59,0-10.15,5.84-10.15,13s4.56,13,10.15,13,10.16-5.82,10.16-13S80,30.1,74.36,30.1Z"/><circle class="cls-5" cx="51.34" cy="41.32" r="2.36"/><path class="cls-3" d="M51.34,44.86a3.54,3.54,0,1,1,3.55-3.54A3.54,3.54,0,0,1,51.34,44.86Zm0-4.72a1.18,1.18,0,1,0,1.18,1.18A1.18,1.18,0,0,0,51.34,40.14Z"/><circle class="cls-3" cx="38.95" cy="25.38" r="0.59"/><path class="cls-3" d="M39,27.15a1.77,1.77,0,1,1,1.77-1.77A1.77,1.77,0,0,1,39,27.15Zm0-2.36a.59.59,0,0,0-.59.59A.58.58,0,0,0,39,26a.59.59,0,0,0,.59-.59A.6.6,0,0,0,39,24.79Z"/><circle class="cls-3" cx="38.95" cy="57.26" r="0.59"/><path class="cls-3" d="M39,59a1.77,1.77,0,1,1,1.77-1.77A1.77,1.77,0,0,1,39,59Zm0-2.36a.58.58,0,0,0-.59.59.59.59,0,0,0,.59.59.59.59,0,0,0,0-1.18Z"/><circle class="cls-3" cx="109.78" cy="25.38" r="0.59"/><path class="cls-3" d="M109.78,27.15a1.77,1.77,0,1,1,1.77-1.77A1.77,1.77,0,0,1,109.78,27.15Zm0-2.36a.59.59,0,0,0-.59.59.59.59,0,0,0,1.18,0A.59.59,0,0,0,109.78,24.79Z"/><circle class="cls-3" cx="109.78" cy="57.26" r="0.59"/><path class="cls-3" d="M109.78,59a1.77,1.77,0,1,1,1.77-1.77A1.77,1.77,0,0,1,109.78,59Zm0-2.36a.6.6,0,0,0-.59.59.59.59,0,0,0,1.18,0A.58.58,0,0,0,109.78,56.67Z"/><path class="cls-6" d="M79,50.89l-.64-.13a.76.76,0,0,1-.65-.79V48.63c0-1.08,1.3-2.36,1.37-3.89a6.27,6.27,0,0,0,.67-2.48,1.29,1.29,0,0,0-.3-.94c.1-.57.2-1.18.3-1.77.45-2.47-.41-4.24-2.57-5-.79-.28-4-.85-5.23-2-.44-.41-.14,2-.54,2.15a4,4,0,0,0-2.52,4.88c.11.61.2,1.18.31,1.77a1.25,1.25,0,0,0-.31.94,6.27,6.27,0,0,0,.67,2.48c.08,1.51,1.37,2.73,1.37,3.89V50a.76.76,0,0,1-.65.79l-.7.15a12.36,12.36,0,0,0-3.86,1.41,10.86,10.86,0,0,0,7.41,4.88c.38,0,.77.07,1.18.07h.11a10.13,10.13,0,0,0,1.09-.07A10.88,10.88,0,0,0,83,52.29,12.43,12.43,0,0,0,79,50.89Z"/><path class="cls-3" d="M74.34,58.44h-.11a7.91,7.91,0,0,1-1.18-.09A11.94,11.94,0,0,1,64.79,53a1.18,1.18,0,0,1-.18-.93,1.21,1.21,0,0,1,.57-.76,14.12,14.12,0,0,1,4.21-1.54l.41-.09v-1a3.93,3.93,0,0,0-.49-1.18,6.91,6.91,0,0,1-.86-2.36,7.09,7.09,0,0,1-.7-2.78A3,3,0,0,1,68,41.1a1.06,1.06,0,0,0-.08-.49l-.15-.83a5.05,5.05,0,0,1,2.73-5.9v-.43c0-.83.08-1.68.91-2a1.25,1.25,0,0,1,1.37.3,11.33,11.33,0,0,0,3.81,1.46c.44.11.79.2,1,.27,2.68,1,3.9,3.26,3.35,6.34l-.14.8a1,1,0,0,1-.09.51,3,3,0,0,1,.24,1.18,7.09,7.09,0,0,1-.7,2.79,7.13,7.13,0,0,1-.88,2.45,4,4,0,0,0-.46,1.18v1l.33.08a13.47,13.47,0,0,1,4.3,1.52A1.18,1.18,0,0,1,84,53a.33.33,0,0,1-.06.1,12,12,0,0,1-8.26,5.4c-.41,0-.83.07-1.18.09Zm-6.76-5.7A9.23,9.23,0,0,0,73.34,56a8.42,8.42,0,0,0,1,.07h.1a7.45,7.45,0,0,0,1-.07,9.19,9.19,0,0,0,5.76-3.3,12.7,12.7,0,0,0-2.36-.66h0l-.67-.11a1.92,1.92,0,0,1-1.57-2V48.66a4.76,4.76,0,0,1,.76-2.25A4.85,4.85,0,0,0,78,44.67a1.25,1.25,0,0,1,.12-.46,5.33,5.33,0,0,0,.56-2v-.19a1,1,0,0,1-.28-1,5.32,5.32,0,0,1,.17-.94l.14-.84c.34-1.92-.25-3.12-1.82-3.68q-.37-.12-.78-.21a21.66,21.66,0,0,1-3.23-1A1.62,1.62,0,0,1,72,35.74a2.79,2.79,0,0,0-1.86,3.49v.05l.12.86a4.69,4.69,0,0,0,.16.91,1.18,1.18,0,0,1-.29,1v.15a5.14,5.14,0,0,0,.56,2,1.25,1.25,0,0,1,.12.46,4.26,4.26,0,0,0,.63,1.72,5,5,0,0,1,.75,2.28V49.9a2,2,0,0,1-1.61,2l-.7.15A12,12,0,0,0,67.58,52.74Z"/><path class="cls-5" d="M89.12,56.67H81.44a13.16,13.16,0,0,0-7.09-1.77,13.12,13.12,0,0,0-7.08,1.77H59.61v4.72H89.12Z"/><path class="cls-3" d="M89.12,62.57H59.61a1.18,1.18,0,0,1-1.18-1.18V56.67a1.18,1.18,0,0,1,1.18-1.18h7.33a14.58,14.58,0,0,1,7.42-1.77,14.76,14.76,0,0,1,7.42,1.77h7.34a1.18,1.18,0,0,1,1.18,1.18v4.72A1.18,1.18,0,0,1,89.12,62.57ZM60.79,60.21H87.94V57.85h-6.5a1.14,1.14,0,0,1-.65-.2,12.15,12.15,0,0,0-6.43-1.57,12.14,12.14,0,0,0-6.42,1.57,1.17,1.17,0,0,1-.66.2H60.79Z"/><path class="cls-3" d="M56.64,48.4H46A1.18,1.18,0,0,1,46,46H56.64a1.18,1.18,0,0,1,0,2.36Z"/><circle class="cls-5" cx="97.38" cy="41.32" r="2.36"/><path class="cls-3" d="M97.38,44.86a3.54,3.54,0,1,1,3.55-3.54A3.54,3.54,0,0,1,97.38,44.86Zm0-4.72a1.18,1.18,0,1,0,1.19,1.18A1.18,1.18,0,0,0,97.38,40.14Z"/><path class="cls-3" d="M102.7,48.4H92.07a1.18,1.18,0,1,1,0-2.36H102.7a1.18,1.18,0,0,1,0,2.36Z"/><rect class="cls-5" x="34.82" y="61.4" width="79.1" height="3.53"/><path class="cls-3" d="M113.91,66.11H34.82a1.18,1.18,0,0,1-1.18-1.18V61.39a1.18,1.18,0,0,1,1.18-1.18h79.09a1.18,1.18,0,0,1,1.18,1.18v3.54A1.18,1.18,0,0,1,113.91,66.11ZM36,63.75h76.73V62.57H36Z"/><rect class="cls-5" x="34.82" y="64.94" width="79.1" height="3.53"/><path class="cls-3" d="M113.91,69.65H34.82a1.18,1.18,0,0,1-1.18-1.18V64.93a1.18,1.18,0,0,1,1.18-1.18h79.09a1.18,1.18,0,0,1,1.18,1.18v3.54A1.18,1.18,0,0,1,113.91,69.65ZM36,67.29h76.73V66.11H36Z"/><rect class="cls-5" x="34.82" y="68.48" width="79.1" height="3.53"/><path class="cls-3" d="M113.91,73.19H34.82A1.17,1.17,0,0,1,33.64,72V68.47a1.18,1.18,0,0,1,1.18-1.18h79.09a1.18,1.18,0,0,1,1.18,1.18V72A1.18,1.18,0,0,1,113.91,73.19ZM36,70.83h76.73V69.65H36Z"/><rect class="cls-7" x="66.69" y="20.07" width="15.35" height="51.94"/><rect class="cls-8" x="66.69" y="20.07" width="15.35" height="5.9"/><rect class="cls-9" x="66.69" y="60.22" width="15.35" height="11.81"/><path class="cls-3" d="M82,73.19H66.69A1.18,1.18,0,0,1,65.51,72V20.07a1.18,1.18,0,0,1,1.18-1.18H82a1.18,1.18,0,0,1,1.18,1.18V72A1.18,1.18,0,0,1,82,73.19ZM67.87,70.83h13V21.25h-13Z"/></g></g></svg>