<svg xmlns="http://www.w3.org/2000/svg" viewBox="0 0 196.99 28.84"><defs><style>.cls-1{fill:#4a4aa8;}</style></defs><title>Asset 2</title><g id="Layer_2" data-name="Layer 2"><g id="Artwork"><path class="cls-1" d="M15.55,4.3a8.35,8.35,0,0,1,2.67,6.54,10.86,10.86,0,0,1-.92,4.44,7.69,7.69,0,0,1-3,3.4A9.71,9.71,0,0,1,9,20H5.22V28.4H0V1.91H8Q12.89,1.91,15.55,4.3Zm-4.25,10a3.84,3.84,0,0,0,1.3-1.56A4.38,4.38,0,0,0,13,11a5.06,5.06,0,0,0-.83-2.72C11.62,7.39,10.55,7,9,7H5.22v8H8.93A3.85,3.85,0,0,0,11.3,14.27Z"/><path class="cls-1" d="M27.11,0V28.4h-5V0Z"/><path class="cls-1" d="M49.21,12.67V28.4h-5V26.46a7.07,7.07,0,0,1-5.25,2.38,7.86,7.86,0,0,1-5.67-2.09c-1.46-1.39-2.18-3.46-2.18-6.19A9.42,9.42,0,0,1,32.13,16,7.84,7.84,0,0,1,35,13a7.08,7.08,0,0,1,3.78-1.08,7.31,7.31,0,0,1,3.31.63,6.86,6.86,0,0,1,2.16,1.78l.32-1.62Zm-5,9.69V18.5a3.71,3.71,0,0,0-1.49-1.83,4.51,4.51,0,0,0-2.5-.69,3.76,3.76,0,0,0-2.83,1.23,4.29,4.29,0,0,0-1.17,3.09,4.44,4.44,0,0,0,.58,2.25,4.23,4.23,0,0,0,1.53,1.61,3.92,3.92,0,0,0,2.06.57A4,4,0,0,0,44.17,22.36Z"/><path class="cls-1" d="M65.14,28.33a9.89,9.89,0,0,1-3.08.51,9.16,9.16,0,0,1-6.49-2.22,7.88,7.88,0,0,1-2.4-6.1,8.21,8.21,0,0,1,1.17-4.41,7.81,7.81,0,0,1,3.08-2.88,8.77,8.77,0,0,1,4.1-1,9.52,9.52,0,0,1,6.38,2.09l-2.45,3.24A5.43,5.43,0,0,0,62,16.34a3.52,3.52,0,0,0-2.68,1.19,4.24,4.24,0,0,0-1.1,3,4.37,4.37,0,0,0,7,3.31L67.75,27A8.1,8.1,0,0,1,65.14,28.33Z"/><path class="cls-1" d="M82.62,23.51l2.23,3.74a13.23,13.23,0,0,1-2.74,1.15,9.46,9.46,0,0,1-2.73.44,10.29,10.29,0,0,1-4.84-1.07,7.1,7.1,0,0,1-3.08-3,9.09,9.09,0,0,1-1-4.41,7.92,7.92,0,0,1,1.2-4.25,8.6,8.6,0,0,1,3.3-3.08,9.35,9.35,0,0,1,4.57-1.13,8,8,0,0,1,5.56,2,9.67,9.67,0,0,1,2.83,5.65L76.35,23.22a3.94,3.94,0,0,0,3.14,1.33A5.83,5.83,0,0,0,82.62,23.51ZM76.39,17a4.55,4.55,0,0,0-1,3.1v.32l6.91-2.34a3.06,3.06,0,0,0-3.2-2.23A3.39,3.39,0,0,0,76.39,17Z"/><path class="cls-1" d="M106.22,13.25a4.48,4.48,0,0,1,1.53,3.38V28.4h-5V18.5a2.1,2.1,0,0,0-2.31-2.3,3.17,3.17,0,0,0-2.77,1.62,7.55,7.55,0,0,0-1,4.18v6.4h-5V0h4.93V15.16a6.21,6.21,0,0,1,2.39-2.38,7.21,7.21,0,0,1,3.62-.86A5.4,5.4,0,0,1,106.22,13.25Z"/><path class="cls-1" d="M112.84,16a8.08,8.08,0,0,1,3.2-3,9.9,9.9,0,0,1,4.7-1.09A9.49,9.49,0,0,1,125.37,13a7.83,7.83,0,0,1,3.08,3,8.6,8.6,0,0,1,1.08,4.32,8.84,8.84,0,0,1-1.08,4.36,7.7,7.7,0,0,1-3.08,3,9.63,9.63,0,0,1-4.7,1.1,10.25,10.25,0,0,1-4.66-1,7.55,7.55,0,0,1-3.17-2.93,8.72,8.72,0,0,1-1.13-4.54A8.24,8.24,0,0,1,112.84,16Zm5,7.47a3.46,3.46,0,0,0,2.74,1.24,3.54,3.54,0,0,0,2.79-1.22,4.6,4.6,0,0,0,1.06-3.13,4.61,4.61,0,0,0-1.06-3.14A3.54,3.54,0,0,0,120.6,16a3.46,3.46,0,0,0-2.74,1.24,4.59,4.59,0,0,0-1.08,3.12A4.58,4.58,0,0,0,117.86,23.49Z"/><path class="cls-1" d="M138.53,0V28.4h-5V0Z"/><path class="cls-1" d="M161,0V28.4h-5V26.75a9.45,9.45,0,0,1-5.83,2.09,7.43,7.43,0,0,1-3.93-1.05,7.17,7.17,0,0,1-2.71-3,9.93,9.93,0,0,1-1-4.57,9,9,0,0,1,1.06-4.48,7.13,7.13,0,0,1,2.93-2.88,9,9,0,0,1,4.29-1,8.47,8.47,0,0,1,2.91.49A6,6,0,0,1,156,13.79V0Zm-6.7,24A4.41,4.41,0,0,0,156,22.21V18.36a3.6,3.6,0,0,0-1.55-1.84,5,5,0,0,0-2.63-.68,4.07,4.07,0,0,0-2.93,1.22,4.17,4.17,0,0,0-1.24,3.1,4.53,4.53,0,0,0,.57,2.25A4.36,4.36,0,0,0,149.7,24a3.9,3.9,0,0,0,2.07.58A4.85,4.85,0,0,0,154.29,24Z"/><path class="cls-1" d="M177.15,23.51l2.24,3.74a13.47,13.47,0,0,1-2.74,1.15,9.47,9.47,0,0,1-2.74.44,10.32,10.32,0,0,1-4.84-1.07,7.21,7.21,0,0,1-3.08-3,9.21,9.21,0,0,1-1-4.41,7.84,7.84,0,0,1,1.21-4.25,8.64,8.64,0,0,1,3.29-3.08A9.38,9.38,0,0,1,174,11.92a7.94,7.94,0,0,1,5.56,2,9.56,9.56,0,0,1,2.83,5.65l-11.52,3.67A3.92,3.92,0,0,0,174,24.55,5.83,5.83,0,0,0,177.15,23.51ZM170.93,17a4.5,4.5,0,0,0-1,3.1v.32l6.91-2.34a3.06,3.06,0,0,0-3.2-2.23A3.39,3.39,0,0,0,170.93,17Z"/><path class="cls-1" d="M192.8,14a9.64,9.64,0,0,1,2.32-1.56,4.81,4.81,0,0,1,1.87-.56l-.25,5a4.51,4.51,0,0,0-.61,0,4.6,4.6,0,0,0-2.67.8,5.15,5.15,0,0,0-1.76,2,5.65,5.65,0,0,0-.61,2.54V28.4h-5V12.67h4.54l.39,3.6A8,8,0,0,1,192.8,14Z"/></g></g></svg>