<svg xmlns="http://www.w3.org/2000/svg" viewBox="0 0 131.06 128"><defs><style>.cls-1{opacity:0.3;}.cls-2{fill:#97c1ff;}.cls-3{fill:#fff;}.cls-4{fill:#eef6ff;}.cls-5{fill:#6d6daa;}.cls-6{fill:#8d96b8;}.cls-7{fill:#939fc6;}.cls-8{fill:#96d7ff;}.cls-9{fill:#ff9797;}.cls-10{fill:#b1f1a8;}.cls-11{fill:#c9c1f5;}.cls-12{fill:#d4edff;}.cls-13{fill:#7690a8;}.cls-14{fill:#d6b5b0;}.cls-15{fill:#ffd599;}.cls-16{fill:#cc7131;}.cls-17{fill:#9eb2cc;}.cls-18{fill:#c7e9ff;}.cls-19{fill:#1c64ba;}.cls-20{opacity:0.5;}.cls-21{fill:#ced8ee;}</style></defs><title>residential</title><g id="Layer_2" data-name="Layer 2"><g id="Artwork"><g class="cls-1"><path class="cls-2" d="M1.85,45.77a30.73,30.73,0,0,1,24.08-25.6,20.15,20.15,0,0,0,11.2-6.75A37.89,37.89,0,0,1,103,29.48,20,20,0,0,0,113.66,43,28.67,28.67,0,1,1,75.09,81.2a9.62,9.62,0,0,0-8.71-5.42h-.85a12.7,12.7,0,0,0-12.29,10,20.47,20.47,0,0,1-24.72,15.08,18,18,0,0,1-2-.6A20.48,20.48,0,0,1,12.83,81.92,21.88,21.88,0,0,0,8.19,69.28,30.67,30.67,0,0,1,1.85,45.77Z"/><path class="cls-3" d="M45.05,11.27a1,1,0,1,1,.72-1.75,1,1,0,0,1,0,1.45A1.06,1.06,0,0,1,45.05,11.27Z"/><path class="cls-3" d="M57.34,15.37H51.2a1,1,0,1,1,0-2h6.14a1,1,0,0,1,0,2Z"/><path class="cls-3" d="M64.51,11.27H49.15a1,1,0,1,1,0-2H64.51a1,1,0,0,1,0,2Z"/><path class="cls-3" d="M54.27,19.46H47.1a1,1,0,0,1,0-2h7.17a1,1,0,0,1,0,2Z"/><path class="cls-3" d="M47.1,15.37H43a1,1,0,0,1,0-2h4.1a1,1,0,0,1,0,2Z"/><path class="cls-3" d="M45.05,11.27a1,1,0,1,1,.72-1.75,1,1,0,0,1,0,1.45A1.06,1.06,0,0,1,45.05,11.27Z"/><path class="cls-3" d="M57.34,15.37H51.2a1,1,0,1,1,0-2h6.14a1,1,0,0,1,0,2Z"/><path class="cls-3" d="M64.51,11.27H49.15a1,1,0,1,1,0-2H64.51a1,1,0,0,1,0,2Z"/><path class="cls-3" d="M54.27,19.46H47.1a1,1,0,0,1,0-2h7.17a1,1,0,0,1,0,2Z"/><path class="cls-3" d="M47.1,15.37H43a1,1,0,0,1,0-2h4.1a1,1,0,0,1,0,2Z"/><rect class="cls-4" x="16.38" y="79.88" width="4.1" height="4.1"/><path class="cls-5" d="M20.48,85h-4.1a1,1,0,0,1-1-1V79.88a1,1,0,0,1,1-1h4.1a1,1,0,0,1,1,1V84A1,1,0,0,1,20.48,85Zm-3.07-2h2v-2h-2Z"/><rect class="cls-4" x="16.38" y="69.64" width="4.1" height="4.1"/><path class="cls-5" d="M20.48,74.76h-4.1a1,1,0,0,1-1-1V69.64a1,1,0,0,1,1-1h4.1a1,1,0,0,1,1,1v4.09A1,1,0,0,1,20.48,74.76Zm-3.07-2.05h2v-2h-2Z"/><rect class="cls-4" x="16.38" y="59.4" width="4.1" height="4.1"/><path class="cls-5" d="M20.48,64.52h-4.1a1,1,0,0,1-1-1V59.4a1,1,0,0,1,1-1h4.1a1,1,0,0,1,1,1v4.09A1,1,0,0,1,20.48,64.52Zm-3.07-2h2v-2h-2Z"/><rect class="cls-4" x="16.38" y="49.16" width="4.1" height="4.1"/><path class="cls-5" d="M20.48,54.28h-4.1a1,1,0,0,1-1-1V49.16a1,1,0,0,1,1-1h4.1a1,1,0,0,1,1,1v4.09A1,1,0,0,1,20.48,54.28Zm-3.07-2.05h2v-2h-2Z"/><rect class="cls-4" x="16.38" y="38.92" width="4.1" height="4.1"/><path class="cls-5" d="M20.48,44h-4.1a1,1,0,0,1-1-1V38.92a1,1,0,0,1,1-1h4.1a1,1,0,0,1,1,1V43A1,1,0,0,1,20.48,44Zm-3.07-2h2V39.94h-2Z"/><rect class="cls-4" x="16.38" y="100.35" width="4.1" height="4.1"/><path class="cls-5" d="M20.48,105.47h-4.1a1,1,0,0,1-1-1v-4.1a1,1,0,0,1,1-1h4.1a1,1,0,0,1,1,1v4.1A1,1,0,0,1,20.48,105.47Zm-3.07-2h2v-2.05h-2Z"/><rect class="cls-4" x="16.38" y="90.11" width="4.1" height="4.1"/><path class="cls-5" d="M20.48,95.23h-4.1a1,1,0,0,1-1-1v-4.1a1,1,0,0,1,1-1h4.1a1,1,0,0,1,1,1v4.1A1,1,0,0,1,20.48,95.23Zm-3.07-2h2v-2h-2Z"/><path class="cls-5" d="M71.67,110.59a1,1,0,0,1-1-1V33.8a1,1,0,0,1,2,0v75.77A1,1,0,0,1,71.67,110.59Z"/><path class="cls-5" d="M71.67,76.8H65.53a1,1,0,0,1,0-2h6.14a1,1,0,1,1,0,2Z"/><path class="cls-5" d="M71.67,72.71H65.53a1,1,0,0,1,0-2h6.14a1,1,0,1,1,0,2Z"/><path class="cls-5" d="M71.67,80.9H65.53a1,1,0,0,1,0-2.05h6.14a1,1,0,1,1,0,2.05Z"/><path class="cls-5" d="M71.67,64.52H65.53a1,1,0,0,1,0-2h6.14a1,1,0,1,1,0,2Z"/><path class="cls-5" d="M71.67,60.42H65.53a1,1,0,0,1,0-2.05h6.14a1,1,0,1,1,0,2.05Z"/><path class="cls-5" d="M71.67,68.61H65.53a1,1,0,0,1,0-2h6.14a1,1,0,1,1,0,2Z"/><path class="cls-5" d="M71.67,52.23H65.53a1,1,0,0,1,0-2h6.14a1,1,0,1,1,0,2Z"/><path class="cls-5" d="M71.67,48.13H65.53a1,1,0,1,1,0-2h6.14a1,1,0,1,1,0,2Z"/><path class="cls-5" d="M71.67,56.33H65.53a1,1,0,0,1,0-2h6.14a1,1,0,1,1,0,2Z"/><path class="cls-5" d="M71.67,39.94H65.53a1,1,0,0,1,0-2h6.14a1,1,0,1,1,0,2Z"/><path class="cls-5" d="M71.67,35.85H65.53a1,1,0,0,1,0-2.05h6.14a1,1,0,1,1,0,2.05Z"/><path class="cls-5" d="M71.67,44H65.53a1,1,0,0,1,0-2h6.14a1,1,0,1,1,0,2Z"/><path class="cls-5" d="M71.67,85H65.53a1,1,0,0,1,0-2h6.14a1,1,0,1,1,0,2Z"/><path class="cls-5" d="M71.67,89.09H65.53a1,1,0,0,1,0-2h6.14a1,1,0,1,1,0,2Z"/><path class="cls-5" d="M71.67,93.19H65.53a1,1,0,0,1,0-2h6.14a1,1,0,1,1,0,2Z"/><path class="cls-5" d="M71.67,97.28H65.53a1,1,0,0,1,0-2h6.14a1,1,0,1,1,0,2Z"/><path class="cls-5" d="M71.67,101.38H65.53a1,1,0,0,1,0-2h6.14a1,1,0,1,1,0,2Z"/><path class="cls-5" d="M71.67,105.47H65.53a1,1,0,0,1,0-2h6.14a1,1,0,1,1,0,2Z"/><path class="cls-5" d="M71.67,109.57H65.53a1,1,0,0,1,0-2h6.14a1,1,0,1,1,0,2Z"/><rect class="cls-6" x="20.48" y="24.58" width="45.05" height="4.09"/><path class="cls-5" d="M65.53,29.7h-45a1,1,0,0,1-1-1v-4.1a1,1,0,0,1,1-1H65.53a1,1,0,0,1,1,1v4.1A1,1,0,0,1,65.53,29.7Zm-44-2h43V25.61h-43Z"/><rect class="cls-4" x="20.48" y="28.68" width="45.05" height="88.06"/><path class="cls-5" d="M65.53,117.76h-45a1,1,0,0,1-1-1V28.68a1,1,0,0,1,1-1H65.53a1,1,0,0,1,1,1v88.06A1,1,0,0,1,65.53,117.76Zm-44-2.05h43v-86h-43Z"/><rect class="cls-7" x="51.2" y="106.5" width="8.19" height="10.24"/><path class="cls-5" d="M59.39,117.76H51.2a1,1,0,0,1-1-1V106.5a1,1,0,0,1,1-1h8.19a1,1,0,0,1,1,1v10.24A1,1,0,0,1,59.39,117.76Zm-7.17-2.05h6.14v-8.19H52.22Z"/><rect class="cls-8" x="26.62" y="106.5" width="20.48" height="6.14"/><path class="cls-5" d="M47.1,113.67H26.62a1,1,0,0,1-1-1V106.5a1,1,0,0,1,1-1H47.1a1,1,0,0,1,1,1v6.14A1,1,0,0,1,47.1,113.67Zm-19.45-2H46.08v-4.1H27.65Z"/><rect class="cls-8" x="26.62" y="96.26" width="10.24" height="6.14"/><path class="cls-5" d="M36.86,103.43H26.62a1,1,0,0,1-1-1V96.26a1,1,0,0,1,1-1H36.86a1,1,0,0,1,1,1v6.14A1,1,0,0,1,36.86,103.43Zm-9.21-2.05h8.19v-4.1H27.65Z"/><path class="cls-5" d="M31.74,103.43a1,1,0,0,1-1-1V96.26a1,1,0,1,1,2.05,0v6.14A1,1,0,0,1,31.74,103.43Z"/><rect class="cls-8" x="26.62" y="86.02" width="10.24" height="6.14"/><path class="cls-5" d="M36.86,93.19H26.62a1,1,0,0,1-1-1V86a1,1,0,0,1,1-1H36.86a1,1,0,0,1,1,1v6.14A1,1,0,0,1,36.86,93.19Zm-9.21-2h8.19V87H27.65Z"/><path class="cls-5" d="M31.74,93.19a1,1,0,0,1-1-1V86a1,1,0,0,1,2.05,0v6.14A1,1,0,0,1,31.74,93.19Z"/><rect class="cls-8" x="26.62" y="75.78" width="10.24" height="6.14"/><path class="cls-5" d="M36.86,83H26.62a1,1,0,0,1-1-1V75.78a1,1,0,0,1,1-1H36.86a1,1,0,0,1,1,1v6.14A1,1,0,0,1,36.86,83Zm-9.21-2h8.19V76.8H27.65Z"/><path class="cls-5" d="M31.74,83a1,1,0,0,1-1-1V75.78a1,1,0,0,1,2.05,0v6.14A1,1,0,0,1,31.74,83Z"/><rect class="cls-8" x="26.62" y="65.54" width="10.24" height="6.14"/><path class="cls-5" d="M36.86,72.71H26.62a1,1,0,0,1-1-1V65.54a1,1,0,0,1,1-1H36.86a1,1,0,0,1,1,1v6.14A1,1,0,0,1,36.86,72.71Zm-9.21-2h8.19v-4.1H27.65Z"/><path class="cls-5" d="M31.74,72.71a1,1,0,0,1-1-1V65.54a1,1,0,0,1,2.05,0v6.14A1,1,0,0,1,31.74,72.71Z"/><rect class="cls-8" x="49.15" y="96.26" width="10.24" height="6.14"/><path class="cls-5" d="M59.39,103.43H49.15a1,1,0,0,1-1-1V96.26a1,1,0,0,1,1-1H59.39a1,1,0,0,1,1,1v6.14A1,1,0,0,1,59.39,103.43Zm-9.22-2.05h8.19v-4.1H50.17Z"/><path class="cls-5" d="M54.27,103.43a1,1,0,0,1-1-1V96.26a1,1,0,1,1,2,0v6.14A1,1,0,0,1,54.27,103.43Z"/><rect class="cls-8" x="49.15" y="86.02" width="10.24" height="6.14"/><path class="cls-5" d="M59.39,93.19H49.15a1,1,0,0,1-1-1V86a1,1,0,0,1,1-1H59.39a1,1,0,0,1,1,1v6.14A1,1,0,0,1,59.39,93.19Zm-9.22-2h8.19V87H50.17Z"/><path class="cls-5" d="M54.27,93.19a1,1,0,0,1-1-1V86a1,1,0,0,1,2,0v6.14A1,1,0,0,1,54.27,93.19Z"/><rect class="cls-8" x="49.15" y="75.78" width="10.24" height="6.14"/><path class="cls-5" d="M59.39,83H49.15a1,1,0,0,1-1-1V75.78a1,1,0,0,1,1-1H59.39a1,1,0,0,1,1,1v6.14A1,1,0,0,1,59.39,83Zm-9.22-2h8.19V76.8H50.17Z"/><path class="cls-5" d="M54.27,83a1,1,0,0,1-1-1V75.78a1,1,0,0,1,2,0v6.14A1,1,0,0,1,54.27,83Z"/><rect class="cls-8" x="49.15" y="65.54" width="10.24" height="6.14"/><path class="cls-5" d="M59.39,72.71H49.15a1,1,0,0,1-1-1V65.54a1,1,0,0,1,1-1H59.39a1,1,0,0,1,1,1v6.14A1,1,0,0,1,59.39,72.71Zm-9.22-2h8.19v-4.1H50.17Z"/><path class="cls-5" d="M54.27,72.71a1,1,0,0,1-1-1V65.54a1,1,0,0,1,2,0v6.14A1,1,0,0,1,54.27,72.71Z"/><rect class="cls-8" x="26.62" y="55.3" width="10.24" height="6.14"/><path class="cls-5" d="M36.86,62.47H26.62a1,1,0,0,1-1-1V55.3a1,1,0,0,1,1-1H36.86a1,1,0,0,1,1,1v6.15A1,1,0,0,1,36.86,62.47Zm-9.21-2h8.19V56.33H27.65Z"/><path class="cls-5" d="M31.74,62.47a1,1,0,0,1-1-1V55.3a1,1,0,0,1,2.05,0v6.15A1,1,0,0,1,31.74,62.47Z"/><rect class="cls-8" x="49.15" y="55.3" width="10.24" height="6.14"/><path class="cls-5" d="M59.39,62.47H49.15a1,1,0,0,1-1-1V55.3a1,1,0,0,1,1-1H59.39a1,1,0,0,1,1,1v6.15A1,1,0,0,1,59.39,62.47Zm-9.22-2h8.19V56.33H50.17Z"/><path class="cls-5" d="M54.27,62.47a1,1,0,0,1-1-1V55.3a1,1,0,0,1,2,0v6.15A1,1,0,0,1,54.27,62.47Z"/><rect class="cls-8" x="26.62" y="45.06" width="10.24" height="6.14"/><path class="cls-5" d="M36.86,52.23H26.62a1,1,0,0,1-1-1V45.06a1,1,0,0,1,1-1H36.86a1,1,0,0,1,1,1v6.15A1,1,0,0,1,36.86,52.23Zm-9.21-2h8.19V46.09H27.65Z"/><path class="cls-5" d="M31.74,52.23a1,1,0,0,1-1-1V45.06a1,1,0,0,1,2.05,0v6.15A1,1,0,0,1,31.74,52.23Z"/><rect class="cls-8" x="49.15" y="45.06" width="10.24" height="6.14"/><path class="cls-5" d="M59.39,52.23H49.15a1,1,0,0,1-1-1V45.06a1,1,0,0,1,1-1H59.39a1,1,0,0,1,1,1v6.15A1,1,0,0,1,59.39,52.23Zm-9.22-2h8.19V46.09H50.17Z"/><path class="cls-5" d="M54.27,52.23a1,1,0,0,1-1-1V45.06a1,1,0,0,1,2,0v6.15A1,1,0,0,1,54.27,52.23Z"/><rect class="cls-8" x="26.62" y="34.82" width="10.24" height="6.14"/><path class="cls-5" d="M36.86,42H26.62a1,1,0,0,1-1-1V34.82a1,1,0,0,1,1-1H36.86a1,1,0,0,1,1,1V41A1,1,0,0,1,36.86,42Zm-9.21-2.05h8.19V35.85H27.65Z"/><path class="cls-5" d="M31.74,42a1,1,0,0,1-1-1V34.82a1,1,0,0,1,2.05,0V41A1,1,0,0,1,31.74,42Z"/><rect class="cls-8" x="49.15" y="34.82" width="10.24" height="6.14"/><path class="cls-5" d="M59.39,42H49.15a1,1,0,0,1-1-1V34.82a1,1,0,0,1,1-1H59.39a1,1,0,0,1,1,1V41A1,1,0,0,1,59.39,42Zm-9.22-2.05h8.19V35.85H50.17Z"/><path class="cls-5" d="M54.27,42a1,1,0,0,1-1-1V34.82a1,1,0,0,1,2,0V41A1,1,0,0,1,54.27,42Z"/><rect class="cls-2" x="40.96" y="34.82" width="4.1" height="67.58"/><path class="cls-5" d="M45.05,103.43H41a1,1,0,0,1-1-1V34.82a1,1,0,0,1,1-1h4.09a1,1,0,0,1,1,1V102.4A1,1,0,0,1,45.05,103.43ZM42,101.38H44V35.85H42Z"/><path class="cls-5" d="M45.05,95.23H41a1,1,0,1,1,0-2h4.09a1,1,0,1,1,0,2Z"/><path class="cls-5" d="M45.05,85H41a1,1,0,1,1,0-2h4.09a1,1,0,1,1,0,2Z"/><path class="cls-5" d="M45.05,74.76H41a1,1,0,1,1,0-2.05h4.09a1,1,0,1,1,0,2.05Z"/><path class="cls-5" d="M45.05,64.52H41a1,1,0,1,1,0-2h4.09a1,1,0,1,1,0,2Z"/><path class="cls-5" d="M45.05,54.28H41a1,1,0,1,1,0-2.05h4.09a1,1,0,1,1,0,2.05Z"/><path class="cls-5" d="M45.05,44H41a1,1,0,1,1,0-2h4.09a1,1,0,1,1,0,2Z"/><path class="cls-5" d="M65.53,29.7h-45a1,1,0,1,1,0-2H65.53a1,1,0,0,1,0,2Z"/><path class="cls-5" d="M67.58,25.61H18.43a1,1,0,0,1,0-2.05H67.58a1,1,0,0,1,0,2.05Z"/><rect class="cls-2" x="5.12" y="59.43" width="51.2" height="14.33"/><path class="cls-5" d="M56.32,74.76H5.12a1,1,0,0,1-1-1V59.4a1,1,0,0,1,1-1h51.2a1,1,0,0,1,1,1V73.73A1,1,0,0,1,56.32,74.76ZM6.14,72.71H55.29V60.42H6.14Z"/><polygon class="cls-4" points="52.22 77.86 52.22 75.81 30.72 61.96 9.21 75.81 9.21 77.86 7.17 77.86 7.17 116.77 54.27 116.77 54.27 110.94 54.27 84.43 54.27 77.86 52.22 77.86"/><path class="cls-5" d="M54.27,117.76H7.17a1,1,0,0,1-1-1V77.83a1,1,0,0,1,1-1h1v-1a1,1,0,0,1,.47-.86l21.5-13.85a1,1,0,0,1,1.11,0l21.5,13.85a1,1,0,0,1,.47.86v1h1a1,1,0,0,1,1,1v38.91A1,1,0,0,1,54.27,117.76ZM8.19,115.71H53.24V78.85h-1a1,1,0,0,1-1-1V76.37L30.72,63.18,10.24,76.37v1.46a1,1,0,0,1-1,1h-1Z"/><rect class="cls-8" x="13.31" y="100.38" width="18.43" height="12.29"/><path class="cls-5" d="M31.74,113.67H13.31a1,1,0,0,1-1-1V100.35a1,1,0,0,1,1-1H31.74a1,1,0,0,1,1,1v12.29A1,1,0,0,1,31.74,113.67Zm-17.41-2H30.72V101.38H14.33Z"/><rect class="cls-8" x="13.31" y="81.95" width="6.14" height="8.19"/><path class="cls-5" d="M19.45,91.14H13.31a1,1,0,0,1-1-1V81.92a1,1,0,0,1,1-1h6.14a1,1,0,0,1,1,1v8.19A1,1,0,0,1,19.45,91.14Zm-5.12-2h4.1V83h-4.1Z"/><polygon class="cls-9" points="50.17 69.67 50.17 60.45 44.03 60.45 44.03 65.9 50.17 69.67"/><path class="cls-5" d="M50.17,70.66a1,1,0,0,1-.53-.15L43.5,66.74a1.05,1.05,0,0,1-.5-.87V60.42a1,1,0,0,1,1-1h6.14a1,1,0,0,1,1,1v9.22A1,1,0,0,1,50.17,70.66ZM45.05,65.3l4.1,2.5V61.45h-4.1Z"/><rect class="cls-9" x="43" y="57.38" width="8.19" height="3.07"/><path class="cls-5" d="M51.2,61.45H43a1,1,0,0,1-1-1V57.35a1,1,0,0,1,1-1h8.2a1,1,0,0,1,1,1v3.07A1,1,0,0,1,51.2,61.45ZM44,59.4h6.14v-1H44Z"/><path class="cls-5" d="M22.53,113.67a1,1,0,0,1-1-1V100.35a1,1,0,0,1,2.05,0v12.29A1,1,0,0,1,22.53,113.67Z"/><path class="cls-5" d="M32.77,113.67H12.29a1,1,0,1,1,0-2H32.77a1,1,0,0,1,0,2Z"/><rect class="cls-9" x="37.89" y="100.38" width="10.24" height="13.31"/><path class="cls-5" d="M48.12,114.69H37.89a1,1,0,0,1-1-1V100.35a1,1,0,0,1,1-1H48.12a1,1,0,0,1,1,1v13.32A1,1,0,0,1,48.12,114.69Zm-9.21-2H47.1V101.38H38.91Z"/><path class="cls-5" d="M39.93,108.55h-2a1,1,0,1,1,0-2h2a1,1,0,1,1,0,2Z"/><rect class="cls-7" x="36.86" y="113.7" width="12.29" height="3.07"/><path class="cls-5" d="M49.15,117.76H36.86a1,1,0,0,1-1-1v-3.07a1,1,0,0,1,1-1H49.15a1,1,0,0,1,1,1v3.07A1,1,0,0,1,49.15,117.76Zm-11.26-2.05H48.12v-1H37.89Z"/><rect class="cls-8" x="41.98" y="81.95" width="6.14" height="8.19"/><path class="cls-5" d="M48.12,91.14H42a1,1,0,0,1-1-1V81.92a1,1,0,0,1,1-1h6.14a1,1,0,0,1,1,1v8.19A1,1,0,0,1,48.12,91.14Zm-5.12-2h4.1V83H43Z"/><path class="cls-5" d="M20.48,91.14H12.29a1,1,0,1,1,0-2h8.19a1,1,0,0,1,0,2Z"/><rect class="cls-8" x="27.65" y="81.95" width="6.14" height="8.19"/><path class="cls-5" d="M33.79,91.14H27.65a1,1,0,0,1-1-1V81.92a1,1,0,0,1,1-1h6.14a1,1,0,0,1,1,1v8.19A1,1,0,0,1,33.79,91.14Zm-5.12-2h4.1V83h-4.1Z"/><path class="cls-5" d="M19.45,87H13.31a1,1,0,0,1,0-2h6.14a1,1,0,1,1,0,2Z"/><path class="cls-5" d="M33.79,87H27.65a1,1,0,1,1,0-2h6.14a1,1,0,1,1,0,2Z"/><path class="cls-5" d="M48.12,87H42a1,1,0,0,1,0-2h6.14a1,1,0,1,1,0,2Z"/><path class="cls-5" d="M49.15,91.14H41a1,1,0,1,1,0-2h8.19a1,1,0,0,1,0,2Z"/><path class="cls-5" d="M34.81,91.14H26.62a1,1,0,0,1,0-2h8.19a1,1,0,1,1,0,2Z"/><path class="cls-8" d="M27.65,73.73V70.66a3.06,3.06,0,0,1,3.07-3.07h0a3.07,3.07,0,0,1,3.07,3.07v3.07Z"/><path class="cls-5" d="M33.79,74.76H27.65a1,1,0,0,1-1-1V70.66a4.1,4.1,0,1,1,8.19,0v3.07A1,1,0,0,1,33.79,74.76Zm-5.12-2.05h4.1v-2a2,2,0,0,0-4.1,0Z"/><path class="cls-5" d="M34.81,74.76H26.62a1,1,0,0,1,0-2.05h8.19a1,1,0,1,1,0,2.05Z"/><path class="cls-5" d="M54.27,97.28H8.19a1,1,0,0,1,0-2H54.27a1,1,0,0,1,0,2Z"/><path class="cls-5" d="M54.27,78.85H8.19a1,1,0,0,1,0-2H54.27a1,1,0,0,1,0,2Z"/><polygon class="cls-2" points="52.22 77.86 52.22 75.81 30.72 61.96 9.21 75.81 9.21 77.86 5.12 77.86 5.12 73.76 30.72 57.38 56.32 73.76 56.32 77.86 52.22 77.86"/><path class="cls-5" d="M56.32,78.85h-4.1a1,1,0,0,1-1-1V76.37L30.72,63.18,10.24,76.37v1.46a1,1,0,0,1-1,1H5.12a1,1,0,0,1-1-1v-4.1a1,1,0,0,1,.47-.86L30.16,56.49a1,1,0,0,1,1.11,0l25.6,16.38a1,1,0,0,1,.47.86v4.1A1,1,0,0,1,56.32,78.85Zm-3.08-2h2V74.33L30.72,58.6,6.14,74.33V76.8H8.19v-1a1,1,0,0,1,.47-.86l21.5-13.85a1,1,0,0,1,1.11,0l21.5,13.85a1,1,0,0,1,.47.86Z"/><path class="cls-10" d="M22.53,112.64a3,3,0,0,0-1.15.23,3.07,3.07,0,0,0-3.77-2.16,3,3,0,0,0-.91.42,5.12,5.12,0,0,0-7-1.88,5.07,5.07,0,0,0-2.14,2.41H7.16a4.1,4.1,0,0,0-4.1,4.09v1H25.6v-1a3.08,3.08,0,0,0-3-3.11Z"/><path class="cls-5" d="M25.6,117.76H3.07a1,1,0,0,1-1-1v-1A5.12,5.12,0,0,1,7,110.59a6.15,6.15,0,0,1,8.4-2.22A6.23,6.23,0,0,1,17,109.8,4.09,4.09,0,0,1,22,111.65a5,5,0,0,1,.55,0,4.09,4.09,0,0,1,4.09,4.09v1A1,1,0,0,1,25.6,117.76ZM4.1,115.71H24.57a2,2,0,0,0-2.05-2,1.93,1.93,0,0,0-.75.15,1,1,0,0,1-1.33-.57.56.56,0,0,1,0-.12,2,2,0,0,0-2.53-1.41,2.27,2.27,0,0,0-.55.25,1,1,0,0,1-1.42-.28l0-.06a4.11,4.11,0,0,0-7.34.43,1,1,0,0,1-1,.61H7.32l-.15,0A3.07,3.07,0,0,0,4.1,115.71Z"/><path class="cls-5" d="M13.42,113.79a1,1,0,0,1-.6-.21.86.86,0,0,0-1.14-.11,1,1,0,0,1-1.38-.42,1,1,0,0,1,.3-1.31,2.87,2.87,0,0,1,3.45.2,1,1,0,0,1,.2,1.44,1,1,0,0,1-.82.41Z"/><rect class="cls-11" x="81.91" y="10.28" width="26.62" height="4.1"/><path class="cls-5" d="M108.54,15.37H81.91a1,1,0,0,1-1-1V10.25a1,1,0,0,1,1-1h26.63a1,1,0,0,1,1,1v4.09A1,1,0,0,1,108.54,15.37Zm-25.6-2h24.57V11.27H82.94Z"/><rect class="cls-4" x="65.53" y="88.1" width="4.1" height="28.67"/><path class="cls-5" d="M69.63,117.76h-4.1a1,1,0,0,1-1-1V88.07a1,1,0,0,1,1-1h4.1a1,1,0,0,1,1,1v28.67A1,1,0,0,1,69.63,117.76Zm-3.08-2.05h2V89.09h-2Z"/><rect class="cls-12" x="69.63" y="88.1" width="6.14" height="28.67"/><path class="cls-5" d="M75.77,117.76H69.63a1,1,0,0,1-1-1V88.07a1,1,0,0,1,1-1h6.14a1,1,0,0,1,1,1v28.67A1,1,0,0,1,75.77,117.76Zm-5.12-2.05h4.1V89.09h-4.1Z"/><rect class="cls-4" x="120.82" y="88.1" width="4.1" height="28.67"/><path class="cls-5" d="M124.92,117.76h-4.1a1,1,0,0,1-1-1V88.07a1,1,0,0,1,1-1h4.1a1,1,0,0,1,1,1v28.67A1,1,0,0,1,124.92,117.76Zm-3.07-2.05h2V89.09h-2Z"/><rect class="cls-12" x="114.68" y="88.1" width="6.14" height="28.67"/><path class="cls-5" d="M120.82,117.76h-6.14a1,1,0,0,1-1-1V88.07a1,1,0,0,1,1-1h6.14a1,1,0,0,1,1,1v28.67A1,1,0,0,1,120.82,117.76Zm-5.12-2.05h4.1V89.09h-4.1Z"/><rect class="cls-4" x="75.77" y="14.38" width="38.91" height="102.39"/><path class="cls-5" d="M114.68,117.76H75.77a1,1,0,0,1-1-1V14.34a1,1,0,0,1,1-1h38.91a1,1,0,0,1,1,1v102.4A1,1,0,0,1,114.68,117.76Zm-37.89-2.05h36.87V15.37H76.79Z"/><rect class="cls-8" x="79.87" y="18.47" width="30.72" height="81.91"/><path class="cls-5" d="M110.58,101.38H79.87a1,1,0,0,1-1-1V18.44a1,1,0,0,1,1-1h30.71a1,1,0,0,1,1,1v81.91A1,1,0,0,1,110.58,101.38Zm-29.69-2h28.67V19.46H80.89Z"/><rect class="cls-12" x="79.87" y="100.38" width="30.72" height="16.38"/><path class="cls-5" d="M110.58,117.76H79.87a1,1,0,0,1-1-1V100.35a1,1,0,0,1,1-1h30.71a1,1,0,0,1,1,1v16.39A1,1,0,0,1,110.58,117.76Zm-29.69-2.05h28.67V101.38H80.89Z"/><path class="cls-5" d="M104.44,101.38a1,1,0,0,1-1-1V18.44a1,1,0,1,1,2,0v81.91A1,1,0,0,1,104.44,101.38Z"/><path class="cls-5" d="M98.3,101.38a1,1,0,0,1-1-1V18.44a1,1,0,0,1,2,0v81.91A1,1,0,0,1,98.3,101.38Z"/><path class="cls-5" d="M92.15,101.38a1,1,0,0,1-1-1V18.44a1,1,0,0,1,2.05,0v81.91A1,1,0,0,1,92.15,101.38Z"/><path class="cls-5" d="M95.22,11.27a1,1,0,0,1-1-1V6.15a1,1,0,0,1,2,0v4.1A1,1,0,0,1,95.22,11.27Z"/><rect class="cls-7" x="65.53" y="112.67" width="10.24" height="4.1"/><path class="cls-5" d="M75.77,117.76H65.53a1,1,0,0,1-1-1v-4.1a1,1,0,0,1,1-1H75.77a1,1,0,0,1,1,1v4.1A1,1,0,0,1,75.77,117.76Zm-9.22-2.05h8.2v-2h-8.2Z"/><path class="cls-5" d="M86,101.38a1,1,0,0,1-1-1V18.44a1,1,0,0,1,2,0v81.91A1,1,0,0,1,86,101.38Z"/><path class="cls-5" d="M88.06,117.76a1,1,0,0,1-1-1V100.35a1,1,0,0,1,2,0v16.39A1,1,0,0,1,88.06,117.76Z"/><path class="cls-5" d="M102.39,117.76a1,1,0,0,1-1-1V100.35a1,1,0,0,1,2,0v16.39A1,1,0,0,1,102.39,117.76Z"/><path class="cls-5" d="M95.22,117.76a1,1,0,0,1-1-1V100.35a1,1,0,0,1,2,0v16.39A1,1,0,0,1,95.22,117.76Z"/><path class="cls-5" d="M110.58,80.9H79.87a1,1,0,1,1,0-2.05h30.71a1,1,0,1,1,0,2.05Z"/><path class="cls-5" d="M110.58,91.14H79.87a1,1,0,1,1,0-2h30.71a1,1,0,1,1,0,2Z"/><path class="cls-5" d="M110.58,50.18H79.87a1,1,0,1,1,0-2h30.71a1,1,0,1,1,0,2Z"/><path class="cls-5" d="M110.58,60.42H79.87a1,1,0,1,1,0-2.05h30.71a1,1,0,1,1,0,2.05Z"/><path class="cls-5" d="M110.58,70.66H79.87a1,1,0,1,1,0-2h30.71a1,1,0,1,1,0,2Z"/><path class="cls-5" d="M110.58,29.7H79.87a1,1,0,1,1,0-2h30.71a1,1,0,1,1,0,2Z"/><path class="cls-5" d="M110.58,39.94H79.87a1,1,0,1,1,0-2h30.71a1,1,0,1,1,0,2Z"/><path class="cls-5" d="M110.58,101.38H79.87a1,1,0,1,1,0-2h30.71a1,1,0,1,1,0,2Z"/><path class="cls-5" d="M120.82,113.67a1,1,0,0,1-1-1V92.16a1,1,0,0,1,2,0v20.48A1,1,0,0,1,120.82,113.67Z"/><rect class="cls-7" x="114.68" y="112.67" width="10.24" height="4.1"/><path class="cls-5" d="M124.92,117.76H114.68a1,1,0,0,1-1-1v-4.1a1,1,0,0,1,1-1h10.24a1,1,0,0,1,1,1v4.1A1,1,0,0,1,124.92,117.76Zm-9.22-2.05h8.19v-2H115.7Z"/><rect class="cls-11" x="114.68" y="88.1" width="10.24" height="4.1"/><path class="cls-5" d="M124.92,93.19H114.68a1,1,0,0,1-1-1V88.07a1,1,0,0,1,1-1h10.24a1,1,0,0,1,1,1v4.09A1,1,0,0,1,124.92,93.19Zm-9.22-2h8.19v-2H115.7Z"/><rect class="cls-11" x="65.53" y="88.1" width="10.24" height="4.1"/><path class="cls-5" d="M75.77,93.19H65.53a1,1,0,0,1-1-1V88.07a1,1,0,0,1,1-1H75.77a1,1,0,0,1,1,1v4.09A1,1,0,0,1,75.77,93.19Zm-9.22-2h8.2v-2h-8.2Z"/><path class="cls-5" d="M115.8,117.68a1,1,0,0,1-1-1v-8.19a1,1,0,0,1,2,0v8.19A1,1,0,0,1,115.8,117.68Z"/><path class="cls-10" d="M121.94,102.83a6.15,6.15,0,1,1-12.29,0c0-3.07,2.76-16.89,6.15-16.89S121.94,99.72,121.94,102.83Z"/><path class="cls-5" d="M115.8,109.49a6.93,6.93,0,0,1-7.17-6.66c0-2,2.39-17.92,7.17-17.92S123,100.84,123,102.83A6.93,6.93,0,0,1,115.8,109.49Zm0-22.53c-2,0-5.12,12.07-5.12,15.87a5.12,5.12,0,1,0,10.23,0C120.91,99,117.86,87,115.8,87Z"/><path class="cls-5" d="M114.48,105.25a1,1,0,0,1-.25,0,2.86,2.86,0,0,1-2.23-2.63,1,1,0,1,1,2-.26c.09.63.32.81.71.9a1,1,0,0,1-.24,2Z"/><path class="cls-5" d="M116.84,95.61a1,1,0,0,1-.85-.45c-.36-.52-.65-.57-1-.49a1,1,0,0,1-.45-2A2.88,2.88,0,0,1,117.7,94a1,1,0,0,1-.85,1.6Z"/><path class="cls-10" d="M65.67,112.82a3.08,3.08,0,0,1,3.84-2,3,3,0,0,1,.81.39,5.12,5.12,0,0,1,9.33,1.17A4.09,4.09,0,0,1,86,115.71v1H63.48v-1A3.06,3.06,0,0,1,65.67,112.82Z"/><path class="cls-5" d="M86,117.76H63.48a1,1,0,0,1-1-1v-1A4.08,4.08,0,0,1,64.88,112,4.09,4.09,0,0,1,70,109.8a6.14,6.14,0,0,1,8.64-.89,6.07,6.07,0,0,1,1.59,2A5.12,5.12,0,0,1,86.75,114a5,5,0,0,1,.28,1.67v1A1,1,0,0,1,86,117.76Zm-21.5-2.05H85a3.09,3.09,0,0,0-4.77-2.56,1,1,0,0,1-1.55-.58,4.07,4.07,0,0,0-7.46-.95,1,1,0,0,1-1.39.38l-.07,0a2,2,0,0,0-2.83.59,1.7,1.7,0,0,0-.24.51,1,1,0,0,1-.69.69A2,2,0,0,0,64.51,115.71Z"/><path class="cls-5" d="M75.88,113.73a1.12,1.12,0,0,1-.56-.18.87.87,0,0,0-1.15,0,1,1,0,1,1-1.29-1.58l.12-.09a2.87,2.87,0,0,1,3.45,0,1,1,0,0,1,.27,1.42,1,1,0,0,1-.84.46Z"/><path class="cls-5" d="M114.68,117.76H23.55a1,1,0,0,1,0-2.05h91.13a1,1,0,0,1,0,2.05Z"/><path class="cls-5" d="M130,117.76H117.75a1,1,0,0,1,0-2.05H130a1,1,0,0,1,0,2.05Z"/><path class="cls-5" d="M6.14,117.76H1a1,1,0,0,1,0-2.05H6.14a1,1,0,1,1,0,2.05Z"/><path class="cls-5" d="M20.48,117.76H9.22a1,1,0,1,1,0-2.05H20.48a1,1,0,0,1,0,2.05Z"/><path class="cls-5" d="M128,128h-2a1,1,0,0,1,0-2h2a1,1,0,0,1,0,2Z"/><path class="cls-5" d="M122.87,128H7.17a1,1,0,1,1,0-2h115.7a1,1,0,0,1,0,2Z"/></g><polygon class="cls-3" points="60.41 73.96 12.29 89.12 12.29 93.22 12.29 127.01 60.41 127.01 60.41 73.96"/><g class="cls-1"><polygon class="cls-13" points="60.41 73.96 12.29 89.12 12.29 93.22 60.41 78.17 60.41 73.96"/></g><rect class="cls-3" x="64.51" y="94.21" width="55.29" height="32.77"/><g class="cls-1"><rect class="cls-13" x="64.51" y="94.21" width="55.29" height="4.1"/></g><rect class="cls-14" x="12.29" y="120.83" width="107.51" height="6.14"/><path class="cls-5" d="M60.41,128H12.29a1,1,0,0,1-1-1V89.09a1,1,0,0,1,.72-1L60.1,72.9a1,1,0,0,1,1.29.67,1.12,1.12,0,0,1,0,.36V127A1,1,0,0,1,60.41,128Zm-47.1-2H59.39V75.35L13.31,89.87Z"/><path class="cls-5" d="M119.8,128H64.51a1,1,0,0,1-1-1V94.21a1,1,0,0,1,1-1H119.8a1,1,0,0,1,1,1V127A1,1,0,0,1,119.8,128Zm-54.27-2h53.24V95.23H65.53Z"/><rect class="cls-15" x="20.48" y="100.35" width="15.36" height="20.48"/><g class="cls-1"><rect class="cls-16" x="20.48" y="100.35" width="15.36" height="3.07"/></g><path class="cls-5" d="M35.84,121.86H20.48a1,1,0,0,1-1-1V100.35a1,1,0,0,1,1-1H35.84a1,1,0,0,1,1,1v20.48A1,1,0,0,1,35.84,121.86Zm-14.34-2H34.81V101.38H21.5Z"/><path class="cls-5" d="M24.57,111.62h-1a1,1,0,0,1,0-2.05h1a1,1,0,1,1,0,2.05Z"/><rect class="cls-17" x="20.48" y="120.83" width="15.36" height="3.07"/><path class="cls-5" d="M35.84,124.93H20.48a1,1,0,0,1-1-1v-3.07a1,1,0,0,1,1-1H35.84a1,1,0,0,1,1,1v3.07A1,1,0,0,1,35.84,124.93ZM21.5,122.88H34.81v-1H21.5Z"/><rect class="cls-17" x="20.48" y="123.9" width="15.36" height="3.07"/><path class="cls-5" d="M35.84,128H20.48a1,1,0,0,1-1-1V123.9a1,1,0,0,1,1-1H35.84a1,1,0,0,1,1,1V127A1,1,0,0,1,35.84,128ZM21.5,126H34.81v-1H21.5Z"/><path class="cls-5" d="M119.8,121.86H12.29a1,1,0,1,1,0-2H119.8a1,1,0,0,1,0,2Z"/><polygon class="cls-15" points="12.29 89.12 64.51 72.74 64.51 67.62 8.19 86.05 8.19 93.22 12.29 93.22 12.29 89.12"/><path class="cls-5" d="M12.29,94.21H8.19a1,1,0,0,1-1-1V86a1,1,0,0,1,.7-1L64.19,66.56a1,1,0,0,1,1.29.66.92.92,0,0,1,0,.37v5.12a1,1,0,0,1-.72,1L13.31,89.87v3.32A1,1,0,0,1,12.29,94.21Zm-3.07-2h2V89.09a1,1,0,0,1,.72-1L63.48,72V69L9.22,86.79Z"/><rect class="cls-8" x="64.51" y="63.49" width="55.29" height="26.62"/><polygon class="cls-18" points="64.51 63.49 64.51 83.81 107.29 63.49 64.51 63.49"/><polygon class="cls-18" points="64.51 89.39 116.73 64.59 116.73 63.49 112.57 63.49 64.51 86.32 64.51 89.39"/><g class="cls-1"><rect class="cls-19" x="64.51" y="63.49" width="55.29" height="4.1"/></g><path class="cls-5" d="M119.8,91.14H64.51a1,1,0,0,1-1-1V63.49a1,1,0,0,1,1-1H119.8a1,1,0,0,1,1,1V90.11A1,1,0,0,1,119.8,91.14Zm-54.27-2h53.24V64.52H65.53Z"/><path class="cls-5" d="M82.94,91.14a1,1,0,0,1-1-1V63.49a1,1,0,0,1,2,0V90.11A1,1,0,0,1,82.94,91.14Z"/><path class="cls-5" d="M101.37,91.14a1,1,0,0,1-1-1V63.49a1,1,0,0,1,2,0V90.11A1,1,0,0,1,101.37,91.14Z"/><path class="cls-5" d="M119.8,91.14a1,1,0,0,1-1-1V63.49a1,1,0,0,1,2,0V90.11A1,1,0,0,1,119.8,91.14Z"/><polygon class="cls-15" points="60.41 65.54 60.41 59.4 119.8 59.4 119.8 63.49 64.51 63.49 64.51 90.11 124.92 90.11 124.92 94.21 60.41 94.21 60.41 88.07 60.41 65.54"/><path class="cls-5" d="M124.92,95.23H60.41a1,1,0,0,1-1-1V59.4a1,1,0,0,1,1-1H119.8a1,1,0,0,1,1,1v4.09a1,1,0,0,1-1,1H65.53V89.09h59.39a1,1,0,0,1,1,1v4.1A1,1,0,0,1,124.92,95.23Zm-63.48-2h62.45v-2H64.51a1,1,0,0,1-1-1V63.49a1,1,0,0,1,1-1h54.26v-2H61.44Z"/><path class="cls-5" d="M120.82,64.52h-1a1,1,0,1,1,0-2h1a1,1,0,1,1,0,2Z"/><path class="cls-5" d="M125.94,91.14h-1a1,1,0,1,1,0-2h1a1,1,0,1,1,0,2Z"/><path class="cls-5" d="M125.94,83H63.48a1,1,0,0,1,0-2h62.46a1,1,0,1,1,0,2Z"/><path class="cls-5" d="M124.92,91.14a1,1,0,0,1-1-1V81.92a1,1,0,0,1,2,0v8.19A1,1,0,0,1,124.92,91.14Z"/><path class="cls-5" d="M70.65,91.14a1,1,0,0,1-1-1V81.92a1,1,0,0,1,2,0v8.19A1,1,0,0,1,70.65,91.14Z"/><path class="cls-5" d="M76.79,91.14a1,1,0,0,1-1-1V81.92a1,1,0,0,1,2,0v8.19A1,1,0,0,1,76.79,91.14Z"/><path class="cls-5" d="M82.94,91.14a1,1,0,0,1-1-1V81.92a1,1,0,0,1,2,0v8.19A1,1,0,0,1,82.94,91.14Z"/><path class="cls-5" d="M89.08,91.14a1,1,0,0,1-1-1V81.92a1,1,0,0,1,2,0v8.19A1,1,0,0,1,89.08,91.14Z"/><path class="cls-5" d="M95.22,91.14a1,1,0,0,1-1-1V81.92a1,1,0,0,1,2,0v8.19A1,1,0,0,1,95.22,91.14Z"/><path class="cls-5" d="M101.37,91.14a1,1,0,0,1-1-1V81.92a1,1,0,0,1,2,0v8.19A1,1,0,0,1,101.37,91.14Z"/><path class="cls-5" d="M107.51,91.14a1,1,0,0,1-1-1V81.92a1,1,0,0,1,2.05,0v8.19A1,1,0,0,1,107.51,91.14Z"/><path class="cls-5" d="M113.66,91.14a1,1,0,0,1-1-1V81.92a1,1,0,0,1,2.05,0v8.19A1,1,0,0,1,113.66,91.14Z"/><path class="cls-5" d="M119.8,91.14a1,1,0,0,1-1-1V81.92a1,1,0,0,1,2,0v8.19A1,1,0,0,1,119.8,91.14Z"/><path class="cls-9" d="M44,94.21h4.09v-41H60.41v41h4.1V127H44Z"/><path class="cls-5" d="M64.51,128H44a1,1,0,0,1-1-1V94.21a1,1,0,0,1,1-1H47.1V53.25a1,1,0,0,1,1-1H60.41a1,1,0,0,1,1,1V93.19h3.07a1,1,0,0,1,1,1V127A1,1,0,0,1,64.51,128Zm-19.46-2H63.48V95.23H60.41a1,1,0,0,1-1-1V54.28H49.15V94.21a1,1,0,0,1-1,1H45.05Z"/><rect class="cls-9" x="47.1" y="49.19" width="14.33" height="4.1"/><path class="cls-5" d="M61.44,54.28H47.1a1,1,0,0,1-1-1V49.16a1,1,0,0,1,1-1H61.44a1,1,0,0,1,1,1v4.09A1,1,0,0,1,61.44,54.28ZM48.12,52.23H60.41v-2H48.12Z"/><g class="cls-1"><path class="cls-5" d="M60.41,58.37H48.12a1,1,0,0,1,0-2H60.41a1,1,0,1,1,0,2Z"/><path class="cls-5" d="M54.27,58.37a1,1,0,0,1-1-1v-4.1a1,1,0,0,1,2,0v4.1A1,1,0,0,1,54.27,58.37Z"/><path class="cls-5" d="M60.41,62.47H48.12a1,1,0,0,1,0-2H60.41a1,1,0,1,1,0,2Z"/><path class="cls-5" d="M60.41,66.56H48.12a1,1,0,0,1,0-2H60.41a1,1,0,1,1,0,2Z"/><path class="cls-5" d="M57.34,62.47a1,1,0,0,1-1-1v-4.1a1,1,0,1,1,2,0v4.1A1,1,0,0,1,57.34,62.47Z"/><path class="cls-5" d="M51.2,62.47a1,1,0,0,1-1-1v-4.1a1,1,0,0,1,2,0v4.1A1,1,0,0,1,51.2,62.47Z"/><path class="cls-5" d="M54.27,66.56a1,1,0,0,1-1-1V61.45a1,1,0,1,1,2,0v4.09A1,1,0,0,1,54.27,66.56Z"/><path class="cls-5" d="M60.41,70.66H48.12a1,1,0,0,1,0-2H60.41a1,1,0,1,1,0,2Z"/><path class="cls-5" d="M60.41,74.76H48.12a1,1,0,0,1,0-2.05H60.41a1,1,0,1,1,0,2.05Z"/><path class="cls-5" d="M57.34,70.66a1,1,0,0,1-1-1v-4.1a1,1,0,0,1,2,0v4.1A1,1,0,0,1,57.34,70.66Z"/><path class="cls-5" d="M51.2,70.66a1,1,0,0,1-1-1v-4.1a1,1,0,0,1,2,0v4.1A1,1,0,0,1,51.2,70.66Z"/><path class="cls-5" d="M54.27,74.76a1,1,0,0,1-1-1V69.64a1,1,0,1,1,2,0v4.09A1,1,0,0,1,54.27,74.76Z"/><path class="cls-5" d="M60.41,78.85H48.12a1,1,0,0,1,0-2H60.41a1,1,0,1,1,0,2Z"/><path class="cls-5" d="M60.41,83H48.12a1,1,0,0,1,0-2H60.41a1,1,0,1,1,0,2Z"/><path class="cls-5" d="M57.34,78.85a1,1,0,0,1-1-1v-4.1a1,1,0,1,1,2,0v4.1A1,1,0,0,1,57.34,78.85Z"/><path class="cls-5" d="M51.2,78.85a1,1,0,0,1-1-1v-4.1a1,1,0,0,1,2,0v4.1A1,1,0,0,1,51.2,78.85Z"/><path class="cls-5" d="M54.27,83a1,1,0,0,1-1-1V77.83a1,1,0,1,1,2,0v4.09A1,1,0,0,1,54.27,83Z"/><path class="cls-5" d="M60.41,87H48.12a1,1,0,1,1,0-2H60.41a1,1,0,1,1,0,2Z"/><path class="cls-5" d="M60.41,91.14H48.12a1,1,0,0,1,0-2H60.41a1,1,0,1,1,0,2Z"/><path class="cls-5" d="M57.34,87a1,1,0,0,1-1-1v-4.1a1,1,0,0,1,2,0V86A1,1,0,0,1,57.34,87Z"/><path class="cls-5" d="M51.2,87a1,1,0,0,1-1-1v-4.1a1,1,0,0,1,2,0V86A1,1,0,0,1,51.2,87Z"/><path class="cls-5" d="M54.27,91.14a1,1,0,0,1-1-1V86a1,1,0,0,1,2,0v4.09A1,1,0,0,1,54.27,91.14Z"/><path class="cls-5" d="M60.41,95.23H48.12a1,1,0,1,1,0-2H60.41a1,1,0,1,1,0,2Z"/><path class="cls-5" d="M64.51,99.33H44a1,1,0,1,1,0-2H64.51a1,1,0,0,1,0,2Z"/><path class="cls-5" d="M57.34,95.23a1,1,0,0,1-1-1v-4.1a1,1,0,0,1,2,0v4.1A1,1,0,0,1,57.34,95.23Z"/><path class="cls-5" d="M51.2,95.23a1,1,0,0,1-1-1v-4.1a1,1,0,0,1,2,0v4.1A1,1,0,0,1,51.2,95.23Z"/><path class="cls-5" d="M64.51,103.43H44a1,1,0,1,1,0-2.05H64.51a1,1,0,0,1,0,2.05Z"/><path class="cls-5" d="M57.34,103.43a1,1,0,0,1-1-1V98.31a1,1,0,1,1,2,0v4.09A1,1,0,0,1,57.34,103.43Z"/><path class="cls-5" d="M63.48,103.43a1,1,0,0,1-1-1V98.31a1,1,0,1,1,2.05,0v4.09A1,1,0,0,1,63.48,103.43Z"/><path class="cls-5" d="M45.05,103.43a1,1,0,0,1-1-1V98.31a1,1,0,1,1,2,0v4.09A1,1,0,0,1,45.05,103.43Z"/><path class="cls-5" d="M51.2,103.43a1,1,0,0,1-1-1V98.31a1,1,0,1,1,2,0v4.09A1,1,0,0,1,51.2,103.43Z"/><path class="cls-5" d="M54.27,99.33a1,1,0,0,1-1-1v-4.1a1,1,0,0,1,2,0v4.1A1,1,0,0,1,54.27,99.33Z"/><path class="cls-5" d="M60.41,99.33a1,1,0,0,1-1-1v-4.1a1,1,0,0,1,2,0v4.1A1,1,0,0,1,60.41,99.33Z"/><path class="cls-5" d="M48.12,99.33a1,1,0,0,1-1-1v-4.1a1,1,0,0,1,2,0v4.1A1,1,0,0,1,48.12,99.33Z"/><path class="cls-5" d="M64.51,107.52H44a1,1,0,1,1,0-2H64.51a1,1,0,0,1,0,2Z"/><path class="cls-5" d="M64.51,111.62H44a1,1,0,1,1,0-2.05H64.51a1,1,0,0,1,0,2.05Z"/><path class="cls-5" d="M57.34,111.62a1,1,0,0,1-1-1V106.5a1,1,0,1,1,2,0v4.09A1,1,0,0,1,57.34,111.62Z"/><path class="cls-5" d="M63.48,111.62a1,1,0,0,1-1-1V106.5a1,1,0,1,1,2.05,0v4.09A1,1,0,0,1,63.48,111.62Z"/><path class="cls-5" d="M45.05,111.62a1,1,0,0,1-1-1V106.5a1,1,0,1,1,2,0v4.09A1,1,0,0,1,45.05,111.62Z"/><path class="cls-5" d="M51.2,111.62a1,1,0,0,1-1-1V106.5a1,1,0,1,1,2,0v4.09A1,1,0,0,1,51.2,111.62Z"/><path class="cls-5" d="M54.27,107.52a1,1,0,0,1-1-1v-4.1a1,1,0,0,1,2,0v4.1A1,1,0,0,1,54.27,107.52Z"/><path class="cls-5" d="M60.41,107.52a1,1,0,0,1-1-1v-4.1a1,1,0,0,1,2,0v4.1A1,1,0,0,1,60.41,107.52Z"/><path class="cls-5" d="M48.12,107.52a1,1,0,0,1-1-1v-4.1a1,1,0,0,1,2,0v4.1A1,1,0,0,1,48.12,107.52Z"/><path class="cls-5" d="M64.51,115.71H44a1,1,0,1,1,0-2H64.51a1,1,0,1,1,0,2Z"/><path class="cls-5" d="M64.51,119.81H44a1,1,0,1,1,0-2H64.51a1,1,0,0,1,0,2Z"/><path class="cls-5" d="M57.34,119.81a1,1,0,0,1-1-1v-4.09a1,1,0,0,1,2,0v4.09A1,1,0,0,1,57.34,119.81Z"/><path class="cls-5" d="M63.48,119.81a1,1,0,0,1-1-1v-4.09a1,1,0,0,1,2.05,0v4.09A1,1,0,0,1,63.48,119.81Z"/><path class="cls-5" d="M45.05,119.81a1,1,0,0,1-1-1v-4.09a1,1,0,0,1,2,0v4.09A1,1,0,0,1,45.05,119.81Z"/><path class="cls-5" d="M51.2,119.81a1,1,0,0,1-1-1v-4.09a1,1,0,0,1,2,0v4.09A1,1,0,0,1,51.2,119.81Z"/><path class="cls-5" d="M54.27,115.71a1,1,0,0,1-1-1v-4.1a1,1,0,0,1,2,0v4.1A1,1,0,0,1,54.27,115.71Z"/><path class="cls-5" d="M60.41,115.71a1,1,0,0,1-1-1v-4.1a1,1,0,0,1,2,0v4.1A1,1,0,0,1,60.41,115.71Z"/><path class="cls-5" d="M48.12,115.71a1,1,0,0,1-1-1v-4.1a1,1,0,0,1,2,0v4.1A1,1,0,0,1,48.12,115.71Z"/><path class="cls-5" d="M64.51,123.9H44a1,1,0,1,1,0-2H64.51a1,1,0,1,1,0,2Z"/><path class="cls-5" d="M57.34,128a1,1,0,0,1-1-1v-4.1a1,1,0,1,1,2,0V127A1,1,0,0,1,57.34,128Z"/><path class="cls-5" d="M63.48,128a1,1,0,0,1-1-1v-4.1a1,1,0,0,1,2.05,0V127A1,1,0,0,1,63.48,128Z"/><path class="cls-5" d="M45.05,128a1,1,0,0,1-1-1v-4.1a1,1,0,0,1,2,0V127A1,1,0,0,1,45.05,128Z"/><path class="cls-5" d="M51.2,128a1,1,0,0,1-1-1v-4.1a1,1,0,0,1,2,0V127A1,1,0,0,1,51.2,128Z"/><path class="cls-5" d="M54.27,123.9a1,1,0,0,1-1-1v-4.1a1,1,0,0,1,2,0v4.1A1,1,0,0,1,54.27,123.9Z"/><path class="cls-5" d="M60.41,123.9a1,1,0,0,1-1-1v-4.1a1,1,0,0,1,2,0v4.1A1,1,0,0,1,60.41,123.9Z"/><path class="cls-5" d="M48.12,123.9a1,1,0,0,1-1-1v-4.1a1,1,0,0,1,2,0v4.1A1,1,0,0,1,48.12,123.9Z"/></g><rect class="cls-4" x="71.67" y="100.35" width="40.96" height="26.62"/><g class="cls-1"><rect class="cls-13" x="71.67" y="100.35" width="40.96" height="3.07"/></g><path class="cls-5" d="M112.63,128h-41a1,1,0,0,1-1-1V100.35a1,1,0,0,1,1-1h41a1,1,0,0,1,1,1V127A1,1,0,0,1,112.63,128ZM72.7,126h38.91V101.38H72.7Z"/><g class="cls-20"><path class="cls-5" d="M108.54,112.64H75.77a1,1,0,0,1,0-2h32.77a1,1,0,0,1,0,2Z"/><path class="cls-5" d="M108.54,115.71H75.77a1,1,0,1,1,0-2h32.77a1,1,0,1,1,0,2Z"/><path class="cls-5" d="M108.54,118.78H75.77a1,1,0,0,1,0-2h32.77a1,1,0,0,1,0,2Z"/><path class="cls-5" d="M108.54,121.86H75.77a1,1,0,0,1,0-2h32.77a1,1,0,0,1,0,2Z"/><path class="cls-5" d="M93.79,124.93H90.51a1,1,0,0,1,0-2.05h3.28a1,1,0,1,1,0,2.05Z"/></g><rect class="cls-21" x="100.34" y="104.45" width="8.19" height="3.07"/><path class="cls-5" d="M108.54,108.55h-8.2a1,1,0,0,1-1-1v-3.07a1,1,0,0,1,1-1h8.2a1,1,0,0,1,1,1v3.07A1,1,0,0,1,108.54,108.55Zm-7.17-2h6.14v-1h-6.14Z"/><rect class="cls-21" x="88.06" y="104.45" width="8.19" height="3.07"/><path class="cls-5" d="M96.25,108.55H88.06a1,1,0,0,1-1-1v-3.07a1,1,0,0,1,1-1h8.19a1,1,0,0,1,1,1v3.07A1,1,0,0,1,96.25,108.55Zm-7.17-2h6.14v-1H89.08Z"/><rect class="cls-21" x="75.77" y="104.45" width="8.19" height="3.07"/><path class="cls-5" d="M84,108.55H75.77a1,1,0,0,1-1-1v-3.07a1,1,0,0,1,1-1H84a1,1,0,0,1,1,1v3.07A1,1,0,0,1,84,108.55Zm-7.17-2h6.15v-1H76.79Z"/><path class="cls-10" d="M47.1,122.88a3.06,3.06,0,0,1,1.15.23A3.06,3.06,0,0,1,52,121a3.39,3.39,0,0,1,.91.41,5.12,5.12,0,0,1,9.13.54,2.81,2.81,0,0,1,.41,0,4.1,4.1,0,0,1,4.1,4.09v1H44v-1a3.07,3.07,0,0,1,3-3.11Z"/><path class="cls-5" d="M66.55,128H44a1,1,0,0,1-1-1v-1a4.1,4.1,0,0,1,4.1-4.09,2.44,2.44,0,0,1,.54,0,4.1,4.1,0,0,1,5-1.85,6.13,6.13,0,0,1,8.64-.88,5.88,5.88,0,0,1,1.43,1.67,5.12,5.12,0,0,1,4.92,5.12v1a1,1,0,0,1-1,1Zm-21.5-2H65.53a3.07,3.07,0,0,0-3.07-3.07h-.31a1,1,0,0,1-1-.61,4.11,4.11,0,0,0-7.32-.41,1,1,0,0,1-1.4.38l-.07,0a2.06,2.06,0,0,0-2.83.63,2.61,2.61,0,0,0-.24.54,1,1,0,0,1-1.25.73l-.12,0a2.06,2.06,0,0,0-2.69,1.08A2.3,2.3,0,0,0,45.05,126Z"/><path class="cls-5" d="M56.19,124a1,1,0,0,1-.61-1.85A2.87,2.87,0,0,1,59,122a1,1,0,0,1,.42,1.38,1,1,0,0,1-1.38.43l-.13-.08c-.33-.22-.63-.26-1.13.11A1,1,0,0,1,56.19,124Z"/></g></g></svg>