<svg xmlns="http://www.w3.org/2000/svg" viewBox="0 0 120.66 18.73"><defs><style>.cls-1{fill:#0c4569;}</style></defs><title>stars</title><g id="Layer_2" data-name="Layer 2"><g id="Artwork"><polygon class="cls-1" points="110.81 0 113.86 6.17 120.66 7.15 115.74 11.95 116.9 18.73 110.81 15.53 104.73 18.73 105.89 11.95 100.97 7.15 107.77 6.17 110.81 0"/><polygon class="cls-1" points="85.57 0 88.62 6.17 95.42 7.15 90.5 11.95 91.66 18.73 85.57 15.53 79.49 18.73 80.65 11.95 75.73 7.15 82.53 6.17 85.57 0"/><polygon class="cls-1" points="60.33 0 63.37 6.17 70.18 7.15 65.25 11.95 66.42 18.73 60.33 15.53 54.25 18.73 55.41 11.95 50.48 7.15 57.29 6.17 60.33 0"/><polygon class="cls-1" points="35.09 0 38.13 6.17 44.93 7.15 40.01 11.95 41.17 18.73 35.09 15.53 29 18.73 30.16 11.95 25.24 7.15 32.05 6.17 35.09 0"/><polygon class="cls-1" points="9.85 0 12.89 6.17 19.69 7.15 14.77 11.95 15.93 18.73 9.85 15.53 3.76 18.73 4.92 11.95 0 7.15 6.8 6.17 9.85 0"/></g></g></svg>